<svg width="108" height="33" viewBox="0 0 108 33" fill="none" xmlns="http://www.w3.org/2000/svg">
<path d="M97.0176 21.4453H98.9478V27.3399C98.9478 27.5934 98.9449 27.8723 98.939 28.1765C98.9331 28.4808 98.9214 28.7774 98.9038 29.0664C98.892 29.3554 98.8802 29.6141 98.8685 29.8422C98.8567 30.0653 98.845 30.2276 98.8332 30.329H98.8949L105.452 21.4453H107.912V32.5651H105.999V26.7162C105.999 26.4424 106.005 26.1458 106.017 25.8263C106.028 25.5069 106.043 25.1976 106.061 24.8984C106.078 24.5992 106.096 24.3356 106.114 24.1074C106.131 23.8792 106.143 23.7169 106.149 23.6206H106.069L99.4943 32.5651H97.0176V21.4453Z" fill="black" fill-opacity="0.34"/>
<path d="M82.7207 21.4453H84.6509V27.3399C84.6509 27.5934 84.648 27.8723 84.6421 28.1765C84.6363 28.4808 84.6245 28.7774 84.6069 29.0664C84.5951 29.3554 84.5834 29.6141 84.5716 29.8422C84.5599 30.0653 84.5481 30.2276 84.5364 30.329H84.5981L91.1556 21.4453H93.6147V32.5651H91.7021V26.7162C91.7021 26.4424 91.7079 26.1458 91.7197 25.8263C91.7314 25.5069 91.7461 25.1976 91.7638 24.8984C91.7814 24.5992 91.799 24.3356 91.8166 24.1074C91.8343 23.8792 91.846 23.7169 91.8519 23.6206H91.7726L85.1974 32.5651H82.7207V21.4453Z" fill="black" fill-opacity="0.34"/>
<path d="M79.3011 32.5651H77.1946V27.5452H71.254V32.5651H69.1387V21.4453H71.254V25.9936H77.1946V21.4453H79.3011V32.5651Z" fill="black" fill-opacity="0.34"/>
<path d="M65.1904 32.5678L63.93 29.4798H59.003L57.7426 32.5678H55.5127L60.3075 21.4023H62.652L67.4379 32.5678H65.1904ZM63.3835 27.913L62.1584 24.8706C62.1114 24.7388 62.0438 24.5537 61.9557 24.3154C61.8675 24.072 61.7794 23.8261 61.6912 23.5776C61.6031 23.3241 61.5296 23.1111 61.4709 22.9387C61.4121 23.1466 61.3387 23.3799 61.2505 23.6385C61.1683 23.892 61.086 24.1303 61.0038 24.3534C60.9274 24.5765 60.8686 24.7489 60.8275 24.8706L59.5935 27.913H63.3835Z" fill="black" fill-opacity="0.34"/>
<path d="M43.8965 32.5651V21.4453H53.7945V32.5651H51.6968V22.9969H46.0118V32.5651H43.8965Z" fill="black" fill-opacity="0.34"/>
<path d="M32.8174 32.5651L29.1068 23.2783H29.0275C29.0451 23.4862 29.0656 23.7702 29.0892 24.1302C29.1127 24.4902 29.1332 24.8756 29.1508 25.2863C29.1685 25.697 29.1773 26.09 29.1773 26.4652V32.5651H27.2559V21.4453H30.2261L33.7958 30.3214H33.8487L37.5417 21.4453H40.5031V32.5651H38.4848V26.3739C38.4848 26.0342 38.4906 25.6666 38.5024 25.2711C38.52 24.8756 38.5376 24.5003 38.5553 24.1454C38.5788 23.7905 38.5964 23.5065 38.6082 23.2935H38.5376L34.686 32.5651H32.8174Z" fill="black" fill-opacity="0.34"/>
<path d="M24.4871 26.9931C24.4871 27.85 24.3608 28.6309 24.1081 29.3357C23.8613 30.0354 23.4882 30.6388 22.9887 31.1459C22.4893 31.6479 21.8635 32.0358 21.1114 32.3096C20.3593 32.5834 19.4779 32.7203 18.4672 32.7203C17.4389 32.7203 16.5458 32.5834 15.7878 32.3096C15.0357 32.0358 14.4099 31.6454 13.9104 31.1383C13.4168 30.6312 13.0467 30.0253 12.7999 29.3205C12.5531 28.6157 12.4297 27.8348 12.4297 26.9779C12.4297 25.8319 12.6471 24.833 13.0819 23.9811C13.5226 23.1242 14.1895 22.46 15.0827 21.9884C15.9817 21.5118 17.1157 21.2734 18.4848 21.2734C19.8245 21.2734 20.938 21.5092 21.8253 21.9808C22.7126 22.4524 23.3765 23.1166 23.8172 23.9735C24.2638 24.8254 24.4871 25.8319 24.4871 26.9931ZM14.6508 26.9931C14.6508 27.85 14.7859 28.5928 15.0562 29.2216C15.3265 29.8453 15.7408 30.327 16.299 30.6667C16.8631 31.0014 17.5858 31.1687 18.4672 31.1687C19.3545 31.1687 20.0772 31.0014 20.6354 30.6667C21.1936 30.327 21.605 29.8453 21.8694 29.2216C22.1338 28.5928 22.266 27.85 22.266 26.9931C22.266 25.6899 21.9634 24.6707 21.3582 23.9355C20.7588 23.1952 19.801 22.825 18.4848 22.825C17.6034 22.825 16.8778 22.9924 16.3078 23.327C15.7437 23.6617 15.3265 24.1409 15.0562 24.7645C14.7859 25.3832 14.6508 26.126 14.6508 26.9931Z" fill="black" fill-opacity="0.34"/>
<path d="M11.3374 32.5651H8.87831L3.58116 26.9216V32.5651H1.46582V21.4453H3.58116V26.8303L8.78136 21.4453H11.0906L5.8904 26.8151L11.3374 32.5651Z" fill="black" fill-opacity="0.34"/>
<path d="M94.9375 14.1048V0.925781H107.452V14.1048H103.294V3.83743H99.0846V14.1048H94.9375Z" fill="black" fill-opacity="0.34"/>
<path d="M76.8447 0.925781H80.6889V6.95642C80.6889 7.22685 80.6854 7.5123 80.6784 7.81278C80.6715 8.10725 80.661 8.39872 80.6471 8.68718C80.6332 8.97564 80.6158 9.24908 80.5949 9.50749C80.574 9.7659 80.5496 9.99427 80.5218 10.1926H80.6053L86.8939 0.925781H91.626V14.1048H87.7713V8.39872C87.7713 8.15233 87.7748 7.87288 87.7818 7.56038C87.7957 7.24788 87.8097 6.92637 87.8236 6.59584C87.8445 6.26531 87.8654 5.9468 87.8863 5.64031C87.9141 5.33382 87.942 5.0664 87.9698 4.83803H87.8758L81.5873 14.1048H76.8447V0.925781Z" fill="black" fill-opacity="0.34"/>
<path d="M70.9424 14.1048H66.8162V3.83743H63.0869V0.925781H74.6612V3.83743H70.9424V14.1048Z" fill="black" fill-opacity="0.34"/>
<path d="M61.4471 7.49758C61.4471 8.5132 61.3044 9.43868 61.0188 10.274C60.7403 11.1033 60.3015 11.8185 59.7026 12.4194C59.1037 13.0204 58.3342 13.4831 57.394 13.8077C56.4539 14.1262 55.3292 14.2854 54.02 14.2854C52.7386 14.2854 51.6278 14.1262 50.6876 13.8077C49.7545 13.4831 48.9849 13.0234 48.3791 12.4285C47.7732 11.8275 47.324 11.1094 47.0315 10.274C46.739 9.43868 46.5928 8.50719 46.5928 7.47955C46.5928 6.10936 46.8539 4.91946 47.3762 3.90985C47.9055 2.89423 48.7203 2.10997 49.8206 1.55709C50.9209 0.998196 52.3277 0.71875 54.0408 0.71875C55.7819 0.71875 57.1956 0.998196 58.282 1.55709C59.3753 2.11598 60.1762 2.90324 60.6846 3.91886C61.1929 4.93449 61.4471 6.12739 61.4471 7.49758ZM50.9384 7.49758C50.9384 8.29085 51.0428 8.97294 51.2517 9.54385C51.4607 10.1148 51.7914 10.5535 52.2441 10.86C52.6968 11.1664 53.2887 11.3197 54.02 11.3197C54.779 11.3197 55.3814 11.1664 55.8271 10.86C56.2798 10.5535 56.6036 10.1148 56.7986 9.54385C57.0006 8.97294 57.1016 8.29085 57.1016 7.49758C57.1016 6.30768 56.8717 5.36718 56.4121 4.67607C55.9525 3.98497 55.1621 3.63942 54.0408 3.63942C53.2957 3.63942 52.6933 3.79567 52.2337 4.10816C51.781 4.42066 51.4502 4.86537 51.2413 5.4423C51.0393 6.01922 50.9384 6.70431 50.9384 7.49758Z" fill="black" fill-opacity="0.34"/>
<path d="M44.973 0.925781V3.80138H38.9352V14.1048H34.7881V0.925781H44.973Z" fill="black" fill-opacity="0.34"/>
<path d="M32.0311 7.49758C32.0311 8.5132 31.8883 9.43868 31.6028 10.274C31.3243 11.1033 30.8855 11.8185 30.2866 12.4194C29.6877 13.0204 28.9182 13.4831 27.978 13.8077C27.0379 14.1262 25.9132 14.2854 24.6039 14.2854C23.3225 14.2854 22.2118 14.1262 21.2716 13.8077C20.3384 13.4831 19.5689 13.0234 18.963 12.4285C18.3572 11.8275 17.908 11.1094 17.6155 10.274C17.323 9.43868 17.1768 8.50719 17.1768 7.47955C17.1768 6.10936 17.4379 4.91946 17.9602 3.90985C18.4895 2.89423 19.3043 2.10997 20.4046 1.55709C21.5049 0.998196 22.9117 0.71875 24.6248 0.71875C26.3658 0.71875 27.7795 0.998196 28.8659 1.55709C29.9593 2.11598 30.7602 2.90324 31.2685 3.91886C31.7769 4.93449 32.0311 6.12739 32.0311 7.49758ZM21.5223 7.49758C21.5223 8.29085 21.6268 8.97294 21.8357 9.54385C22.0446 10.1148 22.3754 10.5535 22.8281 10.86C23.2808 11.1664 23.8727 11.3197 24.6039 11.3197C25.363 11.3197 25.9654 11.1664 26.4111 10.86C26.8638 10.5535 27.1876 10.1148 27.3826 9.54385C27.5846 8.97294 27.6855 8.29085 27.6855 7.49758C27.6855 6.30768 27.4557 5.36718 26.9961 4.67607C26.5365 3.98497 25.746 3.63942 24.6248 3.63942C23.8797 3.63942 23.2773 3.79567 22.8177 4.10816C22.365 4.42066 22.0342 4.86537 21.8253 5.4423C21.6233 6.01922 21.5223 6.70431 21.5223 7.49758Z" fill="black" fill-opacity="0.34"/>
<path d="M14.4289 14.1048H10.2818V3.83743H7.36734C7.31859 4.33022 7.25244 4.88611 7.16887 5.5051C7.0853 6.11808 6.99128 6.74908 6.88682 7.39812C6.78932 8.04115 6.68486 8.66014 6.57344 9.25509C6.46201 9.85004 6.34711 10.3699 6.22872 10.8146C6.04765 11.5417 5.77953 12.1637 5.42437 12.6806C5.07616 13.1974 4.59913 13.594 3.99325 13.8705C3.38738 14.1469 2.6074 14.2851 1.65333 14.2851C1.34691 14.2851 1.06138 14.2671 0.796745 14.231C0.53211 14.195 0.277922 14.1469 0.0341797 14.0868V11.3374C0.222209 11.3915 0.396311 11.4366 0.556485 11.4726C0.716658 11.5027 0.883796 11.5177 1.0579 11.5177C1.28771 11.5177 1.48967 11.4606 1.66377 11.3464C1.84484 11.2322 2.01197 10.9828 2.16518 10.5982C2.32536 10.2136 2.48205 9.62167 2.63526 8.8224C2.69097 8.56398 2.76409 8.17937 2.85463 7.66855C2.94516 7.15173 3.04614 6.54175 3.15756 5.83863C3.27595 5.13551 3.39434 4.36628 3.51273 3.53094C3.63808 2.69561 3.75996 1.82722 3.87834 0.925781H14.4289V14.1048Z" fill="black" fill-opacity="0.34"/>
</svg>
