<svg width="101" height="101" viewBox="0 0 101 101" fill="none" xmlns="http://www.w3.org/2000/svg">
<path d="M50.5157 0.818359C50.777 0.830363 50.917 1.02562 51.0774 1.18327C53.9952 4.04892 56.9105 6.91536 59.8274 9.78261C73.4107 23.1354 86.9949 36.4873 100.579 49.8393C101.142 50.393 101.142 50.5035 100.567 51.0692C84.0763 67.278 67.5858 83.4868 51.0945 99.6956C50.5694 100.212 50.4269 100.215 49.9311 99.7276C33.4301 83.5092 16.9306 67.29 0.430371 51.0708C0.372569 51.014 0.314768 50.958 0.258595 50.9004C-0.0873995 50.5427 -0.0890277 50.3394 0.270806 49.9833C1.22738 49.0374 2.18883 48.0963 3.14785 47.1537C18.7363 31.8299 34.3248 16.507 49.9141 1.18487C50.0842 1.01762 50.2332 0.810357 50.5157 0.81916V0.818359ZM57.4274 92.7968C57.6627 92.7688 57.7286 92.6391 57.8182 92.5511C62.2803 88.1682 66.74 83.7837 71.2004 79.3992C75.8237 74.8547 80.447 70.3101 85.0703 65.7664C90.1349 60.7881 95.2002 55.8098 100.265 50.8316C100.645 50.4578 100.645 50.4378 100.27 50.0681C99.1958 49.0118 98.1171 47.9595 97.0482 46.8984C96.8748 46.7255 96.7804 46.6695 96.5866 46.8984C94.128 49.7953 91.6556 52.6809 89.1897 55.5722C86.2011 59.0756 83.2166 62.5838 80.2264 66.0857C76.4424 70.5174 72.6528 74.9443 68.8688 79.3752C65.5115 83.306 62.1574 87.2391 58.8024 91.1715C58.3555 91.6956 57.9126 92.2222 57.4266 92.7976L57.4274 92.7968ZM93.9945 43.9799C94.0157 43.9551 94.0369 43.9311 94.058 43.9063C93.9725 43.8407 93.8789 43.7831 93.8032 43.7079C81.8684 31.9796 69.9353 20.2497 58.0022 8.52064C55.6136 6.17274 53.2234 3.82645 50.8405 1.47375C50.6142 1.24969 50.4628 1.15926 50.1868 1.43694C49.0894 2.54527 47.97 3.63359 46.8514 4.72111C46.6878 4.88036 46.6764 4.96839 46.8636 5.12123C48.9363 6.82014 51.0025 8.52704 53.0703 10.2315C57.2166 13.6494 61.3628 17.0672 65.5082 20.4858C69.3109 23.6219 73.1136 26.758 76.9154 29.8942C79.8763 32.3365 82.8356 34.7804 85.7965 37.2219C88.5286 39.4746 91.2616 41.7265 93.9945 43.9783V43.9799ZM7.0067 56.9182C6.98716 56.9414 6.96844 56.9638 6.9489 56.987C7.05229 57.0734 7.16138 57.1526 7.25663 57.2463C16.4747 66.3057 25.6928 75.366 34.9101 84.4263C39.9934 89.423 45.0766 94.4205 50.1575 99.4203C50.3602 99.6196 50.5067 99.758 50.7794 99.4843C51.8891 98.3696 53.0158 97.2701 54.1441 96.173C54.3078 96.0137 54.3192 95.9329 54.1295 95.7769C52.0779 94.0948 50.0362 92.4015 47.9895 90.7146C44.1966 87.5888 40.4012 84.4663 36.6091 81.339C32.0998 77.6211 27.5938 73.9 23.0861 70.1813C20.52 68.0647 17.9515 65.9512 15.3863 63.8346C12.5923 61.5299 9.80071 59.2236 7.00833 56.9174L7.0067 56.9182ZM43.9149 7.68999C43.9043 7.67959 43.8938 7.66919 43.8832 7.65878C43.7806 7.75481 43.6756 7.84924 43.5746 7.94847C32.0054 19.3198 20.437 30.6912 8.86774 42.0634C6.13398 44.7506 3.39941 47.4378 0.667275 50.1265C0.511781 50.2794 0.283018 50.4018 0.558999 50.6691C1.7191 51.7918 2.8678 52.9258 4.01406 54.0613C4.15734 54.2038 4.22247 54.1894 4.35354 54.0357C7.05311 50.8676 9.76244 47.7074 12.4645 44.5409C17.0405 39.1785 21.6109 33.8121 26.187 28.4505C30.8941 22.9353 35.6045 17.4233 40.3133 11.9096C41.5141 10.5036 42.7141 9.09681 43.9149 7.68999ZM89.2011 40.6317C89.2149 40.6133 89.2288 40.5957 89.2434 40.5773C89.1237 40.4749 89.0057 40.3709 88.8844 40.2708C85.2804 37.298 81.6747 34.3259 78.0706 31.3522C73.5735 27.6415 69.0781 23.9292 64.581 20.2185C61.4646 17.6481 58.3465 15.0794 55.2301 12.5098C52.4247 10.1971 49.6161 7.88925 46.8205 5.56536C46.5339 5.32689 46.3857 5.37411 46.1716 5.63018C45.3103 6.65929 44.4441 7.68519 43.5551 8.69189C43.3011 8.97997 43.3752 9.10721 43.6552 9.29767C45.2077 10.3492 46.7496 11.4151 48.2932 12.4786C55.9352 17.7402 63.5772 23.0025 71.2192 28.2641C76.3293 31.7819 81.4394 35.2998 86.5495 38.816C87.432 39.4234 88.317 40.026 89.2011 40.6309V40.6317ZM40.4428 12.497C40.42 12.4818 40.3972 12.4658 40.3744 12.4506C40.1546 12.7019 39.9323 12.9515 39.7158 13.206C36.3771 17.1176 33.0393 21.0299 29.7007 24.9407C26.0999 29.1579 22.4975 33.3744 18.8967 37.5916C15.8454 41.1663 12.7974 44.7426 9.74616 48.3172C8.13342 50.2066 6.51743 52.0927 4.90469 53.9821C4.54892 54.399 4.55299 54.4022 4.9861 54.7575C6.00617 55.5954 7.03357 56.4244 8.04061 57.2767C8.31008 57.5047 8.42976 57.4631 8.61781 57.1878C9.22921 56.2908 9.86991 55.4129 10.5 54.5278C15.4343 47.6042 20.3694 40.6822 25.3037 33.7585C29.4206 27.9816 33.5351 22.2031 37.6504 16.4254C38.5825 15.1162 39.5122 13.8062 40.4436 12.4962L40.4428 12.497ZM60.4844 88.4875C60.5031 88.5011 60.5218 88.5147 60.5397 88.5275C60.5918 88.4715 60.6472 88.4171 60.6969 88.3587C63.5316 85.0409 66.3671 81.7223 69.201 78.4037C73.7355 73.0933 78.2701 67.783 82.803 62.471C87.2489 57.2615 91.6882 52.0471 96.1429 46.8448C96.401 46.5439 96.344 46.4038 96.0705 46.1838C95.083 45.3907 94.1183 44.5705 93.1332 43.7751C92.5552 43.3077 92.7034 43.2677 92.2597 43.8727C92.1408 44.0351 92.022 44.1968 91.9047 44.3608C87.3531 50.7507 82.8014 57.1406 78.2498 63.5313C72.5006 71.6041 66.7514 79.6769 61.003 87.7505C60.8287 87.9953 60.657 88.241 60.4844 88.4867V88.4875ZM11.8099 60.2703C11.7928 60.2864 11.7749 60.3032 11.7578 60.3192C11.8156 60.3736 11.8702 60.4312 11.9312 60.4816C13.1882 61.5195 14.4452 62.5566 15.703 63.5929C19.1328 66.4202 22.5626 69.2466 25.9924 72.0746C29.9726 75.3564 33.9511 78.6398 37.9304 81.9224C40.8913 84.3655 43.8522 86.8086 46.8131 89.2509C49.2758 91.2819 51.7417 93.3089 54.1995 95.3455C54.416 95.5248 54.5512 95.5752 54.7572 95.3279C55.6266 94.2876 56.5059 93.2545 57.3997 92.2342C57.6472 91.9525 57.6716 91.8133 57.3208 91.5772C55.406 90.2904 53.5108 88.9756 51.6106 87.6673C46.4435 84.1102 41.2788 80.55 36.1117 76.9929C31.245 73.6423 26.3767 70.2941 21.5083 66.9443C18.2747 64.7197 15.0419 62.4934 11.8091 60.2687L11.8099 60.2703ZM85.0272 38.3079C85.041 38.2934 85.054 38.2798 85.0679 38.2654C83.8256 37.4092 82.5824 36.5529 81.3393 35.6975C76.5068 32.3717 71.6742 29.0451 66.8409 25.7193C61.9302 22.3399 57.0187 18.9613 52.1089 15.5819C49.2652 13.6245 46.4224 11.6648 43.5787 9.70659C43.1326 9.3993 43.1285 9.3993 42.8094 9.84743C42.1174 10.8197 41.4352 11.7992 40.731 12.7619C40.5551 13.002 40.5991 13.1012 40.8433 13.2396C46.1317 16.2333 51.4153 19.2342 56.7004 22.2327C63.5006 26.0914 70.3008 29.9494 77.1011 33.8081C79.7436 35.3078 82.3846 36.8082 85.0264 38.3087L85.0272 38.3079ZM38.0005 16.7351C37.9809 16.7231 37.9614 16.7111 37.9427 16.6991C37.8564 16.8143 37.7676 16.9279 37.6846 17.0448C35.1177 20.649 32.5525 24.2541 29.9856 27.8592C26.7194 32.4469 23.454 37.0355 20.1854 41.6216C16.4422 46.8736 12.6973 52.1247 8.9459 57.3711C8.77005 57.6176 8.79854 57.7376 9.04929 57.9048C10.0262 58.5554 10.9885 59.2268 11.9532 59.8942C12.4539 60.2407 12.4514 60.2455 12.751 59.7358C15.834 54.4814 18.9154 49.2255 22.0009 43.9727C26.993 35.4758 31.9875 26.9813 36.9812 18.4852C37.3231 17.9026 37.661 17.3184 38.0005 16.7343V16.7351ZM16.2101 62.7303C16.1963 62.7511 16.1825 62.7719 16.1694 62.7927C16.8622 63.2704 17.555 63.7482 18.2487 64.2259C24.6378 68.624 31.0268 73.0221 37.4159 77.4194C42.4381 80.8764 47.4612 84.3327 52.4834 87.7897C54.1612 88.9444 55.8375 90.1016 57.5153 91.2563C57.6904 91.3772 57.841 91.5372 58.0421 91.2459C58.7577 90.2088 59.4887 89.1813 60.2296 88.1618C60.4331 87.8817 60.3378 87.7609 60.0741 87.612C55.2082 84.8568 50.3472 82.0944 45.4837 79.3352C36.5326 74.2561 27.5816 69.1778 18.6297 64.0995C17.8237 63.6425 17.0161 63.1872 16.2093 62.7311L16.2101 62.7303ZM63.0586 84.0342C63.2247 84.0166 63.2507 83.9149 63.3012 83.8453C64.0738 82.7658 64.8447 81.6847 65.614 80.6036C68.5228 76.5184 71.4308 72.4315 74.3396 68.3463C78.6877 62.2405 83.0359 56.1347 87.3848 50.0289C88.9332 47.8555 90.48 45.6812 92.0358 43.5134C92.1905 43.2981 92.2198 43.1765 91.9658 43.0068C90.9123 42.301 89.8678 41.5808 88.8339 40.8486C88.5881 40.6742 88.4822 40.719 88.3471 40.9622C87.9824 41.6168 87.5957 42.2594 87.2155 42.906C83.7678 48.7701 80.3184 54.6327 76.8731 60.4976C72.8099 67.4133 68.7508 74.3305 64.69 81.2478C64.1511 82.1664 63.6138 83.0859 63.0586 84.035V84.0342ZM20.3678 64.5596C20.3588 64.5764 20.3499 64.594 20.3409 64.6108C20.4899 64.6997 20.6364 64.7925 20.787 64.8781C26.4491 68.0911 32.112 71.3032 37.7741 74.5162C43.0251 77.4962 48.2761 80.4763 53.5262 83.4564C55.7577 84.7232 57.9932 85.9844 60.2174 87.2631C60.5129 87.4336 60.6391 87.3944 60.8027 87.1047C61.3408 86.1484 61.9042 85.2049 62.4692 84.263C62.6133 84.023 62.588 83.9013 62.3161 83.7797C61.1438 83.2547 59.9813 82.7082 58.8138 82.1728C52.2733 79.1767 45.732 76.1831 39.1923 73.1862C33.7101 70.6734 28.2296 68.1567 22.7474 65.6423C21.9553 65.279 21.1607 64.9197 20.367 64.5588L20.3678 64.5596ZM64.8032 80.1634C64.8187 80.1714 64.835 80.1802 64.8504 80.1882C64.8765 80.1474 64.9033 80.1074 64.9278 80.0658C66.4746 77.433 68.0205 74.801 69.5665 72.1683C72.8824 66.5218 76.1966 60.8745 79.5141 55.2297C82.3154 50.4618 85.1175 45.694 87.9278 40.9302C88.0996 40.6397 88.0963 40.4805 87.7715 40.3036C86.7978 39.7755 85.838 39.2225 84.8823 38.6648C84.6356 38.5207 84.5363 38.5487 84.4109 38.8168C83.088 41.6376 81.7512 44.4521 80.4145 47.2665C78.3947 51.5182 76.37 55.7682 74.351 60.0199C71.5464 65.9272 68.7443 71.8354 65.9421 77.7443C65.5603 78.5494 65.1834 79.3568 64.8048 80.1634H64.8032ZM80.7767 36.4081C80.7865 36.3937 80.7971 36.3793 80.8069 36.3649C80.7613 36.3377 80.7173 36.3097 80.6709 36.2841C77.2997 34.3707 73.9285 32.4581 70.5581 30.5448C65.5196 27.6847 60.4803 24.8255 55.4418 21.9654C50.5442 19.1854 45.6457 16.407 40.7538 13.6181C40.4664 13.4541 40.3443 13.5093 40.1936 13.7726C39.6637 14.7033 39.128 15.6315 38.5638 16.5414C38.3701 16.8535 38.3806 16.9815 38.7413 17.1456C42.373 18.7941 45.9966 20.461 49.6218 22.1239C53.1363 23.7363 56.65 25.3512 60.1644 26.9629C64.8097 29.0931 69.4566 31.2218 74.1027 33.3512C76.3268 34.3707 78.5518 35.3894 80.7759 36.4081H80.7767ZM36.0596 21.0027C36.0409 20.9867 36.0222 20.9715 36.0043 20.9555C35.9334 21.0659 35.8577 21.1732 35.7918 21.286C33.6751 24.8879 31.5584 28.4905 29.4426 32.0924C25.6041 38.6279 21.7664 45.1635 17.9279 51.699C16.307 54.459 14.6902 57.2206 13.0563 59.9727C12.8731 60.2816 12.9212 60.4208 13.2248 60.5864C14.161 61.0986 15.0899 61.6243 16.0058 62.1709C16.3412 62.371 16.4772 62.2949 16.6335 61.9621C18.0834 58.8755 19.5472 55.7946 21.0093 52.7145C22.8337 48.8726 24.663 45.033 26.4866 41.1911C28.8369 36.2376 31.184 31.2818 33.5326 26.3275C34.3744 24.5518 35.217 22.7769 36.0596 21.0011V21.0027ZM76.5491 34.9741C76.5556 34.9573 76.5621 34.9405 76.5686 34.9228C76.5353 34.902 76.5035 34.8772 76.4685 34.8612C73.2121 33.3672 69.9557 31.8723 66.6976 30.3799C60.0106 27.3158 53.3219 24.2541 46.6348 21.19C43.9923 19.9792 41.3497 18.7669 38.7112 17.5465C38.3994 17.4025 38.2023 17.3456 38.0306 17.7458C37.6675 18.5924 37.249 19.4167 36.8509 20.2497C36.636 20.6994 36.6352 20.7026 37.0984 20.8683C42.6555 22.8545 48.2126 24.8391 53.7688 26.8269C59.7834 28.9787 65.7972 31.1353 71.8118 33.288C73.3896 33.8529 74.9697 34.4131 76.5483 34.9749L76.5491 34.9741ZM34.7562 24.8367C34.7318 24.8319 34.7074 24.8263 34.6838 24.8215C33.9169 26.4395 33.1516 28.0584 32.3831 29.6765C30.8233 32.9623 29.2602 36.2464 27.7029 39.533C25.2117 44.789 22.7254 50.0473 20.2334 55.3025C19.1564 57.5735 18.0753 59.843 16.9835 62.1077C16.8394 62.407 16.8875 62.5462 17.1985 62.6815C18.0915 63.0696 18.974 63.4801 19.8533 63.8986C20.1398 64.0347 20.2701 63.9939 20.38 63.6826C20.7984 62.499 21.2446 61.3251 21.6809 60.1479C23.9669 53.9725 26.2521 47.7971 28.5381 41.6216C30.0133 37.6389 31.4909 33.6569 32.9668 29.6741C33.5644 28.0616 34.1603 26.4491 34.7571 24.8367H34.7562ZM24.4424 65.9184C24.435 65.9352 24.4277 65.952 24.4196 65.968C24.4619 65.9928 24.5026 66.0208 24.5466 66.0417C28.6993 67.9478 32.8521 69.8548 37.0064 71.7577C42.8322 74.4273 48.6587 77.0945 54.4844 79.7625C57.127 80.9725 59.772 82.1776 62.4097 83.398C62.6906 83.5276 62.8078 83.4764 62.9283 83.2075C63.3118 82.3545 63.7229 81.5134 64.1161 80.6636C64.3392 80.1818 64.3318 80.1802 63.8385 80.0042C60.359 78.763 56.8787 77.5243 53.4009 76.2791C44.6737 73.1558 35.9473 70.03 27.2201 66.9059C26.2953 66.5746 25.368 66.2473 24.4424 65.9176V65.9184ZM66.1717 76.2247L66.2165 76.2439C66.3166 76.031 66.4168 75.8181 66.5185 75.6053C68.3486 71.7537 70.1812 67.9022 72.0096 64.0491C74.7198 58.3362 77.4275 52.6217 80.136 46.908C81.4248 44.1904 82.711 41.4712 84.0112 38.7584C84.1487 38.4711 84.1015 38.3431 83.8093 38.2174C83.0758 37.9037 82.3537 37.5652 81.6307 37.2283C80.7564 36.821 80.758 36.817 80.4259 37.7301C80.3982 37.8053 80.3697 37.8805 80.342 37.9549C77.9518 44.4033 75.5616 50.8524 73.1722 57.3007C71.465 61.9084 69.7586 66.517 68.0531 71.1256C67.4246 72.8245 66.7986 74.525 66.1717 76.2239V76.2247ZM47.2698 45.666C46.8937 45.682 46.993 46.0389 46.9515 46.2598C46.5144 48.6165 46.0992 50.978 45.6652 53.3355C45.6026 53.6764 45.6604 53.838 46.0495 53.9029C48.4527 54.3038 50.8519 54.7295 53.2519 55.1472C53.9349 55.2665 53.9308 55.2673 54.0505 54.5975C54.4616 52.2896 54.8744 49.9825 55.2888 47.6754C55.3995 47.0592 55.4036 47.0624 54.8019 46.9592C53.2682 46.6959 51.7344 46.4303 50.1998 46.167C49.2392 46.0021 48.2785 45.8381 47.269 45.6652L47.2698 45.666ZM72.7269 34.0954C72.7293 34.0746 72.7318 34.0538 72.7342 34.0322C69.7163 32.9511 66.6992 31.8683 63.6805 30.788C58.1259 28.8002 52.5705 26.8149 47.015 24.8279C43.6642 23.6291 40.3125 22.4328 36.9641 21.2268C36.6767 21.1236 36.5326 21.1508 36.426 21.4605C36.1378 22.2927 35.8219 23.1162 35.5052 23.9388C35.4108 24.1829 35.4531 24.2829 35.7283 24.3549C41.1258 25.7681 46.5201 27.191 51.9151 28.613C57.1001 29.9798 62.2852 31.3482 67.4702 32.715C69.2222 33.1767 70.9749 33.6345 72.7269 34.0946V34.0954ZM28.5145 66.8635C28.5064 66.8851 28.4982 66.9067 28.4909 66.9283C28.5845 66.9675 28.6773 67.0115 28.7726 67.046C30.492 67.6637 32.2114 68.2807 33.9316 68.8969C39.4487 70.8711 44.9651 72.8461 50.4831 74.8195C55.0071 76.4367 59.5327 78.0492 64.0534 79.6729C64.3343 79.7737 64.458 79.7361 64.5582 79.448C64.8325 78.6534 65.1199 77.862 65.4374 77.0825C65.5856 76.7184 65.4773 76.5904 65.1215 76.4968C58.7161 74.8163 52.3124 73.1278 45.9087 71.4417C41.1022 70.1757 36.2957 68.9097 31.4892 67.6445C30.4985 67.3837 29.5069 67.1244 28.5153 66.8651L28.5145 66.8635ZM67.195 72.053C67.2211 72.0586 67.2471 72.065 67.2732 72.0706C67.2944 72.0234 67.3172 71.977 67.3351 71.9282C68.3332 69.2354 69.3304 66.5418 70.3277 63.849C72.5356 57.8856 74.7418 51.9223 76.9496 45.9597C78.0348 43.0284 79.1176 40.0964 80.2166 37.1699C80.3436 36.8322 80.2622 36.7042 79.9317 36.5961C79.1347 36.3345 78.3434 36.0528 77.561 35.7495C77.2321 35.6223 77.0994 35.6623 77.0034 36.0232C76.3342 38.5375 75.6405 41.0463 74.9567 43.5566C72.6805 51.9127 70.4042 60.2696 68.128 68.6256C67.817 69.7684 67.5052 70.9111 67.1934 72.0538L67.195 72.053ZM33.8754 28.5266C33.8632 28.5226 33.851 28.5194 33.8379 28.5154C33.8176 28.549 33.7924 28.581 33.7785 28.617C32.0388 33.3144 30.299 38.0126 28.5609 42.7108C26.721 47.685 24.8828 52.6593 23.0421 57.6336C22.2915 59.663 21.5433 61.694 20.7781 63.7186C20.6535 64.0475 20.717 64.1819 21.0598 64.2923C21.8323 64.5412 22.5903 64.8357 23.3547 65.1102C23.8619 65.2918 23.8644 65.291 24.0011 64.7877C25.5813 58.9796 27.159 53.1715 28.7425 47.3641C30.2022 42.0073 31.6684 36.653 33.1297 31.297C33.3812 30.3743 33.6263 29.45 33.8746 28.5274L33.8754 28.5266ZM69.2091 33.6337C69.2124 33.6185 69.2156 33.6033 69.2189 33.5881C69.1554 33.568 69.0935 33.5448 69.0292 33.528C62.7557 31.8779 56.4814 30.2287 50.2079 28.5778C45.4015 27.3126 40.5942 26.049 35.791 24.7726C35.4434 24.6806 35.3017 24.759 35.2203 25.0959C35.0493 25.7953 34.8596 26.4916 34.6504 27.1806C34.5487 27.5159 34.6187 27.6463 34.9883 27.7087C40.4501 28.6426 45.9095 29.5885 51.3689 30.536C56.6418 31.4506 61.9131 32.3709 67.1853 33.288C67.8593 33.4056 68.5351 33.5176 69.2099 33.6321L69.2091 33.6337ZM31.7945 67.2572C31.7905 67.274 31.7864 67.2908 31.7815 67.3068C31.8401 67.326 31.8979 67.3492 31.9574 67.3653C33.5286 67.7782 35.1006 68.1887 36.6718 68.6024C42.2631 70.0748 47.8536 71.5489 53.444 73.0205C57.3721 74.0552 61.3009 75.0851 65.2273 76.127C65.5253 76.2063 65.6718 76.1687 65.75 75.8502C65.9315 75.1123 66.1375 74.3793 66.3492 73.6495C66.4306 73.3686 66.3695 73.2462 66.0577 73.1926C62.2404 72.5372 58.4247 71.8674 54.6082 71.2064C48.1621 70.0893 41.716 68.9761 35.2699 67.8606C34.1107 67.6597 32.9522 67.4581 31.7929 67.2572H31.7945ZM33.3869 32.0628C33.3682 32.0604 33.3503 32.058 33.3316 32.0556C33.0344 33.1495 32.7373 34.2426 32.4393 35.3366C30.8209 41.2703 29.2 47.2033 27.5824 53.137C26.5159 57.0502 25.4576 60.9658 24.3821 64.8765C24.2844 65.2318 24.3553 65.3799 24.7232 65.4631C25.4095 65.6183 26.0869 65.8144 26.7674 65.9952C27.273 66.1297 27.2738 66.1313 27.3642 65.6311C28.1767 61.105 28.9875 56.5781 29.8024 52.0519C30.3357 49.087 30.8762 46.1238 31.4111 43.1589C31.8458 40.7454 32.2773 38.3311 32.708 35.9167C32.9367 34.6324 33.1606 33.3472 33.3869 32.062V32.0628ZM67.6094 68.7689C67.6249 68.7721 67.6404 68.7761 67.6566 68.7793C67.677 68.7313 67.7039 68.6856 67.7177 68.636C68.1532 67.0267 68.5847 65.4167 69.0227 63.8082C70.4922 58.4154 71.9641 53.0234 73.4351 47.6314C74.4886 43.7703 75.5429 39.9099 76.5971 36.0496C76.7306 35.5598 76.7225 35.5502 76.2316 35.423C75.5502 35.2461 74.8639 35.0845 74.1906 34.8812C73.8332 34.7732 73.69 34.8292 73.624 35.2173C73.3318 36.9522 73.0094 38.6816 72.6984 40.4125C71.8997 44.8594 71.1019 49.3063 70.3025 53.7532C69.5787 57.7808 68.855 61.8076 68.1313 65.8352C67.9554 66.8131 67.7828 67.791 67.6094 68.7689ZM65.6963 33.4936C65.693 33.4736 65.6889 33.4536 65.6857 33.4336C65.5799 33.4112 65.4748 33.384 65.3682 33.3656C60.5503 32.5309 55.7325 31.6979 50.9146 30.8632C45.6026 29.943 40.2913 29.0227 34.9809 28.0944C34.6496 28.0368 34.5063 28.1264 34.4575 28.4521C34.3639 29.0707 34.2425 29.6861 34.1335 30.3031C34.052 30.764 34.0846 30.7904 34.5657 30.828C35.9839 30.9393 37.4013 31.0553 38.8186 31.1777C40.7888 31.3482 42.7581 31.5298 44.7282 31.7003C46.7928 31.8795 48.859 32.0492 50.9235 32.2269C52.8937 32.3965 54.8638 32.5718 56.8339 32.743C58.6152 32.8975 60.3965 33.0503 62.1777 33.2015C63.3508 33.3008 64.524 33.3968 65.6963 33.4936ZM33.2428 35.595C33.2208 35.5934 33.1989 35.591 33.1769 35.5894C33.0963 36.0344 33.0149 36.4785 32.9351 36.9234C32.0119 42.0658 31.0912 47.2089 30.1663 52.3512C29.3644 56.8117 28.5593 61.2714 27.7509 65.7304C27.7004 66.0072 27.768 66.1561 28.0725 66.2017C28.6749 66.2921 29.2741 66.4074 29.8741 66.5106C30.5123 66.6202 30.4944 66.6178 30.5433 65.9992C30.6499 64.6316 30.7737 63.2648 30.8966 61.8988C31.0716 59.9487 31.254 57.9993 31.4282 56.0491C31.6057 54.0589 31.7766 52.0687 31.9533 50.0785C32.1316 48.0619 32.3123 46.0453 32.493 44.0287C32.6453 42.3306 32.7983 40.6325 32.9498 38.9344C33.0491 37.8213 33.146 36.7074 33.2436 35.5934L33.2428 35.595ZM67.7535 65.2166C67.7779 65.223 67.8024 65.2302 67.8268 65.2366C67.9977 64.2675 68.1663 63.2976 68.3405 62.3294C69.1554 57.7896 69.9695 53.2491 70.7869 48.7093C71.6018 44.1824 72.4175 39.6554 73.2414 35.1301C73.2951 34.8332 73.2023 34.7188 72.9125 34.674C72.2563 34.5723 71.601 34.4627 70.9513 34.3307C70.5939 34.2579 70.4791 34.3571 70.4539 34.7212C70.3578 36.0904 70.2308 37.4564 70.1087 38.824C69.9337 40.775 69.7497 42.7244 69.5747 44.6753C69.3915 46.7191 69.2148 48.7629 69.0349 50.8067C68.8599 52.7977 68.6848 54.7879 68.5066 56.7789C68.3844 58.1457 68.2534 59.5117 68.1321 60.8785C68.0034 62.3246 67.8805 63.7706 67.7551 65.2166H67.7535ZM35.4661 67.4101C35.4661 67.4325 35.4653 67.4549 35.4645 67.4765C37.5576 67.8446 39.6498 68.2167 41.7429 68.5808C45.2517 69.1906 48.7621 69.794 52.2717 70.4021C56.8755 71.2 61.4792 71.9986 66.0813 72.8037C66.363 72.8533 66.4786 72.766 66.521 72.4964C66.626 71.8386 66.7237 71.1776 66.8735 70.5294C66.963 70.1413 66.8165 70.0877 66.4729 70.0636C65.0548 69.9636 63.6374 69.838 62.2209 69.7155C60.2507 69.5451 58.2814 69.3666 56.3113 69.1962C54.2736 69.0201 52.2351 68.8513 50.1974 68.6768C48.1597 68.5024 46.122 68.3263 44.0843 68.1503C42.3706 68.0022 40.6577 67.8502 38.944 67.7029C37.7847 67.6029 36.6254 67.5077 35.4653 67.4101H35.4661ZM33.4651 38.0222C33.4578 38.0166 33.4504 38.0118 33.4431 38.0062C33.2754 39.8219 33.102 41.6376 32.9416 43.4542C32.712 46.0541 32.4971 48.6549 32.2659 51.2549C32.0371 53.8276 31.7921 56.3996 31.5601 58.9724C31.3435 61.3731 31.1408 63.7746 30.9169 66.1745C30.886 66.5074 30.9975 66.6442 31.3199 66.6642C31.8475 66.6963 32.3799 66.7002 32.9001 66.7811C33.5554 66.8827 33.4651 66.7403 33.4651 66.2521C33.4651 58.6011 33.4651 50.95 33.4651 43.2997C33.4651 41.5408 33.4651 39.7811 33.4651 38.0222ZM63.1693 33.7041C63.1693 33.6953 63.1693 33.6865 63.1701 33.6777C62.658 33.6361 62.146 33.5985 61.6339 33.5536C59.3536 33.3528 57.0733 33.1455 54.7922 32.9503C52.7138 32.7726 50.6337 32.6134 48.5553 32.4349C46.3019 32.2405 44.0492 32.0276 41.7958 31.8315C39.3527 31.6195 36.9087 31.4218 34.4664 31.2049C34.1489 31.1769 34.0138 31.2714 33.9967 31.5803C33.969 32.086 33.9348 32.591 33.8819 33.0943C33.8176 33.7049 33.8078 33.7041 34.4453 33.7041C42.9763 33.7041 51.5073 33.7041 60.0382 33.7041C61.0819 33.7041 62.1256 33.7041 63.1693 33.7041ZM37.9174 67.1932C37.9174 67.2036 37.9174 67.214 37.9174 67.2244C38.7535 67.2916 39.5904 67.3532 40.4265 67.4261C42.4096 67.5989 44.392 67.7814 46.376 67.9518C48.4405 68.1287 50.5067 68.2911 52.5705 68.4696C54.8101 68.6632 57.0489 68.8745 59.2885 69.0682C61.7039 69.277 64.121 69.4651 66.5348 69.6851C66.8792 69.7163 66.972 69.5883 66.9948 69.3058C67.0436 68.6952 67.0916 68.0847 67.1478 67.4749C67.1649 67.2876 67.0973 67.1956 66.9052 67.1964C66.7831 67.1964 66.661 67.1932 66.5389 67.1932C57.1148 67.1932 47.6907 67.1932 38.2667 67.1932C38.1502 67.1932 38.0338 67.1932 37.9174 67.1932ZM67.5313 62.9007C67.5361 62.9007 67.541 62.9007 67.5467 62.9007C67.7177 61.045 67.8944 59.19 68.058 57.3335C68.2623 55.0112 68.4504 52.6873 68.6572 50.3658C68.9128 47.5002 69.1831 44.6361 69.4411 41.7705C69.6544 39.3954 69.8531 37.0195 70.0729 34.6452C70.1014 34.3339 69.9874 34.241 69.6992 34.2266C69.1847 34.201 68.671 34.1674 68.1581 34.1162C67.5313 34.0538 67.5313 34.0442 67.5313 34.6652C67.5313 43.0517 67.5313 51.4373 67.5313 59.8238C67.5313 60.8497 67.5313 61.8756 67.5313 62.9015V62.9007ZM33.864 40.6517C33.8542 40.6509 33.8445 40.6493 33.8347 40.6485C33.8347 40.7414 33.8347 40.8342 33.8347 40.927C33.8363 48.2988 33.829 55.6698 33.851 63.0416C33.8542 64.1331 33.886 65.2262 33.8843 66.3185C33.8843 66.6274 33.9666 66.7955 34.3191 66.7819C34.779 66.7643 35.2415 66.7635 35.7022 66.7819C36.0564 66.7971 36.2102 66.6674 36.1581 66.3161C36.1443 66.2241 36.1516 66.1297 36.1427 66.0369C35.8789 63.1456 35.6094 60.2551 35.3514 57.3631C35.1185 54.7495 34.9044 52.1351 34.6716 49.5216C34.4086 46.5639 34.1335 43.6078 33.864 40.6501V40.6517ZM67.0591 59.5525C67.0762 59.5525 67.0941 59.5525 67.1112 59.5525C67.1112 59.3973 67.1112 59.2428 67.1112 59.0876C67.1096 50.966 67.1079 42.8444 67.1063 34.7228C67.1063 34.6564 67.1014 34.5892 67.1063 34.5227C67.1291 34.2338 66.9997 34.1114 66.7017 34.1178C66.1864 34.129 65.6702 34.1298 65.1549 34.117C64.8805 34.1098 64.804 34.2146 64.8293 34.4755C64.9131 35.3374 64.9742 36.2016 65.0507 37.0635C65.251 39.3065 65.4569 41.5488 65.6564 43.7911C65.8054 45.4636 65.9446 47.1369 66.0927 48.8086C66.2727 50.8388 66.4566 52.869 66.639 54.8992C66.7782 56.45 66.9182 58.0009 67.0583 59.5517L67.0591 59.5525ZM41.243 66.7299C41.2495 66.7459 41.2561 66.7611 41.2626 66.7771C41.3432 66.7771 41.4238 66.7771 41.5052 66.7771C49.8619 66.7755 58.2187 66.7747 66.5755 66.7731C66.6301 66.7731 66.6838 66.7699 66.7383 66.7731C66.9923 66.7867 67.1144 66.6746 67.112 66.4194C67.1071 65.8864 67.1055 65.3527 67.1136 64.8189C67.1169 64.5916 67.0273 64.5116 66.7953 64.534C66.2556 64.5844 65.7142 64.614 65.1744 64.6604C63.1628 64.8349 61.1519 65.015 59.1403 65.1878C57.4396 65.3342 55.7373 65.4703 54.0367 65.6159C51.6741 65.8184 49.3124 66.0257 46.9499 66.2313C45.0482 66.397 43.1464 66.5634 41.2447 66.7299H41.243ZM59.6809 34.1682C59.6809 34.1522 59.6809 34.137 59.68 34.121C59.5482 34.121 59.4155 34.121 59.2828 34.121C51.0058 34.121 42.7296 34.1202 34.4526 34.1202C34.3573 34.1202 34.2629 34.125 34.1677 34.1218C33.925 34.113 33.829 34.2282 33.8331 34.4635C33.8412 34.9573 33.8526 35.451 33.829 35.944C33.8119 36.2937 33.9633 36.3865 34.289 36.3569C35.0851 36.2833 35.883 36.2272 36.6792 36.1584C38.677 35.9848 40.6748 35.8039 42.6734 35.6319C44.672 35.4598 46.6715 35.2974 48.6701 35.1269C50.777 34.9477 52.8831 34.7652 54.9892 34.5827C56.5531 34.4467 58.117 34.3083 59.6809 34.1706V34.1682ZM43.5119 66.0825L43.5176 66.1297C43.7733 66.1161 44.0297 66.1089 44.2853 66.0865C46.2831 65.9112 48.2801 65.732 50.278 65.5575C52.2489 65.3855 54.2198 65.219 56.1908 65.0486C58.2423 64.8717 60.2947 64.6941 62.3462 64.5148C63.8312 64.3852 65.3153 64.2483 66.8002 64.1219C67.0135 64.1035 67.0754 64.0211 67.0518 63.8146C66.9997 63.3649 66.9459 62.9127 66.9362 62.4614C66.928 62.1021 66.7758 62.0405 66.4501 62.0973C63.7815 62.567 61.1112 63.0288 58.441 63.4905C54.8231 64.1171 51.2052 64.7405 47.5873 65.3671C46.2286 65.6023 44.8707 65.8432 43.5128 66.0817L43.5119 66.0825ZM34.6065 43.671L34.5332 43.6798C34.6097 44.5409 34.687 45.402 34.7636 46.263C34.9402 48.2388 35.1177 50.2146 35.2936 52.1912C35.4409 53.8484 35.5826 55.5073 35.7315 57.1646C35.9082 59.1268 36.0914 61.089 36.2713 63.0512C36.3747 64.1779 36.483 65.3046 36.579 66.4322C36.6002 66.677 36.6946 66.7451 36.9421 66.7131C37.398 66.6554 37.8588 66.6154 38.3188 66.6018C38.6452 66.5922 38.703 66.4506 38.6517 66.1689C38.2374 63.8882 37.8311 61.6059 37.4208 59.3245C36.7532 55.6138 36.0832 51.9031 35.4149 48.1924C35.1438 46.6855 34.8759 45.1787 34.6065 43.6718V43.671ZM66.3956 57.2959C66.4168 57.2991 66.4387 57.3023 66.4599 57.3055C66.4159 56.7629 66.3777 56.2196 66.328 55.677C66.1497 53.714 65.9666 51.7518 65.7891 49.7896C65.6409 48.1452 65.5001 46.5007 65.3519 44.8562C65.1752 42.8932 64.9945 40.931 64.8154 38.9688C64.6795 37.47 64.5386 35.972 64.4132 34.4731C64.3937 34.2354 64.2968 34.1842 64.0795 34.205C63.635 34.2482 63.188 34.2979 62.7427 34.2987C62.3601 34.3003 62.2892 34.4483 62.3519 34.7916C63.1367 39.1185 63.9126 43.4462 64.6892 47.7747C65.2591 50.9484 65.8265 54.1221 66.3948 57.2959H66.3956ZM57.4103 34.8252C57.4079 34.81 57.4063 34.794 57.4038 34.7788C57.2426 34.786 57.0806 34.7868 56.9194 34.8012C54.8418 34.9813 52.7642 35.1645 50.6866 35.3446C48.7303 35.5142 46.7732 35.6799 44.8169 35.8479C42.7524 36.0256 40.6878 36.2024 38.6232 36.3825C37.166 36.5097 35.7096 36.6458 34.2523 36.7666C33.9845 36.789 33.9055 36.8826 33.9421 37.1443C34.0024 37.5788 34.0464 38.0182 34.0602 38.4567C34.0708 38.7968 34.2238 38.8552 34.5267 38.7992C35.445 38.6303 36.3665 38.4767 37.2873 38.3167C42.9176 37.3388 48.548 36.3601 54.1783 35.3822C55.2554 35.1949 56.3324 35.0109 57.4103 34.8244V34.8252ZM45.8899 65.2022C46.0845 65.2606 46.2115 65.2102 46.3401 65.1878C48.5553 64.8037 50.7705 64.4188 52.9849 64.0347C57.4413 63.2616 61.8985 62.487 66.3557 61.7196C66.652 61.6684 66.7945 61.5835 66.7001 61.2522C66.6121 60.9466 66.5918 60.6225 66.5267 60.3096C66.4176 59.7894 66.4143 59.7958 65.8876 59.9342C60.9395 61.2394 55.9905 62.5422 51.0424 63.8458C49.3425 64.2931 47.6427 64.7405 45.8899 65.2022ZM54.9835 35.7183C54.9786 35.6967 54.9737 35.6751 54.9696 35.6535C54.1075 35.7991 53.2446 35.9424 52.3824 36.092C48.4332 36.777 44.4848 37.4636 40.5356 38.1502C38.5614 38.4935 36.5872 38.8392 34.6122 39.1793C34.3923 39.2169 34.2067 39.2553 34.2653 39.5466C34.3476 39.9515 34.4184 40.3581 34.4917 40.7646C34.5324 40.9886 34.6333 41.0927 34.8857 41.0135C35.182 40.9206 35.4881 40.8582 35.7893 40.779C40.6976 39.4842 45.6058 38.1894 50.5132 36.8946C52.003 36.5017 53.4937 36.1104 54.9835 35.7183ZM35.4328 45.7364C35.4165 45.7396 35.4002 45.7428 35.3839 45.7453C35.4108 45.8877 35.4385 46.0309 35.4637 46.1734C36.3584 51.1573 37.2523 56.1411 38.147 61.125C38.4433 62.7775 38.7462 64.4292 39.0336 66.0833C39.0808 66.3562 39.1801 66.4498 39.4658 66.3802C39.8069 66.2977 40.1562 66.2345 40.5054 66.2017C40.928 66.1617 40.9565 65.9688 40.858 65.6111C39.5253 60.7625 38.2056 55.9107 36.8827 51.0596C36.3991 49.2847 35.9155 47.5106 35.432 45.7356L35.4328 45.7364ZM65.4976 54.9304L65.5448 54.9208C65.5359 54.8295 65.5343 54.7375 65.518 54.6479C64.6811 49.9905 63.8434 45.3339 63.0057 40.6774C62.6564 38.736 62.3039 36.7954 61.9628 34.8524C61.9115 34.5603 61.8146 34.4203 61.4808 34.5139C61.1959 34.594 60.8939 34.6148 60.6016 34.6708C60.0081 34.7836 60.0089 34.786 60.1652 35.363C61.6469 40.8078 63.1286 46.2526 64.6111 51.6974C64.905 52.7753 65.2021 53.8533 65.4976 54.9304ZM48.0424 64.1467C48.2867 64.2107 48.4348 64.1275 48.583 64.0883C52.577 63.0384 56.5694 61.9837 60.5625 60.9305C62.343 60.4608 64.1218 59.9855 65.9055 59.5277C66.2149 59.4485 66.3093 59.3261 66.1986 59.0236C66.0976 58.7491 66.0138 58.4626 65.9706 58.1745C65.9153 57.8128 65.7622 57.7992 65.4463 57.9128C60.7237 59.6142 55.997 61.3043 51.2712 62.996C50.2177 63.3729 49.1634 63.7482 48.0432 64.1475L48.0424 64.1467ZM64.4067 52.7865C64.4287 52.7793 64.4499 52.7713 64.4719 52.7641C64.4686 52.7257 64.4702 52.6857 64.4605 52.6481C62.9593 47.1417 61.458 41.6344 59.9528 36.1288C59.8486 35.7463 59.8771 35.2237 59.5669 35.0285C59.2469 34.8268 58.8065 35.1701 58.41 35.2245C58.025 35.2774 57.9704 35.4246 58.1031 35.7807C59.7932 40.3084 61.4678 44.8418 63.1457 49.3735C63.5666 50.5107 63.9867 51.6494 64.4067 52.7873V52.7865ZM52.8709 36.7706C52.8627 36.7434 52.8554 36.7162 52.8473 36.6898C52.0381 36.9042 51.2288 37.1203 50.4196 37.3332C45.3119 38.676 40.205 40.0204 35.0965 41.3568C34.8043 41.4336 34.6716 41.536 34.7872 41.8521C34.893 42.1394 34.9671 42.4395 35.0322 42.7388C35.09 43.006 35.2105 43.1157 35.4857 42.9932C35.5964 42.9436 35.7153 42.9124 35.8301 42.8708C39.5114 41.5528 43.1936 40.234 46.875 38.916C48.8736 38.2006 50.8731 37.4852 52.8717 36.7698L52.8709 36.7706ZM36.5855 48.1252C36.5595 48.1276 36.5343 48.1292 36.5082 48.1316C36.5538 48.3092 36.5978 48.4877 36.6458 48.6653C38.1364 54.1357 39.6278 59.6054 41.1168 65.0758C41.3627 65.9776 41.3586 65.9792 42.29 65.7384C42.3689 65.7184 42.4479 65.7008 42.5269 65.6807C43.0324 65.5503 43.0365 65.5359 42.8615 65.0646C41.4881 61.3579 40.1179 57.6512 38.7454 53.9445C38.0265 52.0039 37.3052 50.0649 36.5847 48.126L36.5855 48.1252ZM51.3729 37.7885C51.2028 37.7493 51.0986 37.8245 50.9903 37.8637C46.1114 39.6082 41.2333 41.356 36.3543 43.1005C35.3001 43.4774 35.3139 43.467 35.6648 44.5105C35.7845 44.8674 35.9147 44.8842 36.2387 44.7346C39.601 43.1829 42.9722 41.6488 46.3393 40.1068C48.0082 39.3426 49.6739 38.5711 51.3737 37.7877L51.3729 37.7885ZM49.6242 63.096C49.7626 63.16 49.844 63.088 49.9246 63.0592C54.8443 61.3011 59.7631 59.5397 64.6811 57.7776C65.6971 57.4135 65.6849 57.4151 65.3332 56.4052C65.22 56.0787 65.0971 55.9851 64.756 56.1491C63.7204 56.6461 62.6702 57.1158 61.6257 57.5944C58.5769 58.9908 55.5281 60.3856 52.4793 61.782C51.5357 62.2141 50.593 62.6495 49.6234 63.0952L49.6242 63.096ZM63.3525 51.2805C63.372 51.2685 63.3915 51.2565 63.4111 51.2437C61.5834 46.3094 59.7582 41.3736 57.9281 36.4401C57.5845 35.515 57.5764 35.5174 56.6231 35.8463C56.1281 36.0168 56.12 36.02 56.3455 36.4969C57.9525 39.8931 59.562 43.2885 61.1715 46.6839C61.8977 48.2164 62.6255 49.7488 63.3525 51.2805ZM37.6512 49.6376C37.63 49.6416 37.6089 49.6456 37.5869 49.6496C37.6064 49.7096 37.6243 49.7712 37.6463 49.8305C39.5253 54.9128 41.4067 59.9935 43.2799 65.0782C43.3735 65.3326 43.494 65.3735 43.7317 65.2718C43.98 65.1662 44.2373 65.0758 44.4978 65.0061C44.7942 64.9261 44.8438 64.8029 44.7095 64.5204C42.351 59.5621 40.0015 54.5999 37.6504 49.6384L37.6512 49.6376ZM51.1898 61.8612L51.2109 61.922C51.2712 61.8972 51.3322 61.8756 51.3917 61.8484C55.669 59.8902 59.9463 57.9321 64.2227 55.9723C64.9766 55.6266 64.9742 55.6226 64.6176 54.8704C64.3799 54.3678 64.3823 54.3718 63.9036 54.6439C61.6494 55.9251 59.3943 57.203 57.1392 58.4834C55.1553 59.6094 53.1721 60.7353 51.1889 61.8612H51.1898ZM38.9424 51.2373C38.8781 51.3837 38.9424 51.4485 38.9749 51.5158C40.928 55.6338 42.8818 59.7518 44.8397 63.8666C45.2321 64.6917 45.2346 64.6708 46.0943 64.2907C46.4362 64.1395 46.4533 64.0083 46.2709 63.7026C44.9643 61.5051 43.6772 59.2973 42.3828 57.0926C41.2455 55.1552 40.1065 53.2187 38.9416 51.2365L38.9424 51.2373ZM62.0352 49.6328L62.0971 49.6056C62.0271 49.4391 61.962 49.2703 61.8846 49.107C59.9658 45.0602 58.0461 41.0143 56.124 36.9691C55.7601 36.2032 55.7536 36.2064 54.9827 36.5705C54.4909 36.8026 54.4934 36.801 54.7555 37.2483C56.4708 40.1684 58.1845 43.0893 59.9007 46.0093C60.6106 47.2185 61.3245 48.4252 62.0361 49.6328H62.0352ZM49.6495 39.1137C49.6421 39.0921 49.6348 39.0697 49.6267 39.0481C49.5168 39.0913 49.4044 39.1289 49.297 39.1777C45.1564 41.0743 41.0151 42.9708 36.8762 44.8706C35.9978 45.2739 36.0173 45.2739 36.4113 46.119C36.5668 46.4527 36.6995 46.4727 37.0121 46.2926C38.8585 45.2259 40.7187 44.1808 42.5733 43.1285C44.9317 41.7905 47.291 40.4517 49.6495 39.1129V39.1137ZM48.3738 40.3989C48.3575 40.3757 48.342 40.3525 48.3257 40.3292C48.2313 40.3781 48.1344 40.4229 48.0424 40.4757C44.506 42.4811 40.9703 44.4865 37.4346 46.4935C37.0254 46.7255 36.9394 47.0438 37.1766 47.4482C37.3622 47.7645 37.6089 47.8157 37.9166 47.6018C40.4827 45.8341 43.0487 44.0672 45.6148 42.2994C46.5347 41.6656 47.4538 41.0319 48.373 40.3989H48.3738ZM60.8116 48.4981C60.8328 48.4877 60.854 48.4781 60.876 48.4677C60.8271 48.3756 60.7823 48.282 60.7294 48.1924C58.6779 44.6977 56.6272 41.2031 54.5732 37.7101C54.1539 36.9979 54.1555 37.0139 53.4245 37.4116C53.1265 37.5732 53.1224 37.7133 53.3056 37.9661C54.0147 38.9408 54.7091 39.9259 55.4084 40.9078C57.2101 43.4374 59.0108 45.9677 60.8125 48.4981H60.8116ZM52.4475 60.6129C52.6104 60.6425 52.691 60.56 52.7789 60.5104C56.3723 58.4738 59.9642 56.434 63.556 54.3958C64.2846 53.9821 64.1942 54.1261 63.8092 53.4387C63.5478 52.9722 63.5397 52.9738 63.0911 53.2819C60.5804 55.008 58.0706 56.7349 55.5607 58.4626C54.5308 59.1716 53.5034 59.883 52.4467 60.6136L52.4475 60.6129ZM40.2783 52.5385C40.2539 52.5545 40.2295 52.5697 40.2059 52.5857C40.249 52.6665 40.2889 52.7489 40.3353 52.8273C42.3868 56.3228 44.4368 59.819 46.4916 63.3129C46.8864 63.985 46.77 63.9106 47.4107 63.5577C47.9342 63.2696 47.9293 63.2696 47.5751 62.7735C45.9486 60.4944 44.3252 58.2137 42.7003 55.9339C41.8935 54.8015 41.0859 53.67 40.2783 52.5385ZM41.4197 53.3355C41.4018 53.3491 41.3839 53.3635 41.366 53.3771C41.401 53.4291 41.4352 53.4819 41.471 53.5332C42.5651 55.0728 43.6577 56.6125 44.7534 58.1505C45.8329 59.667 46.9141 61.1826 47.9968 62.6967C48.0717 62.8015 48.1401 62.9952 48.2753 62.9511C48.583 62.8511 48.8704 62.6639 49.0633 62.4166C49.1675 62.2837 48.9314 62.1269 48.8248 62.0013C46.8603 59.6934 44.8918 57.3887 42.9233 55.0848C42.4235 54.4998 41.9204 53.9181 41.4189 53.3347L41.4197 53.3355ZM47.589 41.4952C47.4302 41.48 47.374 41.5672 47.3024 41.616C44.3155 43.6678 41.3301 45.7212 38.3464 47.7771C37.5975 48.2932 37.6341 48.1292 38.1706 48.907C38.2903 49.0806 38.3937 49.1134 38.5508 48.9566C38.6452 48.8622 38.7592 48.787 38.8634 48.7013C41.0021 46.94 43.1415 45.1795 45.2785 43.4166C46.0422 42.7868 46.8001 42.1514 47.5898 41.4952H47.589ZM53.514 59.2957C53.5344 59.3141 53.5555 59.3325 53.5759 59.3509C53.733 59.2468 53.8918 59.146 54.0464 59.0396C56.9341 57.0526 59.8209 55.064 62.7093 53.077C63.3004 52.6705 63.2865 52.6841 62.8998 52.0903C62.7053 51.7918 62.5701 51.8062 62.3129 52.0207C60.1506 53.8204 57.9769 55.6074 55.8082 57.3983C55.0429 58.0305 54.2785 58.6635 53.514 59.2965V59.2957ZM59.505 47.4826C59.5229 47.4658 59.5408 47.4482 59.5579 47.4313C59.5148 47.3641 59.4733 47.2953 59.4269 47.2305C57.2972 44.2376 55.1666 41.2447 53.0361 38.2526C52.7349 37.8293 52.7406 37.8429 52.0755 38.3207C51.7002 38.5895 52.0405 38.736 52.1626 38.88C53.8633 40.8878 55.5745 42.886 57.2833 44.8866C58.0233 45.7525 58.7642 46.6167 59.5042 47.4818L59.505 47.4826ZM46.8229 42.71C46.8115 42.6971 46.8001 42.6843 46.7887 42.6723C46.739 42.71 46.6878 42.7468 46.6389 42.7868C45.5073 43.7207 44.3765 44.6553 43.2449 45.59C41.8023 46.7816 40.3581 47.9715 38.9179 49.1663C38.8211 49.2463 38.6363 49.3127 38.69 49.464C38.7804 49.7184 38.9741 49.9361 39.1923 50.0769C39.3779 50.1962 39.4821 49.9393 39.5937 49.8297C41.9098 47.5634 44.2194 45.2907 46.529 43.0188C46.63 42.9196 46.7244 42.814 46.8213 42.7116L46.8229 42.71ZM42.6392 54.1413C42.7214 54.243 42.776 54.3126 42.833 54.379C43.599 55.2785 44.3659 56.1771 45.132 57.0758C46.4647 58.6387 47.7966 60.2023 49.1341 61.7612C49.2335 61.8772 49.323 62.0909 49.4948 62.0405C49.7398 61.9693 49.9499 61.7868 50.0858 61.5739C50.2177 61.3683 49.9776 61.2714 49.866 61.161C47.5686 58.8939 45.2663 56.6325 42.9632 54.371C42.881 54.291 42.8183 54.1813 42.6392 54.1405V54.1413ZM58.2497 46.7792C58.2773 46.7584 58.305 46.7375 58.3327 46.7167C57.3769 45.5956 56.422 44.4745 55.4654 43.3541C54.2378 41.9161 53.0036 40.4821 51.7816 39.0393C51.3786 38.5639 51.2207 39.0793 50.9813 39.2177C50.6524 39.4074 50.939 39.545 51.0603 39.6659C52.0804 40.679 53.1078 41.684 54.1303 42.6947C55.5053 44.0544 56.8771 45.4172 58.2497 46.7784V46.7792ZM54.298 57.9937C54.3289 58.0185 54.3599 58.0433 54.3908 58.0689C55.2098 57.3927 56.028 56.7157 56.8478 56.0403C58.5916 54.6023 60.3378 53.1666 62.0784 51.7246C62.4073 51.4517 62.3764 51.4293 61.9441 50.9356C61.6884 50.6435 61.581 50.8844 61.4434 51.0196C59.8494 52.5801 58.2611 54.1469 56.667 55.7066C55.8831 56.474 55.0885 57.2318 54.2988 57.9937H54.298ZM45.9697 44.256C45.9486 44.2368 45.9274 44.2168 45.9062 44.1976C45.4943 44.5921 45.0791 44.9834 44.672 45.3827C43.0544 46.9712 41.4441 48.5669 39.82 50.1482C39.6083 50.3546 39.5147 50.4835 39.789 50.7123C40.03 50.9132 40.1798 51.0628 40.4615 50.7259C41.7063 49.2351 42.9811 47.7674 44.2438 46.2902C44.8218 45.614 45.395 44.9338 45.9705 44.256H45.9697ZM54.8776 56.7941C54.9021 56.8181 54.9257 56.8413 54.9501 56.8653C56.1411 55.6858 57.3314 54.5046 58.5248 53.3259C59.3845 52.4768 60.2483 51.631 61.1096 50.7835C61.4523 50.4466 61.4304 50.4354 61.0681 50.0609C60.7351 49.7176 60.6342 50.0665 60.4933 50.2234C60.0635 50.7019 59.654 51.1989 59.2364 51.6878C57.784 53.3899 56.3316 55.092 54.8793 56.7941H54.8776ZM56.9023 46.091C56.9072 46.0325 56.9137 46.0149 56.908 46.0093C54.8231 43.9503 52.7374 41.8921 50.6516 39.8339C50.5849 39.7683 50.5222 39.7051 50.4058 39.7507C49.9588 39.9259 49.8904 40.3164 50.2592 40.6205C51.7963 41.8881 53.3325 43.1565 54.8703 44.4233C55.5395 44.9746 56.2111 45.5236 56.9031 46.0902L56.9023 46.091ZM44.1274 54.8279C44.1095 54.8423 44.0916 54.8575 44.0737 54.8719C44.1062 54.9128 44.1355 54.9568 44.1722 54.9928C46.1944 56.9822 48.2207 58.9676 50.2348 60.965C50.5311 61.2586 50.6663 61.029 50.8568 60.8625C51.079 60.6681 51.0391 60.5208 50.8242 60.348C50.1534 59.8078 49.4907 59.2565 48.8264 58.7075C47.2593 57.4143 45.6929 56.1203 44.1266 54.8271L44.1274 54.8279ZM55.6543 45.6852C55.6657 45.6716 55.6771 45.6572 55.6885 45.6436C55.669 45.614 55.6543 45.5764 55.6282 45.5548C53.7127 43.9703 51.7922 42.3923 49.8823 40.7998C49.5477 40.5205 49.4549 40.8094 49.2864 40.9774C49.0601 41.2031 49.2603 41.2911 49.415 41.3976C50.7339 42.3058 52.0527 43.2157 53.3724 44.1232C54.1319 44.6457 54.8931 45.1651 55.6535 45.6852H55.6543ZM45.3534 55.2177C45.3331 55.2401 45.3127 55.2625 45.2924 55.2841C45.6538 55.5826 46.0153 55.8811 46.3768 56.1795C47.9333 57.4655 49.4956 58.7443 51.0408 60.0431C51.3444 60.2984 51.4918 60.1719 51.6921 59.9399C51.9379 59.655 51.6758 59.5693 51.5154 59.4565C50.9976 59.0908 50.4717 58.7379 49.9499 58.3786C48.4177 57.3247 46.8864 56.2708 45.3543 55.2169L45.3534 55.2177ZM45.6465 45.3755C45.6327 45.3651 45.6197 45.3547 45.6058 45.3443C45.5749 45.3651 45.5374 45.3803 45.5138 45.4076C43.9003 47.2937 42.2908 49.1831 40.6723 51.0644C40.4061 51.3733 40.6984 51.4677 40.8506 51.6278C41.0688 51.8575 41.1714 51.6694 41.2813 51.5158C42.2769 50.1193 43.2726 48.7229 44.2666 47.3249C44.7282 46.6759 45.1857 46.0253 45.6457 45.3755H45.6465ZM55.279 55.5986C55.3026 55.6122 55.3262 55.6258 55.3498 55.6386C55.7748 55.1392 56.1997 54.6383 56.6263 54.1405C57.8385 52.7241 59.045 51.3013 60.2719 49.8969C60.5462 49.5832 60.3566 49.4479 60.1392 49.2623C59.8771 49.039 59.7924 49.2599 59.6792 49.4191C59.1729 50.1273 58.6681 50.8372 58.1634 51.5462C57.2019 52.897 56.2405 54.2478 55.2798 55.5978L55.279 55.5986ZM45.4813 46.415C45.4633 46.4038 45.4446 46.3926 45.4267 46.3814C45.3477 46.4863 45.2671 46.5895 45.1914 46.6959C44.0102 48.354 42.833 50.0153 41.6444 51.6694C41.4807 51.8967 41.3888 52.0463 41.6997 52.24C42.0425 52.4528 42.0978 52.1776 42.2029 52.0015C42.894 50.8404 43.5771 49.6752 44.2609 48.5101C44.6696 47.8131 45.075 47.1137 45.4821 46.4158L45.4813 46.415ZM54.5821 45.5156C54.6 45.4972 54.6179 45.478 54.6359 45.4596C52.7944 44.192 50.9504 42.9276 49.113 41.6544C48.8687 41.4856 48.7873 41.6488 48.6709 41.8025C48.5097 42.0162 48.6099 42.1314 48.8061 42.2418C50.733 43.3309 52.6576 44.4233 54.5829 45.5156H54.5821ZM46.4118 55.3793C46.3955 55.4001 46.3784 55.4201 46.3621 55.4409C48.202 56.7061 50.0443 57.9681 51.8801 59.2396C52.1333 59.4149 52.2025 59.234 52.314 59.0852C52.4475 58.9059 52.4207 58.7843 52.218 58.6699C50.2812 57.5768 48.3469 56.4772 46.4126 55.3801L46.4118 55.3793ZM55.5126 54.4582C55.5314 54.4758 55.5501 54.4934 55.5688 54.5118C56.0646 53.8164 56.5612 53.1218 57.057 52.4264C57.8418 51.3261 58.6201 50.2202 59.4163 49.1279C59.5913 48.887 59.492 48.7894 59.2917 48.6653C59.1256 48.5629 59.0157 48.4829 58.8781 48.7189C57.7628 50.6355 56.6361 52.5457 55.5126 54.4582ZM45.4756 47.3185C45.4609 47.3073 45.4471 47.2953 45.4324 47.2841C44.4498 48.9534 43.4704 50.6251 42.4805 52.2904C42.3559 52.4993 42.3242 52.6193 42.579 52.7609C42.855 52.9138 42.9014 52.7361 42.9828 52.5649C43.8132 50.8156 44.6444 49.067 45.4756 47.3185ZM53.5222 45.446C53.5336 45.4252 53.5441 45.4044 53.5555 45.3827C51.8907 44.4369 50.2234 43.4934 48.5626 42.5403C48.3607 42.4243 48.2655 42.4579 48.1499 42.6531C48.0221 42.87 48.1002 42.9508 48.2964 43.0405C50.0402 43.8383 51.7808 44.6425 53.5222 45.4452V45.446ZM47.6297 55.5249C47.6215 55.5514 47.6134 55.5778 47.6044 55.6042C49.2082 56.5164 50.8145 57.4255 52.4142 58.3458C52.6364 58.4738 52.7308 58.425 52.853 58.2201C52.9889 57.9913 52.8815 57.9305 52.695 57.8456C51.5398 57.3207 50.3895 56.7869 49.2367 56.258C48.7019 56.0123 48.1654 55.769 47.6297 55.5249ZM55.6567 53.2699C55.6763 53.2795 55.695 53.2891 55.7145 53.2987C55.7398 53.2699 55.7707 53.2443 55.7894 53.2123C56.698 51.667 57.6033 50.1193 58.5159 48.5765C58.638 48.37 58.6079 48.2532 58.397 48.1268C58.1528 47.9795 58.0958 48.13 58.0176 48.2964C57.4885 49.4207 56.9577 50.5443 56.4253 51.6662C56.1713 52.2016 55.9132 52.7353 55.6567 53.2699ZM48.4967 55.4209C48.5439 55.4865 48.5537 55.5153 48.5724 55.5241C50.0191 56.1883 51.4674 56.8493 52.914 57.5143C53.0834 57.592 53.1851 57.5687 53.2657 57.3927C53.352 57.2046 53.273 57.1246 53.1053 57.0654C52.5957 56.8861 52.0877 56.7029 51.5789 56.5212C50.5661 56.1595 49.5542 55.7986 48.4959 55.4209H48.4967ZM45.4365 48.4837C45.281 48.5741 45.2598 48.6965 45.2118 48.7966C44.7461 49.7728 44.2845 50.7507 43.8213 51.7278C43.6495 52.0895 43.4745 52.4504 43.3019 52.8121C43.2286 52.9658 43.2368 53.0842 43.4232 53.1658C43.6096 53.2483 43.6919 53.1883 43.7554 53.0154C44.3081 51.5174 44.8658 50.0209 45.4365 48.4837ZM52.4524 45.4556C52.4622 45.4348 52.4728 45.414 52.4825 45.3931C51.022 44.7266 49.5599 44.0624 48.1019 43.391C47.9162 43.3053 47.8031 43.3221 47.7209 43.5198C47.6223 43.7551 47.7966 43.7951 47.9488 43.8495C49.45 44.3864 50.9512 44.921 52.4532 45.4564L52.4524 45.4556ZM55.5753 52.3568C55.5941 52.3696 55.6136 52.3832 55.6323 52.396C56.3121 50.9628 56.9894 49.5288 57.6733 48.0971C57.7571 47.9211 57.762 47.8067 57.5536 47.721C57.3191 47.6242 57.2695 47.7763 57.2117 47.9323C56.6662 49.4071 56.1208 50.882 55.5761 52.3576L55.5753 52.3568ZM45.5765 49.4215C45.5586 49.4095 45.5415 49.3975 45.5236 49.3863C45.0612 50.6355 44.5996 51.8847 44.1372 53.1338C44.0777 53.2931 44.0867 53.4291 44.2837 53.4779C44.4889 53.5284 44.4978 53.3603 44.5312 53.2395C44.8821 51.9679 45.2281 50.6947 45.5765 49.4215ZM51.3159 45.5548C51.32 45.5276 51.3233 45.4996 51.3273 45.4724C50.6679 45.2363 50.0085 45.0002 49.3491 44.7642C48.8158 44.5737 48.2818 44.3841 47.7477 44.1928C47.6077 44.1432 47.4823 44.1288 47.4139 44.2984C47.3382 44.4873 47.4758 44.5313 47.6077 44.5721C47.7493 44.6161 47.8943 44.6497 48.0375 44.6881C49.1301 44.977 50.2226 45.2651 51.3151 45.554L51.3159 45.5548ZM55.4719 51.2493C55.4972 51.2573 55.5224 51.2653 55.5477 51.2725C55.8155 50.5515 56.085 49.8305 56.352 49.1086C56.5229 48.6461 56.689 48.1812 56.8592 47.7178C56.9153 47.5642 56.8763 47.4562 56.7126 47.4065C56.5384 47.3529 56.5034 47.4818 56.47 47.5978C56.4 47.8411 56.3365 48.0859 56.2698 48.3308C56.0044 49.3039 55.7382 50.277 55.4728 51.2493H55.4719ZM49.6788 55.3449C49.6714 55.3673 49.6641 55.3905 49.6568 55.4129C50.0191 55.5425 50.3805 55.673 50.7428 55.8018C51.5691 56.0963 52.3963 56.39 53.2226 56.6837C53.3748 56.7381 53.5197 56.7677 53.5791 56.5637C53.6378 56.3636 53.4725 56.3484 53.3488 56.3116C53.1159 56.242 52.8806 56.1803 52.6454 56.1187C51.6562 55.8602 50.6671 55.6026 49.6788 55.3449ZM55.1601 50.6779C55.1756 50.6811 55.1911 50.6851 55.2057 50.6883C55.4972 49.6304 55.7903 48.5725 56.0776 47.5138C56.1078 47.4025 56.1371 47.2529 55.9726 47.2161C55.8155 47.1809 55.765 47.3097 55.7422 47.433C55.5468 48.5141 55.3531 49.596 55.1593 50.6779H55.1601ZM45.8386 50.1442C45.8248 50.141 45.811 50.1378 45.7971 50.1346C45.5016 51.2197 45.2053 52.304 44.913 53.3899C44.8829 53.5019 44.8324 53.646 45.0091 53.6828C45.2004 53.722 45.2297 53.5604 45.2525 53.4331C45.4511 52.3376 45.6441 51.2405 45.8386 50.1442ZM50.4139 45.8021C50.4188 45.7781 50.4245 45.7533 50.4294 45.7292C49.4427 45.4692 48.456 45.2075 47.4693 44.9506C47.3692 44.9242 47.2413 44.8834 47.2031 45.0346C47.164 45.1907 47.2812 45.2555 47.4058 45.2771C48.408 45.4556 49.4109 45.6276 50.4139 45.8021ZM50.6077 55.0952C50.6012 55.1184 50.5938 55.1408 50.5873 55.164C51.5374 55.4177 52.4874 55.6722 53.4383 55.9219C53.5677 55.9555 53.7314 55.9931 53.7802 55.8194C53.825 55.6618 53.6793 55.6218 53.5572 55.6002C52.5745 55.4297 51.5911 55.2633 50.6077 55.0952Z" fill="#377571"/>
</svg>
