<svg width="64" height="90" viewBox="0 0 64 90" fill="none" xmlns="http://www.w3.org/2000/svg">
<path d="M57.36 58.0637C57.8985 58.1731 58.4283 58.2846 58.9363 58.4906C61.1062 59.3718 62.4477 61.0576 63.2434 63.2372C64.2834 66.086 64.1689 68.975 63.3971 71.861C62.6122 74.7954 61.1228 77.3304 59.2211 79.6446C56.7795 82.6147 53.8675 84.9393 50.4881 86.692C47.5333 88.2254 44.4162 89.195 41.1585 89.6747C37.7668 90.1744 34.3743 90.0882 30.9934 89.4509C26.4203 88.589 22.1915 86.863 18.2743 84.2968C16.4146 83.0787 14.7057 81.6807 13.0685 80.1652C10.1239 77.4398 7.71342 74.2786 5.73489 70.7768C3.86942 67.4736 2.42139 63.9801 1.51113 60.2597C1.08715 58.5278 0.652313 56.8003 0.438516 55.0268C0.00947182 51.4782 -0.170263 47.9258 0.201527 44.3534C0.426195 42.1954 0.65956 40.0426 1.17412 37.9344C2.03221 34.4193 3.13308 31.0001 4.64271 27.7036C6.31395 24.0538 8.4425 20.7216 10.7957 17.5211C11.9328 15.9751 13.2678 14.6083 14.5607 13.2021C16.3327 11.2753 18.2822 9.57091 20.3485 7.98624C22.0719 6.66407 23.796 5.35305 25.6738 4.2666C29.3316 2.15098 33.2111 0.694208 37.395 0.175898C40.4186 -0.198148 43.403 -0.0330617 46.2802 1.09502C48.4472 1.94499 50.2786 3.23891 51.4128 5.39469C52.197 6.88492 52.3963 8.49042 52.255 10.1524C52.1136 11.8092 51.6585 13.3895 51.0497 14.9198C50.2098 17.0325 50.1554 19.1645 50.7229 21.3574C51.2802 23.511 52.326 25.4125 53.4819 27.2611C55.2887 30.1501 57.3622 32.8517 59.1776 35.7348C60.6322 38.0445 62.0867 40.3639 62.9999 42.974C64.0624 46.0103 64.3718 49.1008 63.4565 52.2396C62.8897 54.1842 61.865 55.8165 60.1945 56.9661C59.3371 57.5558 58.3739 57.8674 57.36 58.063V58.0637ZM46.2614 55.9332C46.0106 56.2694 45.5968 56.4114 45.3178 56.7683C45.3794 56.7527 45.4156 56.7527 45.4395 56.7356C46.9369 55.6849 48.6458 55.206 50.383 54.8007C52.0774 54.4058 53.7958 54.118 55.4431 53.5217C59.4378 52.0746 61.5533 48.8368 61.6722 44.5996C61.7215 42.8461 61.3968 41.1484 60.8192 39.5005C60.7293 39.244 60.6307 38.9911 60.5271 38.7398C60.4293 38.5033 60.3198 38.272 60.2162 38.0385C60.8286 39.9043 61.1228 41.8021 60.9822 43.7571C60.775 46.6364 59.5944 49.0138 57.3897 50.8253C55.8765 52.0686 54.103 52.7899 52.2919 53.4287C50.6598 54.0043 49.0038 54.5129 47.4521 55.3101C47.0543 55.5146 46.6926 55.7905 46.2636 55.931C46.3252 55.7979 46.452 55.7429 46.5636 55.6715C47.7725 54.9003 49.098 54.3976 50.4315 53.9158C52.1274 53.3023 53.8566 52.7758 55.4547 51.905C57.7905 50.6327 59.5147 48.8004 60.3213 46.1739C61.2446 43.1681 60.8344 40.2486 59.6784 37.3953C59.6277 37.2711 59.5618 37.1536 59.4364 37.0852C59.3849 37.1685 59.4393 37.2339 59.4596 37.3009C59.9749 38.9852 60.2198 40.7 60.0531 42.4683C59.8401 44.7238 59.0197 46.7078 57.5586 48.4077C56.0903 50.1158 54.2212 51.2402 52.2535 52.2196C50.5272 53.0785 48.7581 53.8518 47.1412 54.9323C46.573 55.3123 46.0824 55.7905 45.5251 56.1801C45.5794 56.0195 45.7084 55.9199 45.8237 55.8135C46.61 55.0907 47.4913 54.507 48.4139 53.9872C50.1598 53.0033 52.0129 52.2367 53.7501 51.2342C55.409 50.2765 56.923 49.1298 58.0159 47.5087C60.3532 44.0404 60.3474 40.3364 58.9646 36.5201C58.9088 36.3669 58.7986 36.2434 58.608 36.1467C58.7232 36.674 58.845 37.1395 58.924 37.6124C59.5951 41.6325 58.5681 45.1127 55.7583 48.0195C54.5169 49.3038 53.0768 50.3211 51.5897 51.2737C49.9213 52.3423 48.2044 53.3365 46.71 54.6676C46.2078 55.1145 45.7352 55.5912 45.3178 56.1236C45.1859 56.2917 45.2272 56.3326 45.4164 56.2917C45.404 56.3378 45.3671 56.4017 45.3845 56.4263C45.4519 56.5229 45.5012 56.4248 45.5504 56.3913C45.7831 56.2307 45.9657 55.989 46.2621 55.9332H46.2614ZM13.0033 58.0184C12.9946 58.9516 13.0562 59.8782 13.1366 60.804C13.1526 60.984 13.2055 61.1342 13.32 61.2747C14.8325 63.1279 16.5436 64.7616 18.467 66.1552C20.9087 67.925 23.5677 69.2256 26.4834 69.9358C29.2403 70.6065 32.016 70.8222 34.8019 70.1187C37.416 69.4584 39.6163 68.099 41.3223 65.9455C43.0515 63.7622 43.8379 61.2093 44.064 58.443C44.0894 58.1366 43.943 57.9552 43.7284 57.7931C42.658 56.9825 41.8659 55.9273 41.2274 54.7464C39.9163 52.3207 39.3496 49.6868 39.2394 46.9428C39.0807 42.9986 39.8576 39.206 41.102 35.499C41.8383 33.3053 42.7225 31.1741 43.7147 29.0904C43.835 28.8376 43.8676 28.6904 43.5139 28.6577C40.7527 28.3996 38.0103 28.5297 35.3034 29.1492C29.0105 30.5911 23.7931 33.8861 19.689 38.9659C15.2362 44.4769 13.0772 50.8728 13.0018 58.0184H13.0033ZM7.13725 30.0311C7.20103 29.9456 7.2677 29.8608 7.32858 29.7731C8.77081 27.7132 10.4058 25.8259 12.2358 24.1237C14.976 21.5753 18.03 19.5118 21.429 18C26.6964 15.6575 32.1602 14.7042 37.8711 15.6233C41.5984 16.2234 45.0098 17.6162 47.9957 20.0256C48.0798 20.094 48.1769 20.2532 48.2921 20.0948C48.3856 19.9669 48.5277 19.8159 48.3791 19.6315C48.3102 19.546 48.2291 19.4701 48.1508 19.3928C46.3832 17.6549 44.3329 16.3692 42.063 15.4538C38.4198 13.9851 34.633 13.5672 30.7535 13.9204C26.8464 14.2766 23.1539 15.4077 19.652 17.2065C15.3 19.4411 11.619 22.5346 8.52802 26.3799C8.26784 26.7041 7.95041 27.0008 7.80183 27.3942C7.4844 28.236 7.2677 29.1113 7.13725 30.0297V30.0311ZM8.02288 26.6625C8.15043 26.6238 8.18594 26.5249 8.2432 26.4528C10.3899 23.7438 12.8496 21.3812 15.658 19.4069C18.0105 17.7531 20.5267 16.422 23.2155 15.4404C27.6081 13.8371 32.1131 13.211 36.7558 13.8334C39.7352 14.2327 42.5428 15.1623 45.1344 16.7432C46.3129 17.4616 47.3913 18.313 48.3943 19.2693C48.4588 19.3303 48.5175 19.456 48.6306 19.3891C48.7277 19.3318 48.7574 19.2121 48.777 19.1013C48.8023 18.9615 48.7154 18.8655 48.6364 18.7733C48.3095 18.3918 47.9979 17.9947 47.6471 17.6386C45.4845 15.4374 42.908 13.9524 40.0055 13.0474C36.9268 12.0874 33.7822 11.8427 30.5846 12.1312C26.8211 12.4703 23.2605 13.5434 19.8781 15.2418C16.1957 17.0905 12.9634 19.5772 10.15 22.6335C9.76152 23.0551 9.29552 23.4329 9.04403 23.9542C8.62803 24.8161 8.32219 25.73 8.02215 26.6632L8.02288 26.6625ZM9.37234 23.1109C9.45206 23.1065 9.46873 23.1109 9.47452 23.105C9.56512 23.0053 9.65208 22.9034 9.74268 22.8038C13.1772 19.0477 17.156 16.0866 21.8226 14.145C26.5181 12.1907 31.3797 11.3452 36.4325 12.039C41.2694 12.7031 45.507 14.6157 48.7559 18.4952C48.8175 18.5688 48.8763 18.7272 49.006 18.6358C49.1024 18.5681 49.1545 18.4342 49.1292 18.3041C49.1132 18.2216 49.0698 18.142 49.027 18.0691C48.4407 17.0801 47.7544 16.1691 46.9499 15.3586C45.3432 13.7397 43.4741 12.5283 41.3861 11.6784C38.127 10.3517 34.7367 9.95388 31.2543 10.1896C27.4929 10.4439 23.9337 11.4657 20.5369 13.1106C17.3655 14.6462 14.5209 16.68 11.9647 19.1362C11.3168 19.7586 10.6196 20.3431 10.2565 21.2251C9.99633 21.8572 9.6789 22.464 9.37306 23.1109H9.37234ZM6.35744 33.489C6.38063 33.4979 6.40382 33.5069 6.42701 33.5158C6.4589 33.466 6.49224 33.4161 6.5234 33.3656C7.70544 31.4128 9.0491 29.5827 10.5754 27.9014C13.7237 24.4331 17.3792 21.6742 21.6001 19.7244C25.4796 17.933 29.5359 16.9358 33.801 16.8659C36.626 16.8198 39.3895 17.1998 42.084 18.0751C44.0285 18.7064 45.8657 19.5794 47.5609 20.7514C47.8247 20.9336 47.9435 20.8518 48.0479 20.5952C48.1312 20.3892 47.9595 20.335 47.8565 20.2502C45.6947 18.4759 43.2617 17.2385 40.6063 16.4696C35.9622 15.1251 31.2978 15.2032 26.6392 16.3751C21.9929 17.5441 17.8206 19.7222 14.0751 22.7599C11.327 24.9886 8.98533 27.6129 6.99085 30.5658C6.91331 30.6811 6.86475 30.8045 6.83938 30.9399C6.67922 31.7898 6.51905 32.6398 6.35888 33.4898L6.35744 33.489ZM6.03203 36.6859C6.06392 36.6955 6.09581 36.706 6.12842 36.7156C6.1661 36.6539 6.20669 36.5944 6.24075 36.5312C8.20986 32.8138 10.7479 29.5619 13.8396 26.7651C16.4958 24.3624 19.4433 22.426 22.6952 20.9834C27.3219 18.931 32.1414 18.023 37.1812 18.4335C40.7099 18.7213 44.0321 19.72 47.1383 21.4668C47.2999 21.5575 47.4587 21.7218 47.6174 21.4392C47.7703 21.1663 47.5971 21.0592 47.4203 20.9395C46.8267 20.5342 46.215 20.1595 45.5823 19.8226C41.0208 17.3917 36.1593 16.6949 31.0978 17.2318C27.9278 17.5679 24.886 18.4342 21.9748 19.7609C15.6623 22.638 10.7037 27.125 6.90244 33.0257C6.15161 34.191 6.15668 35.4291 6.03203 36.6866V36.6859ZM11.1233 19.6954C11.6625 19.1846 12.1901 18.6588 12.7438 18.1658C15.9232 15.3355 19.4621 13.1247 23.4373 11.6746C26.4645 10.5704 29.5823 9.95909 32.7987 9.90406C34.2873 9.87878 35.7665 9.99999 37.2326 10.261C39.8156 10.7206 42.2493 11.5765 44.4778 13.0303C46.3629 14.2595 47.9348 15.7988 49.1553 17.7174C49.2031 17.7925 49.2335 17.9427 49.3466 17.8996C49.4647 17.8535 49.4944 17.7114 49.4749 17.5813C49.464 17.5092 49.4394 17.4363 49.4089 17.3694C49.1966 16.9105 49.0009 16.4428 48.7639 15.9981C47.6536 13.9189 46.0614 12.303 44.1285 11.0374C42.6008 10.0372 40.9389 9.33518 39.1844 8.8719C36.8159 8.24651 34.4112 8.03458 31.9682 8.18479C29.8722 8.31344 27.8183 8.67038 25.8079 9.27421C21.6015 10.5369 17.8322 12.6547 14.4361 15.4843C13.7896 16.0226 13.1004 16.5283 12.5836 17.1976C11.9995 17.9531 11.561 18.8172 11.1247 19.6954H11.1233ZM5.97622 40.1051C6.00086 40.0508 6.02551 39.9973 6.05015 39.943C7.73516 36.1795 9.98691 32.8116 12.8127 29.8579C15.7254 26.8127 19.0613 24.3684 22.8582 22.6082C27.727 20.3513 32.8096 19.3303 38.1581 19.8352C41.1716 20.1193 44.0444 20.9128 46.7752 22.2476C46.9673 22.3413 47.1151 22.4127 47.2463 22.1502C47.3702 21.9025 47.2347 21.8237 47.0637 21.7241C45.7693 20.9656 44.414 20.3454 42.9994 19.868C38.6009 18.3837 34.1156 18.1769 29.5867 19.0336C23.3525 20.2123 17.9503 23.1206 13.2975 27.5073C10.3355 30.2996 7.94968 33.5552 6.09146 37.2161C6.0371 37.3232 5.98782 37.4466 5.9813 37.5649C5.93419 38.4052 5.87694 39.2447 5.97695 40.1058L5.97622 40.1051ZM6.50383 46.1962C6.52847 46.1947 6.55239 46.1939 6.57703 46.1924C6.67632 45.8749 6.76909 45.5552 6.87562 45.2399C8.71428 39.7868 11.6509 35.0603 15.7515 31.102C17.9641 28.9655 20.4151 27.1741 23.1162 25.7463C27.4748 23.4433 32.0993 22.2201 37.0094 22.2029C40.0417 22.1925 42.9972 22.6915 45.8599 23.7274C46.1505 23.8322 46.3868 23.9066 46.5151 23.5155C46.6549 23.0871 46.2708 23.1496 46.0991 23.0767C43.2552 21.8698 40.278 21.2786 37.2145 21.1671C34.5707 21.0704 31.9566 21.3686 29.3867 22.0163C23.6192 23.4701 18.6381 26.3829 14.3948 30.6246C10.803 34.2148 8.13521 38.4371 6.34004 43.2417C6.21974 43.5645 6.15741 43.8812 6.20741 44.2203C6.30525 44.8784 6.40527 45.5366 6.50383 46.1954V46.1962ZM49.6887 17.179C49.8032 16.9046 49.8068 16.9038 49.7554 16.6555C49.0226 13.1292 47.0543 10.519 44.0959 8.65402C41.5673 7.05968 38.772 6.3391 35.8448 6.14353C33.0422 5.95613 30.2745 6.25879 27.5581 7.00688C23.1771 8.2123 19.2686 10.3606 15.7065 13.2177C14.6586 14.058 13.978 15.1905 13.2026 16.2554C13.2489 16.2584 13.2823 16.248 13.3055 16.2264C15.9942 13.8074 18.9606 11.8338 22.2531 10.3904C26.5326 8.51422 30.9825 7.62409 35.6418 8.02565C38.8401 8.30154 41.8449 9.19092 44.5568 11.0232C46.4382 12.2948 47.9674 13.8892 49.0582 15.9156C49.277 16.3223 49.4727 16.7432 49.6894 17.1797L49.6887 17.179ZM6.09363 43.1911C6.16103 43.1384 6.18712 43.1287 6.19654 43.1094C6.22843 43.0424 6.25525 42.974 6.28206 42.9049C8.19682 37.8839 11.0762 33.5381 14.9267 29.8653C17.2698 27.6307 19.8672 25.7739 22.7321 24.3216C25.6854 22.8239 28.7895 21.8021 32.0573 21.3143C34.7142 20.918 37.3711 20.8815 40.0308 21.2518C42.2311 21.5582 44.3626 22.1345 46.4085 23.0269C46.631 23.1236 46.7549 23.0946 46.8658 22.8626C46.9898 22.6038 46.8021 22.5636 46.6586 22.4892C45.7403 22.0141 44.7873 21.6237 43.8125 21.2905C39.4677 19.804 35.0287 19.5683 30.5433 20.3699C24.257 21.4928 18.8084 24.3862 14.1266 28.8071C10.845 31.9066 8.30118 35.5637 6.34584 39.6768C5.78779 40.851 6.0487 41.985 6.09436 43.1904L6.09363 43.1911ZM7.12638 49.0272L7.2032 49.0182C7.23219 48.9119 7.26336 48.807 7.28945 48.7C7.99316 45.8243 9.04041 43.0885 10.4348 40.4903C12.517 36.6115 15.2217 33.263 18.5801 30.484C22.5104 27.2321 26.9378 25.0295 31.8928 23.9728C34.9439 23.3221 38.0168 23.1682 41.1122 23.5645C42.6131 23.7564 44.0879 24.0762 45.5359 24.5246C45.678 24.5684 45.8237 24.6718 45.9737 24.5201C46.2447 24.2457 46.1984 24.062 45.8128 23.923C41.7115 22.4409 37.4972 22.0899 33.2067 22.664C29.9244 23.1035 26.7943 24.0955 23.8214 25.5946C19.7332 27.6567 16.224 30.4825 13.2729 34.0415C10.2406 37.6987 8.06636 41.8348 6.69589 46.4207C6.64878 46.5776 6.61037 46.7338 6.6466 46.8952C6.80387 47.6061 6.96621 48.3162 7.12638 49.0272ZM15.8529 12.863C15.9399 12.7975 16.0276 12.7328 16.1138 12.6659C18.1445 11.0716 20.3108 9.70625 22.6423 8.62576C26.7522 6.72133 31.034 5.68247 35.5715 5.9301C38.8053 6.10634 41.8615 6.87674 44.6228 8.69343C46.8753 10.1755 48.5595 12.1335 49.5423 14.7049C49.7416 15.2262 49.8691 15.772 50.0684 16.3922C50.2453 14.5926 49.6662 12.1126 48.7125 10.4477C47.0825 7.60253 44.5815 5.92341 41.5934 4.94851C38.1704 3.83158 34.6794 3.80704 31.1738 4.4659C26.5682 5.33074 22.435 7.3192 18.6171 10.0602C17.5343 10.8373 16.6842 11.8412 15.8537 12.863H15.8529ZM8.01418 51.7808C8.15696 51.0863 8.27291 50.4668 8.41206 49.8533C9.71659 44.1058 12.3075 39.0454 16.1986 34.7041C19.1621 31.3979 22.6517 28.8198 26.6682 27.0113C30.0773 25.4764 33.6394 24.6056 37.3638 24.4599C39.999 24.3565 42.5979 24.622 45.1511 25.3069C45.4664 25.3916 45.6548 25.2965 45.736 25.0005C45.8266 24.6688 45.5128 24.7335 45.3707 24.6904C42.5363 23.8181 39.6417 23.4649 36.6818 23.5742C33.2017 23.7029 29.8599 24.4591 26.6471 25.8066C21.2587 28.0672 16.8154 31.6061 13.2801 36.346C10.4051 40.201 8.4425 44.5007 7.35685 49.2235C7.32061 49.3804 7.27495 49.5343 7.32496 49.6979C7.53006 50.3709 7.71197 51.0521 8.01418 51.7801V51.7808ZM9.02084 54.2987C9.04693 54.1969 9.05998 54.1642 9.0636 54.1307C9.53758 49.6994 10.8378 45.5388 12.9583 41.6496C14.9521 37.9932 17.5372 34.8417 20.7282 32.233C24.9636 28.7707 29.7519 26.577 35.1251 25.7649C37.1536 25.4586 39.1887 25.4154 41.2303 25.5612C42.4493 25.6482 43.6545 25.8363 44.846 26.1063C45.1939 26.1851 45.2888 25.9508 45.3519 25.7248C45.4301 25.4415 45.1497 25.5069 45.0207 25.4734C42.2478 24.7551 39.4358 24.4963 36.5797 24.6971C33.6539 24.9023 30.8245 25.5389 28.0894 26.6186C23.4518 28.4494 19.4701 31.2633 16.1414 35.0447C11.9799 39.7719 9.37379 45.286 8.25624 51.5458C8.21711 51.7645 8.12724 52.0084 8.18377 52.2032C8.38887 52.9082 8.67369 53.5856 9.02012 54.298L9.02084 54.2987ZM19.2005 9.41326C19.4063 9.27792 19.6121 9.14258 19.8172 9.00724C24.2207 6.1056 28.9764 4.21455 34.2359 3.89181C37.8545 3.67021 41.3629 4.15506 44.5989 6.01785C47.5224 7.70069 49.4821 10.1175 50.2054 13.5211C50.3206 14.0632 50.3917 14.612 50.4526 15.1638C50.6982 14.0372 50.7424 12.9001 50.6656 11.7616C50.5323 9.79028 49.8691 8.02416 48.6306 6.49749C47.2601 4.80871 45.4896 3.73342 43.4936 3.02697C41.2535 2.23352 38.943 1.98069 36.5768 2.07885C34.0438 2.18444 31.5985 2.70721 29.2069 3.52967C26.4674 4.47185 23.912 5.80666 21.4964 7.42703C20.6565 7.9907 19.897 8.65327 19.2005 9.41178V9.41326ZM10.1297 56.5586C10.1587 56.5557 10.1877 56.5534 10.2174 56.5505C10.2362 55.8849 10.2964 55.2238 10.3616 54.5635C10.6957 51.1948 11.54 47.9653 12.8808 44.8755C14.4593 41.2369 16.6291 38.011 19.3954 35.2142C21.8429 32.7402 24.6193 30.7465 27.7321 29.2488C30.0853 28.117 32.5407 27.3161 35.1026 26.8722C37.882 26.3903 40.6715 26.313 43.4661 26.7406C43.8241 26.7956 44.1814 26.8573 44.5394 26.9079C44.8424 26.951 44.9069 26.6915 44.9583 26.4907C45.017 26.2647 44.7931 26.2944 44.667 26.2654C43.2617 25.9419 41.8369 25.7553 40.4005 25.6921C37.7443 25.5761 35.1193 25.8192 32.5327 26.4714C26.079 28.0977 20.7478 31.5809 16.4668 36.764C13.5359 40.3118 11.4849 44.3497 10.2485 48.8256C9.78326 50.51 9.46655 52.224 9.26 53.9596C9.22087 54.2876 9.15419 54.6311 9.31001 54.9479C9.57599 55.4886 9.85501 56.0225 10.1282 56.5586H10.1297ZM11.4386 58.7285C11.4654 58.7166 11.4922 58.7055 11.519 58.6936C11.519 58.5954 11.5205 58.4973 11.519 58.3999C11.4849 56.2114 11.6777 54.0459 12.0995 51.8998C13.2301 46.1434 15.7435 41.1105 19.6411 36.8182C22.3074 33.8817 25.4361 31.5883 29.0083 29.9434C32.2965 28.4294 35.7419 27.5891 39.3445 27.4441C40.9165 27.3808 42.4826 27.4634 44.0423 27.682C44.33 27.7222 44.5764 27.5496 44.5836 27.2596C44.5909 26.9622 44.309 27.0693 44.1727 27.0462C42.1898 26.7101 40.1975 26.58 38.1849 26.7056C35.7223 26.8596 33.3205 27.3169 30.9847 28.1178C26.2645 29.7367 22.2045 32.4197 18.7816 36.1259C16.1508 38.974 14.1237 42.2192 12.6728 45.8474C11.3632 49.1216 10.6305 52.5304 10.4196 56.0589C10.3978 56.4233 10.2957 56.813 10.4877 57.155C10.7885 57.6897 11.1197 58.2058 11.4378 58.7293L11.4386 58.7285ZM12.8714 60.6977C12.9417 60.453 12.9069 60.2693 12.8946 60.0894C12.6974 57.1528 12.9076 54.2467 13.5468 51.3785C14.6789 46.2988 16.9306 41.8102 20.3282 37.9307C22.6205 35.3139 25.2854 33.1886 28.322 31.5578C31.2724 29.9739 34.4025 28.9655 37.7088 28.5528C39.1829 28.3691 40.6635 28.2598 42.1514 28.3862C42.6805 28.4308 43.211 28.4606 43.7408 28.4844C43.9596 28.4941 44.2365 28.2167 44.1995 28.0144C44.1604 27.8003 43.9524 27.8612 43.814 27.8464C43.0457 27.7653 42.2783 27.6671 41.5079 27.6329C39.1691 27.5281 36.8543 27.7333 34.5671 28.2568C28.4235 29.663 23.2894 32.8354 19.1389 37.66C15.363 42.0489 13.0417 47.1696 12.0988 52.9453C11.7828 54.881 11.6574 56.8308 11.7074 58.7925C11.7103 58.9145 11.7045 59.058 11.7618 59.1539C12.0821 59.6871 12.4626 60.1757 12.8721 60.6977H12.8714ZM23.5525 5.913C23.8149 5.77022 24.0758 5.62596 24.3389 5.48616C29.046 2.98533 33.9894 1.52187 39.3474 1.93681C41.9478 2.13759 44.414 2.8314 46.6223 4.3023C48.6929 5.68173 50.1532 7.54675 50.7714 10.0416C51.0773 11.2761 51.1121 12.5313 51.0512 13.7999C51.091 13.7509 51.115 13.6988 51.1324 13.6445C51.5244 12.416 51.8158 11.1638 51.8926 9.86985C51.9861 8.28072 51.7382 6.75702 50.9758 5.34859C49.8822 3.32814 48.1559 2.08703 46.1085 1.28019C42.6189 -0.0955267 39.0401 -0.0241382 35.4396 0.685284C32.0037 1.36273 28.7996 2.6849 25.7608 4.44508C24.9976 4.88679 24.2483 5.35379 23.5532 5.91226L23.5525 5.913ZM15.1137 69.0003C15.0898 69.0256 15.0651 69.0509 15.0412 69.0762C15.3297 69.8495 15.6819 70.5939 16.0102 71.3494C16.2102 71.809 16.524 72.1005 16.9393 72.337C19.0425 73.5335 21.245 74.463 23.5946 75.0148C27.611 75.9577 31.5739 75.8491 35.4643 74.376C38.7488 73.1327 41.2883 71.0059 42.8486 67.7398C43.9589 65.416 44.28 62.9263 44.2945 60.3742C44.2945 60.3355 44.2734 60.3303 44.2437 60.3668C44.1705 61.3089 44.0836 62.2586 43.8763 63.1903C42.953 67.3428 40.7114 70.4653 36.9464 72.3273C33.9307 73.819 30.7042 74.2027 27.4045 73.9053C23.4025 73.5446 19.7455 72.1362 16.3907 69.8845C15.9609 69.5959 15.5391 69.2948 15.1144 68.9996L15.1137 69.0003ZM13.9389 65.3007C13.8715 65.416 13.9041 65.4881 13.9222 65.558C14.1549 66.443 14.4107 67.3212 14.7071 68.186C14.7781 68.3935 14.9057 68.5445 15.076 68.6753C17.5162 70.5485 20.1789 71.9741 23.1083 72.8516C26.4305 73.8465 29.7961 74.0726 33.2053 73.387C35.8201 72.8605 38.1784 71.7889 40.1243 69.8852C42.287 67.7696 43.4712 65.1334 43.9249 62.1307C43.9756 61.7968 44.0546 61.4569 43.9988 61.1134C43.9575 61.1959 43.943 61.2799 43.927 61.3647C43.9089 61.4621 43.8908 61.5595 43.8705 61.6562C42.8834 66.3679 40.2454 69.6547 35.823 71.3457C33.1756 72.3578 30.4201 72.4664 27.6444 72.1183C23.8816 71.6469 20.4615 70.231 17.322 68.073C16.1269 67.2513 15.0159 66.3217 13.9382 65.3015L13.9389 65.3007ZM16.5603 72.4151C17.04 73.3186 17.522 74.118 18.0322 74.9003C18.1801 75.1271 18.3678 75.2773 18.6084 75.3844C21.9327 76.8657 25.3839 77.6562 29.0294 77.5067C32.4979 77.3654 35.7216 76.4381 38.6372 74.4831C41.3702 72.65 43.1537 70.1083 44.0118 66.8668C44.4706 65.1349 44.5583 63.3762 44.5112 61.5997C44.5017 61.2338 44.4517 60.8687 44.4206 60.5036C44.4452 62.3887 44.2278 64.2366 43.6647 66.0325C42.6341 69.3149 40.6686 71.8372 37.7284 73.5126C34.1525 75.5494 30.2875 76.1176 26.2645 75.7012C23.138 75.3769 20.2057 74.3753 17.4358 72.8627C17.1727 72.7192 16.9292 72.5348 16.561 72.4143L16.5603 72.4151ZM43.8154 61.2182C43.669 61.3714 43.6734 61.4889 43.6437 61.593C42.4696 65.6822 39.9359 68.4783 36.0318 69.9306C33.0748 71.0304 30.0541 70.9189 27.0291 70.2764C24.4505 69.7291 22.0494 68.7095 19.8006 67.3085C17.5865 65.9291 15.6217 64.2411 13.8874 62.269C13.6896 62.0444 13.4903 61.8213 13.27 61.5729C13.2475 61.6562 13.2272 61.6912 13.2308 61.7231C13.3417 62.7085 13.499 63.6848 13.7164 64.6516C13.7483 64.7914 13.8229 64.8962 13.923 64.9914C16.1298 67.1033 18.5692 68.859 21.345 70.1016C25.1745 71.8157 29.1569 72.5169 33.2988 71.812C37.7356 71.0564 41.0194 68.6545 42.8986 64.3839C43.332 63.3993 43.6313 62.3708 43.8147 61.2175L43.8154 61.2182ZM44.5293 60.4917C44.5757 61.0569 44.6503 61.6213 44.6641 62.1872C44.7068 63.9168 44.5431 65.6227 44.0604 67.29C43.2987 69.9194 41.9115 72.128 39.8141 73.8354C36.7978 76.2901 33.3031 77.4688 29.5033 77.7119C25.8623 77.9447 22.3632 77.2479 19.0048 75.7963C18.8939 75.7487 18.783 75.6595 18.6076 75.7257C19.1418 76.4671 19.6795 77.1624 20.2514 77.8317C20.4499 78.0637 20.6847 78.2079 20.971 78.3009C24.2171 79.3531 27.527 79.7279 30.91 79.278C34.3127 78.8251 37.4008 77.5833 40.0859 75.3583C42.4326 73.4137 43.9712 70.9441 44.6249 67.9131C45.1584 65.4383 44.9873 62.9665 44.53 60.4932L44.5293 60.4917ZM21.0058 78.5582C21.4791 79.0728 21.9255 79.5859 22.4024 80.0677C22.7684 80.4388 23.138 80.7868 23.696 80.8947C26.134 81.3669 28.5815 81.5134 31.0456 81.1981C34.4844 80.7578 37.6218 79.5398 40.3534 77.3141C42.1978 75.8112 43.6741 74.0012 44.6032 71.7599C45.5896 69.381 45.7751 66.9003 45.4671 64.3601C45.3229 63.1688 45.0968 61.9938 44.7808 60.836C44.7612 60.8843 44.7554 60.9312 44.7626 60.9765C45.0257 62.6051 45.1837 64.2359 45.0612 65.8927C44.917 67.8484 44.4336 69.6956 43.5262 71.423C42.1319 74.0771 40.0258 75.9837 37.4631 77.3684C32.7523 79.9138 27.7879 80.2165 22.6741 79.011C22.1146 78.8794 21.5631 78.7099 21.0051 78.5574L21.0058 78.5582ZM23.6779 81.1527C24.3381 81.7595 25.0491 82.286 25.7767 82.7931C25.9942 82.9448 26.2246 83.0289 26.4826 83.0512C29.1982 83.2884 31.887 83.162 34.5243 82.3968C38.4843 81.2486 41.7999 79.1248 44.1981 75.6268C45.6244 73.5454 46.3984 71.2386 46.4709 68.6857C46.5354 66.4236 46.0563 64.2582 45.4033 62.1217C45.2852 61.7358 45.1584 61.3528 45.0359 60.9684C45.2229 62.0355 45.4425 63.0862 45.5874 64.1526C45.8751 66.2623 45.8316 68.3519 45.2518 70.4102C44.4003 73.4338 42.6116 75.7844 40.2164 77.6725C36.8674 80.3124 33.0154 81.4628 28.8402 81.5914C27.1095 81.645 25.3948 81.4613 23.6779 81.1534V81.1527ZM26.6856 83.3397C27.4081 83.8573 28.172 84.2759 28.9475 84.676C29.1576 84.7846 29.37 84.8404 29.607 84.8359C31.7652 84.7898 33.8931 84.537 35.9622 83.8729C40.0584 82.5589 43.4161 80.2232 45.6968 76.4188C46.8035 74.5731 47.4572 72.5742 47.5616 70.3924C47.7261 66.9427 46.494 63.8678 45.1518 60.8189C45.1642 60.949 45.1968 61.074 45.2374 61.1967C45.7121 62.6289 46.1389 64.0738 46.3969 65.567C46.7028 67.3405 46.7513 69.1133 46.4006 70.8847C45.7621 74.1061 44.0568 76.6768 41.6789 78.788C38.2806 81.8056 34.2395 83.1486 29.8055 83.3724C28.7699 83.4252 27.7321 83.4037 26.6863 83.339L26.6856 83.3397ZM29.815 85.0627C30.6549 85.4836 31.5145 85.8398 32.3965 86.1387C32.5624 86.1952 32.7306 86.1871 32.8987 86.1662C34.2554 86.0004 35.5998 85.7677 36.9087 85.3549C41.4013 83.9376 45.0424 81.3721 47.3442 77.0687C48.8958 74.1678 49.2836 71.0832 48.4979 67.8588C48.016 65.8808 47.1246 64.0812 46.1882 62.3017C45.8838 61.7231 45.5758 61.1468 45.2692 60.5698C45.4925 61.2413 45.77 61.8845 46.0382 62.5322C46.8666 64.537 47.5449 66.5887 47.713 68.7757C47.9573 71.9607 47.0876 74.8378 45.2917 77.4167C42.7573 81.0568 39.2626 83.2356 35.0896 84.3458C33.364 84.8047 31.6072 85.033 29.8157 85.0627H29.815ZM33.2778 86.3603C33.2749 86.3849 33.2727 86.4087 33.2698 86.4332C33.8387 86.5834 34.4105 86.7232 34.9758 86.8876C35.5926 87.0668 36.1912 87.0824 36.8261 86.9247C41.2658 85.8219 45.046 83.6506 47.7964 79.8201C49.3981 77.5892 50.2895 75.0832 50.3815 72.2968C50.4511 70.1916 49.9264 68.2247 49.0415 66.347C48.1646 64.4872 46.9702 62.8304 45.8498 61.1268C45.7563 60.984 45.6519 60.8486 45.5533 60.7096C45.5396 60.8115 45.5707 60.8769 45.6048 60.9408C46.5629 62.7456 47.5811 64.5214 48.2472 66.4727C48.8929 68.3645 49.2415 70.3009 49.0081 72.3124C48.6349 75.5323 47.2652 78.2689 45.0953 80.5875C42.4094 83.4587 39.0923 85.1571 35.3288 85.9841C34.6504 86.1335 33.9619 86.2354 33.2778 86.3596V86.3603ZM45.4961 60.3779C45.8121 60.8516 46.1266 61.3268 46.444 61.799C47.4377 63.2773 48.4458 64.7467 49.2176 66.3686C50.3446 68.7348 50.8265 71.2096 50.4373 73.8346C49.9663 77.0166 48.4972 79.6751 46.3129 81.9283C44.3409 83.9629 41.9949 85.4085 39.3634 86.373C38.4893 86.6935 37.5965 86.9463 36.5934 87.1977C37.5508 87.3776 38.4111 87.4661 39.2742 87.5167C39.4025 87.5241 39.5366 87.4817 39.6627 87.4453C40.8875 87.0906 42.0587 86.5931 43.1827 85.9863C46.5433 84.1703 49.2618 81.671 50.8533 78.0726C52.5746 74.1827 52.4659 70.3388 50.3424 66.6073C49.0241 64.2909 47.1499 62.4274 45.4961 60.3779ZM40.2258 87.5375C41.06 87.6163 41.8782 87.5353 42.6972 87.5092C42.824 87.5055 42.953 87.4408 43.074 87.3888C44.5865 86.7455 46.0114 85.9394 47.3275 84.9385C49.9692 82.9285 52.0006 80.4314 53.092 77.2092C53.9284 74.7396 54.0349 72.2388 53.2624 69.7268C52.6333 67.6811 51.4454 65.9998 50.0018 64.4813C48.661 63.0699 47.1782 61.8109 45.8469 60.3898C45.8222 60.3638 45.7889 60.3021 45.7236 60.3943C46.6999 61.5677 47.6891 62.736 48.6545 63.9243C49.9148 65.4748 51.0193 67.1316 51.6288 69.0732C52.8239 72.8776 52.1854 76.447 50.1829 79.7904C48.4479 82.6875 45.9795 84.769 43.0457 86.2986C42.1319 86.7753 41.181 87.1597 40.2251 87.5382L40.2258 87.5375ZM45.5917 59.8373C45.557 59.8723 45.5222 59.9072 45.4874 59.9421C45.67 60.1005 45.8606 60.2508 46.0346 60.4188C47.3782 61.7194 48.7378 63.0037 50.0554 64.3318C51.2331 65.5186 52.2593 66.8363 52.9406 68.3957C54.5843 72.1615 54.2212 75.8439 52.3796 79.4096C50.7403 82.5842 48.2175 84.8671 45.1823 86.5871C44.6779 86.8727 44.1553 87.124 43.5705 87.4274C43.848 87.4007 44.0415 87.3955 44.2307 87.362C45.1047 87.2058 45.9889 87.1516 46.7992 86.6734C50.0953 84.7281 52.7587 82.1737 54.3886 78.5887C55.3837 76.4009 55.767 74.1016 55.4721 71.7086C55.101 68.6976 53.5667 66.3604 51.3519 64.43C49.4959 62.8126 47.35 61.5804 45.591 59.8366L45.5917 59.8373ZM46.9716 86.8169C48.1769 86.5448 49.3625 86.2473 50.3453 85.4033C50.8628 84.9586 51.423 84.5667 51.9238 84.099C54.7401 81.4672 56.7114 78.3418 57.2303 74.3946C57.5644 71.8536 57.1252 69.4614 55.7743 67.2751C54.6495 65.4554 53.0304 64.2039 51.2461 63.1442C49.7111 62.2333 48.1044 61.4502 46.6245 60.4389C46.4469 60.3177 46.2679 60.1972 46.0896 60.076C46.4897 60.5036 46.9253 60.8747 47.3797 61.2197C48.7951 62.2965 50.2743 63.2855 51.6129 64.4671C53.0109 65.7016 54.1813 67.1212 54.9082 68.8821C56.0178 71.571 56.0221 74.3091 55.1633 77.0553C54.1052 80.4388 52.0339 83.0757 49.3125 85.2122C48.5668 85.7982 47.7732 86.3105 46.9724 86.8162L46.9716 86.8169ZM50.3395 85.6762C51.0186 85.4457 51.7092 85.2434 52.2796 84.8017C53.4986 83.8573 54.5937 82.7738 55.5373 81.5386C57.8224 78.5463 59.1871 75.226 58.9465 71.3427C58.8493 69.7811 58.416 68.3243 57.6354 66.9799C56.5374 65.0888 54.901 63.841 52.9964 62.9137C51.4882 62.179 49.8981 61.6555 48.3639 60.9892C47.6341 60.6724 46.9282 60.3058 46.215 59.9474C46.652 60.3333 47.1427 60.6367 47.6362 60.9334C49.0951 61.8094 50.6265 62.5538 52.0629 63.4722C53.8327 64.6032 55.3626 65.9827 56.3439 67.9094C57.8188 70.8051 57.8449 73.8108 56.8955 76.8582C55.9381 79.9302 54.1241 82.4154 51.7621 84.5027C51.3012 84.9103 50.8149 85.2865 50.3402 85.6777L50.3395 85.6762ZM46.2273 59.7131C46.8173 60.1474 47.4746 60.4441 48.1327 60.7363C49.751 61.4539 51.4375 61.9938 53.0377 62.7598C54.6923 63.5517 56.1678 64.5839 57.2716 66.1001C58.9965 68.4701 59.4646 71.162 59.0581 74.0295C58.5819 77.3899 57.0375 80.2194 54.8155 82.6935C54.3538 83.2081 53.8458 83.6751 53.3384 84.1822C53.4856 84.2254 53.5428 84.1473 53.6139 84.1109C54.5263 83.6431 55.2525 82.9396 55.9381 82.1834C58.3072 79.5702 59.9335 76.5734 60.4184 72.9966C60.6902 70.9962 60.5206 69.0382 59.7364 67.1673C58.695 64.682 56.823 63.1212 54.4002 62.1887C53.4261 61.8139 52.4188 61.5543 51.4085 61.3089C49.651 60.8814 47.8783 60.5081 46.2259 59.7146L46.2273 59.7131ZM46.5122 59.6655C46.6412 59.7258 46.768 59.7904 46.8992 59.8455C47.829 60.2351 48.7929 60.5125 49.767 60.7564C51.3722 61.1587 53.0007 61.4711 54.5546 62.0712C55.9171 62.5969 57.1614 63.3264 58.1674 64.4136C60.2655 66.6802 60.9235 69.4472 60.6597 72.4753C60.4025 75.4253 59.2711 78.0428 57.5941 80.4291C57.1165 81.1081 56.5802 81.7364 56.0511 82.3745C56.5896 82.0153 57.0694 81.5885 57.489 81.094C58.7493 79.6082 59.8082 77.9871 60.5655 76.1719C61.7338 73.3714 62.2455 70.4809 61.5309 67.4699C60.8358 64.54 59.1574 62.4504 56.3584 61.3863C55.0104 60.8739 53.5986 60.6902 52.1789 60.5527C50.283 60.369 48.374 60.2619 46.5129 59.6663L46.5122 59.6655ZM46.4636 59.4179C46.5846 59.464 46.7049 59.5138 46.8281 59.5555C47.9812 59.9496 49.1777 60.1057 50.3794 60.2292C51.8433 60.3794 53.3153 60.4538 54.7626 60.752C57.2513 61.2651 59.3117 62.4549 60.6554 64.7371C61.7447 66.5872 62.1121 68.6151 62.0222 70.7582C61.9121 73.3959 61.0982 75.803 59.8357 78.0726C59.6741 78.3626 59.5016 78.6474 59.3255 78.9285C59.1508 79.2081 58.9646 79.4803 58.7834 79.7554C58.887 79.7257 58.9457 79.6647 58.9979 79.5985C60.7525 77.3795 61.9954 74.8958 62.5984 72.1005C63.1086 69.7372 63.113 67.3784 62.3274 65.0643C61.7164 63.2654 60.6807 61.799 59.0784 60.7854C57.8188 59.989 56.4258 59.6782 54.9749 59.6038C53.6718 59.5376 52.3709 59.644 51.0693 59.7086C49.5292 59.7852 47.9848 59.8098 46.4643 59.4171L46.4636 59.4179ZM61.6483 75.7614C61.6881 75.687 61.7294 75.6134 61.7679 75.5383C62.8745 73.3736 63.5927 71.0854 63.7623 68.6411C63.9167 66.4162 63.6283 64.2589 62.6136 62.2541C61.5265 60.1058 59.8843 58.6527 57.4999 58.3039C55.9243 58.0734 54.3473 58.2534 52.7891 58.6029C51.0563 58.991 49.3227 59.3867 47.5268 59.2982C47.1521 59.2796 46.7861 59.203 46.4114 59.1829C46.4882 59.2268 46.568 59.2513 46.6484 59.2729C47.9261 59.6164 49.2299 59.6045 50.5344 59.5696C52.2093 59.5242 53.8798 59.3168 55.5598 59.4833C58.8319 59.8068 61.1301 61.4874 62.3672 64.6248C63.2492 66.8616 63.3079 69.1817 62.9064 71.5316C62.6571 72.9914 62.1889 74.3819 61.6483 75.7636V75.7614ZM43.1559 56.5661C42.9363 55.9414 42.6529 55.3428 42.4776 54.7003C41.7804 52.1467 41.7927 49.5626 42.1659 46.9666C42.5964 43.9734 43.4581 41.0978 44.5054 38.281C45.5512 35.4693 46.6433 32.6755 47.7246 29.878C47.8348 29.5924 47.8167 29.4325 47.4906 29.3938C47.4072 29.3842 47.3217 29.3641 47.2449 29.3306C46.9137 29.1849 46.7571 29.3135 46.6245 29.6459C46.0715 31.0328 45.478 32.4026 44.9214 33.788C43.2653 37.9091 41.8166 42.0936 41.3912 46.5724C41.1498 49.1097 41.2672 51.6209 42.0166 54.0705C42.2862 54.9509 42.6218 55.8076 43.1552 56.5661H43.1559ZM42.8559 56.7981C42.0652 55.6596 41.4687 54.4222 41.0535 53.0926C40.1243 50.1181 40.0533 47.0774 40.4208 44.0106C40.8875 40.1155 42.0927 36.4323 43.54 32.8242C44.0314 31.5987 44.572 30.394 45.0866 29.1782C45.1243 29.089 45.2504 28.9581 45.0939 28.8956C44.8221 28.7885 44.5235 28.7618 44.2372 28.7856C44.0263 28.8034 44.006 29.0518 43.9306 29.2102C42.716 31.7764 41.6173 34.391 40.8107 37.1276C39.7997 40.5565 39.2075 44.0389 39.4554 47.6395C39.604 49.7983 40.0439 51.8812 40.9281 53.8518C41.4144 54.9353 42.0304 55.9384 42.8551 56.7973L42.8559 56.7981ZM42.9486 56.5676C42.7225 56.0954 42.471 55.6328 42.2739 55.148C41.331 52.8301 41.0636 50.4051 41.1527 47.911C41.2209 45.982 41.5115 44.0924 41.9376 42.2207C42.7319 38.7338 43.9908 35.4091 45.3229 32.1111C45.6744 31.2418 46.0201 30.3695 46.3919 29.5091C46.5194 29.2139 46.4571 29.1016 46.1592 29.0793C46.0635 29.0719 45.965 29.054 45.8766 29.0183C45.5816 28.8993 45.4454 29.0384 45.325 29.3061C44.0575 32.1311 42.8551 34.9837 41.947 37.9567C41.0948 40.7454 40.4947 43.5808 40.4005 46.5137C40.3106 49.3209 40.6483 52.0515 41.7825 54.6386C42.0869 55.3331 42.4493 55.9935 42.9479 56.5683L42.9486 56.5676ZM43.6212 56.2946C43.4683 55.081 43.5016 53.8749 43.685 52.6717C43.9886 50.6773 44.609 48.7758 45.3294 46.9071C46.3998 44.1289 47.7239 41.4667 48.9118 38.742C49.9387 36.3862 50.857 33.991 51.357 31.4485C51.4788 30.8276 51.4744 30.8387 50.8975 30.5859C50.6374 30.4721 50.5243 30.4981 50.4468 30.8067C50.0945 32.2122 49.6177 33.5768 49.106 34.9279C48.1646 37.4102 47.0601 39.8225 46.0802 42.2884C44.7105 45.7359 43.4313 49.2108 43.2661 52.9929C43.2175 54.1113 43.3451 55.2112 43.6219 56.2939L43.6212 56.2946ZM43.1987 56.0909C43.1733 55.9853 43.153 55.8782 43.1211 55.7749C42.4913 53.7618 42.5073 51.7012 42.7261 49.6354C42.9943 47.0974 43.6995 44.6643 44.5097 42.2609C45.299 39.9184 46.2397 37.6362 47.1347 35.3354C47.7833 33.6675 48.432 31.9995 48.9712 30.2892C49.0103 30.1657 49.1292 30.0036 49.0161 29.9077C48.7994 29.724 48.5117 29.6705 48.2399 29.6422C48.0218 29.6192 48.0029 29.8549 47.9428 30.0073C47.3913 31.395 46.8477 32.7855 46.2955 34.1724C44.9714 37.4987 43.6596 40.8294 42.845 44.3371C42.1688 47.2491 41.8217 50.1835 42.2862 53.1729C42.4442 54.1909 42.7109 55.174 43.1994 56.0909H43.1987ZM43.4016 56.1556C43.29 55.4707 43.1755 54.7895 43.1421 54.098C43.0139 51.4417 43.6089 48.9059 44.388 46.4051C45.2721 43.5674 46.4549 40.8509 47.5862 38.1136C48.5726 35.7281 49.5278 33.3321 50.1815 30.8224C50.2651 30.5011 50.1528 30.2808 49.8445 30.1613C49.7996 30.1442 49.751 30.133 49.7082 30.1107C49.4379 29.9679 49.3133 30.0572 49.2183 30.3539C48.7857 31.708 48.287 33.0384 47.7667 34.3598C46.4832 37.6221 45.1004 40.8457 44.0741 44.2099C43.1595 47.2075 42.5355 50.2497 42.7972 53.419C42.8747 54.3582 43.0573 55.2759 43.4016 56.1556ZM43.8618 56.5884C43.8618 56.5162 43.869 56.4426 43.8611 56.3712C43.7415 55.3227 43.9046 54.2973 44.1205 53.2807C44.5996 51.0231 45.5055 48.9268 46.5093 46.8766C47.5014 44.8509 48.5552 42.858 49.5568 40.8376C50.9526 38.0214 52.1318 35.1265 52.5296 31.9549C52.5789 31.563 52.5173 31.328 52.1383 31.1711C51.7158 30.9964 51.7194 30.9689 51.6223 31.4455C51.2621 33.2228 50.6982 34.9339 50.0358 36.613C48.9661 39.3258 47.6413 41.9181 46.4803 44.5877C45.1895 47.5563 43.9763 50.5523 43.6929 53.8414C43.6132 54.7643 43.6639 55.6797 43.8611 56.5884H43.8618ZM43.9828 56.7252C44.0575 55.8886 44.1698 55.0587 44.372 54.2407C44.9214 52.0158 45.9628 50.0184 47.0767 48.0567C48.3044 45.895 49.6575 43.8091 50.8236 41.6102C52.2963 38.8327 53.4196 35.94 53.6167 32.738C53.661 32.0181 53.6639 32.0018 53.0928 31.6917C52.85 31.56 52.8174 31.6463 52.7927 31.8739C52.6855 32.8606 52.476 33.8281 52.2122 34.7829C51.4056 37.7009 50.0496 40.3706 48.6668 43.0283C47.3195 45.6176 45.9092 48.175 44.9373 50.9509C44.2836 52.8174 43.8335 54.7182 43.9828 56.726V56.7252ZM56.9099 34.4542C56.8302 34.5822 56.8846 34.6885 56.9013 34.7941C56.9947 35.3816 57.0578 35.9727 57.0665 36.5676C57.1056 39.3176 56.3077 41.8095 54.8553 44.1021C53.3928 46.4118 51.4476 48.2701 49.5213 50.1478C48.0486 51.5823 46.5897 53.0294 45.5019 54.8118C45.2489 55.2261 44.9902 55.6395 44.8358 56.1206C44.9605 56.1236 44.9692 56.0329 45.0033 55.9764C45.4772 55.1948 46.0433 54.4884 46.6673 53.828C47.7051 52.7304 48.877 51.7942 50.0481 50.8565C51.8006 49.454 53.5573 48.0567 54.9785 46.2787C57.576 43.0305 58.4884 39.3748 57.5325 35.2574C57.4426 34.8714 57.2194 34.6424 56.9092 34.4535L56.9099 34.4542ZM44.1169 56.949C44.3003 55.664 44.6684 54.4393 45.1873 53.2599C45.9722 51.4767 47.055 49.8816 48.1551 48.2969C49.5836 46.24 51.0773 44.2293 52.2963 42.0259C53.819 39.273 54.7676 36.3646 54.6727 33.1514C54.6596 32.7112 54.4661 32.503 54.1429 32.3237C53.9726 32.2293 53.8979 32.2791 53.8914 32.4717C53.8842 32.6941 53.8791 32.9179 53.8588 33.1395C53.632 35.5764 52.8746 37.8504 51.8375 40.0382C50.5729 42.7063 48.9473 45.1573 47.4652 47.6953C46.3346 49.6317 45.2656 51.5979 44.6336 53.7789C44.3336 54.8141 44.1568 55.8693 44.1162 56.9483L44.1169 56.949ZM57.739 35.2187C57.7869 35.4596 57.8144 35.6165 57.8485 35.7712C58.1261 37.0287 58.1884 38.3062 58.0572 39.5786C57.7014 43.0209 56.0048 45.7381 53.5936 48.05C52.126 49.457 50.5011 50.6654 48.9313 51.9429C47.5558 53.0628 46.2549 54.2616 45.2642 55.7704C45.1924 55.8797 45.0881 55.9831 45.0837 56.1883C45.1605 56.1147 45.1982 56.0857 45.2279 56.0493C46.015 55.0654 46.9448 54.243 47.9486 53.5016C49.5184 52.3415 51.2215 51.3949 52.8123 50.2698C54.3009 49.2175 55.6946 48.053 56.7665 46.5397C59.082 43.2707 59.4342 39.6983 58.2877 35.9028C58.2043 35.6262 58.0217 35.4433 57.7383 35.2194L57.739 35.2187ZM54.9495 32.903C54.9379 32.9491 54.9206 32.9833 54.9227 33.0161C55.0075 34.1739 54.8814 35.3169 54.6582 36.4479C54.1458 39.0402 53.0029 41.3499 51.6158 43.5503C50.3098 45.6228 48.8132 47.5555 47.45 49.5856C46.323 51.264 45.2881 52.9929 44.6916 54.9569C44.5648 55.374 44.4742 55.8016 44.3662 56.2247C44.6235 55.6975 44.8069 55.1495 45.0475 54.6245C46.0578 52.4188 47.6029 50.6081 49.1335 48.7877C50.5453 47.1086 51.9687 45.4391 53.1464 43.5704C54.9887 40.6487 56.0207 37.5054 55.6837 33.9724C55.633 33.4407 55.4315 33.0994 54.9488 32.903H54.9495ZM44.538 56.3281C44.646 56.3103 44.6474 56.2404 44.6692 56.1891C45.0156 55.3525 45.4671 54.5784 45.9896 53.8459C47.2246 52.1162 48.7719 50.6884 50.267 49.2116C51.9397 47.5585 53.5617 45.863 54.7959 43.824C56.5606 40.909 57.1752 37.7701 56.5425 34.3873C56.5026 34.1746 56.4534 33.9739 56.2562 33.8549C56.1664 33.8006 56.0932 33.6504 55.9866 33.7076C55.854 33.779 55.9497 33.9292 55.9547 34.046C55.9591 34.1449 55.9721 34.2431 55.9787 34.342C56.1685 37.3626 55.3728 40.1252 53.8936 42.7071C52.6934 44.8011 51.1657 46.6379 49.6162 48.4583C48.3697 49.9225 47.0999 51.3696 46.0715 53.0115C45.4251 54.0437 44.8888 55.1301 44.5387 56.3281H44.538ZM45.7954 56.6895C47.6971 55.7957 49.7314 55.6306 51.7679 55.4685C53.0906 55.3629 54.4154 55.264 55.7149 54.9583C57.6064 54.5129 59.2378 53.622 60.4735 52.0485C61.8693 50.272 62.4035 48.1898 62.4607 45.9612C62.4984 44.5044 62.2672 43.0737 61.865 41.6741C61.6635 40.9744 61.4309 40.288 61.1004 39.6403C61.1323 39.8247 61.1881 40.0002 61.241 40.1765C61.8418 42.1709 62.0563 44.1995 61.7142 46.2675C61.3374 48.5483 60.3459 50.4817 58.5783 51.9585C57.2977 53.0286 55.804 53.6444 54.2299 54.0823C52.4347 54.5813 50.5845 54.8312 48.7951 55.3532C47.7384 55.6611 46.7064 56.0351 45.7961 56.6903L45.7954 56.6895ZM62.9405 43.5987C62.976 43.766 63.013 43.9333 63.047 44.1006C63.4935 46.2809 63.5326 48.4553 62.8905 50.6037C62.0418 53.4443 60.3561 55.4722 57.4883 56.2976C55.8098 56.781 54.0951 56.6984 52.3818 56.5839C50.9251 56.4865 49.4676 56.3735 48.0095 56.543C47.3608 56.6181 46.7173 56.7356 46.1085 56.9966C46.5825 56.9059 47.0572 56.842 47.5377 56.8152C49.0734 56.7304 50.5649 57.0308 52.0549 57.3491C53.5559 57.6696 55.0568 58.0035 56.6048 57.9225C58.8718 57.8035 60.6786 56.8048 61.9961 54.9033C63.0833 53.3343 63.5862 51.5518 63.7486 49.6585C63.9268 47.5823 63.6326 45.5618 62.9405 43.5994V43.5987ZM45.9498 56.8464C47.5239 56.314 49.1444 56.2381 50.7765 56.317C52.318 56.3913 53.8523 56.5356 55.4018 56.4635C58.9117 56.2999 61.5823 54.237 62.6339 50.797C63.3666 48.3988 63.3036 45.9872 62.7303 43.5711C62.5919 42.9867 62.4419 42.4029 62.1831 41.8013C62.1331 42.0222 62.2128 42.1694 62.2476 42.3196C62.7448 44.462 62.8593 46.6096 62.2897 48.7542C61.557 51.5139 59.9799 53.538 57.347 54.6222C55.812 55.2543 54.1929 55.4343 52.5666 55.5629C51.0512 55.6834 49.5307 55.7592 48.0406 56.0931C47.3159 56.256 46.6042 56.4642 45.9512 56.8464H45.9498ZM55.009 58.0608C54.0799 57.9344 53.1602 57.7395 52.239 57.5484C50.5511 57.1974 48.8697 56.7773 47.1224 56.9818C46.2389 57.0851 45.3903 57.2993 44.6213 57.7797C44.272 57.9983 44.2648 58.1143 44.6061 58.3195C44.8873 58.4884 45.175 58.6401 45.4845 58.7538C46.9615 59.2959 48.4675 59.2424 49.9851 59.0082C51.6658 58.7479 53.3044 58.2482 55.009 58.0615V58.0608ZM5.96898 44.323C5.62763 45.3224 5.39788 46.2802 5.11524 47.2209C4.77171 48.3616 5.32179 49.3358 5.53993 50.3791C5.80374 49.2123 6.06247 48.0567 6.36323 46.9115C6.38135 46.8424 6.38135 46.7621 6.36976 46.6907C6.24293 45.927 6.11247 45.1647 5.9697 44.323H5.96898ZM6.47919 53.1967C6.5966 52.4189 6.7169 51.641 6.83141 50.8624C6.89446 50.4356 7.09884 50.0117 7.02492 49.5879C6.89664 48.8524 6.68429 48.1326 6.50311 47.3897C6.37338 47.4797 6.37483 47.5979 6.35236 47.699C6.16683 48.5304 5.97622 49.3603 5.80809 50.1954C5.74793 50.4943 5.63197 50.8029 5.71677 51.1093C5.91317 51.821 6.14581 52.5207 6.47992 53.1967H6.47919ZM5.7088 41.2376C5.33266 42.1374 5.10364 42.9829 4.76736 43.7779C4.2441 45.016 4.67025 46.1865 4.84926 47.3852C4.89927 47.3317 4.92246 47.2774 4.93695 47.2201C5.208 46.1553 5.5008 45.0978 5.86099 44.0605C5.88853 43.9801 5.9139 43.8902 5.9081 43.8076C5.84795 42.9874 5.78127 42.1687 5.70807 41.2376H5.7088ZM7.53658 55.9466C7.61268 55.084 7.71124 54.2489 7.79676 53.4131C7.8359 53.0323 7.99534 52.6419 7.89822 52.2746C7.71124 51.5652 7.44816 50.8766 7.21697 50.1798C6.91258 51.3443 6.74299 52.5118 6.64008 53.6905C6.63284 53.773 6.65458 53.8652 6.68647 53.9425C6.96621 54.6118 7.25248 55.2788 7.53586 55.9459L7.53658 55.9466ZM8.08158 52.7118C7.93808 53.7284 7.89967 54.6668 7.78372 55.5956C7.64529 56.7059 8.39539 57.4079 8.77081 58.3084C8.88169 58.205 8.85705 58.1262 8.85922 58.0563C8.88749 57.1654 8.91793 56.2738 8.93822 55.3822C8.94257 55.1733 9.04621 54.9598 8.96141 54.7576C8.68746 54.1002 8.39974 53.4495 8.08158 52.7118ZM5.72039 38.0817C5.25439 38.9785 4.83911 39.8865 4.49921 40.8272C4.39485 41.1149 4.23686 41.3923 4.23396 41.7106C4.22599 42.5576 4.30426 43.3986 4.405 44.3244C4.7391 43.3027 5.01595 42.3494 5.42542 41.4533C5.86751 40.4858 5.59139 39.4737 5.68705 38.487C5.7001 38.3524 5.70952 38.217 5.72039 38.0824V38.0817ZM5.93636 34.8655C5.42832 35.6329 5.06885 36.4695 4.63691 37.2652C4.02523 38.3925 4.30571 39.5927 4.21512 40.8041C4.28759 40.7587 4.31658 40.752 4.32383 40.7349C4.7391 39.6805 5.17756 38.6364 5.67618 37.6199C5.703 37.5656 5.72474 37.5039 5.72981 37.4444C5.80084 36.5847 5.86824 35.7251 5.93636 34.8662V34.8655ZM5.65009 51.7369C5.45514 52.6003 5.35078 53.4674 5.32614 54.3419C5.31599 54.6973 5.17901 55.0587 5.31309 55.4097C5.59429 56.1437 5.9023 56.8665 6.30598 57.6503C6.29656 56.4121 6.31105 55.2662 6.39585 54.1232C6.40454 54.002 6.40092 53.8689 6.36251 53.7566C6.13132 53.0814 5.88853 52.4099 5.64937 51.7369H5.65009ZM6.59152 54.3724C6.47267 55.4306 6.50746 56.4196 6.47339 57.4064C6.43643 58.4631 7.17421 59.1346 7.57427 59.9793C7.62427 59.8938 7.63659 59.8232 7.6337 59.7525C7.59673 58.7278 7.52933 57.7031 7.55977 56.6761C7.56412 56.5371 7.52716 56.4084 7.46918 56.2828C7.18653 55.6693 6.90534 55.055 6.59152 54.3724ZM9.20347 55.2774C9.09331 55.4239 9.11071 55.5629 9.10853 55.6938C9.09621 56.4478 9.14187 57.2086 9.06577 57.9559C8.94909 59.1004 9.76152 59.7443 10.2471 60.569C10.2362 59.4439 10.1543 58.3352 10.1862 57.2227C10.1877 57.1632 10.1775 57.0955 10.15 57.0435C9.84124 56.4612 9.52816 55.8812 9.20347 55.2774ZM5.08915 54.6735C5.1609 53.9016 5.23409 53.1298 5.30294 52.3571C5.3428 51.9147 5.51312 51.4685 5.42615 51.0335C5.27033 50.2534 5.04276 49.4882 4.81955 48.6182C4.62097 49.5365 4.49849 50.3657 4.3905 51.1971C4.33977 51.589 4.21149 52.0039 4.28614 52.3727C4.44558 53.1662 4.74127 53.9269 5.08915 54.6735ZM9.12085 62.4549C9.08027 61.5499 8.94982 60.6813 8.94039 59.8061C8.9346 59.2312 8.82734 58.7204 8.5041 58.2422C8.25697 57.8763 8.06491 57.4718 7.84822 57.0844C7.78299 58.0102 7.74241 58.91 7.83807 59.8068C7.86779 60.0864 7.78734 60.3935 7.94243 60.6434C8.32292 61.2554 8.7266 61.8518 9.12085 62.4549ZM9.16651 59.3934C9.10781 60.189 9.26508 60.9542 9.27522 61.7239C9.28754 62.6504 9.71006 63.3435 10.2964 63.9756C10.4493 64.1399 10.5544 64.3556 10.7573 64.4865C10.8457 64.3333 10.7819 64.2158 10.7638 64.099C10.6566 63.4023 10.5464 62.7062 10.4406 62.0094C10.3964 61.7172 10.4377 61.3774 10.3043 61.1394C9.9659 60.5341 9.55062 59.9734 9.16651 59.3948V59.3934ZM4.29484 45.5968L4.24193 45.5931C4.08539 46.2638 3.97015 46.948 3.76505 47.6031C3.31282 49.048 3.68388 50.4029 4.11003 51.7927C4.24338 50.945 4.36803 50.13 4.50066 49.3157C4.56589 48.9134 4.7362 48.5044 4.69924 48.1147C4.61879 47.27 4.43616 46.4356 4.29556 45.5968H4.29484ZM11.8161 62.649C11.7219 61.6815 11.5625 60.7981 11.5697 59.9169C11.5777 58.9107 10.8138 58.3828 10.437 57.6116C10.3855 58.4274 10.3659 59.2275 10.4464 60.024C10.4841 60.3995 10.3942 60.8085 10.629 61.1416C10.9813 61.6399 11.3378 62.1373 11.8161 62.6497V62.649ZM10.5645 61.4718C10.6732 62.4556 10.8595 63.3391 10.966 64.2307C11.0936 65.2993 11.9712 65.7239 12.5612 66.5047C12.5822 66.3619 12.5981 66.3255 12.5902 66.295C12.3336 65.3156 12.1234 64.3258 11.9444 63.3286C11.9256 63.2238 11.8749 63.1137 11.8096 63.0304C11.4183 62.5307 11.0189 62.0384 10.5645 61.4725V61.4718ZM4.39702 37.3797C4.7362 36.697 5.09494 35.9683 5.46021 35.2425C5.64285 34.8796 5.92042 34.5435 6.00884 34.1598C6.21539 33.263 6.33279 32.3446 6.49151 31.4083C5.22322 33.2302 4.17453 35.1034 4.39775 37.3797H4.39702ZM10.0195 66.5456C9.86081 65.8629 9.68325 65.2941 9.6028 64.7118C9.45278 63.6268 9.16361 62.6177 8.41641 61.7938C8.26204 61.6235 8.19029 61.3796 7.94751 61.1974C8.06346 62.1314 8.17217 63 8.35118 63.8566C8.42076 64.192 8.41279 64.5593 8.62296 64.8471C9.03316 65.4101 9.47163 65.9507 10.0203 66.5448L10.0195 66.5456ZM9.597 63.4722C9.57599 63.4796 9.55497 63.487 9.53323 63.4945C9.67745 64.1771 9.85066 64.8546 9.95937 65.5432C10.1065 66.4727 10.4819 67.2535 11.1994 67.8536C11.4146 68.0343 11.5929 68.2626 11.9104 68.4515C11.548 67.3294 11.2414 66.2764 10.9943 65.2063C10.9863 65.1714 10.966 65.1364 10.9436 65.1089C10.4957 64.5623 10.0463 64.0172 9.597 63.4722ZM11.3625 65.5283C11.3349 65.5454 11.3074 65.5625 11.2806 65.5796C11.5205 66.6638 11.8538 67.719 12.2213 68.7646C12.2372 68.8092 12.2662 68.8553 12.3003 68.8865C12.8011 69.3453 13.3055 69.7997 13.9411 70.2637C13.4867 69.1557 13.1344 68.1213 12.8018 67.0788C12.7837 67.0222 12.7445 66.968 12.7032 66.9248C12.2575 66.4578 11.8096 65.9938 11.3625 65.5283ZM11.8328 59.7466C11.7263 60.3735 11.8132 60.9817 11.8908 61.5856C11.9531 62.0741 11.8814 62.6259 12.1481 63.0319C12.4974 63.5636 12.9772 64.0053 13.4011 64.485C13.3272 63.6253 13.117 62.8118 13.0881 61.9923C13.0533 60.9788 12.3003 60.4679 11.8321 59.7458L11.8328 59.7466ZM14.3977 68.1451C14.4201 68.1273 14.4426 68.1102 14.4658 68.0923C14.2592 67.3837 13.9679 66.6876 13.8657 65.9633C13.7063 64.8375 12.8489 64.2835 12.2104 63.5361C12.3539 64.6099 12.58 65.6555 12.8917 66.6817C12.9163 66.762 12.9598 66.8475 13.0192 66.9025C13.4758 67.3204 13.9382 67.7317 14.3984 68.1451H14.3977ZM8.12362 64.1912C8.22943 64.073 8.17725 63.9905 8.16493 63.9109C8.04172 63.0922 7.91779 62.2742 7.79169 61.4554C7.75255 61.1996 7.80691 60.9208 7.68153 60.6895C7.32061 60.0247 6.93795 59.3725 6.56398 58.7152C6.58065 59.635 6.69081 60.5378 6.74155 61.4413C6.80677 62.5962 7.59746 63.2974 8.12289 64.1905L8.12362 64.1912ZM15.9363 71.6974C15.9044 71.5636 15.9015 71.5145 15.8812 71.4736C15.4572 70.6103 15.0811 69.7246 14.7513 68.8196C14.6977 68.6724 14.5977 68.5742 14.4825 68.4798C14.1715 68.2247 13.8664 67.9622 13.557 67.7049C13.4258 67.5956 13.3265 67.4342 13.0968 67.3747C13.4135 68.4314 13.7729 69.4138 14.1889 70.3745C14.2223 70.4511 14.2795 70.5247 14.3433 70.5768C14.8238 70.9709 15.3347 71.3182 15.937 71.6967L15.9363 71.6974ZM6.52775 61.7603C6.54587 61.7499 6.56398 61.7388 6.5821 61.7283C6.50456 60.8561 6.42484 59.9845 6.34946 59.1123C6.32192 58.7925 6.37918 58.4415 6.26829 58.1589C5.98782 57.4458 5.63415 56.7624 5.26381 55.9697C5.23264 57.2242 5.2812 58.3671 5.37832 59.5086C5.38556 59.5926 5.41165 59.6811 5.45079 59.7555C5.80664 60.4255 6.16755 61.0925 6.52702 61.7611L6.52775 61.7603ZM4.01074 42.3955C3.28455 44.3973 2.59968 46.3962 3.41066 48.4717C3.50705 48.0091 3.63315 47.4797 3.72447 46.945C3.88536 46.0065 4.34339 45.1238 4.15569 44.1177C4.0506 43.5548 4.05567 42.971 4.01074 42.3962V42.3955ZM4.29266 53.1967C4.26367 53.1997 4.23468 53.2034 4.20497 53.2064C4.19337 53.2748 4.17525 53.3417 4.17091 53.4109C4.12235 54.214 4.13902 55.0216 4.08031 55.821C3.98972 57.045 4.68619 57.9656 5.0761 59.0319C5.17829 58.933 5.15002 58.8557 5.14278 58.7888C5.05074 57.9373 5.03334 57.0799 5.08335 56.23C5.1493 55.1056 4.49341 54.2244 4.29194 53.1967H4.29266ZM10.4863 67.4558C10.7841 68.4329 11.1204 69.3193 11.4451 70.2102C11.7937 71.1687 12.675 71.5383 13.3366 72.183C13.4091 72.0291 13.3352 71.9622 13.304 71.8886C13.0141 71.2089 12.6837 70.5448 12.4401 69.8488C12.2372 69.2702 11.9307 68.8003 11.4791 68.4069C11.1508 68.1206 10.8479 67.8031 10.487 67.455L10.4863 67.4558ZM3.93319 39.0149C3.0896 40.9104 2.40472 42.8811 2.96277 45.0019C3.53024 43.0774 4.34919 41.1313 3.93319 39.0149ZM15.5442 73.735C15.563 73.7186 15.5819 73.7023 15.6014 73.6859C15.2884 73.0769 14.9274 72.4872 14.6745 71.8529C14.3476 71.0341 13.865 70.382 13.1359 69.9135C12.933 69.7833 12.78 69.5722 12.5097 69.4621C12.5286 69.561 12.5315 69.6101 12.5474 69.654C12.9004 70.588 13.3026 71.4996 13.7519 72.389C13.7997 72.4842 13.8766 72.5757 13.9621 72.6367C14.4861 73.0077 15.0166 73.3699 15.5449 73.735H15.5442ZM11.2661 70.3299C11.0001 69.5461 10.65 68.7988 10.4855 68.0038C10.2493 66.8631 9.3245 66.26 8.71283 65.4011C8.87589 66.1797 9.13897 66.9241 9.29407 67.6908C9.54048 68.9118 10.4457 69.5803 11.2661 70.3299ZM14.5861 71.0698C14.5354 71.2423 14.6028 71.3249 14.6448 71.4082C14.9963 72.0997 15.3681 72.7809 15.7036 73.4807C16.1276 74.3648 17.0379 74.4875 17.73 74.9716C17.7887 74.843 17.7517 74.7924 17.7184 74.7419C17.2024 73.9477 16.7313 73.126 16.2827 72.2901C16.2486 72.2262 16.2073 72.1555 16.1508 72.1169C15.6399 71.7703 15.1253 71.4297 14.5854 71.0698H14.5861ZM7.30756 28.0955C6.65095 28.9105 6.10305 29.7932 5.56747 30.6848C5.27758 31.1681 4.78766 33.3329 4.88332 33.7381C5.30149 33.0168 5.66169 32.2665 6.13784 31.6039C6.89664 30.5487 6.89664 29.2585 7.30756 28.0955ZM9.26508 68.2195C9.29334 68.1838 9.25421 68.1265 9.23609 68.0708C8.98533 67.2966 8.7324 66.5203 8.57948 65.7216C8.45917 65.0933 8.1816 64.5727 7.79459 64.0871C7.52788 63.7525 7.30104 63.3844 7.05608 63.0312C7.33076 64.9825 7.55832 66.9427 9.26508 68.2195ZM3.91363 56.0188C3.91363 55.0699 3.93392 54.1322 3.99697 53.1959C4.01509 52.9275 4.10278 52.6628 4.02813 52.3869C3.81361 51.5912 3.60634 50.7925 3.39109 49.979C3.0896 52.0411 2.74245 54.0898 3.9129 56.0195L3.91363 56.0188ZM20.0354 77.9938L20.0941 77.9239C19.4462 77.1445 18.8156 76.3511 18.2351 75.5175C18.2011 75.4691 18.1503 75.426 18.0989 75.3992C17.514 75.0899 16.927 74.7843 16.2733 74.4422C16.8712 75.3963 17.4502 76.2723 18.1054 77.0932C18.1634 77.1661 18.2547 77.2211 18.3409 77.2591C18.9041 77.5082 19.4708 77.7498 20.0361 77.9945L20.0354 77.9938ZM14.2302 73.1758C14.5694 73.9767 15.0412 74.6779 15.4594 75.4119C15.9667 76.302 16.9074 76.4611 17.6807 76.9155C17.2256 76.2172 16.7117 75.5695 16.3313 74.843C15.8645 73.9521 14.9477 73.7119 14.2302 73.1758ZM11.9212 71.313C12.3474 72.2343 12.7735 73.0509 13.1924 73.8726C13.6512 74.7731 14.5484 75.0676 15.2905 75.5889C15.2985 75.5085 15.2826 75.4513 15.2528 75.4037C14.7615 74.6244 14.2984 73.8287 13.8664 73.0129C13.7911 72.8709 13.7063 72.737 13.5787 72.6359C13.0475 72.2128 12.517 71.7882 11.9212 71.3122V71.313ZM5.55443 60.4255C5.52399 60.4359 5.49355 60.4463 5.46384 60.4567C5.5508 61.0888 5.67256 61.7179 5.71822 62.353C5.80446 63.5376 6.30888 64.5222 7.01042 65.4279C7.12203 65.5722 7.22929 65.7209 7.33873 65.8674C7.1974 64.9758 6.95317 64.128 6.85533 63.2617C6.72778 62.1403 5.94579 61.3907 5.55515 60.4255H5.55443ZM9.94778 69.5127C10.2681 70.4712 10.6718 71.3115 11.0617 72.157C11.2871 72.6471 12.5112 73.7707 13.0649 74.0183C12.7627 73.4219 12.4177 72.8345 12.1597 72.2098C11.8132 71.371 11.3349 70.6534 10.6392 70.086C10.429 69.9142 10.2739 69.6718 9.9485 69.5127H9.94778ZM4.26875 35.5429C3.17874 37.3269 2.54677 40.0054 2.82797 41.4882C3.09105 40.758 3.29253 39.9965 3.62953 39.3042C4.21584 38.1025 4.06872 36.7959 4.26875 35.5429ZM22.498 80.5957C21.9769 80.0149 21.4146 79.42 20.8891 78.7932C20.2948 78.0845 19.3918 78.0919 18.6475 77.7067C19.107 78.3239 19.6353 78.8623 20.0955 79.4557C20.7478 80.296 21.7131 80.3288 22.498 80.5957ZM8.49033 24.6212C6.98723 26.1598 6.05087 27.9832 5.58487 30.2356C5.7117 30.159 5.7559 30.0259 5.8233 29.9159C6.28279 29.1737 6.76329 28.4465 7.27278 27.7393C7.38729 27.5801 7.51919 27.4322 7.58514 27.2418C7.87938 26.3918 8.17217 25.5418 8.48961 24.6205L8.49033 24.6212ZM2.82652 46.7405C2.2105 49.338 2.24021 51.6484 2.89827 52.8732C2.93161 52.1221 3.00481 51.3845 3.09757 50.6483C3.15628 50.1828 3.28818 49.7083 3.24469 49.2517C3.1657 48.4308 2.97944 47.6202 2.82652 46.7398V46.7405ZM7.95838 67.1204C8.24755 68.1347 8.57585 69.0375 8.92662 69.9328C9.29189 70.8638 10.084 71.3955 10.758 72.0447C10.3507 71.0297 9.92241 70.0347 9.55425 69.0137C9.53033 68.9468 9.4767 68.888 9.42959 68.833C8.96069 68.2849 8.49033 67.7391 7.95838 67.1204ZM5.71025 63.2929C5.54066 62.4378 5.4276 61.6205 5.31671 60.8025C5.26236 60.4002 5.29932 59.9778 5.12683 59.5993C4.80505 58.8951 4.46732 58.1983 4.13684 57.4978C4.24193 60.4835 4.62459 61.9113 5.71025 63.2922V63.2929ZM20.1666 79.7889C19.8122 79.3933 19.4056 79.0326 19.1135 78.5924C18.4663 77.6175 17.535 77.0672 16.5269 76.6061C16.4494 76.5704 16.3805 76.476 16.2581 76.5489C17.2727 78.0005 18.2047 79.5338 20.1666 79.7881V79.7889ZM13.9672 75.0386C14.3665 75.832 14.884 76.5296 15.3659 77.2516C15.9363 78.1053 16.8864 78.2912 17.6669 78.7746C17.1966 78.1046 16.7088 77.4628 16.216 76.8248C16.0443 76.6024 15.9399 76.3146 15.7073 76.1563C15.1362 75.7688 14.5484 75.4089 13.9664 75.0386H13.9672ZM8.65557 69.8012C8.67804 69.6837 8.59252 69.5833 8.55484 69.471C8.30263 68.7229 8.00838 67.9875 7.80111 67.2267C7.52788 66.2243 6.72415 65.5989 6.25887 64.7371C6.65095 66.6356 7.04666 68.5266 8.65557 69.8004V69.8012ZM2.54967 43.2283C1.79667 45.5053 1.6394 48.2069 2.16629 49.3625C2.26195 48.7736 2.35689 48.1757 2.45763 47.5793C2.55402 47.0075 2.7584 46.4319 2.73448 45.8667C2.69824 45.0183 2.64099 44.1653 2.5504 43.2283H2.54967ZM25.5187 82.9367C25.46 82.7381 25.331 82.7069 25.2397 82.637C24.7389 82.251 24.191 81.9157 23.7439 81.4732C23.0285 80.766 22.077 80.8314 21.2435 80.5147C21.7921 81.1259 22.4248 81.619 23.022 82.1536C23.7446 82.8013 24.649 82.7121 25.5195 82.9367H25.5187ZM11.627 73.2234C12.4909 74.8467 13.2287 76.5771 15.1941 77.3081C14.5049 76.395 13.973 75.4729 13.3751 74.5954C13.3548 74.5664 13.3214 74.5455 13.2924 74.5232C12.7293 74.1001 12.1684 73.674 11.627 73.2226V73.2234ZM3.0251 54.559C3.0309 56.491 2.92509 58.4631 4.13829 60.1898C4.00277 58.2474 4.00422 56.2961 3.0251 54.559ZM18.8316 79.6067C19.6679 81.0426 21.5617 82.289 22.972 82.3603C22.3226 81.7833 21.6653 81.2427 21.0587 80.6478C20.4224 80.0239 19.5527 80.0023 18.8316 79.6074V79.6067ZM9.49119 71.2446C10.2427 72.9817 11.0023 74.724 12.7692 75.6305C11.8277 74.083 11.1219 72.3042 9.49119 71.2446ZM20.1789 81.5096C19.8433 81.1289 19.3302 80.6158 18.8968 80.0387C18.204 79.1166 17.1314 78.8631 16.2247 78.318C17.3655 79.7554 18.4634 81.2464 20.1789 81.5096ZM4.84274 32.0077C3.84115 33.7426 2.97509 35.5771 3.05264 37.692C3.9274 35.8939 4.76157 34.0482 4.84274 32.0077ZM4.62024 61.9849C4.94058 63.8499 5.20945 65.7596 6.66907 67.2171C6.17843 65.3692 5.84795 63.4855 4.62024 61.9849ZM28.588 84.7429C27.8843 84.3206 27.1755 83.9279 26.4964 83.484C25.7862 83.0192 24.9607 83.1702 24.1975 82.9686C24.7179 83.4401 25.3151 83.7658 25.8557 84.1718C26.6885 84.7972 27.6379 84.7422 28.588 84.7437V84.7429ZM6.82054 26.4439C8.07289 24.9038 9.30276 23.3452 9.86298 21.3731C8.46134 22.8045 7.32206 24.416 6.82054 26.4439ZM13.8244 76.8515C14.8245 78.3217 15.8631 79.8394 17.7336 80.3749C16.5429 79.0505 15.529 77.5044 13.8244 76.8515ZM26.0152 84.4723C25.7021 84.2692 25.3861 84.0707 25.0759 83.8632C24.7527 83.6468 24.4316 83.426 24.1156 83.1984C23.638 82.8549 22.1226 82.3142 21.5196 82.28C23.359 83.9279 24.2468 84.3734 26.0159 84.4723H26.0152ZM2.55257 39.7987C1.83871 41.7091 1.35386 43.7243 1.74377 45.7492C2.21194 43.8508 2.79028 41.8496 2.55257 39.7987ZM2.87508 57.1156C2.80913 55.2372 3.02365 53.2532 2.19817 51.4239C2.01192 53.3729 1.94307 55.3406 2.87508 57.1156ZM10.479 73.648C10.0159 72.8233 9.60208 71.9852 9.23319 71.1249C8.8585 70.2496 8.09825 69.7023 7.5605 68.9661C8.11782 70.8036 8.86792 72.511 10.479 73.648ZM27.3451 85.0129C28.7612 85.8093 30.1788 86.6422 31.9312 86.1737C30.4303 85.6293 29.0446 84.6842 27.3451 85.0129ZM18.9932 81.3646C20.2289 82.5753 21.4443 83.7554 23.2873 83.8974C21.9414 82.9025 20.7732 81.6569 18.9932 81.3646ZM4.90361 64.4084C4.53472 62.5538 4.30643 60.6352 3.26933 59.0424C3.44037 60.9066 3.66214 62.8282 4.90361 64.4084ZM15.1166 78.8779C14.0411 77.5268 13.1656 75.9294 11.5161 75.0631C12.4228 76.6597 13.4113 78.141 15.1166 78.8779ZM3.61793 34.02C4.09698 33.0146 4.64488 32.1215 5.04639 31.1667C5.41528 30.2914 5.59066 29.3306 5.87041 28.3409C4.72098 30.0877 3.81071 31.8605 3.61793 34.02ZM1.86914 53.6852C1.96626 51.7317 2.18296 49.7016 1.62708 47.8225C1.26616 49.7373 1.17557 51.7622 1.86914 53.6852ZM24.7614 84.6292C26.1362 85.5996 27.5552 86.4005 29.3077 86.1945C27.8306 85.581 26.5094 84.4901 24.7614 84.6292ZM5.66024 66.3284C6.13567 68.1191 6.74734 69.8466 8.16638 71.1457C7.48657 69.448 6.94447 67.6856 5.66024 66.3284ZM20.5217 82.9895C19.2454 81.8755 18.1134 80.5593 16.416 80.0677C17.5546 81.3743 18.7461 82.605 20.5217 82.9895ZM35.2903 87.1575C33.7945 86.8065 32.3168 86.1157 30.7115 86.5715C32.1791 87.1411 33.6662 87.7673 35.2903 87.1575ZM21.9465 83.8565C23.2742 84.8121 24.5751 85.8695 26.3877 85.8435C24.9621 84.975 23.6185 84.0149 21.9465 83.8565ZM9.22811 72.8374C10.0101 74.3812 10.8334 75.948 12.4626 76.9289C11.5321 75.374 10.6327 73.8688 9.22811 72.8374ZM2.91711 36.1973C2.10034 37.8437 1.54881 40.4122 1.69013 41.9166C2.30978 40.0694 2.90624 38.1791 2.91711 36.1973ZM8.33307 22.8618C9.60498 21.3738 10.9044 19.9892 11.619 18.1636C10.1637 19.4463 9.09694 21.005 8.33307 22.8618ZM27.9872 86.4124C29.4439 87.1054 30.8883 87.7918 32.5936 87.4327C31.0789 86.9099 29.6381 86.228 27.9872 86.4124ZM2.14309 55.8975C2.22209 57.7269 2.35037 59.5666 3.33094 61.213C3.11497 59.3956 2.98451 57.5633 2.14309 55.8975ZM17.7633 81.726C16.5748 80.531 15.5224 79.1769 13.8961 78.4541C14.9608 79.8692 16.0914 81.1267 17.7633 81.726ZM6.16466 68.4679C5.53341 66.7538 5.18336 64.9572 4.04915 63.5004C4.38833 65.3052 4.94492 67.0051 6.16466 68.4679ZM1.16543 50.0325C1.48938 48.784 1.63216 45.3216 1.39879 44.3765C0.955252 45.5499 0.853789 48.0076 1.16543 50.0325ZM38.6553 87.6892C37.1783 87.4914 35.7056 87.1077 34.2076 87.6364C35.6846 88.0201 37.158 88.3771 38.6553 87.6892ZM19.2592 82.7812C20.405 83.9874 22.2618 85.0426 23.4735 85.1757C22.6473 84.3592 20.4775 83.127 19.2592 82.7812ZM7.08652 24.9432C5.92767 26.4639 5.03189 28.1907 4.59125 30.0891C5.6211 28.4926 6.57051 26.7926 7.08652 24.9432ZM10.0529 74.7374C9.21217 73.1854 8.46497 71.6097 7.16262 70.3931C7.85619 72.0313 8.61861 73.5937 10.0529 74.7374ZM25.3057 85.9818C26.6899 86.8251 28.1372 87.4936 29.7918 87.3843C28.3409 86.8296 26.9624 85.9454 25.3057 85.9818ZM1.28066 52.3296C1.21543 54.118 1.28211 55.9615 2.03656 57.7299C1.99597 55.8566 1.84233 54.0236 1.28066 52.3296ZM15.0014 80.0901C13.8925 78.724 12.896 77.3862 11.4907 76.5117C12.0046 77.6138 13.5939 79.2587 15.0014 80.0901ZM35.9991 88.2187C34.5243 87.9138 33.0451 87.4654 31.4971 87.7591C32.9676 88.2715 34.454 88.6715 35.9991 88.2187ZM3.59474 32.6428C2.74825 34.3085 2.18151 36.062 2.0496 37.9292C2.73013 36.2338 3.39834 34.5123 3.59474 32.6428ZM16.6125 81.442C17.7735 82.6191 18.9794 83.6714 20.5992 84.1384C19.3585 83.0965 18.1598 82.0436 16.6125 81.442ZM37.8313 88.2254C39.3018 88.4477 40.7549 88.4589 42.1094 87.7331C40.6954 87.8729 39.2119 87.5048 37.8313 88.2254ZM10.4015 19.0968C11.7234 17.8356 12.859 16.564 13.7686 14.9712C12.3778 16.1572 11.3052 17.4883 10.4015 19.0968ZM2.65548 60.3764C2.90552 62.1091 3.30267 63.7718 4.27092 65.2762C3.85347 63.5837 3.53531 61.8934 2.65548 60.3764ZM26.7073 86.9656C25.8231 86.3038 23.2489 85.2189 22.4698 85.1794C23.7627 86.0673 25.1187 86.8154 26.7073 86.9656ZM1.47851 40.6933C0.978444 42.3955 0.6871 44.1787 0.872632 46.0207C1.22775 44.2412 1.57345 42.4602 1.47851 40.6933ZM33.227 88.4566C31.7493 88.0714 30.3419 87.4713 28.7873 87.5933C30.194 88.2573 31.6536 88.5808 33.227 88.4566ZM7.6808 72.0298C7.12493 70.5084 6.03058 68.5058 5.32759 67.7332C5.87838 69.3223 6.51035 70.7835 7.6808 72.0298ZM35.0889 88.6262C36.5108 88.9013 37.9733 89.0768 39.4206 88.5399C37.9639 88.4767 36.4999 88.1949 35.0889 88.6262ZM9.26653 74.3663C10.0347 75.835 11.0305 77.0456 12.3503 78.0525C11.3668 76.7519 10.5732 75.3643 9.26653 74.3663ZM0.778417 48.8234C0.611003 50.5062 0.605205 52.2597 1.07846 53.9894C1.15818 52.2263 1.10672 50.4765 0.778417 48.8234ZM17.7648 82.7433C17.0872 82.164 16.5161 81.616 15.9609 81.0508C15.7935 80.8798 14.2165 79.8186 14.0425 79.7532C15.0811 80.9541 16.2088 82.0406 17.7648 82.7441V82.7433ZM41.2629 88.3391C42.6667 88.2908 44.035 88.2149 45.2656 87.4133C43.898 87.5933 42.5225 87.6424 41.2629 88.3391ZM8.56281 21.7538C7.51484 23.0299 6.67632 24.4324 6.07769 26.0594C7.09304 24.6844 7.96345 23.3013 8.56281 21.7538ZM1.50315 56.9193C1.55678 58.388 2.19817 60.9981 2.65621 61.6421C2.42719 60.0425 2.11555 58.4452 1.50315 56.9193ZM23.5656 86.106C22.2929 85.2322 21.0754 84.4879 19.6629 84.038C20.8435 84.9452 22.0233 85.7625 23.5656 86.106ZM25.8369 87.0318C27.1588 87.7799 29.0591 88.3369 29.8853 88.2306C29.1685 87.9517 28.4735 87.6357 27.7509 87.4148C27.1559 87.2334 26.5276 87.1649 25.8369 87.0318ZM4.58111 29.1968C3.81941 30.4758 2.94248 32.8562 2.92364 33.6318C3.58097 32.2345 4.22671 30.8298 4.58111 29.1968ZM36.4057 89.0515C35.2135 88.7303 33.4473 88.583 32.3008 88.6946C33.6046 89.1162 34.8758 89.2322 36.4057 89.0515ZM38.6212 88.9883C39.9526 89.0486 41.2933 89.0359 42.5703 88.4767C41.2245 88.4782 39.8902 88.5481 38.6212 88.9883ZM3.73462 64.8538C4.13684 66.4192 5.01233 68.3645 5.51312 68.8196C5.00145 67.4699 4.57966 66.0994 3.73462 64.8538ZM7.13435 71.7517C7.47063 72.7415 8.95851 74.9003 9.52598 75.217C8.83096 73.9856 8.08883 72.7802 7.13435 71.7517ZM44.7619 87.9376C46.0273 87.8268 47.4956 87.3137 48.3197 86.6779C47.0811 87.017 45.8251 87.2289 44.7619 87.9376ZM0.985691 41.8199C1.38575 40.2932 1.80609 38.8231 1.86914 37.2235C1.35168 38.7346 1.06034 40.233 0.985691 41.8199ZM14.6346 80.6939C13.7352 79.6989 12.8909 78.6437 11.6813 77.8317C12.5655 78.9969 13.483 79.9718 14.6346 80.6939ZM20.2912 84.7801C19.5005 84.038 17.688 82.8675 17.127 82.7262C18.0837 83.5397 19.0352 84.3094 20.2912 84.7801ZM0.501568 49.9664C0.614626 48.4806 0.772619 47.0134 0.59216 45.4592C0.361694 47.003 0.317485 48.4679 0.501568 49.9664ZM23.0851 86.2361C24.2642 86.9515 25.4702 87.4594 26.8457 87.7256C25.5934 87.1322 24.4193 86.5418 23.0851 86.2361ZM15.9334 12.277C14.8898 13.1448 13.9498 14.1167 13.1424 15.2225C14.1918 14.3599 15.1492 13.4058 15.9334 12.277ZM33.2473 89.1385C31.9841 88.8128 30.781 88.4849 29.5055 88.4841C30.7129 88.8991 31.9247 89.1809 33.2473 89.1385ZM0.774793 53.7641C0.733483 54.8609 1.05744 56.9342 1.39154 57.7127C1.29733 56.3727 1.13281 55.0669 0.774793 53.7641ZM39.6359 89.2003C38.4408 89.1958 37.2435 89.0478 36.0571 89.3408C37.2638 89.4925 38.4582 89.5193 39.6359 89.2003ZM2.28224 61.4376C2.59533 62.8088 2.95915 64.0775 3.63388 65.3513C3.28673 63.9607 2.86493 62.7122 2.28224 61.4376ZM42.308 88.8403C43.4632 88.7057 44.5568 88.5711 45.6418 87.9941C44.4612 88.1964 43.3654 88.3384 42.308 88.8403ZM50.92 85.723C50.4489 85.9067 49.9786 86.0896 49.5075 86.2733C49.2408 86.3774 48.366 86.9166 48.2247 87.0638C49.306 86.7768 50.2714 86.3127 50.92 85.723ZM45.117 28.6926C45.3852 28.7157 45.4236 28.4725 45.4678 28.2821C45.5156 28.0799 45.3192 28.0984 45.2026 28.0717C45.0395 28.0345 44.8721 27.9995 44.7061 27.9951C44.4365 27.9876 44.3713 28.2323 44.3314 28.4197C44.2829 28.6502 44.5097 28.59 44.6329 28.6182C44.7844 28.6532 44.9409 28.6666 45.117 28.6926ZM45.5048 27.9438C45.72 27.9713 45.7432 27.7326 45.8026 27.5593C45.886 27.3169 45.6715 27.3511 45.5475 27.3147C45.4323 27.2812 45.3091 27.2723 45.1953 27.2343C44.8366 27.1139 44.7692 27.418 44.7148 27.63C44.6373 27.9311 44.933 27.7906 45.0547 27.8501C45.1699 27.9066 45.312 27.9066 45.5041 27.9438H45.5048ZM10.1753 18.9273C9.42307 19.7616 8.80777 20.6926 8.28741 21.6928C9.02591 20.8488 9.68252 19.9468 10.1753 18.9273ZM45.8041 27.1771C46.052 27.2091 46.0824 26.9919 46.1375 26.8298C46.2012 26.6417 46.0462 26.609 45.9164 26.5725C45.8012 26.5405 45.6816 26.5205 45.57 26.4781C45.262 26.3606 45.1895 26.603 45.1178 26.8038C45.0141 27.0931 45.2765 27.0395 45.4113 27.0879C45.5345 27.1317 45.6671 27.1473 45.8041 27.1778V27.1771ZM46.3904 28.9343C46.6854 28.9767 46.6861 28.7566 46.7426 28.6108C46.8231 28.4041 46.6484 28.3981 46.5281 28.3654C46.3665 28.3223 46.202 28.2896 46.0382 28.2531C45.7309 28.1855 45.7128 28.4569 45.657 28.6339C45.5874 28.8525 45.8048 28.8027 45.9085 28.8332C46.0802 28.8837 46.2592 28.9075 46.3904 28.9335V28.9343ZM11.7632 78.2763C11.0704 77.4041 10.4631 76.4544 9.58831 75.7465C10.2043 76.6879 10.9139 77.5454 11.7632 78.2763ZM48.0544 28.9462C48.0812 28.8346 48.0167 28.7848 47.9283 28.7573C47.7203 28.6933 47.5108 28.6346 47.3028 28.5699C47.047 28.4903 47.0296 28.7082 46.9716 28.8577C46.897 29.0503 47.047 29.089 47.1767 29.1261C47.3398 29.1722 47.5065 29.2042 47.6674 29.2555C47.9479 29.3448 47.9928 29.138 48.0537 28.9454L48.0544 28.9462ZM46.3056 27.4961C46.0788 27.5355 46.0425 27.74 45.994 27.9058C45.9476 28.0635 46.1041 28.0665 46.2027 28.0932C46.3774 28.1408 46.5527 28.1877 46.7303 28.2234C46.9571 28.2695 46.9716 28.0665 47.034 27.9296C47.076 27.8382 47.1064 27.7311 46.9695 27.6887C46.7499 27.621 46.5288 27.5601 46.3056 27.4961ZM6.99883 72.0284C6.56181 71.1301 6.17553 70.202 5.5008 69.3758C5.67763 70.0384 6.48064 71.4677 6.99883 72.0284ZM45.8642 25.7047C45.5954 25.6742 45.5497 25.9233 45.4917 26.1048C45.4243 26.313 45.6367 26.2803 45.7461 26.3219C45.8476 26.3606 45.9577 26.3732 46.0592 26.4119C46.3361 26.5197 46.3882 26.3003 46.4651 26.1226C46.5716 25.8765 46.3752 25.8638 46.231 25.8162C46.1165 25.7783 45.9998 25.7456 45.865 25.7047H45.8642ZM48.2849 28.2739C48.3037 28.1431 48.2356 28.097 48.1515 28.0672C47.9711 28.004 47.7891 27.9453 47.6094 27.8813C47.4 27.8069 47.3384 27.946 47.2782 28.1066C47.2057 28.2992 47.2934 28.3751 47.4601 28.419C47.6101 28.4584 47.7616 28.4993 47.9044 28.5588C48.2146 28.6874 48.2385 28.4561 48.2849 28.2739ZM47.3637 27.1042C47.2007 26.861 46.9108 26.8588 46.6673 26.7964C46.41 26.7302 46.3382 26.9986 46.3549 27.1392C46.4006 27.5229 46.7767 27.3987 47.0057 27.4827C47.2463 27.5712 47.2681 27.3065 47.3637 27.1042ZM48.5161 27.5653C48.5327 27.4552 48.4624 27.4106 48.3805 27.3779C48.2356 27.3199 48.0856 27.273 47.9442 27.2068C47.7413 27.1124 47.6428 27.1882 47.5667 27.389C47.4855 27.6039 47.5826 27.6828 47.7565 27.7348C47.8826 27.7727 48.0131 27.804 48.1327 27.859C48.4429 28.0025 48.4704 27.7742 48.5168 27.5653H48.5161ZM46.8318 25.3106C46.7151 25.0243 46.4346 25.0116 46.207 24.9752C45.9773 24.938 45.9498 25.1961 45.8918 25.3574C45.8505 25.4712 46.3107 25.7166 46.5361 25.7002C46.7622 25.6839 46.7506 25.4712 46.8325 25.3106H46.8318ZM49.2401 29.3775C49.2531 29.2682 49.2198 29.2035 49.1444 29.1752C48.9306 29.0949 48.7161 29.0191 48.5001 28.9462C48.4059 28.9142 48.3283 28.9484 48.303 29.0488C48.2689 29.1834 48.1008 29.3269 48.3436 29.4466C48.8031 29.6727 49.1299 29.7002 49.2104 29.4965C49.2277 29.4511 49.2343 29.4013 49.2401 29.3782V29.3775ZM5.84577 25.9583C5.31671 26.716 4.49704 28.4807 4.44123 28.9514C5.03262 28.0248 5.44572 27.0008 5.84577 25.9583ZM47.6116 26.4573C47.6065 26.3056 47.1796 26.0564 46.968 26.0743C46.7528 26.0929 46.7165 26.2825 46.6781 26.4424C46.6491 26.5629 47.142 26.8142 47.3616 26.7956C47.5732 26.7778 47.5543 26.5807 47.6116 26.4573ZM47.168 24.558C47.0332 24.3223 46.7861 24.2576 46.5665 24.245C46.3687 24.2338 46.3129 24.4747 46.2556 24.6428C46.2237 24.7365 46.7115 24.9871 46.8789 24.9581C47.0869 24.9224 47.0941 24.7239 47.168 24.558ZM49.4343 28.7105C49.4198 28.6688 49.4169 28.6078 49.3857 28.5811C49.1785 28.4033 48.9241 28.3305 48.6668 28.2747C48.6016 28.2606 48.5617 28.3253 48.5371 28.3825C48.4733 28.5327 48.3907 28.7231 48.6182 28.7692C48.8705 28.8205 49.1024 29.1618 49.3894 28.8577C49.4184 28.8265 49.4176 28.7662 49.4336 28.7105H49.4343ZM47.284 25.3381C47.0796 25.3797 46.9905 25.5768 47.0028 25.7114C47.0332 26.049 47.3739 25.9791 47.5811 26.0572C47.8138 26.1449 47.8826 25.8899 47.8667 25.7463C47.8312 25.4139 47.4761 25.5009 47.2833 25.3381H47.284ZM47.0021 23.4619C46.7506 23.5036 46.6528 23.7363 46.6586 23.8925C46.6694 24.1944 46.989 24.1743 47.1854 24.2078C47.4159 24.2472 47.4891 23.9765 47.4826 23.8226C47.471 23.5437 47.1594 23.5891 47.0014 23.4619H47.0021ZM48.0972 26.4825C47.9015 26.4796 47.8783 26.6171 47.8348 26.7264C47.7884 26.8432 47.8036 26.9481 47.9341 27.0001C48.1022 27.0663 48.2733 27.1265 48.4421 27.1927C48.5465 27.2336 48.6364 27.2336 48.6726 27.1064C48.7067 26.9837 48.819 26.8343 48.6632 26.7406C48.4784 26.629 48.2696 26.5599 48.0972 26.484V26.4825ZM16.8147 82.7738C16.2008 82.0889 15.4623 81.5602 14.6904 81.0754C15.342 81.7119 15.9928 82.3492 16.8147 82.7738ZM49.7271 29.3931C49.5278 29.3634 49.4981 29.4727 49.4618 29.5812C49.4212 29.7032 49.4278 29.8006 49.5618 29.8512C49.7539 29.9241 49.9452 29.9999 50.1387 30.0706C50.2388 30.107 50.3366 30.1115 50.3721 29.9813C50.4047 29.8638 50.454 29.724 50.3112 29.6511C50.1069 29.547 49.8916 29.4645 49.7264 29.3916L49.7271 29.3931ZM49.6104 27.9869C49.5104 27.7482 49.2357 27.7489 49.0379 27.6374C48.8944 27.5571 48.7878 27.6032 48.7378 27.7779C48.6972 27.9192 48.6632 28.0449 48.8422 28.1103C48.99 28.1639 49.1364 28.2226 49.2828 28.2799C49.5292 28.3758 49.5756 28.2115 49.6111 27.9869H49.6104Z" fill="#377571"/>
</svg>
