<svg width="236" height="246" viewBox="0 0 236 246" fill="none" xmlns="http://www.w3.org/2000/svg">
<g clip-path="url(#clip0_2157_917)">
<path d="M62.1318 187.506C57.9126 187.506 54.4843 186.44 51.979 184.44C47.2321 180.575 45.7814 173.378 47.7594 163.516V163.249L106.436 121.532C110.656 118.6 114.875 114.335 118.303 109.804L151.004 66.0876C157.465 57.4247 166.827 50.3608 172.365 49.9609C173.815 49.8274 174.87 50.2273 175.661 51.0272C182.254 57.5578 180.936 71.9521 172.102 90.2113C154.96 125.664 114.875 166.714 82.5698 181.775C74.7903 185.64 67.8017 187.506 62.1318 187.506ZM48.8144 164.049C46.9681 173.378 48.2867 180.176 52.6383 183.641C58.3082 188.172 68.8567 187.239 82.1745 180.975C114.216 165.914 154.169 125.131 171.179 89.9448C179.881 72.0852 181.2 58.2242 175.003 51.9602C174.475 51.4268 173.552 51.1603 172.497 51.2937C167.223 51.6937 158.256 58.6242 151.927 67.0206L119.226 110.737C115.798 115.268 111.447 119.666 107.095 122.732L48.8144 164.049Z" fill="#377571"/>
<path d="M59.2288 188.171C54.2179 188.171 50.2623 186.838 47.4934 184.306C42.4828 179.774 41.5598 171.644 44.4604 160.715V160.582L106.434 121.131C110.785 118.332 115.532 114.067 119.224 109.535L155.617 65.4197C162.869 56.6233 172.758 49.8259 178.296 49.959C179.747 49.959 180.802 50.4923 181.593 51.4253C187.527 59.1556 185.021 74.4825 174.604 93.4085C154.562 130.061 110.917 170.711 77.5568 184.039C70.7003 186.838 64.5031 188.171 59.2288 188.171ZM45.5154 161.381C42.7464 171.777 43.6694 179.374 48.2843 183.639C53.6906 188.571 64.1074 188.437 77.4252 183.106C110.653 169.911 153.903 129.527 173.945 93.0086C184.098 74.3495 186.735 59.5552 180.934 52.2248C180.406 51.5583 179.615 51.2918 178.56 51.1588C173.418 51.1588 163.792 57.6893 156.672 66.2192L120.279 110.335C116.455 115 111.708 119.265 107.225 122.064L45.5154 161.381Z" fill="#377571"/>
<path d="M56.5975 188.709C50.6639 188.709 46.181 187.11 43.0164 183.911C37.8738 178.713 37.3465 169.516 41.4341 157.521V157.388L106.572 120.603C111.187 117.937 116.197 113.939 120.285 109.274L160.37 64.8915C168.281 56.0951 178.698 49.6976 184.236 50.3641C185.687 50.4975 186.742 51.1639 187.401 52.2299C192.675 61.1597 188.851 77.42 176.852 97.012C153.645 134.864 106.836 174.714 72.4206 185.777C66.619 187.776 61.2128 188.709 56.5975 188.709ZM42.4887 158.054C38.6648 169.516 39.0605 178.18 43.8074 183.111C48.95 188.442 59.1031 188.975 72.2889 184.711C106.572 173.648 153.118 133.931 176.193 96.3456C187.928 77.1535 191.752 61.2932 186.742 52.7633C186.346 51.9634 185.423 51.5635 184.368 51.4304C179.226 50.8971 169.073 57.1615 161.425 65.6914L121.34 110.073C117.12 114.739 112.11 118.87 107.363 121.536L42.4887 158.054Z" fill="#377571"/>
<path d="M54.347 188.973C47.3584 188.973 41.9526 186.974 38.6559 183.109C33.5135 176.978 33.5135 166.849 38.7879 153.787L38.9196 153.654L106.958 120.068C111.837 117.668 117.112 113.67 121.594 109.139L165.371 64.8894C174.074 56.0931 184.755 50.362 190.293 51.428C191.743 51.6949 192.93 52.4944 193.457 53.6938C197.94 63.8234 192.666 81.1497 179.085 101.142C152.713 139.926 102.607 178.578 67.2691 187.241C62.5222 188.307 58.1709 188.973 54.347 188.973ZM39.7109 154.321C34.7002 166.982 34.5683 176.578 39.4469 182.309C44.3258 188.04 53.9513 189.373 67.1371 186.041C102.211 177.378 152.054 138.86 178.293 100.342C191.743 80.6167 196.885 63.8231 192.534 53.9607C192.139 53.0274 191.348 52.4944 190.161 52.2279C185.018 51.295 174.469 57.026 166.163 65.4224L122.386 109.672C117.771 114.337 112.365 118.335 107.486 120.734L39.7109 154.321Z" fill="#377571"/>
<path d="M52.6297 188.973C44.1909 188.973 37.8617 186.441 34.3016 181.643C29.0273 174.579 29.8185 163.383 36.4114 149.256L36.5432 149.122L107.351 119.268C112.362 117.135 118.032 113.403 122.91 108.872L170.247 65.1558C179.477 56.6259 190.553 51.2948 196.091 52.8942C197.673 53.2937 198.728 54.3601 199.124 55.693C202.684 67.0216 195.96 85.2812 180.796 105.54C151.26 144.991 97.9889 182.042 61.9919 188.173C58.6953 188.706 55.5307 188.973 52.6297 188.973ZM37.3343 149.922C31.0052 163.383 30.214 174.445 35.0928 180.976C39.708 187.107 48.9378 189.24 61.8599 186.974C97.5936 180.843 150.468 144.058 180.005 104.74C195.037 84.7478 201.629 66.8886 198.201 55.826C197.806 54.76 197.014 54.0936 195.828 53.6937C190.685 52.3608 179.741 57.5588 170.907 65.6888L123.569 109.405C118.691 113.936 112.889 117.801 107.746 119.934L37.3343 149.922Z" fill="#377571"/>
<path d="M51.509 188.973C41.2238 188.973 33.8399 185.908 30.016 179.91C24.8736 171.913 26.4559 159.385 34.4992 144.324L34.6311 144.191L107.68 118.601C112.823 116.735 118.888 113.27 124.031 108.872L175.06 66.0889C184.817 57.9586 196.289 53.1605 201.695 55.1598C203.409 55.6928 204.464 56.8922 204.728 58.625C207.365 71.2866 199.058 90.2125 182.18 110.737C149.348 150.588 93.0442 185.641 56.7832 188.84C54.9372 188.84 53.2229 188.973 51.509 188.973ZM35.2903 144.99C27.5107 159.651 25.9284 171.78 30.939 179.377C35.1585 185.908 44.1247 188.84 56.5195 187.64C92.5165 184.441 148.556 149.655 181.257 109.938C198.003 89.6792 206.178 71.0201 203.673 58.625C203.409 57.2921 202.618 56.4926 201.3 55.9593C196.157 54.0934 185.213 58.7584 175.719 66.7549L124.69 109.538C119.416 113.936 113.35 117.668 107.944 119.534L35.2903 144.99Z" fill="#377571"/>
<path d="M51.2147 188.839C38.6883 188.839 29.9857 184.974 25.8981 177.643C20.8875 168.581 23.3927 154.719 33.0184 138.726L33.1503 138.592L108.177 117.801C113.452 116.335 119.781 113.003 125.319 108.871L179.776 67.4209C190.061 59.5575 201.533 55.5589 207.071 57.9581C208.785 58.7576 209.84 60.0905 210.104 62.0898C211.554 75.9508 201.797 95.8097 183.073 116.335C146.68 156.319 87.6077 188.839 51.2147 188.839ZM33.6777 139.392C24.3158 154.986 21.9423 168.314 26.6892 177.11C30.5131 184.041 38.9519 187.773 51.0831 187.773C87.2121 187.773 146.021 155.386 182.018 115.668C200.478 95.2763 210.236 75.8177 208.785 62.2229C208.653 60.7569 207.862 59.6906 206.412 59.0241C201.401 56.7587 190.061 60.7569 180.172 68.3539L125.846 109.671C120.176 113.936 113.847 117.268 108.309 118.867L33.6777 139.392Z" fill="#377571"/>
<path d="M51.8542 188.709C49.7446 188.709 47.7666 188.575 45.789 188.442C33.7898 187.242 25.6146 182.578 21.9226 174.714C17.0439 164.452 20.604 149.391 31.9438 132.464L32.0757 132.331L108.553 117.004C113.959 115.938 120.552 113.005 126.354 108.874L184.24 69.2894C194.92 61.959 206.524 58.7606 211.93 61.5594C213.776 62.4923 214.831 64.2248 214.831 66.3575C215.094 81.5514 203.623 101.943 183.317 122.468C145.869 160.187 88.6426 188.709 51.8542 188.709ZM32.6031 133.264C21.6588 149.791 18.0988 164.318 22.8456 174.314C26.2739 181.778 34.3173 186.309 45.9207 187.376C81.9181 190.841 143.232 161.386 182.526 121.802C202.7 101.543 214.04 81.2849 213.776 66.4906C213.776 64.7581 212.985 63.4253 211.402 62.6254C206.392 59.96 195.052 63.2918 184.767 70.3558L126.882 109.94C120.816 114.072 114.223 117.137 108.685 118.204L32.6031 133.264Z" fill="#377571"/>
<path d="M53.4073 188.706C48.6604 188.706 44.3091 188.306 40.2215 187.506C28.7499 185.241 21.1022 179.51 17.9376 171.246C13.4545 159.517 18.2013 143.391 31.2553 125.664L31.3872 125.531L108.92 116.335C114.458 115.668 121.182 113.136 127.38 109.271L188.43 71.9525C199.506 65.1551 210.978 62.7562 216.384 65.955C218.362 67.1544 219.285 69.1537 219.153 71.686C218.098 88.0793 204.912 109.138 182.892 129.396C145.049 164.182 90.3277 188.706 53.4073 188.706ZM32.0465 126.464C19.3881 143.79 14.773 159.517 18.9925 170.846C22.0252 178.843 29.4093 184.174 40.4852 186.44C76.0869 193.637 139.642 167.648 182.233 128.463C203.989 108.338 217.175 87.6794 218.098 71.5526C218.23 69.4202 217.439 67.8208 215.856 66.8879C210.846 63.8222 199.638 66.3545 188.958 72.8855L127.907 110.204C121.578 114.069 114.721 116.735 109.051 117.401L32.0465 126.464Z" fill="#377571"/>
<path d="M56.3831 188.84C48.4716 188.84 41.3514 187.907 35.1539 185.908C24.3416 182.442 17.2212 175.912 14.584 166.982C10.7602 153.787 16.6938 136.461 31.5937 118.201L31.7256 118.068L109.785 115.536C115.323 115.403 122.18 113.27 128.773 109.672L192.724 75.0188C203.932 68.8878 215.536 67.2884 220.678 71.0205C222.788 72.4865 223.711 74.7523 223.315 77.6845C220.942 95.4107 205.91 116.869 182.308 136.594C144.332 168.182 92.9078 188.84 56.3831 188.84ZM32.1212 119.001C17.6168 136.994 11.815 153.787 15.507 166.582C18.0123 175.112 24.869 181.376 35.4177 184.842C70.2282 196.037 135.761 174.046 181.648 135.661C205.119 116.069 219.887 94.7442 222.392 77.418C222.788 75.0188 221.996 73.1529 220.15 71.82C215.272 68.3548 203.932 70.0876 193.252 75.9517L129.3 110.605C122.576 114.203 115.587 116.336 109.785 116.602L32.1212 119.001Z" fill="#377571"/>
<path d="M60.5677 189.373C48.8322 189.373 38.4158 187.507 29.9767 183.642C19.6917 178.977 13.2307 171.38 11.2528 161.784C8.22011 147.123 15.6042 128.731 32.2183 110.071L32.3501 109.938L110.278 114.603C115.816 115.003 122.937 113.27 129.661 110.071L196.381 78.7508C207.721 73.4193 219.193 72.6198 224.335 76.7515C226.577 78.6173 227.5 81.2831 226.841 84.4815C222.885 103.407 206.139 125.132 180.822 144.324C143.77 172.447 96.3014 189.373 60.5677 189.373ZM32.7457 111.004C16.5272 129.397 9.27496 147.257 12.1758 161.651C14.1537 170.847 20.351 178.178 30.3722 182.709C64.128 198.17 131.244 180.577 180.163 143.525C205.216 124.466 221.83 102.874 225.786 84.215C226.313 81.4162 225.654 79.1504 223.676 77.551C218.929 73.6858 207.853 74.6191 196.909 79.6837L130.189 111.004C123.2 114.337 115.948 115.936 110.278 115.669L32.7457 111.004Z" fill="#377571"/>
<path d="M66.1062 190.439C49.7558 190.439 35.5151 187.373 24.9664 180.843C15.3408 174.845 9.53901 166.182 8.22043 155.919C6.24257 139.659 15.2089 120.334 33.5372 101.541L33.669 101.408L110.938 113.936C116.344 114.869 123.596 113.669 130.585 110.87L199.81 83.2815C211.282 78.7499 222.358 78.7499 227.368 83.2815C229.742 85.5473 230.533 88.6126 229.61 92.2113C224.072 112.203 205.48 134.328 178.713 152.587C143.375 176.844 100.389 190.439 66.1062 190.439ZM34.0646 102.341C16.132 120.867 7.29742 139.792 9.27528 155.652C10.462 165.649 16.132 174.045 25.4939 179.91C57.799 199.902 126.233 187.24 178.054 151.788C204.689 133.528 223.149 111.803 228.555 91.9448C229.478 88.7461 228.819 86.0803 226.709 84.0814C221.962 79.8163 211.282 79.8163 200.206 84.2145L131.112 111.803C123.86 114.736 116.476 115.802 110.806 114.869L34.0646 102.341Z" fill="#377571"/>
<path d="M73.0526 192.172C51.428 192.172 32.7042 187.374 20.3095 177.245C11.2113 169.914 6.20073 160.052 5.80517 148.723C5.14588 130.863 15.8263 110.871 35.605 92.2119L35.8688 91.9454L111.819 113.004C117.225 114.47 124.477 113.937 131.73 111.671L203.065 88.4802C214.536 84.7484 225.217 85.5479 230.095 90.6125C232.733 93.2783 233.392 96.8766 231.941 100.875C224.689 122.067 204.251 144.058 176.034 161.384C143.069 181.51 104.962 192.172 73.0526 192.172ZM36.1325 93.1448C16.6175 111.537 6.20073 131.263 6.86002 148.59C7.25558 159.518 12.1344 169.114 20.9688 176.312C51.2963 200.969 120.653 193.905 175.374 160.451C203.46 143.258 223.635 121.4 230.887 100.475C232.073 96.8766 231.546 93.6778 229.304 91.279C224.689 86.6143 214.272 85.8144 203.328 89.4131L131.993 112.604C124.477 115.003 117.093 115.536 111.555 113.937L36.1325 93.1448Z" fill="#377571"/>
<path d="M80.9829 194.704C53.5564 194.704 29.8221 187.507 15.977 172.846C7.53808 163.916 3.45044 152.721 3.97787 140.459C5.03272 121.266 17.2955 100.608 38.5247 82.3485L38.7883 82.082L112.629 112.07C117.771 114.203 125.023 114.336 132.539 112.47L205.589 94.2106C216.928 91.4118 227.213 93.1442 231.96 98.6088C234.729 101.808 235.125 105.939 233.41 110.337C224.312 132.595 202.16 154.453 172.492 170.447C142.692 186.707 109.86 194.704 80.9829 194.704ZM39.052 83.4149C18.0867 101.408 6.08768 121.666 5.03279 140.459C4.37351 152.454 8.4611 163.383 16.6363 172.046C44.7219 201.768 114.343 200.701 171.833 169.647C201.369 153.787 223.39 132.062 232.356 110.071C234.07 105.939 233.542 102.341 231.169 99.4086C226.686 94.2106 216.796 92.6112 205.852 95.41L132.803 113.67C125.155 115.535 117.64 115.402 112.233 113.27L39.052 83.4149Z" fill="#377571"/>
<path d="M89.5668 198.304C55.9431 198.304 26.8025 187.775 12.0344 167.649C-8.13985 140.06 4.12293 101.676 42.3616 71.954L42.6257 71.6875L113.565 111.272C118.576 114.071 125.828 114.87 133.344 113.671L207.712 100.876C218.92 99.0099 228.677 101.542 233.16 107.54C236.061 111.272 236.325 116.07 233.951 121.001C223.007 144.192 199.009 165.783 168.022 180.311C142.31 192.439 114.62 198.304 89.5668 198.304ZM42.7573 73.1538C5.17777 102.475 -6.82124 140.194 12.9574 167.116C25.2202 183.776 48.0315 194.305 77.436 196.704C106.84 199.104 138.882 192.973 167.759 179.378C198.482 164.984 222.348 143.525 233.16 120.601C235.27 116.07 235.006 111.805 232.501 108.206C228.281 102.609 218.788 100.209 208.107 101.942L133.739 114.737C125.96 116.07 118.444 115.137 113.301 112.338L42.7573 73.1538Z" fill="#377571"/>
<path d="M97.998 203.102C58.1767 203.102 23.3663 188.441 8.5982 161.919C-9.07079 130.198 6.35664 89.8137 47.1006 61.2919L47.3646 61.0254L114.744 110.739C119.491 114.204 126.611 115.804 134.259 115.137L209.418 108.34C220.23 107.407 229.592 110.739 233.812 117.27C236.713 121.801 236.713 127.132 233.944 132.597C221.021 156.587 195.309 177.779 163.136 190.44C141.379 198.97 118.963 203.102 97.998 203.102ZM47.3646 62.3583C7.41149 90.4802 -7.88404 130.198 9.52122 161.385C20.2017 180.711 42.222 194.172 71.2308 199.637C100.371 204.968 132.808 201.37 162.608 189.507C194.518 176.846 220.098 155.921 232.757 132.064C235.394 127.132 235.394 122.068 232.757 117.936C228.801 111.805 219.834 108.606 209.418 109.539L134.259 116.337C126.348 117.003 118.963 115.404 114.084 111.672L47.3646 62.3583Z" fill="#377571"/>
<path d="M106.196 208.965C91.8234 208.965 77.7147 206.966 64.3969 202.967C35.6519 194.304 14.8183 177.244 5.58825 155.12C-9.31168 119.134 9.54405 76.8843 52.5298 49.9618L52.9255 49.6953L115.69 109.938C120.041 114.203 127.029 116.602 134.677 116.602L210.1 116.469C220.385 116.469 229.219 120.733 233.175 127.664C236.076 132.995 235.812 139.126 232.384 144.857C217.484 169.647 189.926 190.039 156.961 200.702C140.215 206.299 123.074 208.965 106.196 208.965ZM52.7935 51.0282C10.467 77.6842 -7.9931 119.267 6.51127 154.72C15.6095 176.578 36.1793 193.371 64.6606 202.035C93.1421 210.564 125.843 209.898 156.566 199.902C189.398 189.24 216.693 169.114 231.461 144.457C234.758 138.993 235.021 133.262 232.252 128.33C228.56 121.8 220.121 117.668 210.1 117.668L134.677 117.802C126.766 117.802 119.645 115.269 115.03 110.871L52.7935 51.0282Z" fill="#377571"/>
<path d="M112.764 216.164C93.3804 216.164 74.6568 212.432 57.6471 204.968C29.6931 192.84 10.4418 172.448 3.18964 147.525C-8.54571 107.141 14.002 63.1584 59.0974 38.2352L59.493 37.9688L116.851 109.273C120.939 114.338 127.532 117.537 135.179 118.337L210.338 125.401C220.359 126.333 228.535 131.398 231.963 138.862C234.864 144.993 234.073 152.056 229.985 158.187C212.976 183.644 183.835 203.103 149.947 211.499C137.685 214.698 125.158 216.164 112.764 216.164ZM59.2294 39.4347C14.7931 64.2248 -7.22713 107.541 4.2445 147.258C11.3648 171.915 30.4842 192.04 58.0424 204.036C85.7325 216.031 118.302 218.43 149.816 210.566C183.439 202.17 212.316 182.978 229.194 157.654C233.15 151.79 233.809 145.259 231.04 139.395C227.744 132.198 219.964 127.399 210.207 126.467L135.048 119.403C127.136 118.603 120.148 115.271 115.928 109.94L59.2294 39.4347Z" fill="#377571"/>
<path d="M118.18 224.559C94.1817 224.559 70.8428 218.428 50.8005 206.566C24.0332 190.705 6.62794 166.848 1.48549 139.126C-6.68968 94.3438 19.4181 48.8953 66.4915 26.1045L66.8868 25.8379L117.916 108.605C121.476 114.469 127.937 118.601 135.453 120.067L209.689 134.994C219.183 136.86 226.699 142.858 229.864 150.855C232.633 157.918 231.314 165.782 226.567 172.313C207.448 198.169 176.725 216.428 142.31 222.426C134.266 223.892 126.091 224.559 118.18 224.559ZM66.6232 27.4373C20.2093 50.0947 -5.50301 94.8772 2.54034 138.993C7.55093 166.315 24.8243 190.039 51.3278 205.633C77.8313 221.36 110.005 226.958 142.178 221.493C176.329 215.629 206.92 197.503 225.776 171.913C230.391 165.649 231.446 158.318 228.94 151.521C226.039 143.791 218.788 138.193 209.557 136.327L135.321 121.267C127.542 119.667 120.949 115.269 117.125 109.271L66.6232 27.4373Z" fill="#377571"/>
<path d="M121.905 234.156C93.4238 234.156 65.9973 224.96 43.8454 207.634C18.5285 187.908 3.23301 160.319 0.595847 129.931C-3.62361 80.6175 26.3081 33.9695 75.0955 13.8442L75.6231 13.7109L75.8868 14.1108L119.4 108.073C122.433 114.737 128.498 119.935 135.882 122.201L208.536 145.392C217.502 148.324 224.49 155.121 226.996 163.784C229.369 171.914 227.655 180.578 222.117 187.375C200.888 213.631 168.583 230.424 133.772 233.49C129.685 234.023 125.861 234.156 121.905 234.156ZM75.0955 15.177C26.9675 35.169 -2.56876 81.2839 1.65069 129.931C4.28785 160.052 19.4515 187.375 44.5047 206.834C69.5576 226.293 101.203 235.489 133.509 232.69C168.055 229.625 199.965 212.965 221.062 186.975C226.337 180.444 228.051 172.181 225.809 164.317C223.436 156.054 216.711 149.524 208.008 146.724L135.355 123.534C127.707 121.135 121.51 115.67 118.345 108.74L75.0955 15.177Z" fill="#377571"/>
<path d="M124.028 244.818C91.1959 244.818 60.2091 231.756 36.7386 208.032C13.2678 184.308 0.345703 152.988 0.345703 119.801C0.345703 66.089 34.2332 18.5081 84.603 1.31492L85.1304 1.18164L120.468 107.672C122.974 115.136 128.512 121.4 135.632 124.599L206.044 156.719C214.747 160.718 220.812 168.315 222.658 177.644C224.636 186.974 222.131 196.304 215.933 203.234C192.595 229.757 158.971 244.818 124.028 244.818ZM84.471 2.64772C34.7606 19.7076 1.40055 66.7554 1.40055 119.934C1.40055 152.854 14.1908 183.909 37.5295 207.366C60.7368 230.823 91.4596 243.885 124.028 243.885C158.707 243.885 191.935 228.957 215.274 202.701C221.34 195.904 223.713 186.974 221.867 178.044C220.021 168.981 214.087 161.651 205.78 157.786L135.368 125.665C127.984 122.333 122.182 115.936 119.677 108.072L84.471 2.64772Z" fill="#377571"/>
</g>
<defs>
<clipPath id="clip0_2157_917">
<rect width="236" height="246" fill="white"/>
</clipPath>
</defs>
</svg>
