<svg width="116" height="116" viewBox="0 0 116 116" fill="none" xmlns="http://www.w3.org/2000/svg">
<g clip-path="url(#clip0_2157_914)">
<path d="M115.999 58.0111C115.984 90.0401 89.9779 116.027 57.9647 116C25.9771 115.974 -0.0974855 89.8793 -0.000708034 57.9888C0.0981964 25.7831 26.0633 -0.125153 58.3082 0.000454802C90.4458 0.126063 116.04 26.3845 115.999 58.01V58.0111ZM82.0251 25.7905C80.7585 25.7852 79.5184 25.9896 78.2965 26.3025C74.2361 27.3425 70.5532 29.2288 67.0097 31.4067C61.2764 34.9312 56.1047 39.1784 51.2679 43.8398C44.5265 50.3373 38.5295 57.4491 33.6587 65.472C31.4084 69.1785 29.4452 73.0276 28.1775 77.1951C27.4245 79.67 26.9183 82.1821 27.2661 84.7922C27.6755 87.8717 29.5611 89.7473 32.6335 90.1433C33.9501 90.3126 35.2507 90.1987 36.545 89.9528C40.0513 89.2853 43.2577 87.8302 46.3578 86.1292C52.375 82.8272 57.7467 78.6342 62.7834 73.9995C70.0832 67.2816 76.5375 59.842 81.8103 51.4146C84.385 47.3004 86.6183 43.0137 87.9764 38.3237C88.6453 36.0116 89.0654 33.6634 88.7516 31.2364C88.3816 28.3793 86.6917 26.4995 83.983 25.9545C83.3374 25.8246 82.6844 25.782 82.0272 25.7916L82.0251 25.7905ZM4.69034 79.77C11.8763 98.6581 33.2727 117.559 62.1453 115.528C90.0438 113.565 109.928 92.3617 114.317 70.194C114.253 70.3462 114.2 70.5027 114.154 70.6613C113.352 73.4609 112.356 76.1891 111.086 78.812C106.207 88.8989 98.8878 96.7878 89.327 102.534C76.6236 110.169 62.8483 112.774 48.2051 110.765C39.5121 109.573 31.4679 106.553 24.1107 101.755C16.8322 97.007 10.9415 90.9246 6.59611 83.3711C5.91867 82.1928 5.3061 80.9803 4.68928 79.77H4.69034ZM111.098 35.7317C103.594 16.6691 82.0081 -1.76019 53.3715 0.512467C25.3135 2.74041 5.73149 24.2726 1.59133 46.288C1.65833 46.1156 1.7147 45.9389 1.76468 45.7611C2.20071 44.2081 2.68141 42.6678 3.26314 41.1626C7.83401 29.3544 15.6751 20.2627 26.394 13.6768C38.0711 6.50226 50.8277 3.69737 64.452 4.83104C73.7682 5.60704 82.4558 8.40767 90.4373 13.2936C98.7048 18.3552 105.315 25.039 109.977 33.5889C110.363 34.2957 110.723 35.0163 111.097 35.7306L111.098 35.7317ZM0.868162 52.3268C0.930908 52.0341 0.993654 51.7413 1.05534 51.4486C2.58995 44.1644 5.75915 37.6509 10.3534 31.8261C16.9343 23.4817 25.3093 17.5387 35.1178 13.6044C46.1834 9.16558 57.651 7.72109 69.4802 9.30822C77.383 10.3684 84.8348 12.8061 91.7539 16.7904C98.9388 20.928 104.91 26.3696 109.352 33.4239C109.398 33.4973 109.464 33.5591 109.519 33.6261C109.499 33.4217 109.427 33.2642 109.343 33.1131C106.46 27.978 102.801 23.4647 98.3847 19.5793C89.2206 11.5191 78.5326 6.85354 66.4514 5.35902C58.6815 4.3978 50.9904 4.89916 43.4056 6.83438C33.8065 9.2848 25.2625 13.7556 17.9191 20.433C10.0514 27.5863 4.59888 36.2458 1.8923 46.5787C1.39884 48.4649 1.03194 50.3767 0.869226 52.3257L0.868162 52.3268ZM115.157 63.6581C115.111 63.8434 115.057 64.0264 115.02 64.2127C113.471 71.878 110.111 78.6832 105.211 84.7369C98.8612 92.5831 90.885 98.2589 81.6071 102.106C70.6787 106.637 59.3143 108.211 47.5585 106.827C39.8237 105.917 32.4899 103.681 25.6272 99.978C18.5954 96.1842 12.6282 91.1535 7.99992 84.5942C7.56708 83.98 7.15338 83.353 6.68119 82.6601C6.69714 82.9581 6.83008 83.105 6.9226 83.2668C8.76563 86.4986 10.9256 89.5068 13.4482 92.2361C23.7885 103.419 36.6726 109.402 51.7316 110.859C57.2118 111.389 62.6728 111.11 68.0913 110.135C80.7968 107.85 91.7932 102.266 100.811 92.9631C107.846 85.7045 112.562 77.1631 114.644 67.2231C114.891 66.0479 115.104 64.8663 115.157 63.6581ZM0.661845 57.2C0.71502 56.8508 0.766067 56.5017 0.822432 56.1536C1.68705 50.8334 3.59282 45.8995 6.37278 41.2989C11.302 33.1439 18.068 26.855 26.2653 22.1298C40.2608 14.0622 55.3347 11.0082 71.3796 12.8327C77.5446 13.5342 83.4842 15.1288 89.1643 17.642C95.7654 20.5629 101.599 24.5611 106.375 30.0271C106.562 30.2411 106.752 30.4529 106.942 30.6658C106.93 30.4966 106.855 30.3816 106.774 30.2741C103.436 25.8597 99.4259 22.1607 94.8337 19.0939C86.0408 13.2223 76.3046 10.0981 65.8165 9.22732C58.6411 8.63121 51.5466 9.22199 44.552 10.922C34.7892 13.2947 25.9463 17.543 18.2807 24.0895C9.86102 31.2768 3.9778 40.0811 1.4903 50.992C1.02449 53.0347 0.738416 55.104 0.661845 57.2ZM9.17401 85.4607C9.14423 85.4831 9.11445 85.5054 9.08574 85.5278C9.20697 85.6896 9.32715 85.8514 9.45051 86.011C13.0143 90.6404 17.3001 94.4821 22.2273 97.5957C32.4453 104.052 43.6672 106.98 55.6921 106.977C64.3286 106.975 72.6717 105.36 80.6862 102.134C89.8151 98.459 97.7381 93.0504 104.136 85.516C109.625 79.0515 113.327 71.7066 114.857 63.3186C115.127 61.84 115.315 60.3498 115.378 58.8467C115.303 59.1213 115.257 59.4002 115.21 59.6791C115.16 59.9761 115.11 60.2731 115.057 60.5701C113.887 67.0432 111.189 72.8509 107.36 78.152C102.362 85.0711 96.0004 90.4584 88.5613 94.5566C75.6697 101.659 61.856 104.589 47.1852 103.433C40.8011 102.931 34.6201 101.518 28.6741 99.1296C21.6753 96.3173 15.4539 92.3372 10.3226 86.7455C9.9344 86.3229 9.55686 85.8886 9.17507 85.4607H9.17401ZM104.91 29.0191C104.949 28.9786 104.986 28.9382 105.024 28.8977C104.569 28.4773 104.106 28.0643 103.66 27.6331C97.8817 22.0606 91.053 18.2722 83.464 15.8153C72.8334 12.3728 61.989 11.8087 51.0021 13.6023C43.697 14.7956 36.7162 17.0331 30.1056 20.3841C23.0578 23.9564 16.8045 28.5763 11.6413 34.5937C6.27387 40.8486 2.52295 47.9082 1.16594 56.1259C0.805416 58.307 0.67248 60.5041 0.750115 62.714C0.812861 62.401 0.857527 62.087 0.87667 61.7719C0.998971 59.8015 1.31483 57.86 1.80084 55.9482C3.30674 50.0371 6.14838 44.8084 9.95567 40.0843C14.8732 33.9827 20.8873 29.1873 27.683 25.3552C37.6893 19.7135 48.4582 16.5583 59.8854 15.6195C65.6144 15.149 71.3253 15.3566 77.0065 16.2539C82.1399 17.065 87.1139 18.4393 91.8794 20.531C96.6863 22.6408 101.081 25.3967 104.91 29.018V29.0191ZM11.8391 87.9814C12.0816 88.1719 12.2836 88.306 12.457 88.471C18.6337 94.3842 25.9665 98.2535 34.1043 100.67C42.6548 103.21 51.3828 103.907 60.2438 103.021C69.9322 102.054 79.0962 99.334 87.6669 94.6876C94.6646 90.8938 100.782 86.0153 105.739 79.7498C110.138 74.189 113.273 68.015 114.644 61.0076C115.136 58.4976 115.33 55.9631 115.293 53.3072C115.233 53.4466 115.202 53.4903 115.194 53.5371C115.173 53.6766 115.153 53.8181 115.144 53.9586C114.995 56.7007 114.477 59.3736 113.655 61.9901C111.643 68.3897 108.126 73.8888 103.586 78.763C97.5903 85.1988 90.4415 90.0145 82.4632 93.622C72.9514 97.9225 62.9674 100.232 52.5335 100.569C44.7668 100.819 37.148 99.9163 29.7249 97.567C23.2865 95.5285 17.3799 92.5033 12.2571 88.0431C12.1869 87.9814 12.1273 87.8675 11.838 87.9835L11.8391 87.9814ZM101.65 26.7592C101.572 26.5314 101.398 26.4686 101.267 26.3685C99.1207 24.7271 96.832 23.3135 94.4232 22.0947C86.7406 18.2093 78.539 16.3316 69.9928 15.8281C63.5916 15.4513 57.2458 15.9292 50.9574 17.1757C40.2481 19.2983 30.347 23.3348 21.4605 29.7376C15.472 34.0519 10.3502 39.2008 6.53124 45.5674C3.38863 50.8067 1.43394 56.4304 1.15637 62.5798C1.13191 63.1291 1.12127 63.6794 1.12765 64.2287C1.13403 64.7609 1.16168 65.2921 1.19891 65.8233C1.23613 66.347 1.29675 66.8686 1.34673 67.3923C1.40948 67.0495 1.41373 66.7132 1.40841 66.3768C1.36056 63.3899 1.81679 60.4754 2.6729 57.6194C4.36385 51.983 7.34906 47.0768 11.1563 42.6465C16.3526 36.6003 22.6122 31.8868 29.5887 28.1058C39.2367 22.876 49.5313 19.6836 60.4331 18.4563C68.1104 17.592 75.7516 17.7857 83.3374 19.3324C88.8059 20.4479 94.0297 22.2437 98.8761 25.0539C99.8024 25.5904 100.701 26.1748 101.65 26.7592ZM14.2649 89.246C14.3915 89.3524 14.5138 89.4642 14.6446 89.5642C16.4929 90.9768 18.4444 92.2308 20.4927 93.3304C28.6422 97.7043 37.4149 99.7406 46.5865 100.2C55.1008 100.628 63.4587 99.5969 71.6497 97.2402C81.4593 94.4182 90.4235 89.9528 98.2688 83.3605C103.774 78.7343 108.327 73.3331 111.426 66.7888C113.681 62.0263 114.939 57.0275 114.877 51.7318C114.866 50.7248 114.836 49.7157 114.625 48.7236C114.599 49.0259 114.593 49.3261 114.599 49.6273C114.642 51.9095 114.376 54.1588 113.864 56.3793C112.638 61.6878 110.194 66.413 106.945 70.7422C102.128 77.1621 96.0748 82.1864 89.2292 86.2846C79.9332 91.8507 69.8949 95.3763 59.2058 97.0581C50.5735 98.4164 41.9475 98.4526 33.345 96.8037C27.918 95.7637 22.725 94.0425 17.867 91.3728C16.6471 90.7022 15.4699 89.9602 14.2649 89.2449V89.246ZM17.2948 90.6074C18.2339 91.2323 19.2218 91.7485 20.2279 92.2286C27.6085 95.7488 35.4486 97.3179 43.563 97.6649C51.6774 98.0119 59.6599 97.0752 67.5053 95.0026C78.0742 92.2105 87.8222 87.7025 96.4471 80.9133C101.946 76.5851 106.643 71.5342 110.035 65.3602C112.826 60.2816 114.448 54.889 114.269 49.0355C114.223 47.5473 114.055 46.072 113.694 44.6253C113.728 45.545 113.817 46.4605 113.829 47.3781C113.889 52.3183 112.529 56.9051 110.281 61.2503C107.159 67.2827 102.727 72.2421 97.5669 76.5819C91.4136 81.7574 84.5488 85.7662 77.1511 88.8691C64.2489 94.2799 50.8489 96.8346 36.8396 95.7467C31.6583 95.3443 26.6025 94.3129 21.72 92.4926C20.2141 91.9316 18.7497 91.2749 17.2959 90.6085L17.2948 90.6074ZM2.35492 71.4086C2.35492 71.3213 2.36449 71.2329 2.35386 71.1478C2.04225 68.7357 2.1369 66.3332 2.55485 63.9434C3.29504 59.71 4.93281 55.8236 7.17784 52.1842C11.1117 45.8037 16.3834 40.7006 22.4027 36.3278C28.8709 31.6281 35.9218 28.0217 43.4364 25.3339C55.4602 21.0323 67.8126 19.0982 80.5819 20.3926C86.563 20.9993 92.3399 22.4087 97.7977 24.9986C97.9434 25.0678 98.0774 25.2178 98.3209 25.1189C98.1391 25.0124 97.9902 24.9209 97.837 24.8357C96.5672 24.1268 95.2591 23.4966 93.9213 22.9271C86.4056 19.7284 78.5156 18.3956 70.399 18.2785C60.7181 18.138 51.3126 19.7528 42.1719 22.9218C33.3875 25.9672 25.2869 30.2645 18.1307 36.2501C13.1227 40.4388 8.84645 45.2534 5.75276 51.0484C3.05788 56.0972 1.51689 61.4408 1.74873 67.2167C1.8051 68.6314 1.96462 70.0354 2.35492 71.4075V71.4086ZM3.55453 74.75C3.5439 74.6478 3.54284 74.5434 3.52263 74.4434C3.02066 71.9642 3.01428 69.4744 3.40671 66.9836C4.10329 62.5649 5.85061 58.5582 8.23814 54.8145C11.9869 48.9354 16.8907 44.1538 22.4091 39.9672C27.4267 36.1606 32.8313 32.9949 38.5454 30.3614C50.0566 25.0582 62.1049 21.9478 74.8072 21.5742C80.5894 21.4038 86.3131 21.8871 91.9294 23.3571C93.2023 23.6903 94.453 24.097 95.7132 24.4791C95.5814 24.3801 95.441 24.3056 95.2942 24.246C92.8269 23.2464 90.2926 22.4577 87.6967 21.8733C79.779 20.0903 71.7869 19.9242 63.7565 20.8492C55.5602 21.7934 47.6457 23.8617 40.0141 26.9945C31.9773 30.2943 24.5265 34.582 17.934 40.2865C13.1206 44.4508 8.98577 49.1802 6.03778 54.8666C3.78531 59.2108 2.41979 63.7944 2.50274 68.7389C2.53678 70.7859 2.84306 72.7934 3.5556 74.751L3.55453 74.75ZM112.421 40.9944C113.141 44.4092 113 47.7985 112.173 51.1708C111.021 55.8641 108.784 60.0261 105.923 63.8753C101.959 69.2083 97.1266 73.6535 91.6911 77.4218C76.5885 87.8909 59.8694 93.654 41.487 94.4172C35.473 94.6673 29.5175 94.1181 23.6864 92.5363C22.4942 92.2127 21.3201 91.8209 20.1375 91.4611C22.6686 92.5959 25.2986 93.4272 27.9946 94.0521C36.244 95.9649 44.5701 96.0937 52.9366 95.0697C60.0545 94.199 66.9661 92.4649 73.6714 89.9176C82.4877 86.5688 90.6457 82.0725 97.837 75.9198C102.645 71.8067 106.795 67.1294 109.777 61.5036C112.392 56.5709 113.896 51.3645 113.421 45.71C113.286 44.0984 112.979 42.5209 112.421 40.9934V40.9944ZM110.824 37.6094C111.649 40.1343 111.892 42.7093 111.642 45.3375C111.265 49.292 109.898 52.9197 107.978 56.359C105.598 60.6233 102.515 64.3383 99.0313 67.7319C93.2587 73.3534 86.6949 77.8859 79.6014 81.652C67.9541 87.8355 55.6123 91.8007 42.4484 93.0387C37.2427 93.5284 32.0411 93.4943 26.8609 92.6981C25.8176 92.5373 24.7807 92.3361 23.7417 92.153C23.8629 92.2478 23.9937 92.2957 24.1288 92.3308C27.3075 93.1696 30.5406 93.6774 33.814 93.9403C39.7801 94.4193 45.7155 94.0883 51.62 93.1739C61.1073 91.7049 70.1661 88.8457 78.7985 84.6474C86.8374 80.7376 94.2339 75.8879 100.584 69.5372C104.397 65.7243 107.66 61.5026 109.924 56.5719C111.942 52.1735 113.025 47.6005 112.355 42.7242C112.109 40.9401 111.616 39.2285 110.825 37.6105L110.824 37.6094ZM91.9868 23.7893C91.9932 23.768 91.9985 23.7467 92.0049 23.7255C91.8911 23.6871 91.7805 23.6403 91.6645 23.6105C89.0165 22.9377 86.3322 22.4672 83.6139 22.1926C77.8551 21.6103 72.1081 21.7828 66.379 22.546C54.9168 24.0746 44.0905 27.6012 33.8937 33.0513C26.227 37.1485 19.2314 42.1451 13.3758 48.6299C9.90356 52.4748 7.01406 56.7039 5.18167 61.5888C3.61515 65.7658 2.95047 70.0482 3.86507 74.4828C4.12882 75.7644 4.50317 77.012 5.09659 78.1871C5.11786 78.1126 5.11467 78.0445 5.09447 77.9817C3.86401 74.073 4.09372 70.1748 5.20826 66.2948C6.45998 61.9379 8.68693 58.0845 11.419 54.5079C15.371 49.3346 20.1173 44.9809 25.4018 41.2243C40.1162 30.7638 56.4291 24.5281 74.4382 22.8888C79.2707 22.4492 84.1042 22.5481 88.9122 23.2699C89.9396 23.4242 90.9616 23.6158 91.9868 23.7904V23.7893ZM88.9548 23.6616C87.2521 23.305 85.5261 23.1613 83.7958 23.0612C78.3571 22.7493 72.9535 23.1304 67.5904 24.0288C54.1564 26.2802 41.688 31.0874 30.1779 38.3694C24.0511 42.2452 18.4349 46.7468 13.6736 52.2523C10.3662 56.077 7.60004 60.239 5.93994 65.0579C4.54783 69.0997 4.07139 73.2054 5.26037 77.393C5.62727 78.6864 6.14413 79.918 6.8907 81.0463C6.54932 80.1383 6.21857 79.2303 6.00056 78.2851C5.13488 74.5285 5.64961 70.8774 6.89495 67.3008C8.39553 62.9928 10.815 59.2108 13.6811 55.7001C18.1116 50.2724 23.362 45.7441 29.0995 41.7704C40.9489 33.5644 53.9213 27.9472 68.0349 25.0145C74.0776 23.7585 80.1842 23.1411 86.3652 23.4753C87.2287 23.5221 88.0902 23.5977 88.9527 23.6605L88.9548 23.6616ZM27.1874 92.383C29.2218 92.7428 31.2839 92.9205 33.3545 92.9919C41.2265 93.2622 48.9485 92.2212 56.5567 90.2625C68.8176 87.1053 80.1491 81.9277 90.4298 74.5062C95.9515 70.5208 100.941 65.967 104.97 60.4349C108.129 56.0961 110.53 51.4103 111.244 46.0049C111.737 42.2824 111.231 38.7196 109.425 35.3846C109.382 35.3069 109.344 35.226 109.292 35.1547C109.243 35.0866 109.246 34.945 109.083 34.994C110.72 38.676 110.753 42.4591 109.818 46.3008C108.686 50.9547 106.364 55.0157 103.509 58.7935C99.3334 64.317 94.2669 68.9252 88.6804 72.9627C75.5442 82.4567 61.0169 88.7095 45.0423 91.5293C40.6692 92.301 36.2589 92.6736 31.8146 92.6001C30.2736 92.5746 28.7358 92.4852 27.1884 92.384L27.1874 92.383ZM8.84433 83.4158C8.83156 83.369 8.82944 83.3179 8.80604 83.2775C6.9896 80.0638 6.71309 76.6277 7.35544 73.0692C8.08074 69.055 9.83443 65.4699 12.0401 62.0902C15.4124 56.9232 19.6409 52.5195 24.3255 48.5479C35.1274 39.3913 47.3426 32.7554 60.7468 28.2878C68.3795 25.7437 76.1876 24.0682 84.2637 23.8511C84.5062 23.8447 84.7487 23.8149 84.9912 23.7957C84.8061 23.7084 84.6296 23.7116 84.453 23.7084C78.523 23.5988 72.677 24.3099 66.8948 25.5723C57.2628 27.6747 48.1253 31.1257 39.4515 35.7987C31.4041 40.1333 23.9735 45.3247 17.5479 51.8744C13.814 55.6799 10.5608 59.8441 8.30088 64.7141C6.60355 68.3695 5.59005 72.1761 5.99099 76.2541C6.25154 78.9067 7.17465 81.3082 8.84433 83.4158ZM30.5905 92.1765C32.4495 92.4096 37.1682 92.2478 40.2374 91.8965C45.8325 91.2557 51.3211 90.1071 56.7013 88.4572C69.9598 84.3898 82.0846 78.1648 92.8131 69.3201C97.6243 65.3538 101.938 60.9118 105.313 55.6299C107.874 51.6232 109.758 47.3547 110.07 42.5262C110.296 39.0326 109.506 35.8019 107.491 32.9055C107.411 32.7895 107.312 32.6862 107.22 32.5776C107.744 33.6804 108.218 34.7821 108.511 35.9531C109.32 39.1837 108.988 42.3623 108.031 45.5003C106.836 49.4155 104.816 52.9016 102.4 56.1717C98.3858 61.6069 93.5203 66.1937 88.1891 70.2973C77.2702 78.7034 65.1741 84.8103 51.9794 88.7414C47.2852 90.1401 42.5091 91.162 37.6404 91.7294C35.2975 92.003 32.9494 92.1573 30.5905 92.1765ZM81.3817 24.3705C80.767 24.2896 80.1523 24.3982 79.5397 24.4599C74.6785 24.9432 69.9035 25.8927 65.2135 27.2457C50.7139 31.4269 37.5351 38.1736 25.8219 47.7219C21.1053 51.5668 16.8194 55.8417 13.2897 60.8288C10.9288 64.1648 8.98045 67.7117 7.97758 71.7109C7.12573 75.1076 7.0364 78.4831 8.43595 81.7819C9.02725 83.1753 9.84719 84.4175 10.9383 85.5278C10.9841 85.3042 10.8394 85.2244 10.7671 85.1179C10.1226 84.1748 9.61323 83.1657 9.26972 82.0757C8.32109 79.0589 8.54442 76.0507 9.37075 73.0564C10.5055 68.9454 12.591 65.3134 15.0764 61.8943C19.0251 56.4612 23.8002 51.8244 29.0144 47.6335C39.292 39.3722 50.6852 33.1077 63.112 28.7274C69.0442 26.6368 75.1167 25.1189 81.3817 24.3716V24.3705ZM105.159 30.6499C105.665 31.5025 106.159 32.3551 106.51 33.2823C107.67 36.3416 107.541 39.4382 106.743 42.5411C105.61 46.9427 103.377 50.794 100.708 54.4132C96.6704 59.8899 91.7911 64.5406 86.496 68.7729C80.3405 73.6919 73.7086 77.8689 66.6758 81.4104C59.1165 85.2169 51.2626 88.2315 43.0068 90.154C40.147 90.8193 37.2565 91.3089 34.3415 91.6623C34.9849 91.7241 35.6176 91.624 36.2504 91.5633C41.8593 91.0194 47.3415 89.8389 52.7249 88.1921C63.8724 84.7816 74.2435 79.7562 83.8181 73.1011C90.0002 68.8038 95.693 63.9498 100.484 58.1026C103.458 54.4739 105.985 50.5747 107.5 46.0911C108.555 42.968 109.011 39.783 108.305 36.5109C107.819 34.2595 106.778 32.2966 105.156 30.652L105.159 30.6499ZM102.54 28.5997C103.123 29.2543 103.667 29.9292 104.105 30.6839C105.665 33.3653 105.874 36.2554 105.376 39.237C104.82 42.572 103.479 45.6142 101.795 48.5149C98.6144 53.9959 94.4594 58.6828 89.8779 63.0088C83.4799 69.0508 76.3918 74.1645 68.7804 78.5597C61.001 83.0518 52.8568 86.7051 44.216 89.2108C42.273 89.7739 40.3055 90.2402 38.3359 90.7054C38.4625 90.7224 38.5869 90.7235 38.706 90.7022C42.4793 90.039 46.1887 89.1172 49.8397 87.958C59.4366 84.9114 68.4507 80.6163 76.9288 75.197C84.3701 70.441 91.2285 64.9706 97.1085 58.34C100.299 54.7421 103.104 50.8749 105.045 46.4403C106.443 43.2479 107.323 39.948 106.934 36.4182C106.578 33.1886 105.104 30.5775 102.538 28.5997H102.54ZM13.3982 87.3427C12.6686 86.5028 12.0039 85.6193 11.5222 84.6102C10.2173 81.8798 10.1588 79.0291 10.7501 76.1306C11.569 72.1186 13.412 68.5547 15.6432 65.175C19.0272 60.0485 23.1918 55.6054 27.7372 51.5104C35.5028 44.5136 44.133 38.7835 53.4502 34.0775C59.427 31.0586 65.6091 28.5539 72.0517 26.7134C73.8511 26.1993 75.6718 25.7682 77.4925 25.3286C77.35 25.3115 77.2107 25.3158 77.0745 25.3403C72.4069 26.1674 67.8435 27.3958 63.3758 28.9691C50.5692 33.4803 38.8602 39.9651 28.3593 48.5948C23.3556 52.7068 18.7805 57.2415 15.0104 62.5404C12.7059 65.7796 10.7714 69.2147 9.69724 73.0766C8.89963 75.9443 8.64971 78.8312 9.50688 81.735C10.1843 84.0311 11.5073 85.8854 13.3971 87.3427H13.3982ZM100.39 27.4809C100.588 27.6789 100.787 27.8737 100.983 28.0738C103.363 30.5104 103.99 33.5016 103.676 36.7653C103.38 39.8299 102.304 42.6582 100.919 45.3758C98.3932 50.3341 94.9922 54.6612 91.2158 58.7062C85.3655 64.9706 78.7687 70.3473 71.6454 75.0885C63.7512 80.3438 55.4081 84.723 46.4684 87.9239C45.122 88.4061 43.7587 88.8415 42.4027 89.2981C42.5133 89.3311 42.6154 89.3184 42.7132 89.2928C45.506 88.553 48.2519 87.6663 50.9574 86.654C60.5692 83.056 69.5408 78.2457 77.9179 72.324C84.7923 67.4647 91.1211 61.9922 96.5045 55.4819C99.5014 51.8584 102.118 47.9891 103.831 43.5747C104.961 40.6612 105.618 37.6647 105.123 34.5192C104.641 31.4535 103.046 29.1096 100.39 27.4809ZM15.6517 88.5125C15.5262 88.3997 15.3986 88.289 15.2774 88.173C14.5787 87.5087 13.981 86.7668 13.5162 85.9195C12.1996 83.5202 12.0476 80.9527 12.4496 78.3191C12.91 75.3014 14.0533 72.5199 15.4911 69.8523C18.1966 64.8312 21.7508 60.4456 25.6836 56.3537C31.5838 50.2138 38.1913 44.933 45.3113 40.2865C53.162 35.1643 61.4413 30.8915 70.3097 27.8088C71.3711 27.4394 72.442 27.0977 73.547 26.7305C73.3683 26.641 73.2566 26.7198 73.1407 26.7507C67.7882 28.1835 62.6164 30.1208 57.5914 32.4424C46.3482 37.636 36.0462 44.2687 26.9353 52.6972C22.3634 56.9275 18.2083 61.5217 14.9541 66.8675C12.9398 70.177 11.3276 73.6599 10.8437 77.5591C10.4725 80.5556 10.8777 83.4009 12.6984 85.9184C13.4811 87.001 14.4468 87.8866 15.6528 88.5115L15.6517 88.5125ZM97.9094 26.3717C97.97 26.4473 97.9934 26.4942 98.0317 26.5218C101.045 28.6891 102.001 31.7324 101.755 35.2856C101.576 37.8681 100.796 40.2919 99.7588 42.638C97.7041 47.2844 94.8103 51.3933 91.5646 55.2648C85.8824 62.0423 79.3143 67.8628 72.1836 73.0596C65.0433 78.2638 57.4713 82.7282 49.36 86.2537C48.3093 86.7104 47.248 87.1404 46.1451 87.6014C46.3929 87.6791 46.5429 87.5545 46.7003 87.4981C53.8426 84.9242 60.6107 81.57 67.0809 77.6123C76.7672 71.6864 85.609 64.7237 93.0896 56.1249C96.3588 52.3662 99.2589 48.3478 101.324 43.7812C102.63 40.8944 103.564 37.9096 103.411 34.6927C103.241 31.1267 101.645 28.4028 98.5102 26.6304C98.3347 26.5314 98.171 26.3866 97.9094 26.3728V26.3717ZM17.9712 89.5376C17.951 89.5036 17.9414 89.4674 17.918 89.4482C17.8095 89.3577 17.6968 89.2715 17.5851 89.1842C16.2611 88.1559 15.322 86.8509 14.7733 85.2659C14.1426 83.4467 14.0884 81.5817 14.3543 79.6966C14.7828 76.6543 15.8995 73.8441 17.315 71.1467C20.0386 65.9542 23.613 61.377 27.6308 57.1467C38.7347 45.4578 51.721 36.431 66.4173 29.8483C67.6042 29.3161 68.8155 28.8392 70.0162 28.3368C69.461 28.4464 68.9314 28.6274 68.4071 28.8243C60.7957 31.6739 53.6055 35.3665 46.7619 39.7383C38.0562 45.2992 30.0747 51.7328 23.2333 59.5141C19.8855 63.3228 16.9056 67.3912 14.7711 72.0238C13.4311 74.932 12.4687 77.9455 12.5942 81.2007C12.7346 84.8337 14.35 87.6003 17.5405 89.3993C17.6692 89.4716 17.7883 89.61 17.9722 89.5376H17.9712ZM95.2666 25.5808C95.4708 25.7043 95.675 25.8257 95.8781 25.9502C97.0309 26.6613 97.9721 27.5789 98.6368 28.7689C99.7885 30.8308 99.9406 33.0502 99.6407 35.3282C99.1983 38.6845 97.9179 41.7545 96.3354 44.7073C93.3885 50.2042 89.5503 55.0476 85.2815 59.5535C75.7218 69.6458 64.7328 77.8486 52.4144 84.2727C51.5753 84.7102 50.7256 85.1296 49.8195 85.5874C50.0885 85.6363 50.231 85.5129 50.3852 85.4426C60.6277 80.8206 69.9992 74.8117 78.6134 67.6105C84.6742 62.5436 90.2203 56.9764 94.8157 50.5172C97.3032 47.0204 99.4503 43.3363 100.693 39.1901C101.376 36.9079 101.741 34.5863 101.289 32.2082C100.637 28.7774 98.489 26.6826 95.2666 25.5787V25.5808ZM66.4673 30.1911C66.2759 30.2709 66.0834 30.3465 65.8952 30.4306C58.6528 33.6602 51.8369 37.6381 45.3773 42.2281C37.7319 47.6612 30.7043 53.7862 24.6616 60.9916C21.3914 64.8908 18.4838 69.0327 16.4398 73.727C15.4433 76.0156 14.735 78.383 14.5489 80.892C14.2383 85.0828 16.0367 88.3326 19.6568 90.0571C19.9525 90.1976 20.263 90.3083 20.5661 90.4329C20.565 90.3222 20.5257 90.2838 20.48 90.2583C17.4405 88.5434 16.2324 85.8216 16.243 82.4589C16.2505 80.1053 16.8386 77.8614 17.667 75.676C19.3367 71.2744 21.8263 67.3423 24.651 63.6134C29.2654 57.5204 34.6403 52.1565 40.4735 47.2397C46.6843 42.0035 53.3215 37.3848 60.415 33.4271C62.4101 32.3136 64.4403 31.2683 66.4684 30.1932L66.4673 30.1911ZM62.8451 32.5947C62.8312 32.567 62.8185 32.5393 62.8047 32.5116C62.6239 32.6032 62.4409 32.6926 62.2612 32.7884C55.3007 36.5098 48.7783 40.8922 42.6505 45.8612C35.6432 51.5455 29.2335 57.8195 23.9225 65.1537C21.2818 68.8006 18.9751 72.6391 17.5575 76.9481C16.7407 79.4315 16.2611 81.9618 16.7471 84.5878C17.3448 87.8196 20.1226 90.5393 23.2897 90.914C23.0345 90.7916 22.86 90.7096 22.6878 90.6245C20.5906 89.6026 19.2229 87.9803 18.6263 85.7119C18.2402 84.2461 18.2243 82.7644 18.4072 81.2752C18.7582 78.4235 19.7525 75.7729 20.9989 73.2107C23.5938 67.8756 27.0661 63.1312 30.9362 58.6743C39.1729 49.1887 48.7368 41.2691 59.3994 34.6587C60.5373 33.9529 61.6965 33.2812 62.8451 32.5947ZM92.8269 25.1338C92.8865 25.1689 92.9429 25.2115 93.0067 25.2391C96.0568 26.5846 97.4957 29.0159 97.685 32.2593C97.8594 35.2537 97.0341 38.0533 95.91 40.7783C94.118 45.1214 91.6092 49.0482 88.7634 52.7569C79.8237 64.4075 68.8229 73.743 56.4035 81.47C55.1486 82.2513 53.8597 82.9783 52.5877 83.7309C52.7866 83.7118 52.9546 83.6287 53.1195 83.5425C58.8453 80.5407 64.2733 77.0652 69.443 73.1873C77.2319 67.3433 84.3595 60.8011 90.3852 53.1156C93.3821 49.2941 96.0387 45.2566 97.8477 40.7187C98.9335 37.9947 99.6907 35.1973 99.3833 32.2189C98.9867 28.3708 96.4247 25.9108 92.8291 25.1338H92.8269ZM59.7067 34.8694C59.5419 34.9642 59.3749 35.0547 59.2133 35.1547C57.4787 36.2256 55.7708 37.3358 54.1 38.5025C44.3063 45.3407 35.4688 53.2146 28.1009 62.665C25.0391 66.5918 22.3294 70.7433 20.4289 75.3737C19.3378 78.0317 18.5561 80.7632 18.6529 83.683C18.7677 87.133 20.6618 89.6856 23.9352 90.7618C24.5127 90.9513 25.0976 91.1109 25.7123 91.1301C25.556 91.0385 25.3901 90.9821 25.2274 90.9204C23.9767 90.4488 22.8877 89.7495 22.0497 88.6871C20.7373 87.0233 20.364 85.0839 20.4236 83.0337C20.5023 80.3161 21.2839 77.7603 22.3177 75.2747C24.2862 70.541 27.0374 66.2693 30.1322 62.2126C37.0885 53.0932 45.3762 45.3449 54.5839 38.5525C56.2802 37.3007 58.0211 36.1138 59.7067 34.8684V34.8694ZM56.3461 80.9995C56.3674 81.0218 56.3897 81.0431 56.411 81.0655C56.562 80.9803 56.7162 80.8994 56.863 80.8079C66.948 74.4987 76.0376 66.9963 83.9585 58.1016C87.7413 53.8533 91.1679 49.3388 93.8479 44.2975C95.5463 41.1019 96.9405 37.7925 97.3021 34.1413C97.5042 32.1071 97.3106 30.1272 96.2014 28.3421C94.8657 26.1929 92.7929 25.2572 90.3214 24.8187C90.4128 24.9166 90.4309 24.9517 90.4586 24.9624C90.5904 25.0156 90.7244 25.0592 90.8574 25.1103C93.1481 25.996 94.6413 27.6033 95.273 29.9931C95.6462 31.4056 95.6505 32.8374 95.4857 34.2723C95.1666 37.0346 94.2361 39.6159 93.08 42.1206C90.9127 46.8192 88.0455 51.0803 84.8455 55.1211C77.7711 64.0531 69.461 71.6768 60.2236 78.3085C58.9463 79.2261 57.6382 80.1021 56.345 80.9974L56.3461 80.9995ZM28.4838 91.1663C28.4753 91.1514 28.4699 91.1269 28.4582 91.1248C28.3561 91.0992 28.2519 91.0779 28.1488 91.0545C25.573 90.4552 23.7342 89.0192 22.9504 86.4166C22.4283 84.6794 22.4793 82.9092 22.7622 81.1432C23.2737 77.9391 24.4702 74.966 25.9165 72.0877C28.622 66.7015 32.0943 61.8262 35.9484 57.217C42.0826 49.8785 49.0176 43.3863 56.6588 37.6424C56.8066 37.5306 57.015 37.4636 57.1161 37.1527C56.8034 37.3699 56.5716 37.5285 56.3429 37.6903C52.3165 40.5399 48.4678 43.6141 44.8041 46.9182C38.941 52.2055 33.5534 57.9259 28.9581 64.3649C26.2313 68.1853 23.7948 72.1739 22.1475 76.5968C21.2127 79.1079 20.5586 81.6765 20.7767 84.392C21.134 88.8468 24.4393 91.129 28.4827 91.1673L28.4838 91.1663ZM87.3872 24.8325C87.7116 24.9145 88.0391 24.989 88.3614 25.0805C90.4213 25.6639 91.9676 26.8593 92.8035 28.8733C93.4884 30.5253 93.548 32.2551 93.3587 34.0008C93.0598 36.7631 92.1697 39.3583 91.052 41.879C88.9112 46.7043 86.0568 51.0995 82.8578 55.2754C76.1738 64.0009 68.3348 71.5576 59.5812 78.1797C59.3845 78.3277 59.192 78.4799 58.9963 78.631C59.2196 78.6076 59.3813 78.5086 59.5355 78.4C67.2766 72.9212 74.3478 66.6855 80.6606 59.6014C85.0252 54.7027 88.9633 49.4932 91.9836 43.6396C93.5182 40.6644 94.7742 37.5807 95.1762 34.2222C95.4133 32.2402 95.3304 30.2752 94.3307 28.4751C92.8216 25.7607 90.2693 24.9698 87.3872 24.8325ZM85.1762 24.9932C85.357 25.1859 85.5272 25.1508 85.6792 25.1785C87.7796 25.5617 89.4652 26.5442 90.4607 28.5103C91.0488 29.6727 91.2657 30.9234 91.2934 32.2146C91.3466 34.7002 90.7733 37.0729 89.9704 39.3966C88.3539 44.0739 85.9292 48.3382 83.1758 52.4205C77.8009 60.3913 71.3562 67.4168 64.1936 73.8004C63.2885 74.6073 62.3623 75.3908 61.4179 76.2094C61.5061 76.2211 61.5487 76.2413 61.5678 76.2274C61.6699 76.1572 61.7678 76.0806 61.8645 76.0039C70.3586 69.2232 77.9743 61.5888 84.3212 52.7356C87.284 48.6033 89.9034 44.2687 91.6762 39.4733C92.6164 36.9303 93.2949 34.3244 93.0939 31.576C92.9673 29.8313 92.443 28.2324 91.1413 26.9849C89.4908 25.4031 87.4202 25.0529 85.1773 24.9943L85.1762 24.9932ZM30.8936 90.9172C29.4845 90.7064 28.2551 90.3402 27.2086 89.5217C25.4826 88.1708 24.853 86.2942 24.735 84.2004C24.5861 81.5679 25.1891 79.0536 26.042 76.5947C27.7659 71.63 30.381 67.1294 33.3471 62.8257C38.6688 55.1051 44.9774 48.2658 51.9847 42.0578C52.9057 41.2414 53.8448 40.4451 54.7753 39.6393C54.5765 39.6787 54.4233 39.7809 54.2787 39.8948C51.8433 41.8173 49.4792 43.8238 47.2001 45.9293C40.4682 52.1469 34.3702 58.9138 29.4026 66.6493C27.1459 70.1642 25.1667 73.8249 23.8906 77.8242C23.1195 80.2405 22.6239 82.6994 23.0142 85.2574C23.6694 89.5493 27.3235 91.1503 30.8947 90.9183L30.8936 90.9172ZM33.3194 90.5585C32.9887 90.5148 32.6558 90.4797 32.3261 90.4265C29.7227 90.0081 27.9552 88.6073 27.2044 86.0313C26.9853 85.2797 26.8768 84.508 26.8502 83.7245C26.7652 81.2241 27.2927 78.8237 28.0637 76.4712C29.7068 71.4618 32.2443 66.8984 35.1316 62.5202C39.8386 55.3829 45.4081 48.9727 51.5806 43.0744C51.7412 42.9211 51.9433 42.7913 51.9943 42.5475C51.6306 42.8115 51.2988 43.1021 50.9734 43.4001C43.6746 50.0605 37.131 57.3724 31.8231 65.7392C29.3186 69.6884 27.1416 73.8015 25.8346 78.3234C25.2008 80.5183 24.819 82.7474 25.1317 85.0445C25.5347 88.008 27.3075 89.8889 30.2385 90.4776C31.2552 90.6819 32.2783 90.6905 33.3173 90.5585H33.3194ZM82.7057 25.4733C82.8812 25.4861 83.0567 25.4946 83.2311 25.5138C85.4144 25.7618 87.2107 26.64 88.2848 28.6625C88.9048 29.8313 89.126 31.1033 89.1611 32.4105C89.2238 34.7449 88.7485 36.9952 88.0487 39.2029C86.5077 44.0601 84.1021 48.4936 81.3508 52.7505C76.4046 60.4019 70.4724 67.2231 63.8575 73.4651C63.7246 73.5907 63.5523 73.6865 63.481 73.8867C63.664 73.9026 63.7363 73.76 63.8331 73.6738C70.3607 67.8958 76.2727 61.5515 81.3604 54.46C84.5626 49.9956 87.4063 45.3226 89.3547 40.1556C90.3543 37.5029 91.102 34.7864 90.9648 31.9123C90.8637 29.7908 90.2288 27.8865 88.4018 26.6049C86.6832 25.3988 84.7221 25.2466 82.7057 25.4733Z" fill="#377571"/>
</g>
<defs>
<clipPath id="clip0_2157_914">
<rect width="116" height="116" fill="white"/>
</clipPath>
</defs>
</svg>
