<svg width="2337" height="151" viewBox="0 0 2337 151" fill="none" xmlns="http://www.w3.org/2000/svg">
<g clip-path="url(#clip0_2157_702)">
<path d="M1951.71 111.522L1977.45 151.734C1989.92 120.796 2001.14 93.1445 2013.61 62.1091L2048.94 150.712H2053.41L2072.25 85.4526L2075.21 85.3309C2079.89 102.759 2084.98 120.164 2089.19 137.665C2091.53 147.402 2094.31 155.702 2109.92 153.633C2112.88 153.219 2116.52 154.875 2120.34 155.702V214C2098.55 211.858 2077.73 209.959 2056.97 207.72C2015.68 203.241 1974.43 198.567 1933.15 193.991C1891.39 189.366 1849.66 184.571 1807.87 180.165C1772.34 176.417 1736.8 173.131 1701.26 169.625C1662.32 165.78 1623.37 161.861 1584.4 158.161C1546.37 154.558 1508.32 151.272 1470.32 147.718C1431.32 144.067 1392.37 140.197 1353.4 136.472C1315.88 132.894 1278.33 129.438 1240.86 125.859C1200.91 122.038 1160.9 117.802 1121.04 114.37C1085.39 111.303 1049.66 108.691 1013.86 106.532C954.99 103.027 896.056 100.009 837.152 96.7957C803.272 94.9945 769.363 93.534 735.483 91.7327C676.569 88.5845 617.665 85.339 558.771 81.9961C515.118 79.562 471.436 77.4686 427.843 74.3529C381.88 71.0424 336.036 66.6123 290.133 62.8394C275.325 61.6223 260.754 60.9407 246.065 59.8941C239.555 59.7011 233.209 58.1606 227.615 55.4152H485.266C511.92 55.4152 511.92 55.4152 522.166 34.6763C524.773 41.5649 526.816 46.847 529.866 55.0258C534.842 37.2565 539.047 22.1161 543.252 7H546.51C550.36 20.9964 554.684 34.8953 557.823 49.0134C559.244 55.4396 562.206 58.3119 570.261 57.752C624.931 53.9791 678.445 63.0584 732.463 67.1478C768.712 69.8984 805.168 70.58 841.535 72.3325C906.866 75.4969 972.197 78.8317 1037.56 81.9474C1074.9 83.7487 1112.28 85.1362 1149.62 86.9618C1235.36 91.1729 1321.39 92.3899 1406.2 105.875C1462.89 114.857 1520.13 121.819 1577.41 127.782C1611.53 131.385 1646.15 131.385 1680.56 133.113C1744.41 136.278 1808.26 139.523 1872.11 142.85C1888.81 143.677 1905.51 144.943 1922.22 144.943C1926.24 144.943 1931.63 141.487 1934.06 138.371C1940.22 130.728 1944.81 122.257 1951.71 111.522Z" fill="#DBDFE0"/>
<path d="M0.51609 44.9986L983.955 100.862L1459.48 133.152L1922.81 139.222L1930.67 472.13L0.516425 517.682L0.51609 44.9986Z" fill="#DBDFE0"/>
</g>
<defs>
<clipPath id="clip0_2157_702">
<rect width="2337" height="151" fill="white"/>
</clipPath>
</defs>
</svg>
