<svg width="124" height="117" viewBox="0 0 124 117" fill="none" xmlns="http://www.w3.org/2000/svg">
<path d="M62.016 116.91C49.1017 116.91 36.1874 116.965 23.2732 116.89C14.4601 116.84 7.61759 112.896 3.2264 105.006C-1.077 97.2745 -1.06883 89.275 3.21108 81.5263C12.1446 65.3537 21.2292 49.2695 30.2515 33.1485C34.2823 25.9464 38.2488 18.7054 42.3653 11.5559C46.1848 4.92678 51.8716 0.945504 59.3277 0.160835C69.2393 -0.88188 76.962 3.08781 81.9974 11.9783C92.1887 29.9751 102.228 48.0625 112.33 66.1131C115.204 71.2487 118.098 76.3728 120.952 81.521C127.195 92.7845 123.555 107.022 112.74 113.654C109.335 115.741 105.627 116.799 101.672 116.889C99.019 116.949 96.3604 117.037 93.713 116.98C88.6939 116.872 83.6759 116.941 78.6578 116.915C73.1109 116.888 67.5639 116.909 62.017 116.909L62.016 116.91ZM80.9111 11.0461C80.9111 10.9787 80.9233 10.9398 80.909 10.9166C80.8008 10.7386 80.6926 10.5595 80.5762 10.3868C77.1774 5.37652 72.6126 2.11145 66.7941 0.897055C59.6687 -0.590131 53.2234 1.0245 47.5733 5.80097C45.0995 7.89272 43.3485 10.569 41.7691 13.4065C35.9271 23.9063 30.0442 34.3819 24.1767 44.8659C17.2893 57.1742 10.3885 69.474 3.52044 81.7938C0.986386 86.3417 0.0327992 91.2499 0.753605 96.4519C2.36061 108.052 11.8005 116.478 23.1435 116.479C43.6814 116.481 64.2192 116.479 84.7561 116.476C84.8653 116.476 84.9888 116.532 85.142 116.365C84.7193 116.3 84.3466 116.223 83.9689 116.189C77.9196 115.635 71.8704 115.082 65.8211 114.536C58.6018 113.885 51.3815 113.246 44.1633 112.595C36.9613 111.945 29.7594 111.286 22.5585 110.632C17.1096 110.137 12.5724 107.754 9.0102 103.495C2.44842 95.6504 1.79295 84.2489 7.37869 75.5502C12.5264 67.535 17.7109 59.544 22.8791 51.5425C31.0274 38.9267 39.1799 26.313 47.3211 13.6919C48.4452 11.9488 49.6408 10.2741 51.1048 8.81116C59.05 0.86651 71.704 1.07505 79.3796 9.29249C79.9024 9.85176 80.3894 10.4468 80.9101 11.0451L80.9111 11.0461ZM77.984 115.213L77.9982 115.107C77.6205 115.015 77.2458 114.906 76.865 114.834C69.0852 113.375 61.3043 111.922 53.5235 110.467C43.2495 108.546 32.9785 106.608 22.7004 104.709C17.5792 103.764 13.5648 101.079 10.7316 96.6067C5.79618 88.8169 5.94524 78.5077 11.1696 70.9138C13.8363 67.0378 16.7144 63.3167 19.5048 59.5324C29.6267 45.8023 39.7476 32.0721 49.8817 18.3515C51.407 16.2871 52.8129 14.1206 54.5445 12.2279C57.8923 8.5668 61.9618 6.34761 66.885 6.16013C72.9802 5.92736 77.8737 8.45832 81.6115 13.4044C81.9259 13.8204 82.2159 14.2564 82.5171 14.683C82.2577 13.9679 81.8994 13.3159 81.4838 12.7008C76.7649 5.71145 70.3011 2.54855 62.0997 3.67341C56.2832 4.47072 51.7807 7.69893 48.5146 12.6724C43.6977 20.0072 38.9696 27.4052 34.2067 34.7779C25.5009 48.2553 16.8094 61.7411 8.08928 75.2079C4.37703 80.9396 3.10286 87.1275 4.68332 93.863C6.6538 102.261 13.3054 109.736 23.5938 110.333C28.0748 110.592 32.5426 111.11 37.0165 111.514C41.8793 111.954 46.7422 112.398 51.6051 112.837C55.7564 113.212 59.9087 113.582 64.061 113.956C68.7023 114.374 73.3436 114.795 77.985 115.215L77.984 115.213ZM99.0517 116.378C99.115 116.434 99.1375 116.473 99.1609 116.473C101.996 116.551 104.801 116.367 107.544 115.527C121.149 111.365 127.723 95.0595 120.848 82.2604C117.041 75.1721 113.02 68.2059 109.092 61.186C101.348 47.3442 93.6017 33.5024 85.8556 19.6617C85.1777 18.4494 84.4957 17.2403 83.7882 15.9817C83.7228 16.2218 83.8362 16.3471 83.8944 16.483C89.6669 30.0752 95.4415 43.6663 101.217 57.2574C105.163 66.5428 109.133 75.8177 113.046 85.1168C115.259 90.3725 115.601 95.7978 113.908 101.263C111.945 107.602 108.119 112.352 102.215 115.208C101.205 115.697 100.144 116.045 99.0507 116.377L99.0517 116.378ZM83.7392 18.2219C82.9009 15.9732 81.7033 13.9447 80.0882 12.2058C75.9941 7.79688 71.0005 5.8905 65.1228 6.77523C60.3977 7.48617 56.6303 10.014 53.7441 13.8625C48.53 20.8161 43.4016 27.8381 38.2406 34.8337C29.5879 46.5638 20.8872 58.2569 12.3079 70.0428C6.78448 77.6303 5.98098 85.872 10.0067 94.4159C12.5438 99.8012 16.788 103.144 22.5707 104.235C30.9345 105.813 39.3014 107.369 47.6672 108.934C55.3143 110.365 62.9604 111.797 70.6074 113.227C70.9393 113.289 71.2741 113.333 71.608 113.386C71.5865 113.302 71.56 113.281 71.5294 113.27C69.3955 112.551 67.2219 111.971 65.0636 111.34C51.0466 107.233 37.0308 103.121 23.0077 99.0344C18.8115 97.8116 15.6598 95.2291 13.478 91.3805C8.92444 83.3484 9.9546 72.6085 15.9518 65.4053C19.8529 60.7194 23.7724 56.0493 27.6838 51.3718C37.4504 39.6913 47.218 28.0129 56.9805 16.3292C58.1281 14.9569 59.3349 13.6561 60.754 12.5723C67.3393 7.54515 75.8777 8.40566 81.3052 14.6546C82.2506 15.7436 83.0245 16.957 83.7392 18.2198V18.2219ZM90.7992 116.315C92.7788 116.516 94.7554 116.621 96.7126 116.388C99.5397 116.052 102.153 115.01 104.55 113.423C113.516 107.481 116.986 95.4155 112.666 85.2611C108.771 76.1063 104.886 66.9473 100.994 57.7914C95.7836 45.5347 90.5725 33.2791 85.3615 21.0236C85.2941 20.8666 85.2155 20.715 85.142 20.5601C85.1154 20.7813 85.1624 20.9646 85.2175 21.1447C86.7143 26.0275 88.211 30.9104 89.7088 35.7933C94.9096 52.7495 100.079 69.7162 105.332 86.6556C106.98 91.9703 107.194 97.2334 105.356 102.502C103.448 107.974 100.075 112.182 94.975 114.81C93.6497 115.494 92.2418 115.945 90.8012 116.316L90.7992 116.315ZM83.2164 115.54C85.0889 115.864 86.9603 116.194 88.8481 116.062C92.1969 115.831 95.2047 114.588 97.8612 112.484C104.964 106.862 107.995 97.0596 105.308 88.1312C102.282 78.0801 99.1691 68.0563 96.0919 58.021C92.8758 47.5349 89.6567 37.0487 86.4386 26.5626C86.2497 25.9464 86.0609 25.3313 85.872 24.7152C85.8077 24.8163 85.8148 24.8985 85.8311 24.9785C88.1528 36.5579 90.4755 48.1363 92.7962 59.7157C94.7452 69.4392 96.6585 79.1712 98.6525 88.8853C99.7276 94.1221 99.3937 99.1872 97.2007 104.056C95.1383 108.635 91.9937 112.161 87.4739 114.265C86.118 114.896 84.6825 115.257 83.2175 115.538L83.2164 115.54ZM60.8521 46.6649C60.6826 46.6754 60.5121 46.6817 60.3436 46.6986C60.2262 46.7112 60.1067 46.7302 59.9924 46.7618C56.7069 47.6739 54.2402 49.6803 52.916 52.9064C50.6628 58.3959 48.5555 63.9487 46.39 69.4772C46.1735 70.0301 45.9643 70.5904 45.8816 71.1834C45.6998 72.4747 46.3634 73.3805 47.608 73.569C47.8959 73.6122 48.1818 73.6154 48.4718 73.5859C49.8133 73.4468 50.9721 72.837 52.0911 72.1134C57.8678 68.3776 63.6444 64.6427 69.4251 60.9132C70.5799 60.1675 71.7336 59.4229 72.6718 58.3844C73.7306 57.2142 74.6168 55.9398 74.8751 54.3114C75.066 53.1118 74.6791 52.3987 73.603 51.929C69.7835 50.2628 65.962 48.6007 62.1426 46.9345C61.7291 46.7544 61.3033 46.6533 60.8531 46.6649H60.8521ZM76.4831 114.208C76.5291 114.229 76.574 114.257 76.622 114.27C78.2392 114.686 79.8656 115.116 81.538 115.125C84.8296 115.142 87.8108 114.058 90.4184 112.022C96.0092 107.655 98.6423 101.732 98.8434 94.5781C98.9149 92.0251 98.3523 89.5615 97.8541 87.0874C96.0123 77.9326 94.1837 68.7746 92.349 59.6188C90.5317 50.5482 88.7133 41.4776 86.894 32.4081C86.6581 31.2327 86.4162 30.0583 86.1772 28.8839C86.1109 29.0009 86.1129 29.1051 86.1231 29.2073C86.5417 33.237 86.9634 37.2667 87.3799 41.2975C87.9456 46.7765 88.504 52.2555 89.0707 57.7345C89.6302 63.1429 90.1978 68.5513 90.7563 73.9598C91.3209 79.4209 91.8487 84.8862 92.4501 90.343C93.0035 95.3607 92.2163 100.106 89.865 104.54C87.9109 108.225 85.1869 111.117 81.443 112.891C79.887 113.628 78.2412 114.026 76.4831 114.209V114.208ZM70.6636 112.373C71.267 112.776 74.1584 113.607 75.1222 113.666C78.7762 113.893 81.9841 112.668 84.7305 110.268C90.2764 105.422 92.5634 99.0976 92.1336 91.7291C91.8998 87.7226 91.3546 83.7339 90.9421 79.7379C90.3806 74.2947 89.8109 68.8515 89.2463 63.4083C88.8144 59.2385 88.3836 55.0687 87.9537 50.8979C87.4249 45.7675 86.8991 40.6382 86.3692 35.5078C86.2804 34.6473 86.1752 33.79 86.0772 32.9305C86.1497 36.5021 86.118 40.0642 86.1558 43.6263C86.2569 53.0865 86.3876 62.5457 86.508 72.006C86.5938 78.7805 86.7418 85.555 86.7469 92.3295C86.75 97.0712 85.4064 101.447 82.6845 105.29C79.7288 109.461 75.943 112.236 70.6636 112.373ZM85.777 36.916C85.7015 36.9202 85.6269 36.9244 85.5514 36.9276C85.3829 39.2184 85.2134 41.5082 85.047 43.799C84.6928 48.6987 84.3426 53.5984 83.9873 58.497C83.5636 64.3415 83.1358 70.1849 82.709 76.0284C82.3027 81.5927 81.9821 87.1643 81.4593 92.7171C80.9774 97.8379 78.9876 102.321 75.4366 105.988C73.2936 108.201 70.7738 109.728 67.7069 110.143C66.986 110.241 66.2612 110.187 65.3872 110.186C66.1356 110.657 66.8401 110.853 67.4945 111.158C69.4241 112.059 71.4242 112.105 73.4386 111.609C76.9875 110.735 79.7206 108.565 81.9106 105.645C85.0848 101.412 86.4345 96.5572 86.362 91.2404C86.163 76.536 85.9628 61.8306 85.7821 47.1251C85.7403 43.7221 85.776 40.318 85.776 36.9139L85.777 36.916ZM65.9886 111.156C66.0059 111.122 66.0233 111.087 66.0396 111.052C65.7936 110.941 65.5506 110.822 65.3014 110.72C62.2835 109.482 59.2644 108.245 56.2465 107.009C45.5477 102.623 34.8622 98.2024 24.143 93.8704C19.9775 92.1862 17.0953 89.2213 15.573 84.9704C12.847 77.3565 13.8731 70.1786 18.3276 63.5052C18.444 63.3304 18.6237 63.1861 18.6859 62.8101C17.8845 63.7643 17.1545 64.5954 16.4664 65.4611C10.754 72.6495 9.49108 80.611 12.897 89.2024C14.8083 94.0241 18.298 97.226 23.2487 98.6647C35.5238 102.23 47.7877 105.837 60.0557 109.427C62.0323 110.005 64.0099 110.579 65.9875 111.155L65.9886 111.156ZM61.0675 107.745C62.6469 108.799 64.2509 109.74 66.2091 109.783C68.8606 109.842 71.1853 108.905 73.2773 107.316C77.0089 104.481 79.2152 100.593 80.4578 96.0569C81.0448 93.9125 81.1694 91.7049 81.3256 89.4994C81.7074 84.092 82.1087 78.6857 82.5007 73.2783C82.8591 68.326 83.2134 63.3736 83.5738 58.4212C83.9597 53.1013 84.3517 47.7824 84.7377 42.4635C84.7826 41.8431 84.8132 41.2227 84.85 40.6013C84.4569 42.6351 84.1394 44.6763 83.8239 46.7186C82.4701 55.4848 81.1173 64.252 79.7645 73.0182C78.7966 79.2892 77.8584 85.5666 76.8537 91.8313C76.1636 96.1348 74.4759 99.9813 71.5876 103.211C69.5436 105.495 67.132 107.16 64.1028 107.716C63.0972 107.901 62.0874 107.859 61.0675 107.744V107.745ZM61.2206 108.581C61.2349 108.545 61.2482 108.509 61.2625 108.474C61.0716 108.365 60.8837 108.252 60.6907 108.148C59.3369 107.413 57.9821 106.679 56.6273 105.944C46.1858 100.274 35.7617 94.5718 25.2947 88.9538C21.999 87.1844 19.7273 84.5554 18.6032 80.9733C16.2193 73.3784 17.6333 66.409 22.1583 60.0306C22.2522 59.8979 22.4145 59.8052 22.4166 59.6324C21.806 60.2381 21.1547 60.8195 20.5747 61.4683C14.844 67.8825 13.1625 75.3279 15.5556 83.6518C16.8737 88.2344 19.6855 91.5869 24.1165 93.389C34.8551 97.7558 45.5753 102.17 56.3036 106.565C57.9423 107.236 59.5809 107.908 61.2196 108.579L61.2206 108.581ZM20.005 61.2408C20.0489 61.2787 20.0918 61.3176 20.1357 61.3556C20.2327 61.2344 20.3215 61.1049 20.4277 60.9922C22.29 59.0174 24.1543 57.0457 26.0175 55.0719C36.8909 43.5599 47.7612 32.0458 58.6406 20.5401C59.9822 19.1214 61.2574 17.6311 62.7225 16.3408C65.1391 14.2122 67.8876 12.7903 71.0924 12.5913C76.282 12.269 80.2127 14.5914 83.1062 18.9423C83.6442 19.7502 84.0587 20.6318 84.4835 21.5449C84.5713 21.3322 84.4671 21.191 84.4191 21.052C83.7269 19.034 82.7917 17.1423 81.4481 15.5077C77.7062 10.9545 72.9945 8.95229 67.2341 10.0487C63.4167 10.7755 60.3844 12.9473 57.8759 15.9374C53.692 20.9267 49.5203 25.9275 45.3425 30.923C37.2982 40.5423 29.253 50.1606 21.2088 59.7799C20.8045 60.2644 20.4053 60.7531 20.004 61.2408H20.005ZM83.8106 44.0612C83.7882 44.0602 83.7667 44.0591 83.7443 44.0581C83.7024 44.2087 83.6554 44.3583 83.6197 44.5099C82.8877 47.6296 82.1556 50.7483 81.4246 53.868C79.2244 63.2619 77.0314 72.658 74.82 82.0487C73.9848 85.5929 73.3079 89.1834 72.2563 92.6654C70.975 96.9069 68.7207 100.514 65.1697 103.14C63.2575 104.555 61.1461 105.414 58.7376 105.25C58.269 105.218 57.8045 105.117 57.2184 105.031C57.6891 105.526 58.1975 105.776 58.6376 106.119C59.6616 106.918 60.8316 107.294 62.0976 107.38C64.8308 107.566 67.177 106.515 69.2608 104.824C73.2456 101.592 75.5142 97.2481 76.3565 92.1767C77.7808 83.6012 79.0396 74.9962 80.3689 66.4038C81.1755 61.1902 81.9851 55.9766 82.7897 50.762C83.1348 48.5291 83.4707 46.2952 83.8106 44.0623V44.0612ZM56.8989 105.592C56.9162 105.555 56.9336 105.519 56.9499 105.482C56.8417 105.401 56.7345 105.316 56.6232 105.239C46.6626 98.294 36.7234 91.3152 26.7281 84.4227C23.5264 82.2151 21.7111 79.166 21.075 75.3648C19.9979 68.9253 21.4865 63.0808 25.2396 57.8377C25.5632 57.3859 25.9246 56.9625 26.2677 56.5264C23.9337 58.5023 22.3645 59.9842 20.7973 62.9102C17.86 68.3923 17.0167 74.1736 18.788 80.2319C19.809 83.7213 21.7621 86.5303 24.9547 88.266C35.3339 93.9083 45.7202 99.5347 56.1045 105.166C56.369 105.31 56.6334 105.451 56.8978 105.593L56.8989 105.592ZM85.1022 25.1439C84.6213 22.7098 83.7473 20.4516 82.2833 18.4916C79.0999 14.2301 74.9527 12.27 69.7263 13.2148C66.6073 13.7783 64.0365 15.4666 61.8434 17.7764C57.9525 21.8756 54.0779 25.9917 50.1972 30.1004C41.9712 38.8087 33.7442 47.5169 25.5193 56.2262C25.016 56.7592 24.5167 57.2963 24.0154 57.8324C24.1522 57.8082 24.239 57.7313 24.3237 57.6534C27.0926 55.0571 29.8605 52.4598 32.6283 49.8636C41.5618 41.4818 50.4923 33.0959 59.4319 24.7215C61.5596 22.7288 63.6128 20.6454 65.8507 18.7844C68.0213 16.9801 70.4921 15.8311 73.3161 15.7542C77.5041 15.6404 80.6987 17.5721 83.0909 21.033C83.9648 22.298 84.5815 23.702 85.1032 25.1439H85.1022ZM54.0575 102.258C54.4087 102.578 54.7671 102.889 55.1101 103.218C56.6099 104.652 58.4058 105.038 60.3671 104.764C62.4366 104.476 64.21 103.485 65.7854 102.124C69.1791 99.1882 71.2547 95.4007 72.291 91.0066C75.4632 77.5608 78.6006 64.1056 81.7503 50.6535C82.0045 49.5666 82.2526 48.4786 82.5038 47.3916C82.029 48.5881 81.6441 49.812 81.2602 51.0358C77.1488 64.1709 73.0537 77.3112 68.9177 90.4378C67.7426 94.1674 65.7588 97.385 62.796 99.896C61.0828 101.348 59.1685 102.368 56.9091 102.562C55.9483 102.644 55.0203 102.472 54.0575 102.259V102.258ZM53.5858 102.591C53.6032 102.561 53.6205 102.531 53.6379 102.502C53.5633 102.432 53.4898 102.361 53.4143 102.293C45.1995 95.0563 36.992 87.811 28.765 80.59C27.3509 79.3492 26.0512 78.0401 25.2498 76.278C24.0859 73.7196 23.7163 71.0191 23.8888 68.2248C24.2033 63.1566 25.9236 58.6687 29.1417 54.8075C29.2989 54.619 29.4531 54.4273 29.6083 54.2367C29.4837 54.2188 29.4123 54.2556 29.349 54.303C22.5799 59.4007 20.05 68.644 21.5549 75.7124C22.2992 79.2102 23.9899 82.0234 26.9527 84.0583C34.6121 89.3193 42.2132 94.6698 49.8378 99.9845C51.0865 100.856 52.3372 101.723 53.5868 102.592L53.5858 102.591ZM29.0937 53.9038C29.2755 53.7743 29.3837 53.7069 29.4807 53.6258C31.007 52.364 32.5334 51.1011 34.0567 49.8362C44.4838 41.1753 54.9069 32.5092 65.3402 23.8568C66.8492 22.6055 68.2817 21.2426 70.0255 20.3189C72.9659 18.7612 75.9767 18.3631 79.057 19.826C81.7136 21.0868 83.4237 23.2796 84.5284 26.0138C84.8132 26.7185 85.0256 27.4536 85.2931 28.2373C85.1113 26.2519 84.3242 23.8199 83.097 21.8367C80.8314 18.1777 77.6521 16.087 73.3518 16.1755C70.7483 16.2292 68.4603 17.2909 66.399 18.8844C64.8716 20.0662 63.526 21.4649 62.117 22.7856C51.2774 32.9474 40.4439 43.1154 29.6103 53.2856C29.4429 53.4425 29.2356 53.571 29.0927 53.9038H29.0937ZM51.4499 99.3525C51.7715 99.7096 52.1034 100.057 52.4137 100.425C53.302 101.474 54.4465 101.994 55.7635 102.112C58.1557 102.328 60.2007 101.389 62.0507 99.9487C65.2841 97.4293 67.3526 94.0473 68.5869 90.1229C72.6821 77.1132 76.7384 64.0898 80.8059 51.0706C80.8621 50.8926 80.9795 50.7146 80.9039 50.3986C80.4792 51.4845 80.0923 52.4746 79.7043 53.4646C75.1691 65.0419 70.6207 76.6129 66.108 88.1997C64.9135 91.2667 63.3963 94.1095 61.0195 96.3602C58.3303 98.9059 55.3633 100.654 51.4499 99.3536V99.3525ZM33.0908 52.0428C33.0602 52.008 33.0296 51.9722 32.9989 51.9374C32.5242 52.2934 32.0188 52.6147 31.5788 53.0117C25.993 58.0431 23.6918 64.4268 24.4534 71.9691C24.7709 75.1078 26.138 77.7441 28.5404 79.8358C35.4554 85.8573 42.3143 91.9461 49.1966 98.0086C49.7224 98.472 50.2544 98.9291 50.7832 99.3883C50.724 99.1966 50.6107 99.0681 50.4953 98.9407C43.6793 91.3889 36.8848 83.8161 30.032 76.299C27.9298 73.9935 26.9844 71.2803 26.8558 68.2006C26.6832 64.0729 27.7195 60.2454 29.6542 56.6591C30.5772 54.9487 31.7258 53.4088 33.0898 52.0417L33.0908 52.0428ZM85.2379 30.9325C85.241 30.8641 85.2533 30.7956 85.2461 30.7282C84.9388 27.8623 84.1057 25.1965 82.2863 22.9573C80.2505 20.4516 77.6562 19.154 74.4381 19.3942C72.0103 19.5753 69.9132 20.6254 68.0479 22.1716C56.8713 31.436 45.7059 40.7151 34.5365 49.99C34.124 50.3323 33.7167 50.6809 33.3073 51.0274C33.5778 50.9779 33.781 50.8347 33.9821 50.6872C44.8841 42.7089 55.7829 34.7253 66.691 26.7553C68.2582 25.6105 69.7519 24.3466 71.4528 23.4102C73.7214 22.16 76.1084 21.6197 78.6353 22.4444C81.4246 23.3544 83.1868 25.3998 84.3303 28.093C84.7193 29.0093 84.9551 29.9751 85.2369 30.9325H85.2379ZM79.2826 53.1961C79.1336 53.3035 79.0958 53.4815 79.0243 53.6321C73.6489 65.0167 68.2827 76.4065 62.8991 87.7868C61.5045 90.7348 59.6187 93.2953 56.955 95.1406C54.617 96.7605 52.134 97.6842 49.2232 96.1822C49.4978 96.5825 49.7061 96.87 49.897 97.1681C50.9119 98.7501 52.3831 99.3999 54.1678 99.3546C55.7972 99.3125 57.2572 98.6995 58.6008 97.7916C61.6464 95.7325 63.7751 92.8614 65.133 89.4341C69.8734 77.4692 74.5433 65.4748 79.2387 53.491C79.2745 53.3993 79.3582 53.3109 79.2816 53.195L79.2826 53.1961ZM48.2114 95.7652C48.239 95.7367 48.2665 95.7083 48.2941 95.6798C48.1992 95.5387 48.1073 95.3944 48.0082 95.2564C42.595 87.6878 37.19 80.1118 31.7605 72.5547C30.4792 70.7705 29.7951 68.7778 29.7196 66.5923C29.5052 60.3497 31.6992 55.0803 35.9189 50.6619C36.0853 50.4871 36.2558 50.3165 36.4253 50.1448C36.1609 50.1922 35.9608 50.3165 35.7627 50.4418C35.1818 50.8094 34.6192 51.2096 34.1169 51.6836C29.3143 56.2105 27.0579 61.8611 27.2937 68.5377C27.3918 71.3109 28.3219 73.787 30.2219 75.8662C35.1103 81.2177 39.9477 86.6188 44.8065 91.9998C45.9408 93.2553 47.0761 94.5097 48.2114 95.7652ZM37.2829 48.8072C37.3085 48.8356 37.333 48.8641 37.3585 48.8925C37.4739 48.824 37.5902 48.7598 37.7036 48.6882C46.1858 43.2566 54.667 37.8229 63.1503 32.3934C66.2581 30.4048 69.3486 28.3879 72.4921 26.4604C74.3054 25.3482 76.3024 24.8268 78.423 25.2681C81.3123 25.8696 83.0429 27.8497 84.1312 30.5439C84.5845 31.6656 84.8081 32.8515 84.999 34.146C85.0287 33.9985 85.047 33.9522 85.046 33.9058C84.9909 31.1105 84.4171 28.4595 82.806 26.1592C80.9386 23.4924 78.4209 22.1758 75.1855 22.5739C73.3161 22.8035 71.6703 23.6303 70.1531 24.7415C60.4416 31.8478 50.7322 38.9583 41.0227 46.0666C39.7761 46.9798 38.5306 47.894 37.285 48.8072H37.2829ZM77.6848 55.4595C77.6532 55.449 77.6215 55.4395 77.5899 55.4289C77.5031 55.5785 77.4142 55.726 77.3305 55.8766C71.7703 65.9119 66.2081 75.9462 60.6519 85.9847C59.3032 88.4219 57.6329 90.5632 55.4041 92.2062C54.668 92.7497 53.887 93.2152 53.0406 93.546C51.2192 94.2601 49.4131 94.4254 47.6744 93.2342C47.6744 93.3174 47.6631 93.3553 47.6764 93.3795C47.8234 93.6555 47.9807 93.9272 48.1236 94.2053C48.9547 95.8126 50.3034 96.5066 52.0166 96.5151C53.5266 96.5224 54.8865 95.9811 56.1484 95.1764C59.0643 93.3195 61.0838 90.6443 62.5652 87.5151C67.0197 78.1075 71.4528 68.6883 75.893 59.2733C76.4923 58.0031 77.0865 56.7297 77.6828 55.4574L77.6848 55.4595ZM39.6281 48.566C39.5413 48.4859 39.4862 48.5597 39.4362 48.5892C38.9941 48.8514 38.5234 49.0758 38.1211 49.3917C32.5242 53.7901 29.9146 59.663 30.1586 66.8756C30.227 68.8926 30.956 70.7147 32.1444 72.3631C36.6724 78.6404 41.1616 84.9483 45.6661 91.2436C45.9346 91.6185 46.2072 91.9903 46.4778 92.3642C46.4972 92.2041 46.4502 92.0809 46.3869 91.9682C42.1775 84.4291 37.9762 76.8846 33.7504 69.355C32.8744 67.7941 32.3945 66.1278 32.3925 64.3457C32.3843 58.6656 34.5059 53.8838 38.2835 49.8309C38.7031 49.3812 39.1779 48.9873 39.6291 48.566H39.6281ZM40.8308 47.2052C40.8451 47.2305 40.8594 47.2557 40.8747 47.281C41.0513 47.1883 41.229 47.0999 41.4036 47.004C50.7649 41.8189 60.1231 36.6285 69.4895 31.4518C71.1526 30.5333 72.7607 29.4969 74.5106 28.7607C76.5117 27.9192 78.5465 27.7559 80.5282 28.8355C82.2598 29.7792 83.2828 31.3422 83.928 33.2023C84.2966 34.2639 84.4549 35.372 84.6131 36.4779C84.6979 33.4424 84.2109 30.5597 82.2782 28.1393C80.7865 26.2708 78.8314 25.4009 76.4668 25.5904C74.8873 25.7179 73.459 26.3035 72.1277 27.1566C62.6061 33.2486 53.0865 39.3448 43.566 45.441C42.6522 46.0256 41.7425 46.6175 40.8308 47.2062V47.2052ZM75.8573 57.6618C75.8297 57.6365 75.8011 57.6102 75.7735 57.5849C75.65 57.7724 75.5255 57.9578 75.404 58.1463C69.9244 66.7092 64.4357 75.2679 58.9704 83.8403C57.6135 85.9689 56.1199 87.968 54.0524 89.4004C51.6827 91.0413 49.213 92.1978 46.4227 90.3336C46.9771 92.5643 48.4636 93.7408 50.6648 93.6692C51.7756 93.6334 52.8017 93.27 53.7716 92.7371C56.615 91.1751 58.6233 88.7611 60.1976 85.9299C64.308 78.5361 68.4001 71.1308 72.4993 63.7296C73.6193 61.7073 74.7383 59.6841 75.8573 57.6618ZM45.2976 89.0223C45.3221 88.8422 45.221 88.7137 45.1628 88.5757C42.0356 81.2008 38.9114 73.825 35.7729 66.4554C35.1726 65.0461 34.8683 63.5821 34.9429 62.0539C35.1848 57.0994 37.1839 52.937 40.4091 49.3443C41.0799 48.5965 41.8518 47.9593 42.6216 47.3189C41.4424 47.7824 40.3928 48.4617 39.4566 49.3106C35.7188 52.6979 33.5972 56.992 32.8979 62.036C32.5395 64.6196 32.9213 67.0715 34.2333 69.3845C37.8577 75.7714 41.4168 82.1993 45.0035 88.6094C45.0832 88.7526 45.1291 88.9264 45.2965 89.0212L45.2976 89.0223ZM84.0792 38.8814C84.2925 36.5042 84.0985 34.186 82.9806 32.0479C81.8728 29.9288 80.1984 28.6122 77.793 28.5111C76.1993 28.4447 74.7546 29.0093 73.3732 29.776C63.8629 35.0486 54.3515 40.3191 44.8402 45.5906C44.6901 45.6738 44.5431 45.7643 44.394 45.8518C44.54 45.8781 44.6472 45.8349 44.7513 45.7854C47.9378 44.2877 51.1253 42.79 54.3107 41.2891C61.0685 38.1051 67.8243 34.9148 74.5862 31.7393C76.0043 31.0726 77.4908 30.7029 79.0519 31.0515C81.4297 31.5824 82.7437 33.2749 83.5023 35.5299C83.8668 36.6127 83.9771 37.747 84.0792 38.8814ZM73.9348 59.6398C73.9052 59.6156 73.8756 59.5914 73.8449 59.5671C73.7194 59.7315 73.5917 59.8937 73.4702 60.0611C67.9621 67.595 62.4529 75.1268 56.9499 82.6638C55.4797 84.6766 53.7859 86.4281 51.5827 87.5804C50.2727 88.265 48.9067 88.7031 47.4059 88.4103C46.7106 88.2755 46.1245 87.9195 45.5518 87.4055C45.7468 89.4004 47.1006 90.7433 48.9057 90.8402C50.0226 90.9002 51.0671 90.62 52.0605 90.1271C54.6211 88.8569 56.5303 86.8378 58.075 84.4333C63.0982 76.6118 68.102 68.7767 73.1129 60.9469C73.3906 60.514 73.6622 60.0759 73.9358 59.6409L73.9348 59.6398ZM44.4114 85.7224L44.4889 85.6835C44.445 85.5339 44.4042 85.3844 44.3583 85.2358C42.2571 78.3624 40.1723 71.4846 38.0446 64.6206C37.529 62.9576 37.2145 61.2934 37.4412 59.5513C37.9425 55.688 39.6138 52.3903 42.0447 49.4633C43.0116 48.3006 44.1388 47.3221 45.3506 46.4342C44.4114 46.7165 43.5701 47.1957 42.7982 47.7918C38.9522 50.7662 36.6673 54.7675 35.6351 59.5587C35.1614 61.7579 35.1716 63.9518 36.067 66.0657C38.0742 70.8064 40.0886 75.5449 42.1009 80.2835C42.8707 82.0972 43.6415 83.9098 44.4124 85.7224H44.4114ZM83.4063 41.1911C83.73 38.4653 83.6646 35.809 82.0004 33.4877C80.8559 31.891 79.2775 31.2264 77.3642 31.3896C76.3841 31.4739 75.4703 31.792 74.5821 32.2101C66.4602 36.0355 58.3384 39.8588 50.2166 43.6842C49.4294 44.0549 48.6453 44.4351 47.8602 44.8101C48.0225 44.8575 48.1512 44.8238 48.2737 44.7753C55.5736 41.9253 62.8715 39.072 70.1725 36.224C72.144 35.4552 74.094 34.6062 76.1054 33.9648C79.303 32.9453 81.8677 34.3977 82.9173 37.6701C83.2859 38.8182 83.3655 40.0052 83.4063 41.1901V41.1911ZM44.9484 84.6134C45.0913 87.0053 46.6881 88.3608 48.9098 88.0438C49.6571 87.9374 50.3687 87.712 51.0497 87.3813C53.1437 86.3618 54.8242 84.8145 56.2066 82.9345C61.2104 76.1274 66.1887 69.3002 71.1751 62.4804C71.4844 62.057 71.7877 61.6294 72.094 61.2028C71.899 61.2587 71.7846 61.3787 71.6784 61.5072C66.2387 68.0647 60.801 74.6233 55.3592 81.1798C54.0075 82.8092 52.4709 84.2195 50.5535 85.0947C48.6494 85.9636 46.7381 86.3354 44.9484 84.6144V84.6134ZM43.9223 82.3563L43.9907 82.3047C43.9876 82.253 43.9907 82.1993 43.9805 82.1488C42.6828 75.6544 41.3934 69.158 40.0794 62.6669C39.768 61.1281 39.5056 59.5977 39.7843 58.0262C40.5541 53.6869 42.6971 50.1764 45.8775 47.2947C46.4941 46.7354 47.1802 46.272 47.8633 45.7991C47.171 45.9581 46.537 46.2509 45.95 46.6343C41.9079 49.2696 39.4617 53.0992 38.1957 57.7808C37.6117 59.941 37.6668 62.0865 38.3601 64.2552C39.8292 68.8526 41.2024 73.4837 42.6155 78.1001C43.0504 79.5199 43.4874 80.9375 43.9233 82.3573L43.9223 82.3563ZM82.6712 43.304C83.0735 41.0121 83.146 38.7476 82.0239 36.6127C81.198 35.0412 79.9126 34.1691 78.1667 34.0891C77.255 34.047 76.3759 34.2545 75.5255 34.5873C67.3883 37.767 59.2512 40.9468 51.115 44.1297C50.9936 44.1771 50.8292 44.1676 50.7628 44.3677C50.8955 44.3319 51.0089 44.3045 51.1202 44.2698C56.9448 42.4593 62.7705 40.6477 68.5951 38.8371C71.0526 38.0735 73.508 37.3057 75.9675 36.5484C77.1325 36.1903 78.3137 36.085 79.4766 36.5253C81.1142 37.1446 81.9372 38.4875 82.3803 40.1389C82.659 41.1764 82.6651 42.2412 82.6712 43.304ZM44.6554 81.8928C44.5737 83.7687 45.5048 85.0642 47.0812 85.3212C48.0654 85.4823 49.0129 85.2811 49.9246 84.8988C51.8399 84.0952 53.4286 82.8123 54.763 81.2124C60.0292 74.8961 65.2729 68.5608 70.5237 62.2298C70.5584 62.1876 70.6411 62.1434 70.5043 61.9612C70.3849 62.1286 70.2909 62.2961 70.1633 62.432C64.8369 68.1227 59.5125 73.8165 54.1739 79.4946C52.7129 81.0481 51.0579 82.332 49.0067 82.9419C47.4191 83.4137 45.903 83.3927 44.6564 81.8918L44.6554 81.8928ZM43.8141 79.1586C43.8427 79.1533 43.8713 79.1491 43.8998 79.1439C43.8049 78.2223 43.7089 77.3007 43.614 76.3791C43.081 71.1971 42.5471 66.0141 42.0151 60.8321C41.8916 59.6282 41.7007 58.4181 41.9294 57.2131C42.8789 52.2144 45.5569 48.447 49.6826 45.7243C49.8572 45.6095 50.043 45.5126 50.2248 45.4073C49.3896 45.5295 48.6484 45.8728 47.9582 46.3184C44.6452 48.4543 42.4317 51.5214 40.988 55.2099C40.2182 57.1742 39.8262 59.2154 40.2468 61.3387C41.1647 65.9793 42.0989 70.6168 43.0279 75.2553C43.2883 76.556 43.5537 77.8568 43.8171 79.1565L43.8141 79.1586ZM81.8381 45.2272C82.2904 43.2797 82.4446 41.3239 81.6911 39.4069C80.9254 37.4584 79.4082 36.52 77.3775 36.6927C76.9017 36.7327 76.4382 36.8444 75.9808 36.9866C68.5287 39.3079 61.0756 41.6272 53.6236 43.9464C53.498 43.9854 53.354 43.9886 53.2632 44.1392C53.3336 44.135 53.3857 44.1392 53.4337 44.1286C57.4144 43.206 61.3942 42.2834 65.3739 41.3597C68.9892 40.5213 72.6034 39.6787 76.2197 38.8456C79.1121 38.1789 81.1571 39.5576 81.7187 42.5456C81.8851 43.4303 81.8769 44.3235 81.8371 45.2261L81.8381 45.2272ZM44.5431 79.2755C44.5431 79.5852 44.5369 79.7884 44.5431 79.9907C44.6002 81.6179 45.6008 82.6733 47.1761 82.7618C47.8653 82.8007 48.531 82.668 49.1793 82.4342C51.0905 81.7475 52.6404 80.511 54.0279 79.0312C58.5467 74.2136 63.0614 69.3918 67.5772 64.5722C68.1336 63.9782 68.686 63.3788 69.2414 62.7827C69.0423 62.8743 68.8881 63.0113 68.7391 63.1524C63.7108 67.9078 58.6815 72.6632 53.6562 77.4207C52.6873 78.3381 51.6633 79.1755 50.482 79.7863C50.1482 79.9591 49.8092 80.1308 49.457 80.255C47.6836 80.8775 45.9632 81.1355 44.5431 79.2755ZM52.3239 45.1524C51.4816 45.2956 50.6995 45.6222 49.9675 46.0708C47.1486 47.8003 45.123 50.2849 43.6405 53.2614C42.5961 55.3605 42.055 57.5576 42.3316 59.9621C42.8033 64.0561 43.1852 68.1606 43.6068 72.2609C43.7375 73.5279 43.8743 74.7939 44.0081 76.0599C44.0938 75.8956 44.0959 75.7377 44.0938 75.5807C44.0234 69.8605 43.9877 64.1393 43.8651 58.4191C43.8182 56.2041 44.3287 54.1787 45.3527 52.2724C46.9995 49.2064 49.2528 46.7628 52.3239 45.1535V45.1524ZM55.6339 44.0591C55.6339 44.0834 55.6359 44.1076 55.6369 44.1308C55.7033 44.1308 55.7717 44.1392 55.837 44.1297C60.9848 43.3524 66.1315 42.5709 71.2792 41.7947C73.0955 41.5208 74.9078 41.1911 76.7333 41.0089C78.9416 40.7888 80.4312 42.0053 80.8804 44.2266C80.9815 44.7279 81.0264 45.2346 81.0121 45.7433C80.9989 46.2299 80.955 46.7154 80.9243 47.201C81.3123 46.0245 81.4961 44.8196 81.4328 43.5799C81.4175 43.2829 81.3838 42.9848 81.3317 42.692C80.8325 39.9041 79.0039 38.6454 76.3279 39.2626C71.169 40.4518 66.011 41.6504 60.8531 42.8458C59.1133 43.2492 57.3736 43.6547 55.6339 44.0591ZM44.7667 76.9299C44.3062 78.4887 45.1669 79.9528 46.6738 80.2234C47.413 80.3561 48.1328 80.2498 48.8393 80.0307C50.4381 79.5346 51.7838 78.592 52.9998 77.445C57.2807 73.4079 61.5524 69.3613 65.8262 65.3168C66.304 64.865 66.7767 64.4058 67.3199 63.8855C67.031 63.9276 66.9299 64.0803 66.8043 64.1846C62.1671 68.0626 57.5319 71.9439 52.8977 75.8261C51.6715 76.853 50.3575 77.7272 48.8097 78.1275C47.2609 78.5288 45.7876 78.5235 44.7656 76.9278L44.7667 76.9299ZM57.687 44.2845C58.1373 44.4014 58.5743 44.3066 59.0133 44.2782C62.4417 44.0497 65.8691 43.8116 69.2975 43.5789C71.6223 43.4209 73.947 43.2397 76.2738 43.1175C78.4669 43.0027 79.7707 44.1581 80.0841 46.3931C80.1974 47.2052 80.1106 48.0088 79.9902 48.9209C80.6385 47.4822 80.7886 45.1619 80.3546 43.8222C79.9534 42.5856 79.1969 41.7251 77.9155 41.4639C77.3612 41.3502 76.7976 41.3881 76.2391 41.4724C71.9327 42.1243 67.6252 42.7752 63.3187 43.4282C61.4412 43.7126 59.5646 44.0002 57.6881 44.2856L57.687 44.2845ZM44.3307 72.8897C44.6155 72.8339 44.587 72.719 44.5941 72.6211C44.9147 68.2122 45.2292 63.8033 45.5548 59.3955C45.6559 58.0315 45.6447 56.6507 45.9203 55.311C46.5921 52.048 48.4309 49.5223 50.8047 47.3663C51.8369 46.4289 52.9947 45.6822 54.2678 45.1176C54.0534 45.1176 53.8523 45.144 53.6624 45.2051C53.3061 45.3199 52.9426 45.4241 52.6057 45.5863C49.605 47.0209 47.4804 49.4075 45.8417 52.2997C44.737 54.2493 44.15 56.3358 44.2776 58.6287C44.3572 60.0632 44.3266 61.5062 44.3297 62.9449C44.3358 66.2605 44.3317 69.5751 44.3317 72.8907L44.3307 72.8897ZM45.075 74.6149C44.442 76.4844 45.6141 78.0074 47.559 77.9042C49.4304 77.8041 50.966 76.8678 52.3729 75.6976C56.6753 72.1187 60.9593 68.5166 65.2494 64.9219C65.3811 64.8113 65.5016 64.687 65.6271 64.569C65.4485 64.589 65.3229 64.6691 65.2034 64.7575C60.8316 67.9805 56.4629 71.2076 52.086 74.4232C51.0232 75.2037 49.8644 75.7998 48.5677 76.0273C47.1761 76.2717 45.9061 76.1052 45.075 74.6149ZM59.6289 44.7153C59.6289 44.7701 59.631 44.8238 59.632 44.8786C61.5831 44.8786 63.5352 44.8575 65.4862 44.8828C68.9718 44.9281 72.4564 44.9839 75.941 45.0692C77.9891 45.1198 79.1254 46.3278 79.2081 48.4438C79.2285 48.9546 79.1724 49.4591 79.0978 49.9626C79.0805 50.0795 78.9896 50.1985 79.0999 50.3186C79.6104 49.1716 79.8391 47.3379 79.6216 46.1488C79.3102 44.4499 78.231 43.5251 76.5546 43.5251C76.3504 43.5251 76.1462 43.5357 75.943 43.5504C71.2956 43.8674 66.6471 44.1782 62.0006 44.511C61.2104 44.5679 60.409 44.5394 59.6289 44.7164V44.7153ZM45.2118 69.8869C45.2404 69.8869 45.269 69.8869 45.2976 69.8879C45.3098 69.8395 45.3272 69.791 45.3343 69.7415C45.9152 66.0204 46.4849 62.2972 47.0791 58.5781C47.3334 56.9888 47.3885 55.3447 47.9225 53.8259C49.2957 49.9184 51.892 47.1525 55.5604 45.4484C55.6798 45.3925 55.8493 45.4126 55.9065 45.2082C55.252 45.2535 54.6588 45.4642 54.0881 45.7317C51.7307 46.8334 49.9154 48.6018 48.4166 50.7336C47.0638 52.6589 46.2144 54.7664 46.1123 57.1973C46.0051 59.7367 45.7498 62.2687 45.5651 64.8049C45.4415 66.4986 45.3282 68.1932 45.2108 69.8869H45.2118ZM45.4977 72.4557C44.929 74.4811 45.9316 75.7882 47.9112 75.6755C48.1144 75.6639 48.3176 75.6355 48.5177 75.5965C49.8317 75.3406 50.9844 74.715 52.0584 73.9229C55.9167 71.0781 59.7719 68.228 63.6281 65.38C63.9344 65.1536 64.2407 64.9261 64.547 64.6986C64.3969 64.6775 64.2989 64.7344 64.2029 64.7965C60.2129 67.3738 56.2219 69.9501 52.233 72.5305C51.261 73.1593 50.2442 73.6691 49.1119 73.9124C47.4375 74.2726 46.4686 73.8976 45.4977 72.4557ZM78.1504 51.6225C78.5986 50.6051 78.8416 49.5423 78.7772 48.4259C78.666 46.4784 77.7052 45.5295 75.8236 45.4937C71.6253 45.4126 67.4261 45.3378 63.2279 45.2651C62.5479 45.2535 61.8679 45.263 61.188 45.263C61.4371 45.3304 61.6862 45.3799 61.9384 45.4073C66.5011 45.9065 71.0648 46.4026 75.6286 46.9029C77.1896 47.0735 78.1024 48.0657 78.2331 49.6919C78.2851 50.3407 78.1933 50.9779 78.1504 51.6225ZM46.1388 67.3233C46.1715 67.338 46.2052 67.3517 46.2379 67.3664C46.6218 65.735 47.0067 64.1035 47.3895 62.472C48.0419 59.6956 48.6014 56.8919 49.3651 54.1482C50.53 49.9615 53.3081 47.2578 57.1612 45.6485C57.2868 45.5958 57.4379 45.5969 57.5798 45.4189C56.9438 45.441 56.4057 45.5916 55.8809 45.7949C54.2096 46.4416 52.8048 47.5064 51.5602 48.7987C49.65 50.7831 48.2563 53.0454 47.8908 55.9008C47.5998 58.1769 47.2047 60.4382 46.8545 62.7058C46.6167 64.2446 46.3777 65.7834 46.1388 67.3212V67.3233ZM77.1958 52.8032C77.6521 51.9121 77.8849 50.6946 77.8206 49.733C77.7287 48.3448 76.915 47.4685 75.5734 47.32C72.1266 46.9398 68.6798 46.5606 65.232 46.1835C64.4479 46.0982 63.6638 46.0213 62.8787 45.9402C63.0441 46.0772 63.2207 46.1246 63.4004 46.1625C67.2974 46.9714 71.1965 47.7739 75.0926 48.5892C76.5025 48.8841 77.2591 49.8341 77.2805 51.3297C77.2866 51.7815 77.2305 52.2334 77.1958 52.8021V52.8032ZM47.267 64.8334C47.2956 64.8429 47.3252 64.8523 47.3538 64.8618C47.3987 64.7312 47.4477 64.6017 47.4886 64.4711C48.6208 60.869 49.7347 57.2605 50.8884 53.6648C52.0819 49.9457 54.6292 47.5696 58.0709 46.1161C58.3588 45.9939 58.6672 45.9213 58.9663 45.8254C58.7468 45.7643 58.5447 45.7728 58.3456 45.8023C57.1235 45.9834 56.031 46.5121 55.0274 47.2199C52.2218 49.1979 50.1645 51.7194 49.4917 55.2804C49.166 56.9993 48.7035 58.6908 48.3043 60.395C47.9582 61.8738 47.6131 63.3536 47.267 64.8334ZM63.8251 46.687C64.0773 46.9124 64.3172 46.9334 64.5347 47.0019C67.8661 48.0583 71.2006 49.1052 74.532 50.1617C75.6939 50.5303 76.2544 51.3128 76.3004 52.5673C76.3208 53.1308 76.2044 53.6753 76.0707 54.2967C76.525 53.5889 76.8793 52.2903 76.8762 51.4371C76.8721 50.0595 76.2177 49.2559 74.8976 48.9841C72.8464 48.5628 70.7973 48.132 68.7472 47.7055C67.1331 47.3705 65.5199 47.0367 63.8261 46.6859L63.8251 46.687ZM60.2895 46.212C59.8658 46.154 59.5922 46.1667 59.3288 46.2362C55.5553 47.2284 52.915 49.6161 51.4622 53.3066C50.7087 55.2183 50.2013 57.2342 49.5846 59.2027C49.2252 60.3487 48.8679 61.4946 48.4881 62.7132C48.7045 62.5531 48.7301 62.3741 48.7893 62.2234C49.9848 59.1848 51.1804 56.1462 52.3657 53.1034C53.595 49.9489 55.8575 47.9024 58.854 46.647C59.2726 46.4711 59.7259 46.3805 60.2905 46.213L60.2895 46.212ZM75.163 55.1319C75.5785 54.5073 75.798 53.8164 75.8695 53.0813C76.0073 51.6667 75.5081 50.9074 74.191 50.4924C71.5253 49.6519 68.8605 48.8103 66.1948 47.972C65.8293 47.8571 65.4587 47.7571 65.0901 47.6507C65.1759 47.7834 65.282 47.8361 65.3903 47.8835C68.1928 49.1052 70.9954 50.326 73.798 51.5477C74.967 52.0575 75.4764 52.9696 75.309 54.2662C75.2712 54.5568 75.213 54.8433 75.164 55.133L75.163 55.1319Z" fill="#7D8488"/>
</svg>
