<svg width="21" height="22" viewBox="0 0 21 22" fill="none" xmlns="http://www.w3.org/2000/svg">
<path fill-rule="evenodd" clip-rule="evenodd" d="M18.3085 3.98128C18.2648 3.87597 18.2009 3.78025 18.1204 3.69953L18.1169 3.69603C17.9531 3.53275 17.7312 3.44117 17.5 3.44141H12.25C12.0179 3.44141 11.7954 3.53359 11.6313 3.69769C11.4672 3.86178 11.375 4.08434 11.375 4.31641C11.375 4.54847 11.4672 4.77103 11.6313 4.93512C11.7954 5.09922 12.0179 5.19141 12.25 5.19141H15.3878L9.00638 11.5728C8.9228 11.6535 8.85614 11.75 8.81029 11.8568C8.76443 11.9636 8.74029 12.0784 8.73928 12.1946C8.73827 12.3107 8.76041 12.426 8.80441 12.5335C8.8484 12.641 8.91337 12.7387 8.99553 12.8209C9.07769 12.903 9.17538 12.968 9.28292 13.012C9.39045 13.056 9.50567 13.0781 9.62185 13.0771C9.73803 13.0761 9.85285 13.052 9.9596 13.0061C10.0664 12.9603 10.1629 12.8936 10.2436 12.81L16.625 6.42866V9.56641C16.625 9.79847 16.7172 10.021 16.8813 10.1851C17.0454 10.3492 17.2679 10.4414 17.5 10.4414C17.7321 10.4414 17.9546 10.3492 18.1187 10.1851C18.2828 10.021 18.375 9.79847 18.375 9.56641V4.31378C18.3747 4.19967 18.3522 4.08671 18.3085 3.98128ZM2.625 7.81641C2.625 6.65608 3.08594 5.54329 3.90641 4.72281C4.72688 3.90234 5.83968 3.44141 7 3.44141H7.875C8.10706 3.44141 8.32962 3.53359 8.49372 3.69769C8.65781 3.86178 8.75 4.08434 8.75 4.31641C8.75 4.54847 8.65781 4.77103 8.49372 4.93512C8.32962 5.09922 8.10706 5.19141 7.875 5.19141H7C6.30381 5.19141 5.63613 5.46797 5.14384 5.96025C4.65156 6.45253 4.375 7.12021 4.375 7.81641V14.8164C4.375 15.5126 4.65156 16.1803 5.14384 16.6726C5.63613 17.1648 6.30381 17.4414 7 17.4414H14C14.6962 17.4414 15.3639 17.1648 15.8562 16.6726C16.3484 16.1803 16.625 15.5126 16.625 14.8164V13.9414C16.625 13.7093 16.7172 13.4868 16.8813 13.3227C17.0454 13.1586 17.2679 13.0664 17.5 13.0664C17.7321 13.0664 17.9546 13.1586 18.1187 13.3227C18.2828 13.4868 18.375 13.7093 18.375 13.9414V14.8164C18.375 15.9767 17.9141 17.0895 17.0936 17.91C16.2731 18.7305 15.1603 19.1914 14 19.1914H7C5.83968 19.1914 4.72688 18.7305 3.90641 17.91C3.08594 17.0895 2.625 15.9767 2.625 14.8164V7.81641Z" fill="#04635D"/>
</svg>
