<svg width="510" height="147" viewBox="0 0 510 147" fill="none" xmlns="http://www.w3.org/2000/svg">
<path d="M1.41375 132.762C6.63339 132.362 11.4275 132.048 16.2004 131.627C24.8667 130.803 33.5259 129.927 42.1781 128.999C45.0149 128.692 46.9721 129.305 47.7873 132.321C48.0141 133.17 48.709 133.897 49.3472 134.931L53.8868 127.842L54.8796 128.234C56.8008 134.117 58.7148 139.993 60.9337 146.774C63.36 139.579 65.5097 133.225 67.6593 126.806L68.5103 126.806C69.6397 131.508 70.7643 136.212 71.8842 140.918L72.6501 141.025C73.4733 137.367 74.5517 133.744 75.0486 130.043C75.5171 126.534 77.2973 125.586 80.5737 125.328C92.7647 124.357 104.927 123.065 117.111 121.936C125.778 121.136 134.494 120.715 143.124 119.594C156.245 117.895 169.334 115.93 182.393 113.698C195.414 111.465 208.314 108.503 221.349 106.341C227.945 105.249 234.731 105.377 241.405 104.677C249.575 103.82 257.716 102.599 265.865 101.678C272.638 100.915 279.439 100.322 286.233 99.7076C299.471 98.5221 312.709 97.3604 325.948 96.2224C335.444 95.4225 344.975 94.922 354.457 93.9153C369.875 92.2873 385.272 90.3956 400.661 88.5252C405.186 87.9755 409.668 87.0978 414.356 86.3412C415.235 90.0921 416.085 93.7075 416.936 97.3229L417.588 97.3229C418.397 93.8142 419.208 90.3079 420.022 86.804L420.731 86.6685L426.401 112.262L427.061 112.261C428.601 105.344 430.247 98.4479 431.645 91.5019C433.334 83.1012 433.256 83.1583 441.83 81.7095C464.34 77.9128 486.843 74.0447 509.523 70.1767L509.525 54.6734C504.49 55.0306 499.497 55.3165 494.519 55.7451C487.838 56.3236 481.172 57.0233 474.491 57.6303C461.603 58.8015 448.712 59.9561 435.819 61.094C427.259 61.8511 418.713 62.9076 410.139 63.2368C396.111 63.8091 382.438 66.5136 368.736 69.2252C355.715 71.9296 342.588 74.6341 329.404 76.7752C322.688 77.8743 315.788 77.7682 309.001 78.4751C300.71 79.339 292.455 80.5667 284.179 81.4877C277.285 82.2516 270.364 82.8159 263.456 83.4372C250.445 84.6037 237.443 85.7535 224.451 86.8867C215.182 87.6866 205.891 88.2084 196.65 89.2009C181.119 90.8645 165.581 92.5209 150.113 94.7051C135.262 96.7965 120.49 99.5296 105.689 102.02C92.1952 104.295 78.7015 106.605 65.2078 108.95C48.7048 111.805 32.2159 114.781 15.727 117.714C11.6917 118.427 7.63504 119.055 3.67059 120.004C3.14272 120.212 2.67311 120.546 2.30235 120.977C1.9316 121.408 1.67087 121.924 1.54272 122.479C1.25864 125.653 1.41425 128.876 1.41375 132.762Z" fill="#192E2C" fill-opacity="0.22"/>
<path d="M509.793 28.7367C502.289 29.9785 495.282 31.099 488.29 32.3051C475.042 34.5817 461.801 36.951 448.575 39.1848C434.391 41.5827 420.207 43.9521 405.98 46.1789C394.293 48.0132 382.577 49.5836 370.875 51.3536C357.57 53.3806 344.287 55.5431 330.983 57.5701C319.295 59.3545 307.579 60.9962 295.892 62.7734C284.204 64.5506 272.538 66.4704 260.85 68.219C256.091 68.9328 251.297 69.3898 246.51 69.8469C231.305 71.2751 216.1 72.7033 200.895 74.1315C191.881 74.9457 182.846 75.5601 173.832 76.3885C162.265 77.4668 150.713 78.7591 139.146 79.8446C130.245 80.6801 121.324 81.1876 112.438 82.1087C103.551 83.0297 94.7432 84.2503 85.9067 85.3782C78.2332 86.3728 70.5668 87.3984 62.9075 88.4548C52.7021 89.8824 42.4897 91.3099 32.3127 92.8659C22.1357 94.4218 11.9942 96.2059 1.45552 97.9544C1.45495 102.397 1.37636 106.89 1.55308 111.368C1.55301 111.882 3.04927 112.858 3.73009 112.751C21.8997 109.982 40.0623 107.127 58.2177 104.187C74.5293 101.57 90.8408 98.8959 107.152 96.1649C124.79 93.1889 142.393 89.9561 160.052 87.1156C167.214 85.9594 174.498 85.5021 181.739 84.8094C191.667 83.8573 201.613 82.9432 211.574 82.0672C218.134 81.4958 224.709 81.0813 231.269 80.5099C241.339 79.6315 251.395 78.6532 261.466 77.7748C268.026 77.2034 274.593 76.7818 281.16 76.2247C291.089 75.3748 301.053 74.3324 311.01 73.6179C338.101 71.6747 364.136 63.8912 390.738 59.2667C396.972 58.1819 403.39 58.2238 409.716 57.6668C419.645 56.7955 429.574 55.8244 439.552 54.9388C445.757 54.3817 451.97 53.9388 458.182 53.396C468.359 52.5033 478.536 51.5464 488.72 50.6465C494.812 50.1109 500.897 49.5324 506.996 49.1679C509.123 49.0464 509.932 48.3689 509.897 46.2081C509.727 40.6315 509.792 35.0549 509.793 28.7367Z" fill="#58AFAA" fill-opacity="0.22"/>
<path d="M1.54346 10.9189L1.54102 29.9734C2.54806 29.9733 3.44162 30.0088 4.32811 29.973C13.8596 29.4726 23.3982 29.0506 32.9226 28.4218C49.1346 27.3358 65.3325 26.0643 81.5446 24.9711C90.4804 24.3709 99.4303 24.0417 108.366 23.4486C121.408 22.5983 134.443 21.6054 147.478 20.698C154.882 20.1907 162.335 20.1113 169.683 19.1548C180.597 17.7271 191.427 15.5863 202.306 13.9947C215.632 12.0247 228.943 9.8408 242.34 8.54117C257.453 7.11295 272.658 6.51194 287.82 5.54724C302.628 4.59448 317.438 3.64171 332.251 2.68895C339.209 2.31879 346.143 1.57759 353.023 0.46844L349.548 0.468895C321.89 0.472518 294.232 0.276485 266.574 0.586748C256.354 0.702186 246.156 2.1155 235.944 2.7729C229.348 3.19451 222.739 3.36649 216.136 3.54563C204.924 3.85374 193.705 4.0121 182.499 4.35587C160.203 5.05289 137.908 5.79034 115.616 6.56818C102.293 7.01682 88.9649 7.47018 75.6322 7.92832C53.6002 8.68711 31.5539 9.43168 9.4935 10.162C6.92625 10.2479 4.36605 10.6404 1.54346 10.9189Z" fill="#192E2C" fill-opacity="0.22"/>
<path d="M439.338 0.763752C438.808 0.644175 438.27 0.56556 437.728 0.528622C426.622 0.572864 415.495 0.260559 404.397 0.811114C396.447 1.2115 388.56 2.80992 380.639 3.79506C376.788 4.27335 372.93 4.70889 369.065 4.94473C351.881 5.99526 334.697 6.92455 317.521 7.96796C303.053 8.84699 288.586 9.81157 274.125 10.7548C259.779 11.6908 245.375 12.1206 231.106 13.7555C217.965 15.2548 204.958 17.9949 191.916 20.3214C179.15 22.5907 166.455 24.525 153.492 25.1043C137.017 25.8196 120.578 27.3335 104.118 28.4624C96.1252 29.0054 88.1256 29.4415 80.1259 29.9702C66.0201 30.892 51.9073 31.878 37.8015 32.7783C28.9792 33.3357 20.1427 33.7648 11.3204 34.2936C8.15743 34.4794 5.00152 34.8007 1.62577 35.0793L1.62402 48.707C6.63094 48.0432 11.6591 47.4078 16.6802 46.7154C24.4317 45.6519 32.1762 44.5313 39.9277 43.4463L62.8418 40.2699C70.5933 39.1921 78.3377 38.0857 86.0963 37.0293C93.8549 35.9729 101.621 34.9593 109.386 33.9313C116.005 33.051 122.608 32.1825 129.194 31.3259C138.236 30.1623 147.279 28.9916 156.328 27.8851C164.803 26.8428 173.299 25.9218 181.767 24.8652C190.582 23.7659 199.383 22.5239 208.198 21.4317C216.666 20.3823 225.155 19.4898 233.63 18.4404C242.332 17.3696 251.012 16.1347 259.721 15.1067C263.686 14.6355 267.678 14.4567 271.664 14.2138C283.983 13.4562 296.301 12.7843 308.613 11.984C322.797 11.0693 336.98 10.0762 351.164 9.12594C361.348 8.41149 371.553 7.87531 381.723 6.98258C392.361 6.02561 402.9 4.66216 413.495 3.57683C422.098 2.69856 430.721 1.97721 439.338 1.19165L439.338 0.763752Z" fill="#192E2C" fill-opacity="0.22"/>
<path d="M509.614 25.7924L509.616 13.484L491.723 16.5955L491.772 17.059L509.091 15.3666C509.197 16.7144 509.275 17.7056 509.36 18.7967C507.707 19.1963 506.268 19.6315 504.793 19.8813C482.02 23.7422 459.248 27.6531 436.454 31.4071C421.249 33.905 406.008 36.1462 390.782 38.5443C374.414 41.1136 358.06 43.7828 341.677 46.2809C325.295 48.7789 308.848 51.0417 292.452 53.5397C281.034 55.2741 269.672 57.3793 258.247 59.0424C252.453 59.8846 246.567 60.0779 240.73 60.6207C230.929 61.5276 221.128 62.5272 211.327 63.4128C202.568 64.2055 193.803 64.8413 185.051 65.6483C175.832 66.5053 166.612 67.5405 157.436 68.4117C148.925 69.2115 140.365 69.8402 131.841 70.64C120.541 71.7301 109.251 72.9012 97.9698 74.153C87.9773 75.2668 77.9918 76.5017 68.0205 77.8009C57.9358 79.1073 47.8865 80.6132 37.8088 81.9267C29.5679 82.9974 21.3129 83.9042 13.065 84.9179C9.47648 85.3605 5.88795 85.8531 2.3065 86.4169C1.93063 86.474 1.65396 87.1301 0.980142 87.9003C2.19282 88.107 2.94451 88.4135 3.63952 88.3207C13.7101 86.9716 23.7665 85.4656 33.8442 84.1949C43.9218 82.9243 54.0562 81.8033 64.148 80.4899C74.1122 79.1978 84.041 77.6705 94.0123 76.3998C100.977 75.5075 107.969 74.822 114.955 74.1293C124.883 73.1439 134.798 72.1918 144.698 71.273C153.577 70.4802 162.471 69.8444 171.35 69.0374C180.441 68.1876 189.512 67.131 198.597 66.2884C207.476 65.46 216.369 64.8598 225.248 64.0385C234.127 63.2173 243.212 62.3818 252.162 61.2895C262.949 59.976 273.714 58.4841 284.459 56.8853C296.125 55.158 307.742 53.174 319.401 51.404C329.677 49.8409 339.968 48.4632 350.258 46.9002C360.3 45.3799 370.314 43.6671 380.356 42.1397C390.626 40.5767 400.923 39.2132 411.206 37.6216C422.043 35.9444 432.865 34.1531 443.681 32.3332C455.411 30.3563 467.127 28.2867 478.843 26.2528C488.039 24.659 497.232 23.0675 506.424 21.4784C507.508 21.3094 508.617 21.5207 509.565 22.077C508.856 22.7903 508.267 23.9955 507.437 24.1525C499.636 25.6867 491.835 27.0997 484.034 28.4343C472.19 30.4753 460.342 32.4712 448.489 34.422C437.205 36.2847 425.915 38.0904 414.632 39.9103C404.604 41.5304 394.59 43.2076 384.554 44.7421C373.009 46.5193 361.435 48.1253 349.889 49.8882C338.01 51.7011 326.152 53.6708 314.266 55.4766C302.72 57.2395 291.16 58.8812 279.6 60.5799C270.133 61.9646 260.679 63.4848 251.19 64.7197C245.516 65.4336 239.744 65.741 234.021 66.2766C224.227 67.1978 214.44 68.2046 204.639 69.083C195.646 69.89 186.639 70.5116 177.647 71.3186C165.981 72.3969 154.329 73.6393 142.67 74.7675C136.953 75.3174 131.223 75.7032 125.514 76.2887C114.682 77.3931 103.863 78.5569 93.0544 79.7801C83.0643 80.9272 73.0788 82.1527 63.0981 83.4566C53.0204 84.7701 42.964 86.2475 32.8863 87.561C24.6526 88.6317 16.3976 89.5599 8.15673 90.5736C5.82347 90.7909 3.53441 91.3511 1.36254 92.236C2.2419 92.4855 3.15667 93.0488 3.98643 92.9488C20.1844 90.9571 36.3753 88.9511 52.5521 86.8239C69.7784 84.561 86.9764 82.0486 104.217 79.907C112.848 78.8362 121.564 78.4001 130.23 77.6002C142.059 76.5005 153.882 75.2937 165.69 74.194C174.469 73.3799 183.271 72.7013 192.057 71.8872C203.887 70.7874 215.702 69.6021 227.517 68.4809C235.715 67.7026 243.942 67.131 252.119 66.1744C261.445 65.0892 270.749 63.7545 280.04 62.384C291.869 60.6354 303.677 58.7369 315.5 56.9169C327.322 55.0969 339.144 53.2769 350.96 51.4854C362.775 49.6939 374.399 47.9881 386.107 46.1966C399.44 44.1554 412.773 42.1426 426.092 39.9872C440.787 37.6106 455.46 35.1199 470.133 32.6221C483.253 30.4026 496.281 28.1189 509.614 25.7924Z" fill="#58AFAA" fill-opacity="0.22"/>
<path d="M1.77097 63.2187C9.91254 62.0766 17.8839 60.9917 25.8836 59.8425C35.3585 58.4863 44.8263 57.0446 54.3082 55.7098C63.4498 54.425 72.6126 53.2686 81.7612 51.9909C92.8601 50.4348 103.952 48.7647 115.093 47.2229C122.973 46.1308 130.866 45.167 138.745 44.1391C147.44 43.0112 156.135 41.8477 164.829 40.7484C173.07 39.7133 181.318 38.7566 189.552 37.7215C198.36 36.6079 207.161 35.4087 215.969 34.3093C224.316 33.26 232.678 32.3247 241.032 31.2896C249.855 30.2045 258.663 29.0267 267.478 27.9487C276.293 26.8708 284.903 25.6787 293.647 24.9074C308.838 23.5719 324.057 22.4931 339.27 21.3358C346.645 20.7858 354.035 20.3783 361.418 19.8639C374.651 18.9351 387.877 17.935 401.132 17.0062C409.451 16.4418 417.798 16.1697 426.11 15.4769C434.854 14.7626 443.57 13.6562 452.3 12.7636C459.761 11.9996 467.243 11.4067 474.682 10.5072C484.788 9.29357 494.866 7.85178 504.951 6.51692C506.114 6.35989 507.305 6.36686 508.447 6.11712C509.014 5.98869 509.49 5.40384 510 5.06861C509.887 4.74059 509.774 4.41257 509.653 4.08455C505.504 4.43452 501.341 4.71321 497.2 5.14162C486.916 6.21978 476.633 7.36212 466.357 8.49019C455.96 9.63254 445.577 10.8818 435.152 11.8958C428.004 12.6099 420.82 12.9531 413.65 13.4604C400.494 14.3963 387.332 15.3607 374.169 16.261C365.942 16.8183 357.702 17.2116 349.475 17.7903C337.256 18.6548 325.044 19.6262 312.831 20.5192C305.555 21.055 298.257 21.3697 291.002 22.0981C282.357 22.9692 273.741 24.1612 265.124 25.2391C256.614 26.3028 248.103 27.3808 239.635 28.4801C229.031 29.8221 218.431 31.1594 207.835 32.492C197.573 33.7769 187.311 35.0334 177.049 36.3326C166.326 37.6794 155.605 39.0452 144.887 40.4301C135.214 41.6722 125.54 42.8786 115.888 44.1992C104.725 45.7338 93.5839 47.3897 82.4282 48.9672C71.6201 50.4875 60.8048 51.9437 49.9967 53.4641C38.841 55.0344 27.6925 56.6618 16.5368 58.2321C12.3526 58.8245 8.17537 59.5168 3.96988 59.824C1.57281 60.0453 0.969901 60.8441 1.77097 63.2187Z" fill="#192E2C" fill-opacity="0.22"/>
<path d="M363.21 29.3276C355.033 29.8635 346.841 30.3566 338.665 30.9353C334.459 31.2354 330.268 31.7779 326.062 32.0423C317.261 32.6068 308.432 32.7577 299.659 33.6289C288.489 34.7143 277.369 36.3203 266.221 37.6695C257.71 38.6975 249.235 39.6114 240.753 40.6893C230.314 42.01 219.896 43.4875 209.457 44.801C200.982 45.8718 192.486 46.75 184.011 47.8208C175.536 48.8916 166.884 50.1764 158.31 51.2543C149.735 52.3322 141.346 53.1677 132.878 54.2456C123.715 55.4163 114.566 56.7011 105.418 57.9931C96.0564 59.3136 86.7021 60.7125 77.3407 62.0615C66.126 63.6794 54.9088 65.2854 43.6894 66.8795C34.4343 68.1714 25.1723 69.3707 15.9173 70.6484C11.3188 71.2153 6.75604 72.0445 2.25098 73.1318C11.0946 72.0253 19.9808 70.9901 28.7819 69.8123C40.8383 68.2348 52.8946 66.5431 64.9084 64.9727C73.0286 63.9162 81.156 62.9596 89.2834 61.9744C98.9213 60.8036 108.545 59.59 118.19 58.5334C124.133 57.8836 130.105 57.5406 136.062 56.9836C145.742 56.0838 155.416 55.0984 165.103 54.1914C170.947 53.6487 176.798 53.2415 182.641 52.6988C192.201 51.799 201.747 50.8065 211.307 49.9067C217.03 49.364 222.767 49.0138 228.476 48.4069C241.164 47.0574 253.866 45.7722 266.518 44.1232C279.95 42.3957 293.354 40.3758 306.743 38.3346C321.395 36.1077 336.026 33.6954 350.664 31.4115C354.813 30.7621 358.983 30.2766 363.139 29.7198L363.21 29.3276Z" fill="#192E2C" fill-opacity="0.22"/>
<path d="M496.61 17.8208C490.936 18.335 485.199 18.6709 479.532 19.4133C470.029 20.6483 460.54 22.0472 451.08 23.5531C440.364 25.2589 429.697 27.2285 418.981 28.9485C410.336 30.3402 401.648 31.5037 392.989 32.8027C381.443 34.5442 369.9 36.3024 358.359 38.0772L332.055 42.0742C323.63 43.3446 315.19 44.5794 306.765 45.8641C296.496 47.4343 286.241 49.1044 275.957 50.6175C265.788 52.1021 255.618 53.5582 245.412 54.8075C239.483 55.5214 233.491 55.7861 227.541 56.3431C215.527 57.4785 203.52 58.6995 191.507 59.8421C185.67 60.3919 179.819 60.7921 173.99 61.3348C164.189 62.2417 154.402 63.2485 144.601 64.1269C135.722 64.9268 126.821 65.4842 117.949 66.3839C108.297 67.3693 98.6664 68.5899 89.0355 69.7678C79.173 70.9672 69.3152 72.2093 59.4621 73.4942C49.271 74.8148 39.0869 76.2281 28.8887 77.5416C20.6549 78.6052 12.407 79.5548 4.18744 80.6612C3.14492 80.8039 2.19451 81.5813 1.1945 82.0878L1.69076 83.3642C6.4069 82.8145 11.1301 82.3147 15.8746 81.7079C24.1013 80.6443 32.3138 79.5093 40.5334 78.4101C49.1052 77.2679 57.677 76.133 66.2488 75.0051C74.135 73.9772 82.0213 72.9493 89.9146 71.9998C100.134 70.779 110.361 69.5868 120.594 68.4872C126.303 67.8732 132.048 67.523 137.764 66.9874C147.444 66.0805 157.118 65.0666 166.798 64.1953C175.791 63.3812 184.797 62.7667 193.783 61.9526C202.882 61.1171 211.959 60.0961 221.058 59.2321C227.129 58.6536 233.228 58.3533 239.292 57.6679C250.086 56.4495 260.868 55.1145 271.638 53.6631C280.319 52.4996 288.978 51.1649 297.63 49.8374C309.396 48.0245 321.14 46.1047 332.906 44.3203C343.182 42.7573 353.472 41.3796 363.763 39.8237C375.422 38.0607 387.053 36.1623 398.705 34.3637C408.634 32.8363 418.562 31.4444 428.491 29.86C440.358 27.9568 452.212 25.9728 464.05 23.908C474.937 22.0382 485.802 20.0685 496.674 18.1417L496.61 17.8208Z" fill="#192E2C" fill-opacity="0.22"/>
<path d="M1.60304 52.0595C6.31917 51.5098 11.0495 51.0171 15.7869 50.3889C23.7725 49.3111 31.7438 48.1405 39.7223 47.0128C49.5517 45.5852 59.3812 44.1577 69.2177 42.8657C78.8415 41.5665 88.4795 40.4171 98.0962 39.1323C107.713 37.8474 117.308 36.4199 126.925 35.1493C133.648 34.257 140.4 33.5573 147.144 32.7292C156.073 31.6298 165.002 30.4662 173.937 29.3669C180.554 28.5602 187.185 27.8391 193.795 27.0253C202.844 25.9045 211.879 24.6981 220.936 23.5987C229.531 22.5564 238.141 21.6425 246.736 20.6003C255.906 19.4866 265.055 18.2517 274.225 17.138C278.99 16.5526 283.763 15.9744 288.543 15.6529C297.692 15.0455 306.854 14.6877 316.003 14.1089C330.3 13.2085 344.583 12.2154 358.873 11.2508C369.419 10.5363 379.965 9.86461 390.496 9.10732C402.907 8.20717 415.318 7.41398 427.707 6.24998C442.856 4.82175 457.969 3.00847 473.096 1.40197C474.601 1.32328 476.109 1.32308 477.613 1.40138L477.613 0.452918C476.422 0.453074 475.231 0.496017 474.068 0.453383C458.395 -0.193503 442.863 1.44157 427.367 3.44033C419.566 4.44685 411.765 4.96846 403.929 5.6826C390.972 6.86808 378.022 8.08922 365.058 9.17486C357.576 9.79625 350.058 10.1466 342.562 10.6611C329.208 11.5827 315.861 12.5615 302.514 13.4831C295.011 14.0047 287.501 14.3266 280.012 14.9765C267.766 16.0335 255.528 17.2046 243.297 18.4899C232.702 19.5966 222.128 20.8388 211.561 22.138C202.979 23.2017 194.433 24.515 185.859 25.5858C177.285 26.6566 168.64 27.4921 160.038 28.5486C149.364 29.855 138.712 31.3041 128.046 32.6532C119.805 33.6884 111.543 34.5737 103.309 35.6872C92.196 37.1934 81.1183 38.8992 70.0123 40.441C60.5233 41.7615 51.0059 42.9394 41.5169 44.2456C32.1413 45.5447 22.787 46.9365 13.4185 48.2642C10.7519 48.6353 8.05702 48.8211 5.41171 49.2778C3.96279 49.6234 2.54064 50.074 1.15643 50.6262L1.60304 52.0595Z" fill="#192E2C" fill-opacity="0.22"/>
<path d="M499.852 0.155475C493.682 0.641204 487.513 1.04845 481.357 1.63402C475.768 2.16959 470.208 2.91911 464.627 3.52599C455.897 4.47558 447.174 5.43943 438.436 6.28918C430.025 7.10324 421.614 7.86738 413.196 8.51742C400.211 9.52462 387.219 10.4248 374.226 11.375C370.241 11.6608 366.255 11.8895 362.269 12.0897C349.504 12.8045 336.696 13.5193 323.909 14.3268C313.364 14.9771 302.804 15.5062 292.287 16.5131C280.649 17.6342 269.061 19.2616 257.444 20.6109C248.607 21.6318 239.764 22.5101 230.934 23.5667C220.36 24.8303 209.807 26.2437 199.247 27.5501C192.51 28.3853 185.773 29.135 179.028 29.9559C169.858 31.0696 160.696 32.226 151.526 33.3397C143.015 34.3677 134.562 35.3387 126.08 36.3809C118.307 37.3328 110.537 38.3346 102.769 39.3862C94.6697 40.4784 86.5777 41.6632 78.4858 42.8052C68.7698 44.1757 59.0609 45.5889 49.3379 46.9023C39.6148 48.2158 30.0903 49.4008 20.4736 50.6714C14.2185 51.4995 7.97759 52.3774 1.64447 53.2411C1.08387 55.9439 1.39578 56.9493 4.79283 56.4426C25.5581 53.3307 46.3801 50.5539 67.2021 47.606C86.9461 44.808 106.669 41.8317 126.434 39.1192C146.199 36.4068 166.014 33.8513 185.822 31.3528C202.006 29.3111 218.225 27.5262 234.409 25.4988C254.267 23.0146 274.011 20.2593 293.847 17.9177C301.79 16.9825 309.832 16.8602 317.824 16.2958C330.398 15.4099 342.965 14.4384 355.539 13.5454C363.177 13.0024 370.829 12.5592 378.467 12.0234C391.389 11.1184 404.312 10.1873 417.239 9.23001C426.862 8.51563 436.5 7.87256 446.103 6.95138C456.28 5.9802 466.428 4.68101 476.598 3.57434C483.959 2.77469 491.335 2.0606 498.703 1.2966C499.132 1.22628 499.556 1.12859 499.973 1.00407C499.916 0.725964 499.881 0.44785 499.852 0.155475Z" fill="#192E2C" fill-opacity="0.22"/>
<path d="M1.33895 65.5653C2.24667 65.7863 3.18982 66.2782 4.04795 66.1712C14.9057 64.6294 25.7494 62.9307 36.6072 61.389C47.465 59.8472 58.3866 58.4909 69.2302 56.9634C81.946 55.1718 94.6407 53.2233 107.364 51.446C116.853 50.1183 126.363 48.9547 135.866 47.6912C146.277 46.3136 156.681 44.836 167.106 43.5368C175.617 42.466 184.091 41.602 192.573 40.5526C203.14 39.2462 213.686 37.8186 224.239 36.4837C232.48 35.4415 240.728 34.4777 248.969 33.4355C257.777 32.3218 266.571 31.1013 275.393 30.0447C282.712 29.1737 290.038 28.3669 297.378 27.7384C309.434 26.7028 321.491 25.8098 333.504 24.8812C340.887 24.3383 348.27 23.9308 355.645 23.4521C368.879 22.5233 382.098 21.5232 395.36 20.5944C403.679 20.0299 412.047 19.929 420.33 19.0294C434.621 17.4729 448.861 15.46 463.123 13.6255C464.189 13.5627 465.225 13.2526 466.152 12.7194C460.081 13.2979 454.01 13.8406 447.947 14.4618C442.273 15.0402 436.599 15.8895 430.848 16.3039C415.629 17.3898 400.388 18.2832 385.155 19.2978C375.439 19.9504 365.728 20.6458 356.021 21.384C344.327 22.2769 332.618 23.284 320.945 24.1484C313.094 24.727 305.222 24.9848 297.386 25.6704C289.939 26.3274 282.492 27.341 275.096 28.2334C268.599 29.0044 262.106 29.804 255.614 30.632C246.926 31.7314 238.246 32.8877 229.558 33.9799C221.197 35.0293 212.821 36.0074 204.46 37.0497C195.524 38.1704 186.595 39.3482 177.659 40.469C169.418 41.497 161.163 42.4322 152.93 43.4887C142.497 44.8236 132.072 46.2227 121.647 47.6147C112.498 48.8424 103.35 50.063 94.2083 51.3479C84.9888 52.6541 75.7267 54.0673 66.4787 55.3806C57.3443 56.6797 48.1886 57.8932 39.047 59.178C29.4445 60.5342 19.8562 61.9546 10.2608 63.3179C7.37433 63.7247 4.48083 64.0317 1.59441 64.3744L1.33895 65.5653Z" fill="#192E2C" fill-opacity="0.22"/>
<path d="M1.67755 77.8301C7.01068 77.2446 12.358 76.7376 17.684 76.0523C25.9036 74.9958 34.109 73.8038 42.3286 72.6974C51.0139 71.5268 59.7039 70.3799 68.3986 69.2568C76.4054 68.2217 84.4122 67.1795 92.4261 66.2656C105.341 64.7949 118.248 63.3456 131.176 62.0532C140.041 61.1678 148.942 60.6246 157.814 59.7962C166.905 58.9535 175.976 57.9112 185.068 57.0472C191.139 56.4616 197.23 56.0971 203.301 55.533C212.521 54.6689 221.74 53.6764 230.96 52.7981C236.796 52.2411 242.654 51.9337 248.47 51.2412C258.214 50.0847 267.944 48.7712 277.667 47.4008C286.447 46.1588 295.199 44.7315 303.971 43.411C312.404 42.1334 320.843 40.92 329.275 39.6282C337.708 38.3363 346.296 36.8804 354.856 35.5886C363.523 34.2824 372.21 33.1403 380.87 31.827C391.139 30.2711 401.394 28.6082 411.656 27.0023C413.757 26.7643 415.825 26.2855 417.819 25.5752C412.932 25.9111 408.004 25.9474 403.167 26.6326C387.784 28.8096 372.437 31.1934 357.069 33.563C343.687 35.6328 330.325 37.8453 316.943 39.8865C302.163 42.1277 287.39 44.433 272.568 46.3532C257.746 48.2734 242.825 49.8514 227.932 51.4008C215.109 52.7289 202.273 53.8074 189.437 54.9714L150.58 58.5421C137.751 59.7276 124.9 60.7633 112.092 62.1484C101.412 63.3122 90.7739 64.9323 80.1076 66.2815C68.2782 67.7735 56.4276 69.1371 44.5982 70.6647C34.5206 71.9711 24.4571 73.4343 14.3865 74.8048C10.4505 75.3401 6.50735 75.8113 2.57131 76.3395C2.18973 76.4523 1.82656 76.6206 1.49329 76.8389L1.67755 77.8301Z" fill="#58AFAA" fill-opacity="0.22"/>
<path d="M396.557 24.1878C387.529 24.731 378.508 25.2313 369.487 25.8458C365.168 26.1387 360.87 26.7597 356.551 27.0455C347.757 27.6172 338.942 27.9891 330.148 28.5822C317.149 29.461 304.128 30.1402 291.178 31.5039C276.994 32.9962 262.896 35.2301 248.74 37.0219C236.443 38.571 224.11 39.8776 211.812 41.4196C199.515 42.9615 187.281 44.753 174.998 46.2949C164.438 47.6227 153.836 48.6368 143.283 50.0002C132.042 51.4279 120.837 53.1837 109.61 54.754C100.462 56.0317 91.3059 57.2238 82.1644 58.5015C72.6824 59.8291 63.2076 61.2352 53.7256 62.5628C44.4635 63.8572 35.2038 65.123 25.9464 66.3603C18.5282 67.3596 11.11 68.3019 3.70604 69.3512C2.91883 69.4654 2.20248 70.1001 1.65625 71.3125C4.5994 71.0197 7.54962 70.8268 10.4786 70.4199C21.925 68.8258 33.3667 67.1936 44.8037 65.5234C55.7892 63.9317 66.7888 62.2331 77.7317 60.677C86.9938 59.3708 96.2772 58.2429 105.539 56.958C115.149 55.6304 124.73 54.1387 134.347 52.861C142.701 51.7474 151.084 50.8763 159.452 49.8269C168.041 48.7561 176.615 47.5784 185.196 46.4933C193.557 45.4368 201.926 44.4659 210.28 43.4165C218.975 42.3171 227.656 41.1393 236.35 40.0471C244.705 38.9977 253.066 38.0482 261.413 36.9917C270.108 35.8995 278.774 34.6361 287.476 33.6295C293.526 32.9156 299.61 32.4798 305.681 32.0297C319.028 31.0439 332.377 30.0913 345.729 29.172C354.055 28.6076 362.395 28.3355 370.707 27.6355C379.323 26.9213 387.912 25.822 396.514 24.9009C396.521 24.6727 396.536 24.4303 396.557 24.1878Z" fill="#192E2C" fill-opacity="0.22"/>
<path d="M424.336 19.9772C415.677 20.5275 407.011 21.0349 398.352 21.6351C394.267 21.9209 390.196 22.5062 386.111 22.7706C373.792 23.5637 361.474 24.2 349.155 25.0146C335.34 25.9149 321.497 26.6655 307.71 27.9438C293.526 29.2578 279.342 31.1209 265.159 32.7558C254.698 33.9623 244.23 35.1118 233.784 36.4324C221.501 37.9815 209.239 39.7588 196.955 41.3079C186.516 42.6214 176.048 43.6497 165.609 44.9917C149.851 47.019 134.114 49.2032 118.362 51.3161C105.739 53.0079 93.1009 54.6283 80.4914 56.4128C67.8819 58.1972 55.3149 60.1813 42.7196 61.9729C31.8405 63.5146 20.9402 64.8995 10.0541 66.37C7.33783 66.734 4.62161 67.1408 1.90539 67.5334L2.01165 68.4248C4.84842 68.132 7.749 67.9463 10.5929 67.5394C19.9614 66.2046 29.3086 64.7772 38.67 63.421C50.0171 61.7794 61.3477 60.1591 72.6617 58.5602C81.8813 57.2754 91.1859 56.1189 100.441 54.8127C111.54 53.2495 122.617 51.5009 133.723 50.0019C142.177 48.8598 150.673 48.0315 159.141 46.975C169.779 45.6401 180.459 44.1768 191.126 42.8419C199.636 41.7853 208.146 40.8999 216.586 39.822C227.025 38.5085 237.443 37.031 247.883 35.7032C256.237 34.6396 264.605 33.6901 272.974 32.7191C283.08 31.5412 293.179 30.3489 303.299 29.2636C307.15 28.8495 311.029 28.6921 314.901 28.4634C323.702 27.9488 332.503 27.5198 341.304 26.9482C355.238 26.0431 369.173 25.0904 383.111 24.0902C394.933 23.2258 406.748 22.2687 418.571 21.283C420.528 21.1259 422.45 20.6478 424.393 20.3124L424.336 19.9772Z" fill="#192E2C" fill-opacity="0.22"/>
<path d="M421.84 24.5127L456.427 20.0084L456.278 18.8746L421.712 23.6213C421.762 23.9208 421.797 24.2132 421.84 24.5127Z" fill="#192E2C" fill-opacity="0.22"/>
<path d="M464.229 17.2549L489.426 14.1424C489.391 13.8643 489.362 13.5861 489.327 13.3152L464.229 16.3778L464.229 17.2549Z" fill="#192E2C" fill-opacity="0.22"/>
<path d="M509.469 8.72022L497.412 10.9824C501.568 10.6111 505.922 11.131 509.873 9.78985C509.71 9.43331 509.617 9.07676 509.469 8.72022Z" fill="#192E2C" fill-opacity="0.22"/>
</svg>
