<svg width="852" height="93" viewBox="0 0 852 93" fill="none" xmlns="http://www.w3.org/2000/svg">
<path d="M2.72266 13.4937V11.4039C8.77405 11.4039 14.8136 11.3526 20.8176 11.4039C53.9049 11.7419 86.9803 11.9852 120.068 11.385C130.465 11.1958 140.934 11.1633 151.367 11.0795C176.981 10.8768 202.596 10.7092 228.199 10.4875C267.385 10.1441 306.548 9.67642 345.746 9.45203C361.804 9.35741 377.909 9.72239 393.979 9.91433C407.337 10.0765 420.683 10.2928 434.041 10.4956C457.004 10.8443 479.978 11.212 502.952 11.5553C516.878 11.7635 530.828 11.9257 544.767 12.1258C563.217 12.3961 581.679 12.6665 600.141 12.9368C602.039 12.9849 603.958 12.908 605.671 12.7151L563.513 11.8041C539.828 11.2904 516.144 10.7551 492.4 10.2685C476.33 9.93866 460.248 9.6575 444.178 9.38445C422.59 9.02218 401.025 8.60585 379.425 8.36794C363.521 8.19221 347.557 8.21925 331.63 8.24088C321.386 8.2571 311.154 8.43553 300.911 8.51123C275.699 8.71669 250.475 8.88431 225.274 9.11951C192.59 9.425 159.94 9.94407 127.256 10.0792C86.4593 10.2469 45.639 10.1171 4.84242 10.1117C4.16457 10.086 3.50393 10.0405 2.87661 9.97651V3.08262C13.6649 3.08262 24.5953 3.08262 35.5376 3.08262C47.7469 3.08262 59.9563 3.08262 72.1538 3.03126C82.9895 2.97719 93.8133 2.80687 104.649 2.72036C130.252 2.51219 155.867 2.35539 181.47 2.11478C213.752 1.81199 246.022 1.39835 278.304 1.1226C300.354 0.933355 322.476 0.684635 344.502 0.852251C371.218 1.05501 397.875 1.68492 424.568 2.10126C439.098 2.32565 453.652 2.46083 468.183 2.68251C489.783 3.00964 511.36 3.38541 532.948 3.72335C545.903 3.92881 558.871 4.09102 571.838 4.28838C595.001 4.63713 618.165 5.00481 641.328 5.35085C654.876 5.55361 668.459 5.66716 681.983 5.93481C700.362 6.29707 718.694 6.77018 737.073 7.18651C750.561 7.49201 764.061 7.77317 777.538 8.07867C796.486 8.50582 815.433 8.94018 834.381 9.38175C838.869 9.48448 843.416 9.53044 847.834 9.72509C848.646 9.78609 849.379 9.8921 849.968 10.0336C850.557 10.1752 850.983 10.3478 851.209 10.5361C851.528 12.288 851.493 14.0507 851.209 15.8025C851.209 16.0512 849.29 16.5054 848.378 16.4919C836.619 16.2973 824.883 16.0485 813.159 15.7863C798.949 15.4673 784.655 15.1212 770.397 14.7914C751.844 14.3643 733.291 13.9398 714.738 13.5181C705.158 13.3045 695.566 13.072 685.962 12.9314C669.856 12.6935 653.727 12.5259 637.61 12.3312C637.159 12.3212 636.704 12.3378 636.289 12.3794C635.874 12.4211 635.514 12.4864 635.241 12.5691C644.585 12.7827 653.928 13.0098 663.272 13.2099C688.164 13.7506 713.033 14.275 737.878 14.7833C757.489 15.1861 777.112 15.543 796.722 15.9377C813.574 16.2783 830.437 16.6298 847.265 17.0353C848.449 17.065 849.977 17.5436 850.427 17.8788C851.161 18.4195 851.138 18.9953 851.54 19.7712C842.73 19.6171 834.558 19.5009 826.435 19.3252C812.366 19.0143 798.321 18.6493 784.264 18.3222C765.115 17.8761 745.978 17.4165 726.806 17.0164C711.15 16.6893 695.459 16.4189 679.768 16.1621C657.007 15.789 634.239 15.4348 611.462 15.0996C597.524 14.8914 583.562 14.7346 569.612 14.5265C547.443 14.1912 525.274 13.8263 503.094 13.4856C489.937 13.2856 476.78 13.1126 463.623 12.9125C440.649 12.5637 417.699 12.1744 394.713 11.8608C371.349 11.5418 347.984 11.2444 324.56 11.7311C313.973 11.95 303.244 11.9717 292.669 12.0555C267.066 12.261 241.451 12.4151 215.848 12.6557C183.755 12.9557 151.698 13.4667 119.594 13.6181C87.7027 13.7587 55.776 13.5478 23.8611 13.4937C17.1228 13.4829 10.2425 13.4937 2.72266 13.4937Z" fill="#192E2C" fill-opacity="0.22"/>
<path d="M2.72266 28.8261V26.0466C6.34702 26.0466 9.82925 26.025 13.2878 26.0466C32.3927 26.1928 51.5094 26.3822 70.6262 26.4986C91.33 26.6258 112.081 26.8585 132.738 26.7368C165.44 26.5473 198.107 26.1007 230.785 25.7678C241.019 25.6623 251.264 25.5594 261.509 25.4782C287.117 25.2726 312.736 25.0966 338.343 24.8774C355.683 24.7286 373.024 24.3036 390.316 24.4011C416.871 24.5553 443.379 25.0479 469.91 25.4025C483.46 25.5838 497.022 25.7678 510.584 25.9735C533.159 26.3118 555.734 26.6799 578.309 27.0209C591.859 27.2239 605.421 27.389 618.971 27.5947C641.558 27.9357 664.121 28.3038 686.709 28.6475C700.057 28.8505 713.441 28.9777 726.778 29.2267C747.932 29.6191 769.05 30.0874 790.181 30.5258C804.078 30.8127 817.971 31.1014 831.861 31.3919C838.28 31.5299 844.688 31.6977 851.522 31.8628C851.522 35.0348 851.629 38.0877 851.321 41.1487C851.321 41.3922 848.478 41.828 846.974 41.8226C810.115 41.7008 773.255 41.4626 736.384 41.3841C665.318 41.2326 594.252 41.2461 523.257 41.0106C504.673 40.9484 486.149 40.2258 467.589 39.79C451.962 39.4292 436.347 39.0484 420.744 38.6479C404.754 38.2446 388.765 37.8035 372.775 37.3921C357.176 36.9915 341.553 36.618 325.954 36.2175C309.775 35.8034 293.607 35.3595 277.393 34.9482C261.794 34.5476 246.171 34.1795 230.572 33.7817C214.381 33.3676 198.201 32.9345 182.01 32.515C173.487 32.331 165.014 32.0419 156.628 31.649C175.768 31.649 194.909 31.6733 214.049 31.649C261.766 31.5732 309.487 31.483 357.211 31.3783C374.149 31.3377 391.098 31.04 408 31.1754C426.37 31.3215 444.717 31.8303 463.017 32.1822C472.575 32.3662 482.145 32.5394 491.704 32.7424C507.871 33.0888 524.027 33.4677 540.194 33.8033C554.822 34.1064 569.474 34.3446 584.101 34.6504C599.298 34.9698 614.47 35.346 629.666 35.6762C639.604 35.8927 649.565 36.0497 659.502 36.2662C674.9 36.6018 690.297 36.9753 705.636 37.3082C715.573 37.522 725.558 37.6573 735.483 37.8901C753.179 38.3042 770.839 38.7589 788.522 39.2081C802.901 39.569 817.276 39.9434 831.648 40.3313C836.492 40.4612 841.324 40.629 846.133 40.8076C849.509 40.9321 851.688 40.8401 850.137 39.7684C833.555 39.311 816.972 38.8563 800.296 38.3881C785.17 37.9632 770.081 37.4868 754.944 37.0998C744.627 36.8291 734.252 36.7182 723.912 36.4963C708.514 36.1661 693.116 35.7872 677.802 35.4543C667.852 35.2405 657.88 35.0889 647.93 34.8751C632.165 34.5395 616.413 34.1633 600.636 33.8223C591.089 33.6166 581.507 33.4596 571.949 33.2566C555.793 32.9129 539.638 32.5313 523.47 32.1957C508.842 31.8953 494.191 31.6544 479.563 31.3486C464.367 31.0319 449.194 30.6476 433.998 30.3255C426.974 30.1767 419.915 30.0251 412.868 30.0143C391.359 29.98 369.845 29.98 348.328 30.0143C309.289 30.0846 270.254 30.1749 231.223 30.2849C201.613 30.3607 172.085 30.607 142.533 30.5096C113.858 30.4175 85.1947 30.0007 56.5314 29.6976C43.4079 29.5596 30.2844 29.3647 17.1609 29.1699C12.5534 29.0995 7.91047 28.9506 2.72266 28.8261Z" fill="#58AFAA" fill-opacity="0.22"/>
<path d="M851.539 84.3872C840.784 84.2701 830.609 84.1875 820.47 84.0384C812.439 83.9239 804.431 83.6843 796.401 83.5751C774.416 83.2769 752.42 83.0426 730.435 82.7364C705.561 82.3983 680.497 82.2279 655.705 81.6101C626.981 80.8913 598.47 79.725 569.828 78.8277C549.881 78.202 529.922 77.5737 509.869 77.1823C484.615 76.687 459.255 76.4341 433.954 76.0773C409.032 75.7223 384.114 75.3673 359.2 75.0123C335.509 74.6688 311.701 74.3812 287.999 73.9472C275.538 73.7129 263.124 73.2017 250.758 72.8236C248.254 72.7325 245.725 72.6782 243.189 72.6612C165.454 72.6612 87.707 72.6612 9.94814 72.6612H2.72266V64.7853C7.56728 64.6681 12.3645 64.5031 17.1973 64.4418C40.769 64.1463 64.3525 63.9093 87.9241 63.6004C114.433 63.2649 141.026 63.0945 167.404 62.4715C186.167 62.0295 204.124 62.767 222.413 63.2703C234.483 63.6004 246.589 63.8507 258.671 64.1569C274.815 64.567 290.948 65.0116 307.105 65.419C319.163 65.7252 331.257 65.9835 343.315 66.287C359.472 66.6944 375.617 67.131 391.773 67.5384C403.855 67.8446 415.949 68.1109 428.031 68.4171C444.188 68.8271 460.321 69.2717 476.477 69.6818C488.536 69.9853 500.63 70.2436 512.7 70.5471C528.856 70.9518 544.989 71.3991 561.158 71.7932C570.894 72.0302 580.678 72.3736 590.439 72.379C674.933 72.4233 759.393 72.4322 843.816 72.4056C851.551 72.4056 851.551 72.4056 851.539 74.1629V84.3872Z" fill="#192E2C" fill-opacity="0.22"/>
<path d="M2.72266 41.1979V33.7418C8.30106 33.6163 13.8913 33.4472 19.5052 33.3735C36.3944 33.1553 53.3073 33.0025 70.1965 32.7733C85.4986 32.566 100.777 32.2113 116.079 32.0831C122.451 32.0313 128.894 32.3968 135.302 32.5769C150.829 33.0107 166.356 33.4526 181.883 33.881C197.837 34.3229 213.79 34.7676 229.755 35.1823C245.33 35.5861 260.94 35.938 276.526 36.339C292.669 36.7564 308.777 37.2175 324.92 37.6404C336.764 37.9486 348.69 38.2133 360.558 38.5188C376.914 38.939 393.258 39.3891 409.615 39.812C421.458 40.1202 433.409 40.3931 445.3 40.7013C461.632 41.1269 477.929 41.6344 494.285 41.989C511.305 42.3573 528.372 42.8075 545.427 42.8375C642.545 43.0039 739.593 43.053 836.676 43.1567C841.497 43.1567 846.329 43.3013 851.493 43.3804C851.493 45.5629 851.682 47.5599 851.303 49.5487C851.232 49.8788 848.804 50.2662 847.099 50.4654C845.843 50.6127 844.008 50.4954 842.432 50.4954C743.963 50.4026 645.495 50.3426 547.038 50.1817C534.554 50.1626 522.071 49.636 509.611 49.3196C497.353 49.0058 485.107 48.6457 472.896 48.3183C456.314 47.8746 439.761 47.4381 423.235 47.0088C407.672 46.6105 392.074 46.2531 376.511 45.8521C360.356 45.4401 344.237 44.9873 328.094 44.5671C316.25 44.2588 304.312 43.9833 292.433 43.675C276.076 43.2522 259.732 42.8075 243.376 42.3819C231.686 42.0791 219.996 41.809 208.318 41.4925C189.463 40.9823 170.667 40.3603 151.776 39.9484C141.484 39.7247 131.05 39.7792 120.686 39.8092C112.396 39.8338 104.188 40.022 95.9329 40.1202C79.4228 40.3139 62.9126 40.4858 46.4142 40.6932C32.6755 40.865 18.9367 41.0778 5.198 41.2661C4.36544 41.2612 3.5367 41.2384 2.72266 41.1979Z" fill="#192E2C" fill-opacity="0.22"/>
<path d="M2.77298 25.5823C2.77298 23.3444 2.5717 21.5389 2.97426 19.7416C3.0453 19.4316 5.80404 18.8932 7.24853 18.9014C36.3988 19.0999 65.5254 19.4153 94.6757 19.5839C106.658 19.6519 118.687 19.4561 130.693 19.3283C142.877 19.2005 155.037 18.9639 167.232 18.8497C182.979 18.7029 198.738 18.6567 214.497 18.5207C244.8 18.2651 275.103 17.9932 305.406 17.705C323.888 17.5337 342.394 17.1448 360.876 17.2155C390.477 17.3297 420.077 17.7104 449.677 18.0313C466.952 18.227 484.191 18.5343 501.442 18.8144C528.106 19.2467 554.722 19.7198 581.41 20.1359C596.317 20.367 611.259 20.4866 626.166 20.715C647.146 21.0386 668.091 21.4247 689.06 21.7646C701.776 21.9713 714.516 22.0936 727.209 22.3438C742.045 22.6348 756.809 23.0318 771.668 23.3689C784.692 23.6653 797.823 23.9427 810.906 24.2309C823.196 24.5028 835.51 24.7557 847.777 25.082C849.114 25.12 851.258 25.5823 851.329 25.8651C851.672 27.5292 851.494 29.196 851.494 31.0532C843.621 30.9254 836.268 30.8411 828.998 30.678C819.088 30.4577 809.225 30.164 799.327 29.9275C784.183 29.5631 769.052 29.1933 753.885 28.8697C743.173 28.6413 732.446 28.451 721.703 28.2987C700.166 27.9996 678.605 27.7549 657.068 27.4558C639.663 27.2138 622.282 26.912 604.877 26.6591C580.037 26.2856 555.196 25.9177 530.355 25.5551C512.962 25.2832 495.558 25.0385 478.176 24.7394C457.87 24.3995 437.6 23.8556 417.271 23.717C396.716 23.5756 376.127 23.8203 355.548 23.8964C354.767 23.8964 353.974 23.9155 353.18 23.9209C337.042 24.0161 320.904 24.0868 304.778 24.2119C284.543 24.3696 264.321 24.5653 244.098 24.7557C225.45 24.9297 206.813 25.12 188.165 25.2995C168.132 25.4871 148.11 25.7699 128.065 25.8189C108.469 25.8651 88.8504 25.6666 69.2432 25.5796C67.2659 25.5796 65.2887 25.5796 63.3232 25.5796L2.77298 25.5823Z" fill="#192E2C" fill-opacity="0.22"/>
<path d="M2.72266 58.4149V52.7883C16.1196 52.5747 29.2204 52.342 42.345 52.164C71.2355 51.7752 100.126 51.4192 129.017 51.0304C140.4 50.8771 151.795 50.4828 163.143 50.5458C175.651 50.6197 188.112 51.0934 200.585 51.4083C216.375 51.819 232.153 52.2653 247.966 52.6869C264.55 53.1332 281.133 53.5795 297.716 54.0039C313.317 54.4037 328.929 54.7624 344.529 55.1621C360.709 55.5783 376.878 56.0328 393.094 56.4572C408.303 56.8542 423.536 57.2238 438.758 57.6181C455.341 58.0507 471.924 58.5052 488.448 58.9351C503.658 59.3294 518.843 59.7866 534.088 60.0714C637.035 61.988 740.195 61.0516 843.249 61.4404C851.54 61.4705 851.54 61.4404 851.54 63.3899C851.54 67.0013 851.54 66.9493 835.857 66.9493C762.843 66.9109 689.829 67.0068 616.827 66.8206C592.935 66.7576 569.055 66.032 545.211 65.5255C526.448 65.1285 507.732 64.6192 489.017 64.1319C469.721 63.6281 450.461 63.0777 431.177 62.5712C415.778 62.166 400.379 61.8018 384.98 61.4048C368.598 60.9831 352.24 60.5314 335.846 60.1097C320.246 59.7072 304.634 59.3403 289.034 58.9378C273.043 58.5271 257.052 58.0151 241.084 57.692C216.055 57.1882 191.334 55.8932 165.974 56.2245C143.776 56.5174 121.601 56.909 99.4153 57.243C85.5445 57.4566 71.8041 57.6674 58.0399 57.8235C40.734 58.037 23.4163 58.2205 6.11039 58.4149C5.16277 58.4258 4.19147 58.4149 2.72266 58.4149Z" fill="#192E2C" fill-opacity="0.22"/>
<path d="M3.17412 48.7984V46.1502L153.523 44.1016V43.9741C145.307 43.9741 137.08 43.909 128.887 43.9904C119.855 44.0799 110.845 44.3431 101.813 44.4598C78.4316 44.7664 55.0387 45.0214 31.6458 45.3226C23.6074 45.4257 15.5691 45.5804 7.54254 45.7567C4.36981 45.8273 2.54668 45.6835 2.7361 44.8559C2.86632 44.2726 2.7361 43.6892 2.7361 43.0353C9.08155 42.9105 15.0955 42.7639 21.1213 42.6798C44.7037 42.3759 68.2899 42.0865 91.8802 41.8116C109.638 41.6081 127.301 41.2228 144.952 41.3286C160.342 41.4209 175.732 42.0802 191.123 42.498C205.921 42.8996 220.719 43.312 235.505 43.7136C252.268 44.1532 269.044 44.5683 285.819 44.9835C298.309 45.2928 310.81 45.575 323.3 45.8897C339.684 46.3021 356.057 46.7417 372.441 47.1623C387.831 47.5557 403.221 47.9328 418.671 48.329C435.032 48.7496 451.392 49.2 467.765 49.6178C483.368 50.014 498.96 50.4942 514.61 50.7547C621.713 52.5428 729.018 51.5416 836.227 51.9133C841.093 51.9323 845.959 51.9133 850.363 51.9133C850.722 52.0747 851.011 52.2437 851.227 52.418C852.032 54.7514 852.02 54.7623 841.874 54.7487C775.792 54.6637 709.705 54.5733 643.615 54.4774C615.202 54.4313 586.79 54.3336 558.377 54.2251C551.357 54.1979 544.337 54.0297 537.316 53.9293L537.222 54.301C549.984 54.4611 562.734 54.7406 575.508 54.7596C660.532 54.8862 745.556 54.983 830.58 55.0499C837.234 55.0499 843.899 55.0499 850.481 55.0499C850.774 55.226 851 55.4075 851.156 55.5926C851.499 57.7334 851.487 57.728 842.052 57.7198C760.761 57.633 679.469 57.548 598.178 57.4648C568.393 57.4349 538.832 56.8027 509.306 55.9426C486.494 55.2778 463.562 54.8057 440.702 54.2196C417.842 53.6335 395.017 52.9986 372.157 52.4098C353.014 51.916 333.86 51.4629 314.705 50.9772C295.171 50.4779 275.638 49.957 256.092 49.4523C237.151 48.9639 218.209 48.4918 199.267 48.0007C189.311 47.7429 179.391 47.3006 169.411 47.222C153.31 47.0944 137.151 47.1026 121.05 47.222C105.66 47.3441 90.4004 47.7076 75.0695 47.9301C54.0324 48.234 32.9835 48.5081 11.9346 48.7848C9.36567 48.8282 6.60729 48.7984 3.17412 48.7984Z" fill="#192E2C" fill-opacity="0.22"/>
<path d="M851.54 20.9279V24.3875C844.786 24.2763 838.374 24.1936 831.975 24.0617C808.109 23.5601 784.278 22.9912 760.387 22.5413C730.015 21.9699 699.607 21.4631 669.14 20.9744C645.178 20.5892 621.193 20.2763 597.231 19.9401L507.027 18.6473C482.662 18.2982 458.31 17.8975 433.922 17.613C407.175 17.3053 380.394 16.8735 353.647 16.9278C321.331 16.9925 289.039 17.5148 256.735 17.8354C245.904 17.9406 235.069 18.0362 224.23 18.1224C198.799 18.3138 173.356 18.4792 147.937 18.6809C129.806 18.8257 111.675 19.1644 93.5557 19.136C64.5578 19.0895 35.56 18.8102 6.57402 18.6189C5.38899 18.6189 4.2632 18.5749 2.72266 18.5439V15.2213C20.0597 15.2213 37.1598 15.2213 54.2599 15.2213C75.1639 15.2213 96.0679 15.2213 116.972 15.167C127.803 15.1385 138.634 14.9575 149.478 14.8722C175.11 14.6757 200.742 14.5128 226.363 14.3008C265.978 13.9698 305.63 13.7655 345.174 13.2044C368.78 12.8709 391.995 13.463 415.364 13.7604C428.731 13.9327 442.098 14.1155 455.466 14.3085C478.254 14.6395 501.042 14.9886 523.83 15.3144C537.399 15.5109 550.968 15.666 564.524 15.8599C587.123 16.1883 609.71 16.54 632.309 16.8684C645.664 17.0623 659.055 17.1941 672.41 17.4165C696.111 17.8113 719.812 18.2345 743.512 18.6861C761.541 19.0205 779.553 19.3765 797.55 19.754C815.432 20.1211 833.196 20.5271 851.54 20.9279Z" fill="#58AFAA" fill-opacity="0.22"/>
<path d="M2.72266 60.179C17.2249 59.9616 31.3361 59.7414 45.5539 59.5508C77.2281 59.1105 108.906 58.6755 140.588 58.246C154.948 58.05 169.32 57.6929 183.68 57.7224C194.818 57.7439 205.931 58.2594 217.057 58.5279L276.298 60.0529L334.935 61.5564L391.806 63.0008L451.616 64.5285C470.573 65.01 489.53 65.4861 508.487 65.9568C530.774 66.5206 553.036 67.1731 575.37 67.6295C590.856 67.949 606.436 68.1342 621.981 68.1664C696.404 68.281 770.822 68.3463 845.237 68.3624C850.995 68.3624 851.493 68.9209 851.54 69.9733C851.54 71.0661 850.711 71.5574 845.107 71.5547C767.134 71.5144 689.149 71.6567 611.187 71.458C584.6 71.3882 558.036 70.5425 531.496 69.9653C508.985 69.4766 486.473 68.8913 464.021 68.298C441.568 67.7046 418.773 67.0683 396.048 66.4911C373.169 65.9058 350.266 65.3823 327.399 64.8023C304.331 64.217 281.274 63.5968 258.229 62.9847C237.708 62.4477 217.258 61.6423 196.678 61.398C178.088 61.1778 159.344 61.4946 140.695 61.6665C125.731 61.8114 110.814 62.1309 95.8614 62.3403C69.1082 62.718 42.347 63.0814 15.578 63.4304C11.4666 63.4841 7.28422 63.4304 2.72266 63.4304V60.179Z" fill="#192E2C" fill-opacity="0.22"/>
<path d="M851.54 85.0134V92.0798C843.029 91.8339 834.945 91.6177 826.813 91.3583C808.368 90.7656 789.935 90.1621 771.514 89.5478C750.746 88.8587 730.025 88.1291 709.245 87.4671C695.826 87.0374 682.348 86.7023 668.941 86.3159C651.018 85.8025 633.106 85.2701 615.171 84.7648C597.829 84.2757 580.463 83.8271 563.121 83.3353C545.6 82.8354 528.104 82.2976 510.584 81.795C493.656 81.3086 476.729 80.8141 459.765 80.3817C441.036 79.9061 422.271 79.4521 403.495 79.0738C390.159 78.8036 376.764 78.6901 363.392 78.4766C342.387 78.1415 321.382 77.7767 300.365 77.4389C287.788 77.2363 275.199 77.0741 262.633 76.8634C236.721 76.4283 210.796 76.0121 184.907 75.5122C164.542 75.1177 144.165 74.7015 123.894 74.1287C85.9614 73.0478 47.7916 73.7612 9.76393 73.5477C7.47611 73.5477 5.17643 73.5477 2.72266 73.2315C4.02403 73.1773 5.33807 73.1403 6.65818 73.1207C87.2654 73.1207 167.873 73.064 248.48 73.1694C261.721 73.1883 274.926 73.9368 288.179 74.2854C296.18 74.4935 304.253 74.6097 312.302 74.7205C341.024 75.1096 369.746 75.4636 398.468 75.8581C423.243 76.1959 448.006 76.5796 472.781 76.9201C509.647 77.4308 546.347 78.1496 582.715 79.798C613.322 81.1843 644.249 82.1706 675.627 82.3679C700.414 82.5219 725.165 83.0488 749.928 83.4137C774.3 83.774 798.671 84.1343 823.043 84.4946C832.337 84.6405 841.737 84.835 851.54 85.0134Z" fill="#192E2C" fill-opacity="0.22"/>
<path d="M2.72266 52.1411V49.5045C6.46507 49.4293 10.2785 49.3271 14.1157 49.2788C36.7123 48.9912 59.3326 48.7547 81.9292 48.4295C102.536 48.1311 123.119 47.5237 143.738 47.4673C160.129 47.4243 176.567 47.9591 192.958 48.322C208.769 48.6714 224.544 49.1283 240.33 49.5368C256.698 49.9641 273.077 50.4022 289.456 50.8161C305.053 51.2112 320.674 51.566 336.259 51.9637C352.449 52.3723 368.603 52.8238 384.816 53.235C400.425 53.6301 416.046 53.9876 431.655 54.3826C447.644 54.7858 463.632 55.2266 479.608 55.6324C495.205 56.0302 510.803 56.4091 526.4 56.7935C538.891 57.0999 551.385 57.4018 563.883 57.6992C567.395 57.7932 570.924 57.847 574.459 57.8605C664.633 57.9572 754.802 58.0423 844.967 58.1158C849.705 58.1158 851.54 58.3846 851.54 59.5349C851.54 60.7336 848.97 60.8008 844.896 60.7981C754.332 60.6906 663.768 60.6342 573.204 60.4729C561.302 60.4514 549.411 59.9165 537.509 59.6128C525.05 59.293 512.638 58.9597 500.12 58.6372C483.943 58.2153 467.765 57.7852 451.564 57.3767C435.955 56.9789 420.333 56.6107 404.724 56.2129C388.547 55.8044 372.369 55.369 356.168 54.9551C340.772 54.5627 325.376 54.1918 309.98 53.7994C293.601 53.3828 277.234 52.9474 260.855 52.5282C245.636 52.1411 230.394 51.781 215.188 51.3805C201.355 51.015 187.57 50.5258 173.737 50.2544C163.941 50.0681 154.102 50.0268 144.283 50.1308C132.12 50.2544 120.005 50.6387 107.854 50.8188C76.2327 51.2865 44.5998 51.7084 12.9669 52.1331C9.62717 52.1788 6.31111 52.1411 2.72266 52.1411Z" fill="#58AFAA" fill-opacity="0.22"/>
<path d="M70.6279 31.0839C61.3169 31.2582 52.0059 31.4546 42.6831 31.5984C30.3864 31.7865 18.0897 31.9801 5.78125 32.0769C-0.96894 32.1322 3.84588 30.8212 0.458984 30.0273L70.4273 30.9484L70.6279 31.0839Z" fill="#192E2C" fill-opacity="0.22"/>
</svg>
