<svg width="1166" height="324" viewBox="0 0 1166 324" fill="none" xmlns="http://www.w3.org/2000/svg">
<path d="M1164.99 31.5109C1153.04 32.392 1142.05 33.0843 1131.12 34.0126C1111.27 35.8273 1091.43 37.7573 1071.61 39.8027C1065.12 40.4792 1060.63 39.1261 1058.76 32.4706C1058.24 30.5983 1056.65 28.9935 1055.19 26.7121L1044.79 42.3515L1042.52 41.4862C1038.12 28.5058 1033.73 15.541 1028.64 0.578125C1023.09 16.4536 1018.17 30.4725 1013.24 44.633H1011.29C1008.71 34.2591 1006.13 23.8799 1003.56 13.4956L1001.81 13.2596C999.923 21.3311 997.454 29.3239 996.317 37.4897C995.244 45.2308 991.167 47.3235 983.661 47.8899C955.735 50.0297 927.875 52.8775 899.965 55.3635C880.113 57.1257 860.147 58.0539 840.377 60.5242C810.323 64.2688 780.339 68.6009 750.426 73.5204C720.599 78.4451 691.049 84.9746 661.19 89.742C646.081 92.1493 630.535 91.8661 615.248 93.408C596.533 95.2961 577.883 97.9866 559.217 100.016C543.703 101.7 528.123 103.006 512.56 104.359C482.235 106.971 451.911 109.53 421.586 112.037C399.833 113.799 377.999 114.9 356.279 117.119C320.962 120.706 285.693 124.876 250.44 128.998C240.076 130.21 229.809 132.145 219.07 133.813C217.056 125.537 215.106 117.559 213.157 109.582H211.662C209.81 117.323 207.953 125.059 206.09 132.79L204.466 133.089L191.469 76.6199H189.959C186.433 91.8817 182.664 107.096 179.464 122.421C175.598 140.956 175.776 140.83 156.136 144.024C104.573 152.394 53.0259 160.922 1.07302 169.45V203.655C12.6073 202.869 24.0441 202.239 35.4484 201.295C50.7516 200.021 66.0223 198.479 81.3255 197.141C110.849 194.561 140.378 192.017 169.912 189.51C189.52 187.843 209.096 185.514 228.736 184.79C260.87 183.532 292.191 177.569 323.577 171.59C353.404 165.626 383.474 159.663 413.674 154.943C429.059 152.52 444.866 152.756 460.412 151.198C479.403 149.295 498.313 146.589 517.271 144.559C533.062 142.875 548.918 141.632 564.741 140.263C594.546 137.694 624.329 135.16 654.09 132.664C675.323 130.902 696.605 129.753 717.772 127.566C753.35 123.9 788.944 120.25 824.375 115.435C858.393 110.825 892.232 104.799 926.136 99.3082C957.046 94.2943 987.956 89.2018 1018.87 84.0306C1056.67 77.737 1094.44 71.176 1132.21 64.7094C1141.45 63.136 1150.75 61.7514 1159.83 59.6588C1161.04 59.2006 1162.11 58.464 1162.96 57.5127C1163.81 56.5614 1164.41 55.4241 1164.7 54.1991C1165.35 47.1975 1164.99 40.0858 1164.99 31.5109Z" fill="#49494A" fill-opacity="0.03"/>
<path d="M0.470635 260.88C17.6583 258.142 33.7088 255.672 49.7268 253.013C80.0732 247.994 110.403 242.77 140.701 237.845C173.192 232.559 205.683 227.335 238.271 222.426C265.044 218.383 291.881 214.921 318.686 211.019C349.162 206.551 379.59 201.783 410.066 197.315C436.839 193.381 463.676 189.763 490.449 185.845C517.221 181.927 543.945 177.695 570.717 173.84C581.618 172.267 592.6 171.26 603.566 170.253C638.396 167.106 673.226 163.959 708.056 160.812C728.704 159.019 749.401 157.665 770.049 155.84C796.545 153.465 823.009 150.617 849.505 148.225C869.893 146.384 890.33 145.267 910.685 143.237C931.041 141.208 951.218 138.517 971.46 136.031C989.037 133.839 1006.6 131.579 1024.14 129.25C1047.52 126.103 1070.91 122.957 1094.23 119.527C1117.54 116.097 1140.77 112.163 1164.91 108.308C1164.91 98.5061 1165.09 88.5937 1164.68 78.7129C1164.68 77.58 1161.25 75.4245 1159.7 75.6605C1118.07 81.7652 1076.47 88.0588 1034.88 94.5411C997.517 100.31 960.153 106.205 922.788 112.226C882.386 118.787 842.065 125.915 801.614 132.177C785.206 134.726 768.522 135.732 751.935 137.259C729.192 139.356 706.41 141.37 683.591 143.3C668.564 144.559 653.504 145.472 638.477 146.73C615.409 148.666 592.373 150.821 569.304 152.756C554.277 154.015 539.234 154.944 524.191 156.171C501.447 158.043 478.622 160.34 455.814 161.914C393.756 166.193 334.119 183.359 273.183 193.554C258.903 195.946 244.201 195.852 229.71 197.079C206.966 198.998 184.223 201.138 161.365 203.089C147.151 204.316 132.92 205.292 118.689 206.488C95.3764 208.454 72.0643 210.563 48.7358 212.545C34.781 213.725 20.8424 215 6.87134 215.802C1.99771 216.07 0.145687 217.564 0.226914 222.332C0.616804 234.636 0.470635 246.94 0.470635 260.88Z" fill="#58AFAA" fill-opacity="0.05"/>
<path d="M1164.73 300.341V258.301C1162.42 258.301 1160.38 258.222 1158.35 258.301C1136.51 259.402 1114.66 260.33 1092.84 261.715C1055.71 264.106 1018.6 266.907 981.466 269.314C960.997 270.636 940.495 271.36 920.026 272.666C890.15 274.538 860.291 276.725 830.432 278.723C813.472 279.84 796.398 280.013 779.568 282.122C754.566 285.268 729.759 289.989 704.839 293.497C674.314 297.84 643.821 302.654 613.133 305.518C578.514 308.665 543.684 309.986 508.951 312.11C475.031 314.208 441.105 316.306 407.174 318.404C391.235 319.219 375.351 320.852 359.591 323.297H367.551C430.908 323.297 494.266 323.738 557.623 323.061C581.032 322.809 604.393 319.694 627.787 318.247C642.895 317.318 658.036 316.941 673.16 316.547C698.844 315.871 724.544 315.525 750.212 314.769C801.288 313.238 852.358 311.617 903.423 309.908C933.943 308.922 964.473 307.925 995.015 306.918C1045.48 305.251 1095.99 303.614 1146.52 302.009C1152.4 301.82 1158.26 300.955 1164.73 300.341Z" fill="#49494A" fill-opacity="0.03"/>
<path d="M161.868 322.622C163.082 322.886 164.315 323.059 165.556 323.141C190.997 323.047 216.486 323.739 241.91 322.527C260.121 321.646 278.186 318.122 296.332 315.951C305.153 314.896 313.991 313.937 322.844 313.417C362.207 311.105 401.57 309.059 440.916 306.762C474.057 304.827 507.198 302.703 540.322 300.626C573.186 298.565 606.181 297.621 638.867 294.018C668.969 290.713 698.764 284.672 728.639 279.542C757.881 274.539 786.96 270.275 816.657 269.001C854.395 267.427 892.052 264.092 929.757 261.606C948.066 260.41 966.391 259.45 984.716 258.286C1017.03 256.256 1049.36 254.085 1081.67 252.103C1101.88 250.875 1122.12 249.931 1142.33 248.767C1149.57 248.358 1156.8 247.65 1164.54 247.036V216.969C1153.07 218.432 1141.55 219.832 1130.05 221.359C1112.29 223.703 1094.55 226.173 1076.79 228.565L1024.31 235.566C1006.55 237.942 988.809 240.381 971.037 242.709C953.264 245.038 935.476 247.272 917.687 249.538C902.525 251.478 887.4 253.393 872.313 255.281C851.601 257.845 830.888 260.426 810.158 262.865C790.745 265.162 771.283 267.191 751.886 269.52C731.693 271.943 711.532 274.681 691.339 277.088C671.942 279.401 652.497 281.368 633.083 283.68C613.15 286.04 593.266 288.762 573.316 291.028C564.235 292.067 555.089 292.46 545.959 292.995C517.741 294.663 489.522 296.142 461.32 297.904C428.83 299.918 396.339 302.105 363.848 304.197C340.519 305.771 317.142 306.951 293.846 308.918C269.478 311.026 245.337 314.031 221.067 316.423C201.361 318.358 181.607 319.947 161.868 321.678V322.622Z" fill="#49494A" fill-opacity="0.03"/>
<path d="M0.878032 267.376V294.533L41.8652 287.673L41.7515 286.65L2.08018 290.379C1.8365 287.406 1.65779 285.219 1.46284 282.811C5.24803 281.93 8.54585 280.97 11.9249 280.42C64.089 271.908 116.253 263.286 168.466 255.009C203.296 249.503 238.207 244.562 273.086 239.276C310.581 233.611 348.043 227.727 385.57 222.22C423.097 216.713 460.77 211.726 498.329 206.219C524.484 202.395 550.51 197.754 576.681 194.088C589.953 192.231 603.437 191.807 616.807 190.611C639.258 188.613 661.709 186.41 684.161 184.459C704.224 182.712 724.303 181.312 744.35 179.534C765.469 177.646 786.588 175.365 807.61 173.445C827.104 171.683 846.712 170.298 866.239 168.536C892.124 166.134 917.987 163.554 943.828 160.795C966.717 158.341 989.591 155.619 1012.43 152.755C1035.53 149.876 1058.55 146.556 1081.64 143.661C1100.51 141.301 1119.42 139.303 1138.32 137.068C1146.54 136.093 1154.76 135.007 1162.96 133.764C1163.82 133.638 1164.46 132.191 1166 130.492C1163.22 130.035 1161.5 129.359 1159.91 129.563C1136.84 132.537 1113.8 135.857 1090.72 138.658C1067.63 141.458 1044.42 143.928 1021.3 146.823C998.477 149.671 975.734 153.038 952.893 155.839C936.94 157.806 920.922 159.316 904.92 160.842C882.176 163.014 859.465 165.111 836.786 167.136C816.447 168.882 796.075 170.283 775.736 172.061C754.91 173.933 734.132 176.261 713.321 178.118C692.982 179.943 672.61 181.265 652.271 183.074C631.932 184.884 611.121 186.724 590.619 189.132C565.91 192.027 541.25 195.315 516.638 198.84C489.914 202.647 463.304 207.021 436.597 210.923C413.057 214.369 389.485 217.406 365.913 220.851C342.909 224.203 319.971 227.979 296.967 231.346C273.444 234.791 249.855 237.797 226.3 241.305C201.477 245.003 176.686 248.952 151.912 252.964C125.042 257.322 98.2044 261.885 71.367 266.369C50.3021 269.883 29.2425 273.392 8.18847 276.895C5.70404 277.268 3.16287 276.801 0.991762 275.574C2.6163 274 3.96467 271.341 5.86539 270.995C23.7354 267.612 41.6053 264.497 59.4753 261.555C86.6052 257.055 113.746 252.655 140.897 248.354C166.744 244.248 192.607 240.267 218.453 236.255C241.424 232.683 264.363 228.986 287.35 225.603C313.797 221.685 340.31 218.145 366.758 214.259C393.969 210.262 421.131 205.92 448.358 201.939C474.806 198.053 501.286 194.434 527.766 190.689C549.454 187.637 571.109 184.286 592.845 181.564C605.841 179.99 619.065 179.314 632.175 178.134C654.61 176.104 677.029 173.886 699.48 171.95C720.079 170.172 740.711 168.804 761.31 167.026C788.034 164.65 814.725 161.912 841.433 159.426C854.526 158.215 867.653 157.365 880.73 156.075C905.543 153.641 930.328 151.077 955.086 148.381C977.97 145.853 1000.84 143.152 1023.71 140.278C1046.79 137.383 1069.83 134.126 1092.91 131.231C1111.77 128.871 1130.68 126.826 1149.56 124.591C1154.9 124.113 1160.15 122.877 1165.12 120.925C1163.11 120.375 1161.01 119.132 1159.11 119.352C1122.01 123.742 1084.92 128.163 1047.86 132.852C1008.4 137.839 969.008 143.378 929.515 148.098C909.745 150.458 889.779 151.418 869.927 153.18C842.83 155.603 815.749 158.262 788.7 160.685C768.588 162.479 748.428 163.973 728.299 165.767C701.202 168.19 674.137 170.802 647.072 173.272C628.293 174.987 609.448 176.246 590.717 178.354C569.354 180.746 548.04 183.688 526.759 186.709C499.661 190.564 472.613 194.749 445.532 198.761C418.45 202.773 391.369 206.785 364.304 210.734C337.24 214.684 310.613 218.444 283.792 222.393C253.251 226.893 222.709 231.33 192.2 236.082C158.54 241.321 124.928 246.812 91.3163 252.319C61.2623 257.212 31.4194 262.247 0.878032 267.376Z" fill="#58AFAA" fill-opacity="0.05"/>
<path d="M1164.2 184.949C1145.55 187.467 1127.29 189.858 1108.96 192.391C1087.26 195.381 1065.57 198.559 1043.85 201.501C1022.91 204.333 1001.92 206.882 980.964 209.699C955.54 213.129 930.132 216.81 904.61 220.209C886.561 222.616 868.48 224.74 850.432 227.006C830.515 229.492 810.598 232.056 790.681 234.479C771.804 236.761 752.91 238.869 734.049 241.151C713.873 243.605 693.712 246.248 673.535 248.671C654.414 250.984 635.261 253.045 616.124 255.327C595.915 257.718 575.738 260.314 555.545 262.69C535.352 265.066 515.63 267.694 495.599 269.393C460.801 272.335 425.939 274.711 391.092 277.26C374.197 278.471 357.269 279.368 340.358 280.501C310.044 282.546 279.746 284.749 249.383 286.795C230.328 288.038 211.207 288.635 192.167 290.162C172.136 291.735 152.171 294.174 132.173 296.14C115.083 297.824 97.9436 299.13 80.9022 301.112C57.7524 303.787 34.6677 306.965 11.5667 309.908C8.90245 310.254 6.17323 310.238 3.55772 310.789C2.25809 311.072 1.16964 312.362 -3.2926e-05 313.102C0.259894 313.825 0.519805 314.549 0.795977 315.273C10.2996 314.502 19.8356 313.888 29.3229 312.944C52.8788 310.568 76.4347 308.051 99.9743 305.565C123.79 303.048 147.573 300.294 171.454 298.06C187.83 296.487 204.286 295.731 220.71 294.614C250.846 292.553 280.997 290.429 311.149 288.447C329.993 287.219 348.87 286.354 367.715 285.08C395.706 283.176 423.681 281.036 451.655 279.069C468.323 277.889 485.04 277.197 501.659 275.592C521.462 273.673 541.2 271.045 560.938 268.669C580.433 266.325 599.927 263.949 619.324 261.526C643.617 258.568 667.898 255.621 692.169 252.684C715.676 249.851 739.183 247.082 762.69 244.219C787.253 241.25 811.811 238.24 836.363 235.187C858.522 232.45 880.681 229.791 902.791 226.88C928.361 223.497 953.883 219.847 979.437 216.37C1004.19 213.018 1028.97 209.809 1053.73 206.457C1079.28 202.996 1104.82 199.409 1130.37 195.947C1139.96 194.641 1149.53 193.115 1159.16 192.439C1164.65 191.951 1166.03 190.189 1164.2 184.949Z" fill="#49494A" fill-opacity="0.03"/>
<path d="M336.248 259.621C354.979 258.441 373.743 257.356 392.474 256.081C402.107 255.42 411.708 254.224 421.342 253.642C441.503 252.399 461.728 252.069 481.824 250.149C507.41 247.758 532.883 244.218 558.421 241.244C577.915 238.978 597.329 236.964 616.758 234.589C640.671 231.678 664.536 228.421 688.449 225.526C707.863 223.166 727.325 221.231 746.738 218.87C766.151 216.51 785.971 213.678 805.611 211.302C825.252 208.927 844.47 207.086 863.867 204.71C884.856 202.13 905.813 199.298 926.77 196.45C948.214 193.539 969.641 190.455 991.085 187.481C1016.77 183.915 1042.47 180.375 1068.17 176.861C1089.37 174.013 1110.59 171.37 1131.79 168.554C1142.32 167.304 1152.77 165.476 1163.09 163.078C1142.83 165.517 1122.48 167.798 1102.32 170.394C1074.7 173.872 1047.08 177.6 1019.56 181.062C1000.96 183.391 982.345 185.499 963.728 187.67C941.65 190.251 919.605 192.925 897.512 195.254C883.898 196.686 870.219 197.441 856.573 198.668C834.398 200.651 812.239 202.822 790.048 204.82C776.662 206.016 763.259 206.913 749.873 208.108C727.974 210.091 706.108 212.278 684.209 214.26C671.099 215.456 657.957 216.227 644.879 217.565C615.816 220.538 586.72 223.37 557.739 227.005C526.97 230.812 496.266 235.265 465.595 239.765C432.031 244.674 398.517 249.992 364.987 255.027C355.483 256.459 345.931 257.529 336.411 258.756L336.248 259.621Z" fill="#49494A" fill-opacity="0.03"/>
<path d="M30.6724 284.968C43.6687 283.836 56.8112 283.096 69.7913 281.46C91.5602 278.738 113.297 275.654 134.968 272.334C159.515 268.574 183.948 264.231 208.495 260.439C228.298 257.371 248.199 254.807 268.034 251.943C294.482 248.104 320.924 244.228 347.361 240.316L407.615 231.505C426.915 228.704 446.247 225.982 465.546 223.15C489.07 219.689 512.56 216.007 536.116 212.671C559.412 209.399 582.708 206.189 606.085 203.436C619.666 201.862 633.394 201.28 647.024 200.053C674.543 197.551 702.047 194.861 729.567 192.343C742.937 191.132 756.339 190.25 769.693 189.055C792.144 187.057 814.563 184.838 837.014 182.903C857.353 181.141 877.741 179.913 898.064 177.931C920.174 175.76 942.236 173.069 964.297 170.473C986.889 167.83 1009.47 165.092 1032.04 162.26C1055.38 159.349 1078.71 156.234 1102.07 153.339C1120.94 150.994 1139.83 148.902 1158.66 146.463C1161.05 146.148 1163.22 144.433 1165.51 143.316L1164.38 140.5C1153.57 141.712 1142.75 142.813 1131.88 144.15C1113.04 146.495 1094.23 148.996 1075.4 151.419C1055.76 153.937 1036.13 156.438 1016.49 158.924C998.429 161.19 980.364 163.456 962.282 165.548C938.873 168.239 915.447 170.866 892.005 173.289C878.927 174.642 865.768 175.413 852.675 176.594C830.5 178.592 808.341 180.826 786.166 182.745C765.567 184.539 744.935 185.892 724.352 187.686C703.509 189.527 682.715 191.777 661.872 193.68C647.966 194.955 633.995 195.616 620.105 197.126C595.38 199.811 570.681 202.754 546.01 205.953C526.125 208.518 506.29 211.46 486.47 214.386C459.519 218.383 432.617 222.615 405.666 226.549C382.126 229.994 358.554 233.031 334.982 236.461C308.274 240.347 281.632 244.532 254.94 248.497C232.197 251.864 209.453 254.933 186.71 258.425C159.526 262.621 132.374 266.995 105.255 271.547C80.3184 275.67 55.4304 280.012 30.5261 284.26L30.6724 284.968Z" fill="#49494A" fill-opacity="0.03"/>
<path d="M1164.59 209.57C1153.78 210.782 1142.95 211.868 1132.1 213.252C1113.8 215.628 1095.54 218.208 1077.27 220.694C1054.75 223.841 1032.23 226.988 1009.7 229.836C987.657 232.699 965.579 235.232 943.551 238.064C921.522 240.897 899.542 244.043 877.513 246.844C862.112 248.811 846.647 250.353 831.197 252.178C810.744 254.601 790.291 257.165 769.822 259.588C754.665 261.366 739.476 262.955 724.335 264.749C703.606 267.219 682.909 269.878 662.164 272.301C642.474 274.599 622.752 276.612 603.063 278.91C582.057 281.364 561.101 284.086 540.096 286.54C529.179 287.831 518.245 289.105 507.296 289.813C486.339 291.15 465.35 291.937 444.394 293.212C411.643 295.194 378.925 297.381 346.19 299.505C322.033 301.079 297.876 302.558 273.752 304.225C245.322 306.208 216.893 307.954 188.512 310.519C153.812 313.666 119.193 317.662 84.5413 321.202C81.0942 321.375 77.6401 321.375 74.193 321.202V323.295C76.9222 323.295 79.6514 323.2 82.3157 323.295C118.218 324.727 153.796 321.124 189.292 316.718C207.162 314.5 225.032 313.351 242.983 311.778C272.663 309.166 302.328 306.475 332.024 304.084C349.163 302.715 366.383 301.944 383.555 300.811C414.145 298.781 444.719 296.626 475.293 294.596C492.48 293.448 509.684 292.74 526.839 291.308C554.89 288.979 582.924 286.399 610.942 283.567C635.213 281.128 659.434 278.39 683.64 275.527C703.297 273.182 722.873 270.287 742.514 267.927C762.154 265.567 781.957 263.726 801.663 261.398C826.112 258.518 850.513 255.324 874.946 252.351C893.823 250.069 912.749 248.118 931.61 245.664C957.067 242.344 982.442 238.584 1007.88 235.185C1029.62 232.274 1051.42 229.678 1073.16 226.799C1094.63 223.935 1116.06 220.867 1137.52 217.941C1143.63 217.123 1149.8 216.714 1155.86 215.707C1159.18 214.945 1162.44 213.951 1165.61 212.733L1164.59 209.57Z" fill="#49494A" fill-opacity="0.03"/>
<path d="M23.2482 323.942C37.3817 322.872 51.5151 321.975 65.6162 320.685C78.4176 319.505 91.154 317.853 103.939 316.515C123.937 314.423 143.919 312.299 163.934 310.426C183.201 308.633 202.468 306.949 221.751 305.517C251.496 303.299 281.258 301.316 311.02 299.224C320.149 298.594 329.279 298.091 338.409 297.65C367.651 296.077 396.99 294.504 426.281 292.726C450.438 291.294 474.627 290.13 498.719 287.911C525.378 285.441 551.923 281.854 578.533 278.88C598.775 276.63 619.033 274.695 639.258 272.366C663.48 269.581 687.653 266.466 711.843 263.587C727.276 261.746 742.709 260.094 758.159 258.284C779.164 255.83 800.153 253.281 821.158 250.826C840.653 248.561 860.017 246.421 879.447 244.124C897.252 242.026 915.051 239.818 932.846 237.5C951.398 235.093 969.934 232.481 988.47 229.963C1010.73 226.942 1032.97 223.827 1055.24 220.932C1077.51 218.037 1099.33 215.425 1121.36 212.625C1135.69 210.799 1149.98 208.864 1164.49 206.96C1165.77 200.997 1165.06 198.779 1157.28 199.896C1109.71 206.756 1062.01 212.876 1014.32 219.374C969.089 225.542 923.911 232.103 878.635 238.082C833.359 244.061 787.969 249.694 742.595 255.2C705.523 259.7 668.37 263.634 631.298 268.102C585.811 273.578 540.584 279.651 495.145 284.812C476.95 286.873 458.528 287.14 440.219 288.383C411.416 290.334 382.629 292.474 353.826 294.441C336.33 295.636 318.801 296.612 301.305 297.792C271.706 299.785 242.101 301.836 212.491 303.944C190.446 305.517 168.369 306.933 146.372 308.963C123.06 311.103 99.8128 313.966 76.5169 316.405C59.6541 318.167 42.7589 319.741 25.8799 321.424C24.8975 321.579 23.9261 321.795 22.9719 322.069C23.1019 322.683 23.1832 323.297 23.2482 323.942Z" fill="#49494A" fill-opacity="0.03"/>
<path d="M1165.19 179.773C1163.11 179.285 1160.95 178.199 1158.98 178.435C1134.11 181.834 1109.27 185.579 1084.4 188.977C1059.53 192.376 1034.51 195.365 1009.67 198.732C980.542 202.681 951.463 206.977 922.318 210.894C900.582 213.821 878.797 216.386 857.028 219.17C833.18 222.207 809.348 225.464 785.467 228.328C765.972 230.688 746.559 232.591 727.13 234.904C702.924 237.784 678.767 240.93 654.594 243.873C635.717 246.17 616.823 248.294 597.946 250.591C577.769 253.045 557.625 255.736 537.416 258.065C520.65 259.984 503.869 261.762 487.055 263.147C459.438 265.428 431.82 267.395 404.301 269.44C387.389 270.636 370.478 271.533 353.582 272.587C323.268 274.632 292.987 276.835 262.608 278.881C243.552 280.124 224.383 280.344 205.408 282.326C172.673 285.756 140.053 290.193 107.383 294.237C104.942 294.375 102.568 295.059 100.446 296.235C114.352 294.961 128.258 293.765 142.148 292.396C155.145 291.121 168.141 289.249 181.316 288.337C216.179 285.945 251.09 283.978 285.985 281.744C308.241 280.307 330.487 278.776 352.721 277.15C379.51 275.183 406.331 272.965 433.071 271.061C451.055 269.786 469.087 269.22 487.039 267.709C504.096 266.262 521.154 264.028 538.098 262.061C552.979 260.362 567.854 258.6 582.724 256.774C602.625 254.351 622.509 251.803 642.41 249.395C661.563 247.082 680.749 244.927 699.902 242.63C720.372 240.159 740.825 237.563 761.294 235.093C780.171 232.827 799.081 230.766 817.942 228.438C841.839 225.496 865.719 222.412 889.6 219.344C910.557 216.637 931.513 213.947 952.454 211.115C973.573 208.235 994.789 205.12 1015.97 202.225C1036.9 199.362 1057.87 196.687 1078.81 193.855C1100.81 190.865 1122.77 187.734 1144.75 184.729C1151.36 183.832 1157.99 183.156 1164.6 182.4L1165.19 179.773Z" fill="#49494A" fill-opacity="0.03"/>
<path d="M1164.41 152.711C1152.19 154.001 1139.94 155.118 1127.74 156.629C1108.91 158.957 1090.12 161.585 1071.29 164.024C1051.39 166.604 1031.49 169.132 1011.57 171.607C993.231 173.889 974.89 176.186 956.532 178.2C926.949 181.441 897.383 184.635 867.767 187.483C847.46 189.434 827.072 190.63 806.749 192.455C785.923 194.311 765.145 196.608 744.318 198.512C730.412 199.802 716.457 200.605 702.551 201.848C681.432 203.752 660.313 205.939 639.194 207.874C625.824 209.101 612.405 209.778 599.084 211.304C576.763 213.853 554.474 216.748 532.202 219.769C512.09 222.506 492.043 225.653 471.947 228.564C452.632 231.38 433.3 234.055 413.984 236.903C394.668 239.751 374.995 242.96 355.387 245.808C335.535 248.688 315.634 251.205 295.798 254.1C272.275 257.53 248.784 261.196 225.277 264.736C220.463 265.261 215.726 266.316 211.16 267.883C222.353 267.143 233.643 267.065 244.723 265.554C279.959 260.755 315.114 255.5 350.318 250.277C380.973 245.714 411.579 240.836 442.235 236.336C476.09 231.396 509.929 226.314 543.882 222.082C577.835 217.849 612.016 214.372 646.131 210.958C675.503 208.031 704.907 205.655 734.311 203.091L823.32 195.224C852.708 192.612 882.144 190.331 911.484 187.278C935.949 184.714 960.317 181.142 984.751 178.168C1011.85 174.88 1038.99 171.875 1066.09 168.508C1089.18 165.628 1112.23 162.403 1135.3 159.382C1144.31 158.202 1153.35 157.164 1162.36 155.999C1163.24 155.751 1164.07 155.379 1164.83 154.898L1164.41 152.711Z" fill="#58AFAA" fill-opacity="0.05"/>
<path d="M259.863 270.949C280.544 269.753 301.208 268.652 321.872 267.299C331.765 266.654 341.61 265.285 351.504 264.656C371.648 263.397 391.841 262.579 411.985 261.273C441.763 259.338 471.59 257.843 501.254 254.838C533.745 251.549 566.041 246.625 598.467 242.675C626.636 239.261 654.887 236.382 683.056 232.983C711.226 229.585 739.249 225.636 767.386 222.237C791.576 219.311 815.863 217.076 840.036 214.071C865.785 210.924 891.453 207.054 917.169 203.592C938.126 200.776 959.099 198.149 980.039 195.332C1001.76 192.406 1023.46 189.306 1045.18 186.38C1066.4 183.527 1087.61 180.736 1108.82 178.009C1125.81 175.806 1142.8 173.73 1159.76 171.417C1161.57 171.165 1163.21 169.765 1164.46 167.09C1157.72 167.735 1150.96 168.16 1144.25 169.057C1118.03 172.57 1091.82 176.168 1065.62 179.85C1040.46 183.359 1015.26 187.103 990.192 190.533C968.976 193.413 947.711 195.899 926.494 198.731C904.482 201.657 882.534 204.946 860.505 207.762C841.368 210.216 822.166 212.136 802.996 214.449C783.323 216.809 763.682 219.405 744.026 221.797C724.872 224.125 705.703 226.265 686.565 228.578C666.649 231.001 646.764 233.597 626.847 236.004C607.71 238.317 588.557 240.41 569.436 242.738C549.519 245.146 529.667 247.931 509.734 250.149C495.877 251.722 481.938 252.682 468.032 253.673C437.458 255.845 406.879 257.943 376.294 259.967C357.222 261.21 338.117 261.808 319.078 263.35C299.34 264.923 279.666 267.346 259.961 269.376C259.944 269.879 259.912 270.414 259.863 270.949Z" fill="#49494A" fill-opacity="0.03"/>
<path d="M196.23 280.233C216.066 279.021 235.918 277.904 255.753 276.583C265.111 275.953 274.435 274.663 283.793 274.081C312.011 272.334 340.229 270.934 368.448 269.141C400.094 267.158 431.805 265.506 463.386 262.69C495.877 259.795 528.368 255.688 560.859 252.085C584.821 249.426 608.799 246.893 632.728 243.982C660.865 240.568 688.954 236.65 717.091 233.236C741.004 230.341 764.982 228.075 788.896 225.117C824.993 220.649 861.042 215.834 897.123 211.177C926.039 207.448 954.989 203.876 983.873 199.943C1012.76 196.009 1041.54 191.635 1070.4 187.686C1095.32 184.288 1120.29 181.235 1145.22 177.994C1151.44 177.192 1157.67 176.295 1163.89 175.43L1163.64 173.463C1157.15 174.108 1150.5 174.517 1143.99 175.414C1122.53 178.356 1101.12 181.503 1079.67 184.492C1053.68 188.111 1027.72 191.683 1001.81 195.207C980.689 198.039 959.375 200.588 938.175 203.467C912.751 206.913 887.375 210.768 861.935 214.072C842.57 216.589 823.108 218.415 803.711 220.743C779.343 223.685 754.878 226.911 730.445 229.853C710.95 232.182 691.456 234.133 672.123 236.509C648.21 239.404 624.346 242.66 600.432 245.587C581.295 247.931 562.126 250.024 542.956 252.164C519.806 254.76 496.673 257.387 473.491 259.779C464.669 260.691 455.783 261.038 446.913 261.541C426.753 262.674 406.592 263.618 386.431 264.877C354.515 266.87 322.592 268.967 290.665 271.17C263.584 273.074 236.519 275.182 209.438 277.354C204.954 277.7 200.551 278.754 196.1 279.493L196.23 280.233Z" fill="#49494A" fill-opacity="0.03"/>
<path d="M201.947 270.227L122.718 280.155L123.059 282.656L202.239 272.193C202.126 271.532 202.044 270.887 201.947 270.227Z" fill="#49494A" fill-opacity="0.03"/>
<path d="M104.848 286.227L47.1276 293.087C47.2089 293.7 47.2739 294.314 47.3551 294.912L104.848 288.162V286.227Z" fill="#49494A" fill-opacity="0.03"/>
<path d="M1.21774 305.046L28.835 300.059C19.3151 300.877 9.34044 299.728 0.291738 302.686C0.665383 303.473 0.876585 304.26 1.21774 305.046Z" fill="#49494A" fill-opacity="0.03"/>
</svg>
