<svg width="680" height="276" viewBox="0 0 680 276" fill="none" xmlns="http://www.w3.org/2000/svg">
<path d="M1.2975 35.4416C8.23684 36.0712 14.6091 36.5536 20.9559 37.23C32.4815 38.5641 43.999 39.9931 55.5085 41.5169C59.2821 42.0214 61.865 40.8755 62.8711 35.3977C63.1508 33.8567 64.055 32.5269 64.8761 30.6427L71.0814 43.3992L72.3895 42.6711C74.7915 31.9814 77.1843 21.3048 79.9589 8.98247C83.3614 21.9706 86.3754 33.4396 89.391 45.0249L90.5207 45.0097C91.9014 36.4739 93.2758 27.9338 94.6438 19.3896L95.6579 19.1821C96.8429 25.793 98.3659 32.3346 99.1188 39.0288C99.8293 45.3747 102.216 47.0606 106.573 47.4668C122.781 49.0046 138.96 51.1242 155.163 52.9463C166.688 54.2374 178.269 54.843 189.755 56.7159C207.216 59.5545 224.642 62.8758 242.034 66.6798C259.376 70.4888 276.576 75.6173 293.935 79.2968C302.719 81.1546 311.725 80.8004 320.602 81.9464C331.47 83.3498 342.309 85.4123 353.149 86.9322C362.16 88.1927 371.204 89.1426 380.238 90.1315C397.842 92.038 415.446 93.9015 433.049 95.7219C445.675 96.9981 458.341 97.7313 470.954 99.3823C491.463 102.05 511.95 105.197 532.428 108.305C538.448 109.218 544.42 110.726 550.663 112.011C551.735 105.202 552.773 98.6386 553.811 92.0752L554.677 92.0635C555.839 98.4034 557.005 104.739 558.173 111.07L559.118 111.303L566 64.8477L566.876 64.8359C569.094 77.3362 571.454 89.7959 573.485 102.35C575.939 117.534 575.834 117.432 587.253 119.901C617.231 126.368 647.202 132.964 677.408 139.558L677.802 167.636C671.108 167.08 664.473 166.653 657.853 165.968C648.97 165.041 640.102 163.895 631.218 162.917C614.079 161.03 596.937 159.173 579.792 157.347C568.41 156.131 557.038 154.373 545.648 153.933C527.011 153.151 508.791 148.501 490.533 143.839C473.179 139.178 455.684 134.518 438.127 130.88C429.184 129.012 420.026 129.329 410.998 128.172C399.971 126.758 388.981 124.685 377.971 123.167C368.8 121.909 359.597 121.013 350.412 120.013C333.109 118.137 315.82 116.291 298.543 114.474C286.218 113.194 273.872 112.418 261.579 110.788C240.919 108.058 220.249 105.34 199.661 101.665C179.893 98.1475 160.213 93.4658 140.502 89.2238C122.531 85.3501 104.559 81.4118 86.5868 77.409C64.6064 72.5388 42.6418 67.4489 20.6783 62.4364C15.3032 61.2172 9.90212 60.1534 4.61524 58.5068C3.90924 58.1401 3.27739 57.5439 2.77433 56.7696C2.27126 55.9954 1.91214 55.0665 1.72802 54.0633C1.27087 48.321 1.39617 42.4805 1.2975 35.4416Z" fill="#49494A" fill-opacity="0.03"/>
<path d="M678.81 214.605C668.818 212.492 659.488 210.59 650.174 208.533C632.53 204.651 614.893 200.6 597.278 196.795C578.387 192.71 559.498 188.676 540.556 184.902C524.994 181.792 509.401 179.161 493.822 176.168C476.108 172.738 458.42 169.063 440.707 165.634C425.146 162.615 409.551 159.854 393.991 156.848C378.43 153.842 362.894 150.577 347.335 147.622C340.999 146.416 334.624 145.675 328.257 144.934C308.036 142.624 287.814 140.314 267.593 138.003C255.607 136.693 243.597 135.744 231.61 134.408C216.227 132.665 200.858 130.534 185.475 128.779C173.638 127.427 161.782 126.67 149.962 125.163C138.142 123.657 126.418 121.606 114.659 119.724C104.447 118.062 94.2433 116.344 84.0487 114.57C70.4648 112.17 56.8714 109.77 43.3219 107.137C29.7724 104.504 16.2642 101.457 2.22959 98.4817C2.11681 90.4355 1.8992 82.3002 2.02088 74.1862C2.00784 73.2563 3.96954 71.46 4.87606 71.6415C29.0667 76.3268 53.2501 81.1672 77.4262 86.1627C99.1464 90.6058 120.868 95.1522 142.591 99.802C166.081 104.871 189.53 110.406 213.045 115.23C222.583 117.194 232.263 117.89 241.893 119.013C255.098 120.557 268.324 122.031 281.57 123.437C290.293 124.353 299.031 124.984 307.754 125.899C321.145 127.307 334.52 128.896 347.911 130.304C356.634 131.22 365.363 131.864 374.095 132.754C387.297 134.113 400.551 135.82 413.788 136.933C449.801 139.96 484.56 153.583 519.991 161.475C528.294 163.327 536.814 163.134 545.226 164.028C558.428 165.426 571.633 167.004 584.902 168.427C593.154 169.323 601.413 170.012 609.674 170.882C623.206 172.314 636.741 173.862 650.283 175.307C658.384 176.166 666.476 177.103 674.582 177.653C677.41 177.834 678.5 179.047 678.508 182.961C678.423 193.063 678.65 203.162 678.81 214.605Z" fill="#58AFAA" fill-opacity="0.05"/>
<path d="M4.53978 256.102L4.05607 221.592C5.39295 221.574 6.57829 221.494 7.75603 221.542C20.422 222.275 33.0954 222.866 45.7553 223.832C67.3047 225.504 88.8401 227.513 110.39 229.198C122.267 230.123 134.157 230.556 146.035 231.468C163.37 232.771 180.699 234.332 198.026 235.739C207.868 236.523 217.765 236.532 227.543 238.13C242.068 240.518 256.499 244.198 270.981 246.883C288.721 250.209 306.448 253.922 324.265 256.032C344.364 258.344 364.564 259.157 384.717 260.628C404.399 262.085 424.084 263.541 443.773 264.998C453.019 265.542 462.243 266.758 471.404 268.642L466.791 268.704C430.074 269.2 393.362 270.058 356.637 269.998C343.067 269.975 329.493 267.601 315.92 266.596C307.153 265.952 298.374 265.761 289.605 265.556C274.712 265.202 259.814 265.119 244.931 264.7C215.313 263.843 185.698 262.912 156.085 261.909C138.386 261.338 120.682 260.759 102.971 260.172C73.7031 259.198 44.4172 258.25 15.1128 257.328C11.7025 257.22 8.29388 256.555 4.53978 256.102Z" fill="#49494A" fill-opacity="0.03"/>
<path d="M585.986 266.549C585.285 266.775 584.573 266.928 583.854 267.004C569.11 267.126 554.346 267.894 539.598 267.098C529.034 266.518 518.525 263.766 507.984 262.126C502.859 261.33 497.727 260.611 492.59 260.254C469.751 258.664 446.916 257.293 424.087 255.715C404.859 254.386 385.629 252.902 366.408 251.457C347.339 250.022 328.207 249.505 309.223 246.804C291.739 244.327 274.403 239.601 257.031 235.624C240.027 231.746 223.125 228.474 205.901 227.66C184.012 226.664 162.151 224.221 140.271 222.476C129.647 221.637 119.016 220.993 108.383 220.181C89.6336 218.768 70.8734 217.238 52.1248 215.864C40.3988 215.015 28.6573 214.398 16.932 213.601C12.7284 213.322 8.53069 212.797 4.04224 212.354L3.69629 187.673C10.3599 188.784 17.051 189.844 23.7341 191.006C34.0514 192.792 44.3606 194.68 54.6784 196.504L85.1777 201.841C95.4953 203.652 105.804 205.515 116.131 207.287C126.457 209.06 136.792 210.754 147.127 212.475C155.936 213.949 164.723 215.402 173.488 216.834C185.521 218.777 197.555 220.733 209.596 222.572C220.873 224.306 232.175 225.82 243.443 227.579C255.173 229.41 266.888 231.5 278.619 233.318C289.886 235.064 301.178 236.526 312.455 238.273C324.034 240.054 335.589 242.133 347.177 243.837C352.451 244.618 357.756 244.869 363.054 245.237C379.426 246.385 395.796 247.378 412.16 248.604C431.013 250.002 449.867 251.543 468.721 253.007C482.258 254.116 495.82 254.901 509.343 256.333C523.489 257.873 537.514 260.151 551.607 261.924C563.049 263.358 574.516 264.508 585.975 265.774L585.986 266.549Z" fill="#49494A" fill-opacity="0.03"/>
<path d="M678.648 219.948L678.96 242.24L655.128 236.93L655.182 236.089L678.216 238.84C678.323 236.397 678.401 234.6 678.487 232.623C676.283 231.929 674.361 231.167 672.396 230.742C642.068 224.162 611.738 217.493 581.384 211.108C561.135 206.86 540.847 203.078 520.572 199.011C498.778 194.655 477 190.117 455.189 185.891C433.378 181.664 411.488 177.864 389.658 173.638C374.456 170.704 359.32 167.098 344.111 164.293C336.398 162.873 328.579 162.63 320.817 161.753C307.783 160.288 294.747 158.656 281.713 157.23C270.066 155.953 258.413 154.961 246.775 153.658C234.514 152.273 222.249 150.566 210.044 149.155C198.726 147.861 187.347 146.878 176.01 145.584C160.982 143.815 145.964 141.899 130.957 139.836C117.663 138.001 104.376 135.945 91.106 133.773C77.6852 131.591 64.3065 129.046 50.8949 126.85C39.9279 125.06 28.9462 123.568 17.9713 121.882C13.1962 121.145 8.41992 120.318 3.65121 119.362C3.15079 119.266 2.76697 118.082 1.85303 116.7C3.45769 116.303 4.44786 115.734 5.37285 115.89C18.7759 118.15 32.1641 120.695 45.5746 122.814C58.985 124.932 72.467 126.778 85.8974 128.974C99.1577 131.133 112.377 133.719 125.646 135.839C134.914 137.329 144.214 138.443 153.505 139.571C166.711 141.175 179.897 142.72 193.063 144.204C204.87 145.478 216.692 146.468 228.5 147.769C240.591 149.143 252.659 150.892 264.741 152.253C276.549 153.592 288.37 154.518 300.178 155.844C311.986 157.17 324.067 158.518 335.976 160.334C350.329 162.517 364.659 165.023 378.963 167.724C394.493 170.64 409.965 174.023 425.488 177.017C439.169 179.661 452.865 181.969 466.565 184.613C479.935 187.184 493.272 190.105 506.642 192.688C520.314 195.333 534.018 197.615 547.71 200.311C562.138 203.152 576.55 206.2 590.954 209.299C606.576 212.667 622.181 216.202 637.786 219.673C650.034 222.393 662.279 225.108 674.521 227.819C675.965 228.106 677.432 227.703 678.676 226.678C677.717 225.399 676.905 223.227 675.799 222.958C665.404 220.321 655.012 217.903 644.622 215.628C628.848 212.146 613.069 208.747 597.284 205.429C582.258 202.26 567.224 199.195 552.199 196.104C538.846 193.352 525.51 190.496 512.149 187.899C496.777 184.89 481.371 182.192 466 179.208C450.184 176.141 434.393 172.789 418.568 169.734C403.196 166.751 387.809 163.987 372.42 161.121C359.816 158.785 347.228 156.203 334.6 154.139C327.05 152.949 319.378 152.497 311.767 151.631C298.742 150.14 285.724 148.495 272.691 147.082C260.733 145.784 248.76 144.821 236.802 143.523C221.288 141.782 205.788 139.743 190.282 137.912C182.679 137.02 175.063 136.425 167.469 135.468C153.062 133.665 138.668 131.753 124.29 129.734C110.998 127.838 97.7114 125.8 84.4287 123.62C71.0172 121.424 57.6297 118.931 44.2182 116.735C33.2606 114.945 22.2784 113.414 11.3128 111.728C8.20986 111.376 5.15693 110.403 2.2514 108.84C3.41248 108.372 4.61268 107.336 5.71673 107.502C27.2703 110.815 48.8149 114.154 70.3437 117.713C93.2693 121.498 116.164 125.736 139.105 129.302C150.59 131.084 162.171 131.716 173.696 133.007C189.428 134.784 205.153 136.755 220.856 138.532C232.532 139.847 244.233 140.917 255.918 142.232C271.65 144.009 287.365 145.941 303.078 147.757C313.981 149.018 324.917 149.903 335.796 151.488C348.204 153.284 360.59 155.532 372.958 157.845C388.706 160.798 404.429 164.021 420.17 167.103C435.91 170.184 451.65 173.266 467.381 176.296C483.111 179.326 498.585 182.205 514.174 185.237C531.925 188.691 549.676 192.095 567.411 195.756C586.979 199.794 606.521 204.038 626.063 208.296C643.537 212.077 660.889 215.977 678.648 219.948Z" fill="#58AFAA" fill-opacity="0.05"/>
<path d="M3.52505 161.388C14.3621 163.308 24.9717 165.128 35.6206 167.064C48.233 169.348 60.8381 171.787 73.4594 174.032C85.6275 176.193 97.8206 178.121 109.998 180.269C124.771 182.885 139.538 185.709 154.368 188.298C164.855 190.133 175.358 191.735 185.844 193.454C197.415 195.338 208.987 197.288 220.557 199.121C231.523 200.846 242.497 202.428 253.453 204.153C265.175 206.01 276.889 208.022 288.61 209.853C299.717 211.602 310.841 213.144 321.958 214.867C333.697 216.672 345.42 218.645 357.15 220.437C368.879 222.229 380.339 224.231 391.967 225.47C412.167 227.612 432.398 229.289 452.622 231.109C462.427 231.971 472.248 232.575 482.061 233.372C499.653 234.814 517.236 236.385 534.856 237.826C545.914 238.697 557.002 239.038 568.053 240.142C579.68 241.277 591.278 243.122 602.89 244.58C612.814 245.828 622.762 246.766 632.66 248.26C646.107 250.274 659.522 252.703 672.943 254.937C674.491 255.2 676.073 255.166 677.595 255.597C678.351 255.82 678.997 256.87 679.683 257.468C679.541 258.064 679.399 258.66 679.247 259.257C673.731 258.698 668.197 258.269 662.688 257.568C649.009 255.803 635.329 253.921 621.659 252.064C607.828 250.184 594.013 248.11 580.148 246.463C570.64 245.3 561.094 244.809 551.563 244.021C534.075 242.565 516.577 241.057 499.08 239.666C488.145 238.806 477.195 238.243 466.26 237.345C450.016 236.001 433.78 234.464 417.545 233.068C407.872 232.23 398.176 231.793 388.527 230.606C377.028 229.185 365.559 227.183 354.093 225.387C342.768 223.615 331.443 221.818 320.174 219.981C306.062 217.743 291.956 215.513 277.857 213.292C264.202 211.152 250.547 209.063 236.891 206.896C222.622 204.652 208.355 202.373 194.091 200.06C181.218 197.986 168.346 195.977 155.499 193.76C140.641 191.184 125.809 188.387 110.96 185.733C96.5731 183.176 82.1788 180.735 67.7923 178.178C52.9432 175.537 38.1021 172.792 23.2529 170.151C17.6833 169.154 12.1205 167.976 6.52977 167.496C3.342 167.138 2.52148 165.703 3.52505 161.388Z" fill="#49494A" fill-opacity="0.03"/>
<path d="M484.204 216.2C473.335 215.378 462.448 214.634 451.579 213.734C445.988 213.267 440.41 212.361 434.821 211.958C423.123 211.096 411.398 210.983 399.73 209.564C384.874 207.802 370.071 205.095 355.237 202.854C343.913 201.147 332.64 199.646 321.352 197.848C307.46 195.646 293.593 193.159 279.701 190.97C268.423 189.184 257.122 187.748 245.845 185.963C234.567 184.178 223.049 182.008 211.639 180.212C200.229 178.415 189.07 177.054 177.802 175.256C165.609 173.302 153.431 171.142 141.253 168.968C128.792 166.747 116.339 164.383 103.877 162.11C88.9486 159.383 74.017 156.679 59.0826 153.995C46.7637 151.824 34.4377 149.82 22.1191 147.674C16.0003 146.731 9.9221 145.312 3.91406 143.425C15.6822 145.268 27.5051 146.981 39.2185 148.955C55.2635 151.593 71.3113 154.437 87.2996 157.063C98.1062 158.829 108.92 160.414 119.734 162.051C132.558 163.996 145.365 166.019 158.195 167.757C166.101 168.826 174.037 169.339 181.96 170.239C194.833 171.693 207.7 173.302 220.583 174.769C228.355 175.645 236.132 176.277 243.904 177.153C256.618 178.609 269.315 180.233 282.029 181.689C289.64 182.568 297.265 183.098 304.86 184.093C321.737 186.307 338.631 188.404 355.469 191.16C373.344 194.045 391.189 197.46 409.015 200.913C428.523 204.68 448.006 208.783 467.496 212.653C473.02 213.754 478.568 214.558 484.099 215.491L484.204 216.2Z" fill="#49494A" fill-opacity="0.03"/>
<path d="M661.585 234.615C654.04 233.787 646.415 233.282 638.874 232.041C626.227 229.977 613.595 227.616 600.997 225.06C586.728 222.166 572.519 218.792 558.249 215.872C546.738 213.508 535.175 211.559 523.647 209.364C508.276 206.42 492.907 203.445 477.541 200.44L442.521 193.68C431.304 191.532 420.069 189.449 408.852 187.275C395.18 184.618 381.524 181.78 367.834 179.226C354.296 176.722 340.758 174.27 327.179 172.193C319.29 171.007 311.328 170.637 303.415 169.736C287.438 167.898 271.468 165.905 255.49 164.054C247.728 163.164 239.951 162.546 232.198 161.669C219.164 160.204 206.146 158.559 193.113 157.146C181.306 155.859 169.476 155.011 157.675 153.543C144.837 151.934 132.021 149.898 119.206 147.939C106.083 145.947 92.965 143.876 79.8523 141.728C66.2899 139.522 52.7346 137.147 39.163 134.953C28.2056 133.177 17.2322 131.607 6.29258 129.752C4.905 129.513 3.6237 128.122 2.28338 127.223L2.91 124.902C9.1847 125.812 15.4675 126.632 21.7814 127.644C32.7293 129.421 43.6603 131.327 54.5998 133.169C66.008 135.082 77.416 136.981 88.8238 138.868C99.319 140.587 109.814 142.305 120.317 143.881C133.914 145.906 147.52 147.88 161.134 149.685C168.728 150.694 176.363 151.223 183.965 152.09C196.839 153.556 209.706 155.217 222.579 156.619C234.538 157.93 246.51 158.879 258.459 160.19C270.559 161.538 282.636 163.222 294.737 164.622C302.81 165.559 310.914 165.992 318.981 167.123C333.341 169.134 347.689 171.356 362.023 173.789C373.576 175.738 385.105 177.998 396.625 180.245C412.29 183.315 427.929 186.578 443.594 189.596C457.275 192.24 470.971 194.548 484.671 197.179C500.193 200.16 515.682 203.387 531.196 206.433C544.415 209.019 557.631 211.359 570.851 214.048C586.654 217.28 602.439 220.657 618.208 224.182C632.706 227.37 647.18 230.74 661.661 234.032L661.585 234.615Z" fill="#49494A" fill-opacity="0.03"/>
<path d="M3.58336 181.601C9.85806 182.511 16.1501 183.318 22.4551 184.369C33.0833 186.176 43.6951 188.151 54.3152 190.049C67.4002 192.456 80.4851 194.862 93.576 197.024C106.385 199.202 119.208 201.108 132.007 203.261C144.806 205.413 157.58 207.824 170.379 209.95C179.327 211.444 188.307 212.589 197.282 213.966C209.162 215.795 221.045 217.74 232.935 219.569C241.74 220.909 250.561 222.095 259.356 223.449C271.397 225.314 283.422 227.335 295.473 229.161C306.91 230.893 318.362 232.391 329.799 234.123C342.001 235.973 354.177 238.044 366.378 239.894C372.72 240.868 379.071 241.828 385.424 242.323C397.585 243.257 409.757 243.739 421.917 244.621C440.92 245.992 459.906 247.531 478.901 249.018C492.919 250.12 506.936 251.145 520.936 252.325C537.434 253.73 553.93 254.941 570.407 256.824C590.553 259.136 610.661 262.145 630.784 264.78C632.783 264.895 634.785 264.868 636.781 264.699L636.805 266.416C635.223 266.438 633.64 266.382 632.097 266.48C611.307 267.936 590.648 265.257 570.026 261.919C559.644 260.238 549.275 259.435 538.854 258.284C521.623 256.372 504.401 254.396 487.163 252.665C477.215 251.676 467.227 251.178 457.262 250.383C439.511 248.956 421.768 247.426 404.026 245.999C394.052 245.191 384.074 244.744 374.116 243.703C357.833 242.012 341.557 240.113 325.287 238.008C311.193 236.196 297.124 234.138 283.064 231.977C271.645 230.207 260.267 227.983 248.857 226.2C237.448 224.416 225.95 223.06 214.503 221.303C200.301 219.131 186.124 216.7 171.93 214.451C160.964 212.726 149.973 211.272 139.014 209.405C124.223 206.879 109.474 203.991 94.692 201.401C82.0617 199.182 69.3973 197.221 56.7674 195.028C44.2882 192.845 31.835 190.495 19.3645 188.26C15.8152 187.637 12.2329 187.349 8.70964 186.57C6.77744 185.971 4.87813 185.18 3.02662 184.205L3.58336 181.601Z" fill="#49494A" fill-opacity="0.03"/>
<path d="M666.335 266.548C658.132 265.78 649.931 265.155 641.744 264.206C634.311 263.338 626.911 262.081 619.487 261.083C607.873 259.522 596.269 257.935 584.648 256.555C573.462 255.233 562.276 254.002 551.085 252.978C533.821 251.39 516.551 249.996 499.279 248.511C493.981 248.066 488.684 247.724 483.388 247.434C466.423 246.371 449.402 245.309 432.407 244.079C418.391 243.093 404.359 242.327 390.371 240.694C374.894 238.875 359.469 236.138 344.013 233.906C332.257 232.217 320.494 230.787 308.746 229.034C294.677 226.938 280.632 224.57 266.581 222.396C257.615 221.005 248.652 219.77 239.678 218.406C227.477 216.556 215.284 214.628 203.082 212.777C191.759 211.07 180.512 209.465 169.225 207.732C158.883 206.149 148.542 204.476 138.203 202.712C127.424 200.882 116.652 198.883 105.881 196.961C92.9477 194.656 80.0232 192.273 67.0824 190.071C54.1416 187.869 41.4676 185.896 28.6691 183.769C20.3443 182.383 12.0372 180.907 3.60794 179.457C2.79557 174.572 3.18429 172.746 7.70678 173.602C35.3519 178.861 63.0638 183.511 90.78 188.472C117.061 193.181 143.319 198.213 169.627 202.766C195.934 207.319 222.304 211.587 248.662 215.753C270.198 219.156 291.775 222.094 313.31 225.472C339.735 229.61 366.015 234.241 392.407 238.122C402.975 239.671 413.655 239.747 424.279 240.624C440.994 242 457.701 243.531 474.416 244.92C484.569 245.764 494.739 246.428 504.892 247.259C522.069 248.664 539.249 250.115 556.433 251.614C569.227 252.733 582.038 253.722 594.809 255.216C608.343 256.79 621.849 258.959 635.377 260.778C645.17 262.093 654.979 263.252 664.781 264.502C665.352 264.621 665.917 264.791 666.473 265.009C666.405 265.513 666.365 266.018 666.335 266.548Z" fill="#49494A" fill-opacity="0.03"/>
<path d="M2.89077 157.145C4.09024 156.728 5.3299 155.82 6.47179 155.998C20.9248 158.593 35.3629 161.473 49.8158 164.067C64.2688 166.662 78.8018 168.921 93.2356 171.49C110.162 174.504 127.063 177.802 143.998 180.79C156.629 183.022 169.283 184.956 181.931 187.072C195.787 189.378 209.636 191.865 223.508 194.028C234.833 195.813 246.105 197.224 257.392 198.97C271.453 201.144 285.489 203.538 299.532 205.764C310.498 207.502 321.472 209.097 332.438 210.835C344.159 212.692 355.864 214.743 367.603 216.496C377.341 217.941 387.087 219.269 396.847 220.274C412.878 221.93 428.906 223.328 444.878 224.792C454.692 225.641 464.503 226.245 474.306 226.978C491.898 228.419 509.472 229.991 527.101 231.432C538.159 232.303 549.271 232.334 560.29 233.812C579.3 236.372 598.255 239.758 617.235 242.822C618.651 242.916 620.035 243.459 621.278 244.408C613.204 243.47 605.132 242.598 597.066 241.583C589.52 240.638 581.967 239.203 574.321 238.557C554.089 236.867 533.835 235.526 513.586 233.965C500.672 232.96 487.762 231.877 474.858 230.716C459.31 229.312 443.741 227.701 428.223 226.347C417.786 225.442 407.329 225.118 396.909 224.019C387.007 222.964 377.096 221.264 367.253 219.782C358.61 218.504 349.969 217.174 341.33 215.792C329.77 213.959 318.217 212.022 306.656 210.202C295.53 208.453 284.386 206.834 273.26 205.098C261.369 203.231 249.486 201.26 237.595 199.393C226.629 197.681 215.647 196.137 204.689 194.373C190.807 192.145 176.931 189.8 163.057 187.469C150.881 185.412 138.705 183.367 126.537 181.206C114.264 179.008 101.933 176.617 89.6229 174.406C77.4638 172.22 65.2787 170.188 53.1106 168.027C40.3288 165.746 27.5641 163.348 14.7915 161.053C10.9494 160.368 7.10039 159.865 3.25993 159.297L2.89077 157.145Z" fill="#49494A" fill-opacity="0.03"/>
<path d="M3.03189 134.924C10.1266 135.888 17.2381 136.709 24.3259 137.853C35.2643 139.617 46.1873 141.627 57.127 143.482C68.6865 145.444 80.2517 147.363 91.8226 149.239C102.478 150.968 113.134 152.71 123.795 154.22C140.977 156.649 158.148 159.039 175.344 161.145C187.135 162.587 198.964 163.409 210.763 164.748C222.854 166.109 234.921 167.832 247.013 169.232C255.087 170.182 263.183 170.732 271.256 171.643C283.517 173.04 295.782 174.67 308.043 176.094C315.805 176.996 323.59 177.447 331.327 178.595C344.292 180.513 357.243 182.714 370.185 185.02C381.872 187.11 393.526 189.536 405.205 191.768C416.432 193.928 427.666 195.973 438.893 198.159C450.119 200.346 461.558 202.826 472.954 205.01C484.492 207.218 496.054 209.129 507.582 211.35C521.254 213.982 534.91 216.807 548.574 219.529C551.37 219.922 554.127 220.751 556.791 222.001C550.296 221.482 543.752 221.506 537.314 220.353C516.838 216.689 496.404 212.651 475.943 208.639C458.125 205.133 440.331 201.369 422.514 197.915C402.837 194.125 383.168 190.218 363.442 187.01C343.717 183.801 323.869 181.215 304.058 178.679C287.003 176.507 269.935 174.787 252.865 172.912L201.192 167.151C184.13 165.237 167.045 163.595 150.007 161.319C135.799 159.406 121.636 156.665 107.442 154.415C91.7002 151.928 75.9337 149.673 60.1913 147.122C46.7799 144.939 33.3833 142.472 19.9797 140.173C14.741 139.275 9.49452 138.493 4.25597 137.608C3.74656 137.41 3.2602 137.112 2.81227 136.723L3.03189 134.924Z" fill="#58AFAA" fill-opacity="0.05"/>
<path d="M528.601 224.901C516.603 224.082 504.614 223.339 492.623 222.39C486.882 221.938 481.161 220.892 475.421 220.453C463.732 219.577 452.02 219.064 440.331 218.149C423.051 216.794 405.749 215.801 388.523 213.566C369.656 211.121 350.883 207.331 332.046 204.344C315.682 201.761 299.276 199.619 282.912 197.05C266.548 194.481 250.262 191.458 233.917 188.889C219.865 186.676 205.764 185.032 191.721 182.755C176.762 180.373 161.842 177.397 146.899 174.757C134.722 172.609 122.537 170.617 110.369 168.469C97.7482 166.236 85.1345 163.862 72.5134 161.63C60.185 159.454 47.8605 157.33 35.5398 155.257C25.6667 153.582 15.7951 152.01 5.93957 150.244C4.89164 150.052 3.92465 148.915 3.16895 146.729C7.08346 147.206 11.0048 147.502 14.9034 148.186C30.1391 150.865 45.3695 153.613 60.5946 156.43C75.2183 159.113 89.8636 161.99 104.43 164.609C116.759 166.806 129.111 168.681 141.439 170.839C154.23 173.069 166.987 175.597 179.785 177.736C190.904 179.601 202.054 181.026 213.19 182.775C224.619 184.558 236.031 186.535 247.45 188.344C258.577 190.106 269.711 191.712 280.828 193.461C292.398 195.294 303.952 197.27 315.522 199.09C326.639 200.838 337.763 202.406 348.871 204.168C360.441 205.988 371.977 208.119 383.555 209.784C391.604 210.967 399.692 211.645 407.763 212.35C425.506 213.893 443.252 215.376 461 216.798C472.067 217.669 483.146 218.01 494.197 219.127C505.654 220.264 517.083 222.099 528.527 223.611C528.542 224.024 528.567 224.463 528.601 224.901Z" fill="#49494A" fill-opacity="0.03"/>
<path d="M565.585 232.023C554.076 231.184 542.558 230.423 531.047 229.493C525.617 229.05 520.198 228.064 514.769 227.659C498.395 226.446 482.026 225.518 465.652 224.266C447.29 222.887 428.893 221.779 410.559 219.714C391.696 217.592 372.819 214.476 353.949 211.773C340.031 209.778 326.106 207.886 312.205 205.684C295.859 203.102 279.536 200.106 263.191 197.523C249.299 195.334 235.377 193.662 221.484 191.421C200.514 188.036 179.567 184.366 158.604 180.825C141.803 177.991 124.985 175.286 108.2 172.283C91.4154 169.28 74.6823 165.915 57.9164 162.9C43.4352 160.305 28.9297 157.995 14.4409 155.53C10.8258 154.92 7.20969 154.232 3.59392 153.57L3.71251 151.954C7.4858 152.433 11.3411 152.717 15.1267 153.402C27.5973 155.649 40.0421 158.064 52.5039 160.35C67.609 163.117 82.6916 165.846 97.7517 168.536C110.023 170.695 122.405 172.621 134.724 174.818C149.498 177.448 164.248 180.413 179.029 182.926C190.28 184.841 201.58 186.187 212.848 187.947C227.004 190.171 241.219 192.627 255.413 194.851C266.737 196.61 278.057 198.059 289.288 199.858C303.18 202.047 317.048 204.533 330.94 206.748C342.057 208.523 353.19 210.091 364.324 211.697C377.77 213.647 391.207 215.623 404.669 217.404C409.792 218.084 414.946 218.299 420.092 218.643C431.789 219.415 443.483 220.032 455.181 220.907C473.701 222.293 492.225 223.765 510.753 225.324C526.469 226.674 542.178 228.193 557.898 229.763C560.5 230.012 563.063 230.843 565.652 231.415L565.585 232.023Z" fill="#49494A" fill-opacity="0.03"/>
<path d="M562.153 223.844L608.182 231.374L608.014 233.43L562.006 225.461C562.064 224.918 562.104 224.388 562.153 223.844Z" fill="#49494A" fill-opacity="0.03"/>
<path d="M618.609 236.218L652.139 241.397C652.099 241.901 652.068 242.406 652.028 242.897L618.632 237.806L618.609 236.218Z" fill="#49494A" fill-opacity="0.03"/>
<path d="M678.881 250.853L662.819 246.976C668.346 247.573 674.113 246.552 679.39 248.909C679.183 249.558 679.07 250.205 678.881 250.853Z" fill="#49494A" fill-opacity="0.03"/>
</svg>
