<svg width="1938" height="563" viewBox="0 0 1938 563" fill="none" xmlns="http://www.w3.org/2000/svg">
<path d="M3.118 78.5448C22.9221 79.7321 41.1091 80.6293 59.2209 81.9177C92.1104 84.4705 124.976 87.2144 157.817 90.1494C168.585 91.1215 175.972 88.7836 178.908 77.7392C179.725 74.6323 182.322 71.9435 184.688 68.1391L202.255 93.7591L205.998 92.2773C212.98 70.7199 219.936 49.1887 228.001 24.3386C237.563 50.4577 246.035 73.5219 254.509 96.8202L257.735 96.7763C261.776 79.5686 265.799 62.3525 269.804 45.128L272.702 44.6984C276.008 57.9992 280.28 71.1566 282.351 84.6303C284.306 97.4031 291.101 100.771 303.533 101.538C349.79 104.447 395.955 108.527 442.193 112.008C475.081 114.474 508.138 115.559 540.908 119.198C590.723 124.711 640.436 131.198 690.045 138.657C739.511 146.126 788.558 156.255 838.074 163.463C863.129 167.103 888.846 166.285 914.176 168.489C945.186 171.189 976.106 175.217 1007.04 178.152C1032.75 180.586 1058.56 182.394 1084.34 184.28C1134.58 187.915 1184.81 191.463 1235.05 194.924C1271.08 197.348 1307.23 198.677 1343.22 201.855C1401.74 206.99 1460.19 213.089 1518.62 219.109C1535.8 220.879 1552.83 223.847 1570.64 226.362C1573.78 212.635 1576.82 199.404 1579.86 186.173L1582.33 186.14C1585.58 198.895 1588.83 211.641 1592.09 224.379L1594.79 224.837L1614.97 131.194L1617.47 131.16C1623.66 156.31 1630.25 181.377 1635.91 206.639C1642.73 237.192 1642.44 236.988 1675.01 241.825C1760.52 254.502 1846.01 267.438 1932.17 280.366L1932.97 336.912C1913.86 335.871 1894.92 335.089 1876.03 333.785C1850.68 332.023 1825.38 329.817 1800.03 327.951C1751.12 324.35 1702.2 320.81 1653.27 317.331C1620.79 315.015 1588.35 311.607 1555.83 310.852C1502.63 309.495 1450.67 300.343 1398.6 291.166C1349.11 281.98 1299.21 272.799 1249.14 265.676C1223.62 262.017 1197.47 262.763 1171.71 260.538C1140.25 257.818 1108.9 253.77 1077.48 250.842C1051.31 248.415 1025.05 246.717 998.837 244.81C949.461 241.233 900.122 237.716 850.82 234.259C815.647 231.824 780.408 230.405 745.332 227.266C686.38 222.007 627.401 216.774 568.664 209.613C512.27 202.758 456.139 193.558 399.912 185.244C348.652 177.651 297.39 169.929 246.126 162.076C183.43 152.523 120.781 142.528 58.1348 132.688C42.8035 130.295 27.396 128.215 12.3214 124.961C10.31 124.23 8.51308 123.037 7.08588 121.483C5.65867 119.93 4.64421 118.063 4.13023 116.045C2.89197 104.485 3.31771 92.7203 3.118 78.5448Z" fill="#49494A" fill-opacity="0.03"/>
<path d="M1935.3 431.499C1906.79 427.36 1880.18 423.638 1853.61 419.603C1803.28 411.989 1752.98 404.037 1702.73 396.578C1648.85 388.57 1594.97 380.666 1540.93 373.285C1496.54 367.203 1452.05 362.085 1407.61 356.238C1357.08 349.538 1306.62 342.342 1256.09 335.641C1211.7 329.742 1167.21 324.364 1122.82 318.49C1078.43 312.616 1034.12 306.221 989.73 300.452C971.656 298.096 953.462 296.679 935.295 295.261C877.591 290.843 819.887 286.426 762.183 282.008C727.977 279.508 693.701 277.737 659.494 275.185C615.597 271.854 571.743 267.742 527.847 264.385C494.069 261.801 460.229 260.414 426.501 257.518C392.773 254.621 359.325 250.627 325.775 246.973C296.64 243.745 267.53 240.404 238.446 236.949C199.692 232.274 160.912 227.599 122.259 222.453C83.6065 217.308 45.0767 211.329 5.04331 205.5C4.81503 189.295 4.2885 172.913 4.73038 156.57C4.704 154.697 10.3255 151.056 12.9114 151.411C81.92 160.566 150.906 170.033 219.87 179.813C281.828 188.509 343.789 197.412 405.753 206.524C472.756 216.46 539.638 227.335 606.715 236.776C633.923 240.621 661.552 241.909 689.032 244.059C726.713 247.015 764.454 249.831 802.257 252.508C827.15 254.25 852.089 255.42 876.982 257.162C915.197 259.842 953.363 262.887 991.577 265.566C1016.47 267.309 1041.38 268.505 1066.3 270.195C1103.98 272.778 1141.8 276.061 1179.57 278.149C1282.35 283.826 1381.43 310.86 1482.49 326.342C1506.18 329.974 1530.5 329.487 1554.51 331.19C1592.18 333.851 1629.87 336.876 1667.73 339.587C1691.28 341.295 1714.85 342.588 1738.42 344.244C1777.04 346.97 1815.66 349.931 1854.31 352.683C1877.43 354.319 1900.52 356.112 1923.66 357.124C1931.73 357.456 1934.82 359.886 1934.8 367.769C1934.44 388.117 1934.97 408.454 1935.3 431.499Z" fill="#58AFAA" fill-opacity="0.05"/>
<path d="M9.81194 522.947L8.83285 453.448C12.6498 453.396 16.0348 453.22 19.3967 453.305C55.5489 454.634 91.724 455.676 127.856 457.474C189.359 460.591 250.818 464.385 312.322 467.529C346.221 469.253 380.16 469.987 414.06 471.685C463.535 474.108 512.992 477.051 562.443 479.682C590.532 481.147 618.787 481.048 646.684 484.155C688.125 488.794 729.281 496.038 770.596 501.277C821.205 507.769 871.77 515.041 922.613 519.084C979.968 523.506 1037.63 524.907 1095.15 527.636C1151.32 530.34 1207.5 533.044 1263.7 535.748C1290.09 536.736 1316.41 539.079 1342.54 542.766L1329.37 542.945C1224.54 544.372 1119.72 546.527 1014.87 546.835C976.131 546.946 937.405 542.322 898.664 540.456C873.644 539.262 848.583 538.978 823.549 538.669C781.036 538.129 738.504 538.135 696.016 537.465C611.47 536.083 526.931 534.554 442.398 532.877C391.877 531.935 341.337 530.975 290.78 529.998C207.234 528.377 123.635 526.809 39.9832 525.294C30.2482 525.115 20.5244 523.816 9.81194 522.947Z" fill="#49494A" fill-opacity="0.03"/>
<path d="M1669.68 537.197C1667.68 537.661 1665.64 537.975 1663.59 538.138C1621.5 538.555 1579.34 540.274 1537.24 538.843C1507.09 537.797 1477.12 532.377 1447.04 529.197C1432.42 527.652 1417.78 526.265 1403.11 525.606C1337.93 522.669 1272.75 520.174 1207.6 517.262C1152.72 514.809 1097.83 512.044 1042.97 509.357C988.549 506.69 933.933 505.872 879.767 500.652C829.882 495.867 780.443 486.55 730.892 478.744C682.391 471.131 634.177 464.737 585.011 463.299C522.532 461.548 460.147 456.882 397.701 453.621C367.379 452.057 337.036 450.883 306.688 449.371C253.177 446.743 199.635 443.881 146.125 441.332C112.658 439.758 79.1435 438.653 45.6778 437.184C33.6798 436.671 21.7018 435.663 8.89263 434.823L8.19238 385.117C27.2037 387.278 46.2942 389.333 65.3607 391.597C94.795 395.073 124.205 398.757 153.641 402.311L240.653 412.703C270.088 416.231 299.498 419.863 328.959 423.313C358.419 426.762 387.905 430.055 417.391 433.4C442.524 436.266 467.594 439.09 492.601 441.872C526.932 445.645 561.264 449.444 595.62 453.009C627.795 456.369 660.044 459.286 692.193 462.699C725.661 466.25 759.083 470.322 792.551 473.846C824.699 477.233 856.92 480.046 889.096 483.433C922.132 486.885 955.097 490.937 988.158 494.234C1003.21 495.746 1018.35 496.19 1033.47 496.869C1080.2 498.991 1126.92 500.8 1173.63 503.078C1227.44 505.676 1281.25 508.56 1335.05 511.287C1373.69 513.363 1412.4 514.787 1450.99 517.514C1491.36 520.451 1531.37 524.875 1571.59 528.282C1604.24 531.037 1636.96 533.22 1669.66 535.636L1669.68 537.197Z" fill="#49494A" fill-opacity="0.03"/>
<path d="M1934.77 442.248L1935.41 487.141L1867.43 476.724L1867.59 475.031L1933.32 480.302C1933.65 475.38 1933.9 471.761 1934.16 467.777C1927.88 466.406 1922.4 464.893 1916.8 464.059C1830.29 451.162 1743.78 438.083 1657.19 425.578C1599.43 417.258 1541.55 409.877 1483.72 401.923C1421.55 393.404 1359.43 384.52 1297.2 376.261C1234.98 368.003 1172.53 360.606 1110.26 352.348C1066.89 346.617 1023.72 339.53 980.334 334.059C958.33 331.288 936.01 330.89 913.86 329.214C876.665 326.416 839.466 323.28 802.272 320.561C769.035 318.125 735.779 316.263 702.568 313.775C667.58 311.129 632.583 307.833 597.755 305.134C565.458 302.659 532.982 300.812 500.631 298.339C457.747 294.951 414.894 291.267 372.073 287.289C334.142 283.747 296.231 279.762 258.371 275.542C220.081 271.303 181.915 266.333 143.651 262.067C112.362 258.591 81.027 255.713 49.7137 252.445C36.0897 251.018 22.4632 249.408 8.85987 247.538C7.4323 247.349 6.35027 244.971 3.7571 242.196C8.34295 241.379 11.1765 240.222 13.8155 240.524C52.0542 244.921 90.2472 249.89 128.509 254C166.77 258.11 205.239 261.671 243.557 265.936C281.39 270.13 319.1 275.184 356.958 279.3C383.4 282.192 409.939 284.328 436.451 286.491C474.134 289.568 511.761 292.525 549.332 295.36C583.026 297.79 616.766 299.646 650.462 302.127C684.965 304.753 719.399 308.135 753.875 310.735C787.572 313.294 821.31 315.021 855.005 317.554C888.701 320.087 923.177 322.661 957.156 326.179C998.108 330.409 1038.99 335.29 1079.79 340.562C1124.1 346.254 1168.23 352.886 1212.51 358.735C1251.54 363.901 1290.61 368.39 1329.7 373.556C1367.84 378.578 1405.88 384.304 1444.02 389.352C1483.02 394.519 1522.12 398.955 1561.18 404.225C1602.34 409.779 1643.45 415.749 1684.53 421.823C1729.1 428.423 1773.61 435.362 1818.12 442.17C1853.05 447.505 1887.98 452.831 1922.9 458.149C1927.02 458.709 1931.21 457.88 1934.78 455.802C1932.05 453.237 1929.76 448.872 1926.61 448.342C1896.96 443.153 1867.32 438.405 1837.68 433.944C1792.69 427.116 1747.68 420.453 1702.65 413.955C1659.79 407.748 1616.9 401.75 1574.05 395.699C1535.95 390.312 1497.91 384.716 1459.8 379.642C1415.95 373.761 1372 368.506 1328.15 362.677C1283.03 356.683 1237.99 350.116 1192.84 344.148C1148.99 338.319 1105.09 332.933 1061.19 327.339C1025.23 322.781 989.326 317.729 953.297 313.719C931.756 311.41 909.86 310.59 888.141 308.934C850.972 306.084 813.827 302.921 776.633 300.228C742.508 297.752 708.339 295.954 674.214 293.479C629.941 290.153 585.713 286.228 541.465 282.72C519.771 281.012 498.033 279.903 476.364 278.065C435.253 274.601 394.184 270.919 353.156 267.02C315.232 263.357 277.322 259.407 239.426 255.17C201.162 250.904 162.971 246.039 124.707 241.773C93.4445 238.296 62.1087 235.341 30.8222 232.072C21.9675 231.401 13.2628 229.477 4.98583 226.362C8.30612 225.407 11.7447 223.305 14.8948 223.626C76.3907 230.047 137.861 236.521 199.283 243.438C264.69 250.794 330.003 259.063 395.458 265.976C428.226 269.433 461.284 270.57 494.172 273.036C539.064 276.431 583.935 280.217 628.746 283.614C662.066 286.126 695.458 288.143 728.804 290.655C773.697 294.05 818.539 297.758 863.379 301.232C894.492 303.645 925.702 305.301 956.744 308.365C992.146 311.837 1027.48 316.221 1062.76 320.736C1107.69 326.498 1152.54 332.808 1197.44 338.83C1242.35 344.853 1287.25 350.876 1332.12 356.795C1377 362.714 1421.14 368.331 1465.61 374.256C1516.25 381.007 1566.89 387.654 1617.48 394.822C1673.3 402.725 1729.04 411.046 1784.78 419.393C1834.62 426.805 1884.12 434.456 1934.77 442.248Z" fill="#58AFAA" fill-opacity="0.05"/>
<path d="M8.01082 332.18C38.9276 335.922 69.1963 339.464 99.5759 343.239C135.557 347.692 171.516 352.458 207.523 356.833C242.237 361.043 277.025 364.784 311.766 368.968C353.913 374.066 396.039 379.58 438.346 384.623C468.266 388.196 498.233 391.301 528.149 394.64C561.162 398.301 594.176 402.092 627.187 405.649C658.475 408.995 689.785 412.055 721.046 415.402C754.488 419.005 787.908 422.921 821.349 426.472C853.041 429.865 884.78 432.841 916.498 436.182C949.992 439.68 983.437 443.517 1016.9 446.99C1050.37 450.463 1083.06 454.363 1116.25 456.721C1173.89 460.801 1231.63 463.943 1289.35 467.372C1317.33 468.995 1345.36 470.096 1373.37 471.588C1423.58 474.287 1473.76 477.246 1524.04 479.944C1555.6 481.569 1587.26 482.127 1618.79 484.221C1651.97 486.371 1685.07 489.953 1718.2 492.754C1746.52 495.152 1774.91 496.925 1803.15 499.819C1841.52 503.719 1879.79 508.453 1918.08 512.797C1922.49 513.309 1927.01 513.222 1931.35 514.073C1933.51 514.512 1935.34 516.621 1937.29 517.817C1936.88 519.019 1936.46 520.221 1936.02 521.424C1920.28 520.364 1904.49 519.564 1888.77 518.217C1849.74 514.82 1810.7 511.189 1771.7 507.609C1732.23 503.984 1692.82 499.968 1653.25 496.812C1626.12 494.58 1598.87 493.702 1571.67 492.225C1521.76 489.496 1471.82 486.664 1421.89 484.065C1390.68 482.461 1359.42 481.456 1328.21 479.773C1281.85 477.256 1235.52 474.349 1189.18 471.727C1161.58 470.152 1133.9 469.384 1106.37 467.105C1073.55 464.378 1040.83 460.479 1008.12 456.996C975.809 453.559 943.498 450.07 911.347 446.502C871.083 442.159 830.838 437.833 790.611 433.524C751.65 429.372 712.69 425.323 673.728 421.119C633.017 416.765 592.313 412.341 551.618 407.848C514.89 403.821 478.164 399.925 441.512 395.611C399.124 390.594 356.811 385.135 314.448 379.962C273.405 374.979 232.338 370.231 191.295 365.248C148.932 360.101 106.594 354.746 64.2309 349.599C48.3414 347.656 32.4736 345.349 16.518 344.447C7.42124 343.765 5.09541 340.883 8.01082 332.18Z" fill="#49494A" fill-opacity="0.03"/>
<path d="M1379.68 436.979C1348.66 435.45 1317.59 434.078 1286.57 432.393C1270.61 431.517 1254.7 429.757 1238.75 429.011C1205.36 427.411 1171.89 427.32 1138.59 424.599C1096.2 421.222 1053.97 415.943 1011.65 411.602C979.337 408.296 947.169 405.404 914.965 401.914C875.33 397.64 835.768 392.793 796.133 388.546C763.957 385.082 731.709 382.321 699.533 378.856C667.357 375.392 634.497 371.157 601.944 367.671C569.391 364.186 537.549 361.576 505.399 358.085C470.61 354.292 435.869 350.082 401.128 345.846C365.578 341.517 330.052 336.901 294.501 332.468C251.912 327.151 209.314 321.878 166.708 316.647C131.564 312.417 96.3971 308.525 61.2533 304.347C43.7951 302.518 26.4588 299.731 9.32812 296C42.9042 299.575 76.6379 302.889 110.056 306.726C155.833 311.853 201.616 317.395 247.231 322.498C278.063 325.928 308.916 328.994 339.771 332.165C376.361 335.933 412.9 339.858 449.51 343.21C472.069 345.271 494.72 346.211 517.327 347.933C554.065 350.711 590.779 353.801 627.544 356.605C649.721 358.28 671.918 359.461 694.095 361.136C730.375 363.92 766.606 367.043 802.886 369.827C824.606 371.509 846.37 372.487 868.04 374.404C916.197 378.665 964.405 382.692 1012.44 388.048C1063.44 393.649 1114.35 400.319 1165.2 407.067C1220.85 414.426 1276.43 422.463 1332.03 430.031C1347.78 432.184 1363.61 433.738 1379.39 435.552L1379.68 436.979Z" fill="#49494A" fill-opacity="0.03"/>
<path d="M1885.89 472C1864.35 470.42 1842.59 469.493 1821.08 467.08C1784.99 463.071 1748.96 458.462 1713.02 453.462C1672.32 447.799 1631.79 441.17 1591.09 435.454C1558.25 430.828 1525.26 427.037 1492.37 422.75C1448.52 416.999 1404.68 411.187 1360.85 405.314L1260.95 392.105C1228.95 387.91 1196.9 383.846 1164.9 379.599C1125.89 374.406 1086.94 368.849 1047.89 363.865C1009.26 358.979 970.644 354.198 931.9 350.173C909.391 347.877 886.664 347.224 864.083 345.502C818.491 341.986 772.92 338.158 727.327 334.616C705.177 332.914 682.98 331.76 660.857 330.084C623.662 327.286 586.516 324.123 549.323 321.43C515.629 318.974 481.866 317.405 448.193 314.585C411.559 311.494 374.993 307.543 338.43 303.748C300.987 299.887 263.56 295.87 226.149 291.696C187.455 287.41 148.783 282.785 110.062 278.525C78.7998 275.074 47.4897 272.04 16.2791 268.433C12.3204 267.966 8.67855 265.18 4.86246 263.385L6.67847 258.704C24.5818 260.463 42.5095 262.04 60.5233 264.007C91.7586 267.458 122.944 271.17 154.154 274.751C186.702 278.471 219.249 282.164 251.795 285.832C281.739 289.17 311.682 292.509 341.648 295.561C380.445 299.482 419.267 303.298 458.111 306.776C479.781 308.718 501.571 309.696 523.264 311.352C560.002 314.156 596.718 317.35 633.454 320.024C667.579 322.526 701.748 324.298 735.847 326.8C770.377 329.374 804.835 332.625 839.367 335.303C862.406 337.096 885.538 337.874 908.555 340.058C949.529 343.941 990.464 348.248 1031.36 352.981C1064.32 356.773 1097.21 361.191 1130.07 365.582C1174.76 371.582 1219.37 377.973 1264.06 383.868C1303.08 389.035 1342.16 393.524 1381.24 398.663C1425.52 404.486 1469.7 410.805 1513.96 416.759C1551.67 421.813 1589.37 426.372 1627.09 431.634C1672.16 437.958 1717.19 444.578 1762.17 451.493C1803.52 457.746 1844.8 464.364 1886.11 470.826L1885.89 472Z" fill="#49494A" fill-opacity="0.03"/>
<path d="M7.93953 372.891C25.8429 374.651 43.7971 376.201 61.7851 378.246C92.1072 381.761 122.38 385.616 152.678 389.314C190.007 394.009 227.336 398.704 264.685 402.904C301.227 407.142 337.816 410.832 374.331 415.018C410.846 419.204 447.288 423.911 483.803 428.045C509.331 430.949 534.956 433.15 560.562 435.819C594.46 439.364 628.361 443.143 662.286 446.688C687.407 449.286 712.577 451.571 737.67 454.195C772.027 457.812 806.334 461.741 840.716 465.28C873.348 468.634 906.027 471.519 938.659 474.873C973.472 478.458 1008.21 482.486 1043.02 486.07C1061.12 487.957 1079.24 489.818 1097.37 490.742C1132.08 492.481 1166.82 493.309 1201.53 494.943C1255.76 497.483 1309.95 500.362 1364.16 503.136C1404.17 505.193 1444.18 507.094 1484.13 509.308C1531.22 511.945 1578.3 514.192 1625.32 517.793C1682.81 522.213 1740.18 528.04 1797.6 533.112C1803.3 533.321 1809.02 533.243 1814.72 532.879L1814.77 536.339C1810.25 536.4 1805.73 536.305 1801.33 536.521C1741.96 539.697 1683.01 534.542 1624.17 528.058C1594.55 524.793 1564.96 523.297 1535.22 521.1C1486.05 517.451 1436.9 513.671 1387.71 510.386C1359.32 508.509 1330.81 507.622 1302.37 506.136C1251.71 503.47 1201.07 500.595 1150.43 497.928C1121.97 496.416 1093.49 495.633 1065.07 493.653C1018.6 490.435 972.155 486.801 925.73 482.75C885.515 479.265 845.373 475.284 805.256 471.096C772.676 467.663 740.219 463.318 707.666 459.858C675.113 456.399 642.304 453.802 609.644 450.396C569.123 446.187 528.675 441.456 488.178 437.09C456.89 433.744 425.53 430.945 394.265 427.312C352.067 422.397 309.993 416.752 267.82 411.707C231.787 407.384 195.653 403.584 159.621 399.313C124.019 395.063 88.4929 390.474 52.9164 386.119C42.7905 384.904 32.5666 384.367 22.517 382.839C17.0076 381.654 11.5943 380.084 6.31975 378.142L7.93953 372.891Z" fill="#49494A" fill-opacity="0.03"/>
<path d="M1899.08 536.26C1875.67 534.809 1852.26 533.645 1828.9 531.83C1807.69 530.167 1786.58 527.723 1765.39 525.8C1732.25 522.791 1699.14 519.729 1665.98 517.085C1634.06 514.554 1602.14 512.204 1570.2 510.272C1520.93 507.274 1471.64 504.667 1422.35 501.878C1407.23 501.043 1392.11 500.416 1376.99 499.894C1328.57 497.951 1279.99 496.011 1231.49 493.731C1191.48 491.908 1151.43 490.528 1111.52 487.403C1067.35 483.92 1023.34 478.587 979.245 474.271C945.701 471.007 912.136 468.264 878.616 464.87C838.474 460.812 798.404 456.206 758.312 451.991C732.734 449.295 707.159 446.912 681.554 444.268C646.741 440.684 611.953 436.943 577.14 433.358C544.832 430.052 512.741 426.95 480.539 423.59C451.03 420.523 421.527 417.274 392.03 413.842C361.278 410.281 330.547 406.38 299.818 402.636C262.922 398.143 226.051 393.494 189.131 389.21C152.212 384.926 116.051 381.099 79.5366 376.965C55.786 374.271 32.0866 371.394 8.03849 368.573C5.7761 358.744 6.90715 355.061 19.8086 356.732C98.6728 367.001 177.735 376.045 256.806 385.714C331.783 394.891 406.689 404.72 481.742 413.584C556.796 422.449 632.03 430.738 707.233 438.82C768.678 445.424 830.244 451.09 891.688 457.642C967.08 465.669 1042.05 474.691 1117.36 482.199C1147.51 485.196 1178 485.224 1208.32 486.866C1256.03 489.443 1303.71 492.332 1351.41 494.935C1380.39 496.517 1409.41 497.735 1438.39 499.292C1487.41 501.92 1536.44 504.644 1585.49 507.462C1622 509.567 1658.56 511.411 1695.01 514.271C1733.63 517.283 1772.16 521.493 1810.76 525C1838.7 527.534 1866.7 529.754 1894.66 532.157C1896.29 532.391 1897.91 532.726 1899.49 533.158C1899.29 534.175 1899.17 535.192 1899.08 536.26Z" fill="#49494A" fill-opacity="0.03"/>
<path d="M6.24774 323.643C9.67701 322.79 13.2268 320.946 16.4847 321.292C57.717 326.35 98.9036 331.981 140.136 337.039C181.368 342.097 222.833 346.476 264.011 351.483C312.298 357.355 360.514 363.801 408.827 369.622C444.861 373.97 480.967 377.719 517.05 381.833C556.581 386.316 596.09 391.163 635.67 395.359C667.981 398.822 700.147 401.532 732.349 404.918C772.467 409.133 812.511 413.791 852.576 418.11C883.864 421.483 915.175 424.568 946.463 427.941C979.905 431.544 1013.3 435.538 1046.79 438.933C1074.58 441.728 1102.39 444.29 1130.24 446.2C1175.99 449.35 1221.73 451.979 1267.31 454.741C1295.32 456.336 1323.32 457.438 1351.3 458.8C1401.51 461.499 1451.66 464.459 1501.98 467.156C1533.54 468.782 1565.26 468.714 1596.7 471.564C1650.94 476.497 1705.02 483.097 1759.17 489.046C1763.21 489.22 1767.16 490.297 1770.7 492.193C1747.66 490.4 1724.62 488.736 1701.61 486.786C1680.07 484.972 1658.53 482.169 1636.7 480.957C1578.96 477.789 1521.15 475.324 1463.36 472.416C1426.5 470.542 1389.66 468.511 1352.83 466.324C1308.46 463.676 1264.03 460.612 1219.74 458.067C1189.96 456.365 1160.11 455.835 1130.37 453.742C1102.11 451.734 1073.84 448.424 1045.76 445.555C1021.09 443.081 996.44 440.502 971.794 437.82C938.809 434.263 905.849 430.497 872.865 426.965C841.12 423.573 809.324 420.442 777.579 417.076C743.653 413.453 709.751 409.622 675.825 405.999C644.537 402.679 613.201 399.697 581.939 396.273C542.33 391.947 502.745 387.387 463.16 382.852C428.422 378.85 393.684 374.875 358.97 370.664C323.959 366.38 288.782 361.708 253.663 357.399C218.975 353.136 184.21 349.187 149.496 344.977C113.031 340.53 76.6166 335.849 40.1781 331.376C29.2171 330.042 18.2343 329.073 7.27661 327.973L6.24774 323.643Z" fill="#49494A" fill-opacity="0.03"/>
<path d="M6.90884 278.889C27.1526 280.747 47.4461 282.318 67.6681 284.54C98.8761 287.965 130.037 291.886 161.248 295.493C194.227 299.311 227.223 303.042 260.235 306.685C290.636 310.044 321.037 313.428 351.458 316.344C400.482 321.036 449.478 325.65 498.546 329.691C532.191 332.459 565.953 333.977 599.623 336.537C634.126 339.137 668.559 342.466 703.063 345.145C726.103 346.964 749.211 347.977 772.249 349.718C807.238 352.39 842.232 355.53 877.221 358.253C899.372 359.981 921.591 360.797 943.668 363.02C980.66 366.731 1017.61 371.015 1054.53 375.508C1087.87 379.581 1121.11 384.331 1154.43 388.691C1186.46 392.911 1218.51 396.898 1250.53 401.171C1282.56 405.444 1315.19 410.307 1347.7 414.573C1380.61 418.886 1413.6 422.599 1446.49 426.939C1485.49 432.079 1524.44 437.61 1563.42 442.933C1571.4 443.692 1579.26 445.331 1586.85 447.818C1568.31 446.847 1549.63 446.971 1531.26 444.724C1472.85 437.584 1414.56 429.688 1356.19 421.846C1305.36 414.993 1254.6 407.619 1203.78 400.871C1147.64 393.466 1091.53 385.826 1035.26 379.594C978.979 373.362 922.343 368.384 865.815 363.508C817.148 359.331 768.44 356.066 719.728 352.488L572.27 341.487C523.583 337.832 474.824 334.723 426.207 330.338C385.666 326.649 345.263 321.293 304.767 316.928C259.854 312.102 214.868 307.745 169.954 302.789C131.691 298.549 93.4729 293.736 55.233 289.262C40.2872 287.514 25.3178 286.001 10.3723 284.279C8.92025 283.887 7.53517 283.293 6.26089 282.514L6.90884 278.889Z" fill="#58AFAA" fill-opacity="0.05"/>
<path d="M1506.34 453.985C1472.09 452.474 1437.87 451.119 1403.65 449.347C1387.27 448.503 1370.94 446.462 1354.56 445.645C1321.2 444.017 1287.77 443.12 1254.41 441.414C1205.09 438.886 1155.71 437.086 1106.55 432.786C1052.72 428.082 999.164 420.668 945.42 414.87C898.73 409.86 851.919 405.736 805.23 400.752C758.541 395.768 712.082 389.871 665.446 384.886C625.354 380.593 585.117 377.447 545.049 373.023C502.371 368.401 459.811 362.58 417.179 357.437C382.439 353.253 347.675 349.382 312.962 345.198C276.955 340.849 240.971 336.213 204.965 331.865C169.793 327.626 134.632 323.491 99.4811 319.46C71.3134 316.201 43.1486 313.151 15.0322 309.709C12.0426 309.334 9.29513 307.056 7.16309 302.662C18.3333 303.577 29.5252 304.127 40.6475 305.458C84.1135 310.677 127.564 316.034 170.998 321.531C212.716 326.764 254.494 332.387 296.05 337.493C331.222 341.775 366.466 345.406 401.637 349.61C438.127 353.952 474.519 358.894 511.034 363.054C542.755 366.681 574.572 369.421 606.344 372.813C638.951 376.272 671.509 380.121 704.089 383.632C735.835 387.05 767.603 390.156 799.322 393.548C832.333 397.106 865.294 400.949 898.305 404.481C930.024 407.873 961.764 410.901 993.456 414.32C1026.47 417.851 1059.38 422.008 1092.41 425.226C1115.38 427.515 1138.46 428.788 1161.49 430.114C1212.13 433.015 1262.78 435.794 1313.43 438.452C1345.02 440.077 1376.64 440.635 1408.18 442.756C1440.88 444.912 1473.49 448.475 1506.14 451.386C1506.18 452.218 1506.24 453.102 1506.34 453.985Z" fill="#49494A" fill-opacity="0.03"/>
<path d="M1611.84 467.901C1578.99 466.345 1546.12 464.945 1513.27 463.207C1497.77 462.377 1482.31 460.455 1466.82 459.703C1420.08 457.451 1373.36 455.772 1326.63 453.442C1274.22 450.877 1221.71 448.86 1169.39 444.916C1115.57 440.862 1061.71 434.805 1007.87 429.58C968.157 425.724 928.423 422.076 888.761 417.803C842.126 412.793 795.559 406.948 748.923 401.938C709.289 397.69 669.561 394.485 629.925 390.133C570.094 383.559 510.335 376.412 450.526 369.526C402.593 364.012 354.61 358.76 306.726 352.908C258.842 347.056 211.109 340.473 163.278 334.594C121.965 329.537 80.5796 325.054 39.2435 320.257C28.9298 319.071 18.6139 317.728 8.29873 316.438L8.65613 313.181C19.4231 314.101 30.4265 314.628 41.2263 315.964C76.8032 320.344 112.304 325.064 147.855 329.523C190.947 334.92 233.976 340.24 276.94 345.483C311.95 349.689 347.276 353.423 382.421 357.705C424.569 362.829 466.645 368.63 508.816 373.519C540.915 377.245 573.16 379.824 605.309 383.236C645.697 387.552 686.253 392.333 726.749 396.646C759.059 400.057 791.361 402.843 823.403 406.335C863.038 410.583 902.6 415.429 942.236 419.729C973.955 423.173 1005.72 426.201 1037.49 429.307C1075.85 433.077 1114.19 436.9 1152.61 440.331C1167.22 441.641 1181.93 442.014 1196.62 442.646C1230.01 444.065 1263.39 445.171 1296.77 446.798C1349.63 449.374 1402.5 452.123 1455.38 455.046C1500.23 457.583 1545.06 460.459 1589.92 463.439C1597.35 463.91 1604.66 465.553 1612.04 466.676L1611.84 467.901Z" fill="#49494A" fill-opacity="0.03"/>
<path d="M1602.15 451.485L1733.47 466.113L1732.97 470.256L1601.71 454.742C1601.88 453.647 1602 452.579 1602.15 451.485Z" fill="#49494A" fill-opacity="0.03"/>
<path d="M1763.18 475.75L1858.85 485.791C1858.73 486.807 1858.63 487.823 1858.51 488.813L1763.23 478.949L1763.18 475.75Z" fill="#49494A" fill-opacity="0.03"/>
<path d="M1935.09 504.526L1889.28 496.902C1905.05 498.041 1921.52 495.917 1936.56 500.603C1935.96 501.912 1935.63 503.218 1935.09 504.526Z" fill="#49494A" fill-opacity="0.03"/>
</svg>
