<svg width="38" height="32" viewBox="0 0 38 32" fill="none" xmlns="http://www.w3.org/2000/svg">
<path d="M8.34111 23.8877C7.04809 23.8877 5.99609 24.9398 5.99609 26.2328C5.99609 27.5258 7.04816 28.5778 8.34111 28.5778C9.63412 28.5778 10.6862 27.5257 10.6862 26.2328C10.6861 24.9397 9.63412 23.8877 8.34111 23.8877ZM8.34111 27.2986C7.7533 27.2986 7.27518 26.8205 7.27518 26.2327C7.27518 25.6449 7.7533 25.1668 8.34111 25.1668C8.92892 25.1668 9.40703 25.6449 9.40703 26.2327C9.40703 26.8205 8.92892 27.2986 8.34111 27.2986Z" fill="#44B6AF"/>
<path d="M24.5433 23.8877C23.2502 23.8877 22.1982 24.9398 22.1982 26.2328C22.1982 27.5258 23.2503 28.5778 24.5433 28.5778C25.8363 28.5778 26.8883 27.5257 26.8883 26.2328C26.8883 24.9397 25.8363 23.8877 24.5433 23.8877ZM24.5433 27.2986C23.9554 27.2986 23.4773 26.8205 23.4773 26.2327C23.4773 25.6449 23.9554 25.1668 24.5433 25.1668C25.1311 25.1668 25.6092 25.6449 25.6092 26.2327C25.6093 26.8205 25.1311 27.2986 24.5433 27.2986Z" fill="#44B6AF"/>
<path d="M31.7651 8.77726C32.015 9.02696 32.4198 9.02696 32.6696 8.77726L37.7861 3.66078C38.0359 3.41094 38.0359 3.00604 37.7861 2.75627L35.2279 0.198032C34.978 -0.051663 34.5731 -0.051663 34.3234 0.198032L28.3542 6.16721C28.2343 6.28721 28.1669 6.44982 28.1669 6.61954V10.2436H26.035V0.650284C26.035 0.296976 25.7488 0.0107422 25.3955 0.0107422H10.0461C9.6928 0.0107422 9.40656 0.296976 9.40656 0.650284V10.2436H3.22415C2.87084 10.2436 2.58461 10.5299 2.58461 10.8832V22.182H0.665909C0.312601 22.182 0.0263672 22.4682 0.0263672 22.8215V26.2326C0.0263672 26.5859 0.312601 26.8721 0.665909 26.8721H2.621C2.94029 29.746 5.38306 31.9886 8.34064 31.9886C11.2982 31.9886 13.741 29.746 14.0603 26.8721H18.8231C19.1424 29.746 21.5851 31.9886 24.5427 31.9886C27.5003 31.9886 29.9431 29.746 30.2623 26.8721H32.2175C32.5708 26.8721 32.8571 26.5859 32.8571 26.2326V10.8835C32.8571 10.5302 32.5708 10.244 32.2175 10.244C31.8642 10.244 31.578 10.5302 31.578 10.8835V25.593H30.2619C30.1631 24.7059 29.86 23.8569 29.377 23.1099C29.4209 23.0231 29.4461 22.9254 29.4461 22.8216V6.88443L34.7758 1.55479L36.4296 3.20853L31.7653 7.87268C31.5155 8.12253 31.5155 8.52742 31.7651 8.77726ZM10.6856 1.28983H15.3757V6.61947C15.3757 6.97278 15.662 7.25901 16.0153 7.25901H19.4262C19.7795 7.25901 20.0658 6.97278 20.0658 6.61947V3.20882C20.0658 2.85551 19.7795 2.56928 19.4262 2.56928C19.0729 2.56928 18.7867 2.85551 18.7867 3.20882V5.97993H16.6549V1.28983H24.7559V10.2436H10.6856V1.28983ZM3.86369 11.5227H10.0461H13.6703V16.8524C13.6703 17.2057 13.9565 17.4919 14.3098 17.4919H17.7208C18.0741 17.4919 18.3603 17.2057 18.3603 16.8524V13.4417C18.3603 13.0884 18.0741 12.8022 17.7208 12.8022C17.3674 12.8022 17.0812 13.0884 17.0812 13.4417V16.2128H14.9494V11.5227H25.3955H28.1669V21.7614C27.1485 20.9369 25.8692 20.4765 24.5427 20.4765C22.947 20.4765 21.5012 21.1296 20.4576 22.182H12.4257C11.382 21.1296 9.93627 20.4765 8.34056 20.4765C6.74493 20.4765 5.29909 21.1296 4.25547 22.182H3.86362V11.5227H3.86369ZM2.62093 25.593H1.30545V23.4612H3.22415H3.2976C2.9414 24.1067 2.70601 24.8273 2.62093 25.593ZM8.34064 30.7095C5.87215 30.7095 3.86377 28.7011 3.86377 26.2326C3.86377 23.7641 5.87215 21.7557 8.34064 21.7557C10.8092 21.7557 12.8176 23.7641 12.8176 26.2326C12.8176 28.7012 10.8091 30.7095 8.34064 30.7095ZM18.8232 25.593H14.0603C13.9753 24.8273 13.7399 24.1067 13.3837 23.4612H19.4998C19.1436 24.1067 18.9082 24.8274 18.8232 25.593ZM24.5427 30.7095C22.0742 30.7095 20.0658 28.7011 20.0658 26.2326C20.0658 23.7641 22.0742 21.7557 24.5427 21.7557C25.8146 21.7557 27.0309 22.2996 27.8798 23.2482C28.6148 24.0694 29.0197 25.1293 29.0197 26.2326C29.0197 28.7011 27.0113 30.7095 24.5427 30.7095Z" fill="#44B6AF"/>
</svg>
