<svg width="24" height="25" viewBox="0 0 24 25" fill="none" xmlns="http://www.w3.org/2000/svg">
<path d="M19.2291 15.541L16.6891 15.251C16.3904 15.2159 16.0877 15.249 15.8036 15.3477C15.5196 15.4465 15.2616 15.6083 15.0491 15.821L13.2091 17.661C10.3703 16.2172 8.06284 13.9098 6.61906 11.071L8.46906 9.22102C8.89906 8.79102 9.10906 8.19102 9.03906 7.58102L8.74906 5.06102C8.69237 4.57319 8.45826 4.12325 8.0913 3.79686C7.72434 3.47048 7.25017 3.29043 6.75906 3.29102H5.02906C3.89906 3.29102 2.95906 4.23102 3.02906 5.36102C3.55906 13.901 10.3891 20.721 18.9191 21.251C20.0491 21.321 20.9891 20.381 20.9891 19.251V17.521C20.9991 16.511 20.2391 15.661 19.2291 15.541Z" fill="#04635D"/>
</svg>
