<svg width="22" height="23" viewBox="0 0 22 23" fill="none" xmlns="http://www.w3.org/2000/svg">
<path d="M11 2.34375C6.06418 2.34375 2.0625 6.34543 2.0625 11.2812C2.0625 16.2171 6.06418 20.2188 11 20.2188C15.9358 20.2188 19.9375 16.2171 19.9375 11.2812C19.9375 6.34543 15.9358 2.34375 11 2.34375ZM15.125 12.6562H11C10.8177 12.6562 10.6428 12.5838 10.5139 12.4549C10.3849 12.326 10.3125 12.1511 10.3125 11.9688V5.78125C10.3125 5.59891 10.3849 5.42405 10.5139 5.29511C10.6428 5.16618 10.8177 5.09375 11 5.09375C11.1823 5.09375 11.3572 5.16618 11.4861 5.29511C11.6151 5.42405 11.6875 5.59891 11.6875 5.78125V11.2812H15.125C15.3073 11.2812 15.4822 11.3537 15.6111 11.4826C15.7401 11.6115 15.8125 11.7864 15.8125 11.9688C15.8125 12.1511 15.7401 12.326 15.6111 12.4549C15.4822 12.5838 15.3073 12.6562 15.125 12.6562Z" fill="#04635D"/>
</svg>
