<svg width="101" height="46" viewBox="0 0 101 46" fill="none" xmlns="http://www.w3.org/2000/svg">
<path d="M0 22.6064C0.504549 21.731 1.02676 20.8556 1.53635 19.9777C4.59728 14.7136 7.65484 9.44606 10.709 4.17521C10.7312 4.12817 10.7673 4.08912 10.8124 4.06338C10.8576 4.03764 10.9096 4.02648 10.9613 4.03142C18.025 4.03142 25.0887 4.03142 32.1524 4.03142C32.2088 4.0277 32.2649 4.04144 32.3132 4.07078C32.3615 4.10013 32.3996 4.14364 32.4223 4.19539C34.2942 7.42955 36.1677 10.6629 38.043 13.8953C38.0758 13.9483 38.1035 14.0063 38.1414 14.082L36.6756 14.3343C34.6574 14.6774 32.6594 15.0154 30.6539 15.3636C30.6006 15.3823 30.5422 15.3792 30.4912 15.3552C30.4402 15.3311 30.4008 15.2879 30.3814 15.2349C29.5867 13.7843 28.7845 12.3363 27.9924 10.8857C27.9667 10.822 27.9211 10.7682 27.8625 10.7323C27.804 10.6964 27.7354 10.6803 27.6669 10.6864C23.4842 10.6864 19.3007 10.6864 15.1163 10.6864C15.0511 10.6806 14.9858 10.6955 14.9296 10.729C14.8734 10.7625 14.8293 10.813 14.8035 10.8731C12.7079 14.7127 10.6056 18.5515 8.4966 22.3894C8.4671 22.4335 8.45135 22.4853 8.45135 22.5383C8.45135 22.5913 8.4671 22.6431 8.4966 22.6871C10.6056 26.5301 12.7079 30.3739 14.8035 34.2186C14.8274 34.2765 14.8691 34.3254 14.9226 34.358C14.9761 34.3907 15.0387 34.4055 15.1011 34.4002C19.2906 34.4002 23.4809 34.4002 27.672 34.4002C27.7343 34.4069 27.7972 34.393 27.8509 34.3607C27.9047 34.3283 27.9464 34.2793 27.9697 34.2211C28.3733 33.4643 28.7921 32.7377 29.1932 31.9935C29.2148 31.9378 29.2568 31.8924 29.3107 31.8666C29.3646 31.8408 29.4264 31.8366 29.4833 31.8547L34.3194 32.6797L36.7866 33.101C36.8497 33.101 36.9103 33.1287 36.991 33.1464L36.0979 34.6878C34.8736 36.8018 33.6492 38.9167 32.4248 41.0325C32.3976 41.0919 32.3527 41.1414 32.2962 41.1744C32.2398 41.2073 32.1746 41.2221 32.1095 41.2166C25.071 41.2166 18.0317 41.2166 10.9916 41.2166C10.9232 41.2223 10.8548 41.2063 10.796 41.171C10.7371 41.1357 10.6908 41.0829 10.6636 41.0199C7.15534 34.9468 3.63695 28.8737 0.108478 22.8006C0.0756823 22.7451 0.0353184 22.7048 0 22.6442V22.6064Z" fill="#44B6AF"/>
<path d="M73.5956 0C73.8756 0.138751 74.1506 0.287593 74.4357 0.418775C76.0048 1.14701 77.5756 1.8744 79.1482 2.60095C79.244 2.64636 79.3046 2.68672 79.302 2.81034C79.302 4.29875 79.302 5.78717 79.302 7.27559C79.302 7.31343 79.302 7.35127 79.302 7.39921H67.5385C67.5385 7.34118 67.5259 7.28064 67.5259 7.21757C67.5259 5.76195 67.5259 4.30632 67.5259 2.8507C67.5225 2.79661 67.5366 2.74288 67.5661 2.69744C67.5957 2.652 67.6391 2.61729 67.6899 2.59843C69.5399 1.77937 71.3899 0.953597 73.2399 0.121092C73.3061 0.0871932 73.3701 0.0492813 73.4316 0.00756823L73.5956 0Z" fill="#44B6AF"/>
<path d="M64.4658 36.6071L64.877 35.9689C65.4926 35.0119 66.1081 34.055 66.7237 33.098C66.7495 33.0474 66.7895 33.0055 66.8388 32.9773C66.8881 32.9491 66.9445 32.9358 67.0012 32.9391C68.1415 32.9391 69.2717 32.9113 70.4195 32.9012C70.4696 32.9024 70.5189 32.8886 70.5611 32.8617C70.6034 32.8347 70.6366 32.7958 70.6566 32.7499L75.5785 23.8597C75.7854 23.4864 75.9973 23.1029 76.1966 22.7371C76.2128 22.6997 76.2212 22.6593 76.2212 22.6185C76.2212 22.5777 76.2128 22.5374 76.1966 22.5C74.3466 19.1548 72.4966 15.813 70.6465 12.4746C70.6234 12.4404 70.5932 12.4117 70.5579 12.3903C70.5227 12.369 70.4832 12.3556 70.4422 12.351C69.3499 12.3257 68.255 12.3056 67.1626 12.298C67.0611 12.3049 66.9597 12.2827 66.8703 12.234C66.7809 12.1853 66.7073 12.1121 66.6581 12.023C65.9896 10.9559 65.2983 9.90138 64.6147 8.8393C64.5768 8.78128 64.5415 8.72073 64.491 8.64001C64.5428 8.63135 64.595 8.62546 64.6475 8.62235H79.8571C79.9085 8.6172 79.9603 8.62799 80.0055 8.65326C80.0506 8.67853 80.0868 8.71705 80.1093 8.76362C82.7515 13.3214 85.3945 17.88 88.0383 22.4394C88.0767 22.4941 88.0972 22.5593 88.0972 22.6261C88.0972 22.6929 88.0767 22.7581 88.0383 22.8128L80.4751 35.7797C80.3465 36.0042 80.2229 36.2237 80.0892 36.4532C80.0681 36.5063 80.0297 36.5506 79.9803 36.579C79.9308 36.6074 79.8731 36.6182 79.8167 36.6097C78.2097 36.6097 76.6053 36.6097 74.9983 36.6097H64.4658V36.6071Z" fill="#44B6AF"/>
<path d="M83.3365 12.1646H83.5585C87.2585 12.1646 90.9586 12.1646 94.6586 12.1646C94.7242 12.1582 94.7901 12.1725 94.8471 12.2056C94.9041 12.2386 94.9493 12.2887 94.9764 12.3487C96.9089 15.6888 98.843 19.0281 100.779 22.3665C100.819 22.4234 100.84 22.4913 100.84 22.5608C100.84 22.6303 100.819 22.6981 100.779 22.755C98.848 26.0851 96.9139 29.4226 94.9764 32.7678C94.9483 32.8303 94.9013 32.8824 94.842 32.9168C94.7827 32.9511 94.7142 32.9661 94.646 32.9595C90.956 32.9595 87.2644 32.9595 83.5711 32.9595H83.334C83.3743 32.8838 83.3971 32.8334 83.4273 32.788C83.9319 31.9883 84.4591 31.1911 84.9712 30.3889C84.9948 30.3422 85.0309 30.3031 85.0754 30.2759C85.12 30.2487 85.1713 30.2345 85.2235 30.235C85.7104 30.235 86.1948 30.235 86.6791 30.2148C87.0096 30.2148 87.3401 30.2022 87.6706 30.2022C87.7275 30.2055 87.7842 30.1913 87.8329 30.1616C87.8816 30.1318 87.92 30.0879 87.943 30.0357C89.2885 27.5836 90.6432 25.134 92.0072 22.6869C92.0252 22.6473 92.0345 22.6043 92.0345 22.5608C92.0345 22.5173 92.0252 22.4743 92.0072 22.4346C90.6516 19.9775 89.2935 17.522 87.9329 15.0682C87.912 15.0198 87.8764 14.9791 87.8312 14.952C87.7859 14.9248 87.7333 14.9125 87.6807 14.9169C87.2089 14.9169 86.7372 14.9169 86.2654 14.8992C85.8971 14.8992 85.5263 14.8866 85.1579 14.8689C85.0918 14.8621 85.0311 14.8295 84.9889 14.7781C84.4415 13.938 83.9016 13.0955 83.3592 12.2554C83.349 12.2258 83.3414 12.1954 83.3365 12.1646Z" fill="#44B6AF"/>
<path d="M21.4664 15.53C22.7278 15.53 23.9892 15.53 25.2354 15.53C25.2945 15.5235 25.3541 15.5362 25.4054 15.5662C25.4567 15.5962 25.497 15.6418 25.5205 15.6965C26.7802 17.9535 28.0415 20.2096 29.3046 22.465C29.3366 22.5113 29.3537 22.5663 29.3537 22.6226C29.3537 22.679 29.3366 22.734 29.3046 22.7803C28.0348 25.0407 26.7734 27.3028 25.5205 29.5665C25.4995 29.6149 25.4639 29.6556 25.4187 29.6828C25.3734 29.7099 25.3208 29.7222 25.2682 29.7179C22.7454 29.7179 20.2227 29.7179 17.7 29.7179C17.6485 29.7256 17.5959 29.7162 17.5504 29.6911C17.5048 29.6661 17.4687 29.6267 17.4477 29.5791C16.1745 27.3002 14.8997 25.0239 13.6232 22.75C13.5989 22.7125 13.5859 22.6687 13.5859 22.6239C13.5859 22.5791 13.5989 22.5353 13.6232 22.4978C14.8896 20.2307 16.151 17.9602 17.4073 15.6864C17.4292 15.6343 17.468 15.591 17.5174 15.5636C17.5668 15.5361 17.624 15.5261 17.6798 15.535C18.9538 15.5325 20.2101 15.53 21.4664 15.53Z" fill="white"/>
<path d="M67.5364 37.8408H79.2924C79.2924 37.914 79.2924 37.977 79.2924 38.0401C79.2924 39.4882 79.2924 40.9387 79.2924 42.3893C79.296 42.4431 79.2822 42.4966 79.2532 42.542C79.2241 42.5874 79.1813 42.6223 79.131 42.6416C77.3095 43.4825 75.4915 44.3234 73.6768 45.1643C73.624 45.1924 73.5651 45.2071 73.5052 45.2071C73.4454 45.2071 73.3865 45.1924 73.3337 45.1643L67.6878 42.6416C67.5919 42.5987 67.5112 42.5684 67.5137 42.4272C67.5137 40.9261 67.5137 39.4251 67.5137 37.9241C67.5263 37.9039 67.5314 37.8787 67.5364 37.8408Z" fill="#44B6AF"/>
<path d="M60.041 27.2175H58.5274C58.5274 27.1519 58.5022 27.0888 58.4921 27.0258C58.487 26.9468 58.4521 26.8727 58.3945 26.8184C58.337 26.7641 58.2609 26.7336 58.1818 26.7331C57.3303 26.6562 56.4732 26.6663 55.6237 26.7634C55.5324 26.7698 55.4462 26.8078 55.3799 26.8709C55.3136 26.9339 55.2714 27.0182 55.2604 27.109C55.1646 27.6311 55.1646 28.1662 55.2604 28.6883C55.2669 28.7969 55.3146 28.899 55.3939 28.9735C55.4732 29.0481 55.578 29.0896 55.6868 29.0894C56.4234 29.1146 57.1601 29.1272 57.8967 29.1424C57.9547 29.1424 58.0128 29.1424 58.0708 29.1424C58.4189 29.1222 58.5047 29.0313 58.5123 28.6378H56.6757V27.5555H59.9906C59.9906 27.9466 60.0082 28.3376 59.9906 28.7286C59.9632 29.0377 59.9143 29.3446 59.8443 29.6469C59.827 29.7939 59.7605 29.9307 59.6556 30.0351C59.5507 30.1396 59.4136 30.2055 59.2666 30.2221C58.7133 30.3168 58.1547 30.3766 57.594 30.4012C56.7014 30.4168 55.8087 30.3831 54.9199 30.3003C54.042 30.2095 53.9108 30.048 53.7745 29.1625C53.6383 28.2522 53.6536 27.3256 53.82 26.4203C53.8384 26.2085 53.9315 26.01 54.0825 25.8604C54.2336 25.7107 54.4329 25.6195 54.6449 25.6029C55.1463 25.525 55.6516 25.4753 56.1585 25.4541C57.0516 25.4541 57.9446 25.4768 58.8352 25.5273C59.6147 25.5727 59.8569 25.8174 59.9805 26.5818C60.0133 26.7811 60.0158 26.993 60.041 27.2175Z" fill="white"/>
<path d="M64.6353 30.4521C63.8154 30.4041 63.1822 30.3915 62.5515 30.3284C61.9208 30.2654 61.4794 29.9929 61.4138 29.2563C61.3099 28.3228 61.3285 27.3797 61.4693 26.451C61.4877 26.2262 61.5867 26.0157 61.748 25.8581C61.9093 25.7005 62.1221 25.6065 62.3472 25.5933C62.8517 25.5378 63.3563 25.4646 63.8608 25.4495C64.7796 25.4011 65.701 25.4374 66.6131 25.5579C67.37 25.674 67.5566 25.8455 67.6828 26.5872C67.8395 27.506 67.8352 28.445 67.6702 29.3622C67.5667 29.9551 67.3725 30.1695 66.7796 30.2477C66.0152 30.3537 65.2332 30.3991 64.6353 30.4521ZM64.5647 29.1907C64.986 29.1579 65.4098 29.1276 65.826 29.0898C65.9212 29.0873 66.0122 29.0504 66.0823 28.9859C66.1523 28.9214 66.1966 28.8338 66.207 28.7391C66.3054 28.2114 66.3054 27.67 66.207 27.1422C66.1965 27.0387 66.1482 26.9427 66.0715 26.8724C65.9947 26.8022 65.8948 26.7626 65.7907 26.7613C64.9688 26.6616 64.1378 26.6616 63.3159 26.7613C63.2147 26.765 63.1182 26.805 63.044 26.874C62.9699 26.943 62.9231 27.0365 62.9123 27.1372C62.8176 27.6661 62.8176 28.2077 62.9123 28.7366C62.9222 28.8343 62.9679 28.9249 63.0405 28.991C63.1131 29.0571 63.2076 29.0941 63.3058 29.0948L64.5647 29.1907Z" fill="white"/>
<path d="M66.4163 20.7898V22.1647H64.9229V17.2832H69.3932H69.5672C70.377 17.3437 70.7151 17.6843 70.763 18.4941C70.7781 18.7066 70.7781 18.9199 70.763 19.1324C70.7252 19.5915 70.599 19.7782 70.1727 20.0658C70.1727 20.0658 70.1727 20.0935 70.1903 20.0961C70.6545 20.2676 70.8084 20.6208 70.7907 21.09C70.7781 21.4432 70.7907 21.7989 70.7907 22.1622H69.2771C69.2771 21.9099 69.2771 21.6576 69.2771 21.4054C69.2771 20.9437 69.1182 20.7822 68.6616 20.7797H66.6005C66.545 20.7797 66.4869 20.7873 66.4163 20.7898ZM66.4163 19.5284C66.7216 19.5284 67.0066 19.5284 67.2892 19.5284C67.8063 19.5284 68.3235 19.5284 68.8407 19.5284C68.9996 19.5284 69.1686 19.4931 69.2166 19.314C69.3225 18.9129 69.3023 18.5042 68.712 18.5193C68.0006 18.5395 67.2892 18.5193 66.5803 18.5193C66.5298 18.5193 66.4794 18.5193 66.4239 18.5193L66.4163 19.5284Z" fill="white"/>
<path d="M51.4944 28.2164C51.5221 28.2442 51.5322 28.2644 51.5474 28.2694C51.9989 28.4359 52.1427 28.7739 52.1276 29.2331C52.1276 29.5938 52.1276 29.9546 52.1276 30.3254H50.6139C50.6139 30.116 50.6139 29.9067 50.6139 29.6948C50.6152 29.5852 50.6101 29.4757 50.5988 29.3668C50.5976 29.3078 50.5844 29.2497 50.5599 29.196C50.5355 29.1422 50.5004 29.0941 50.4567 29.0544C50.413 29.0147 50.3617 28.9844 50.3059 28.9652C50.2501 28.9461 50.1909 28.9385 50.1321 28.943C49.35 28.943 48.5655 28.943 47.7607 28.943V30.3254H46.2471V25.4414H50.7073C50.856 25.4426 51.0045 25.4553 51.1513 25.4792C51.734 25.5751 52.0317 25.8551 52.0923 26.4455C52.1204 26.8055 52.1094 27.1675 52.0595 27.5252C52.0378 27.6812 51.9736 27.8282 51.8739 27.9501C51.7743 28.0721 51.6429 28.1642 51.4944 28.2164ZM47.7708 27.6942H48.2022H50.18C50.3465 27.6942 50.5231 27.6665 50.5711 27.4773C50.6795 27.0585 50.6442 26.67 50.0539 26.6851C49.3425 26.7053 48.6311 26.6851 47.9222 26.6851C47.8717 26.6851 47.8238 26.6851 47.7708 26.6851V27.6942Z" fill="white"/>
<path d="M49.5217 18.4463H45.8057V19.1728H49.3577V20.3383H45.8032V20.9968H49.5217V22.1572H44.3047V17.2959H49.5217V18.4463Z" fill="white"/>
<path d="M63.4617 19.1728V20.3434H59.9096V20.9917H63.6256V22.1547H58.4111V17.2959H63.6307V18.4437H59.9122V19.1728H63.4617Z" fill="white"/>
<path d="M38.0303 30.3362C38.2674 29.8493 38.4894 29.3927 38.7165 28.9361C39.2614 27.8286 39.8139 26.7236 40.3537 25.6161C40.3751 25.557 40.416 25.5071 40.4697 25.4745C40.5234 25.4419 40.5866 25.4287 40.6489 25.437C41.3855 25.437 42.1247 25.437 42.8613 25.437C42.9048 25.4301 42.9494 25.4383 42.9875 25.4604C43.0257 25.4824 43.055 25.5169 43.0707 25.5581C43.8427 27.1222 44.6155 28.6855 45.3891 30.2479C45.3891 30.2655 45.4017 30.2832 45.4169 30.321C45.374 30.3232 45.3311 30.3232 45.2882 30.321C44.7837 30.321 44.3043 30.321 43.8124 30.321C43.7715 30.3169 43.732 30.3042 43.6963 30.2838C43.6607 30.2634 43.6298 30.2356 43.6055 30.2025C43.4844 30.0208 43.3911 29.8165 43.27 29.6349C43.2454 29.6021 43.2143 29.5747 43.1787 29.5543C43.1432 29.534 43.1039 29.521 43.0631 29.5163C42.1777 29.5163 41.2972 29.5163 40.4042 29.5163C40.357 29.511 40.3093 29.5212 40.2684 29.5453C40.2274 29.5694 40.1954 29.6061 40.1771 29.65C40.0762 29.8468 39.9677 30.0385 39.8517 30.2227C39.8311 30.2517 39.8048 30.2762 39.7744 30.2949C39.7441 30.3135 39.7103 30.3258 39.6751 30.3311C39.1378 30.3387 38.5979 30.3362 38.0303 30.3362ZM42.6343 28.2549C42.382 27.6848 42.1297 27.1348 41.8775 26.5849C41.822 26.4663 41.6403 26.4915 41.5798 26.6227C41.4486 26.9027 41.3275 27.1853 41.1913 27.4678L40.8179 28.2549H42.6343Z" fill="white"/>
<path d="M37.4298 19.1876H35.9994C35.9641 19.1876 35.9263 19.1876 35.891 19.1876C35.7976 18.7209 35.7446 18.6477 35.3057 18.5948C34.6631 18.5102 34.0119 18.5153 33.3707 18.6099C33.27 18.6163 33.1749 18.6589 33.1031 18.7298C33.0312 18.8007 32.9874 18.8952 32.9797 18.9959C32.8876 19.5259 32.8876 20.0678 32.9797 20.5978C32.9878 20.6885 33.0276 20.7735 33.0922 20.8377C33.1569 20.9018 33.2421 20.9411 33.3329 20.9485C34.0131 21.0456 34.7037 21.0456 35.3839 20.9485C35.732 20.9031 35.8254 20.782 35.8657 20.4263C35.8657 20.396 35.8657 20.3632 35.8657 20.3254H37.3642C37.3895 20.7787 37.3199 21.2324 37.1599 21.6574C37.1138 21.7658 37.0398 21.86 36.9454 21.9305C36.851 22.0009 36.7396 22.0451 36.6226 22.0585C36.1017 22.1496 35.5761 22.2119 35.0484 22.2452C34.2062 22.3019 33.3603 22.2672 32.5256 22.1417C32.3944 22.1165 32.2734 22.0761 32.1321 22.0408C32.0038 22.0141 31.8859 21.9508 31.7928 21.8586C31.6997 21.7664 31.6353 21.6492 31.6073 21.5211C31.5133 21.1132 31.4468 20.6993 31.408 20.2825C31.3478 19.5992 31.3878 18.9108 31.5266 18.2391C31.5523 18.038 31.6444 17.8513 31.7884 17.7087C31.9324 17.566 32.12 17.4757 32.3213 17.452C32.7083 17.3807 33.0992 17.3319 33.4918 17.3056C34.4296 17.2419 35.3714 17.2758 36.3022 17.4065C36.4353 17.429 36.5667 17.4602 36.6957 17.4999C36.8238 17.5276 36.9414 17.5912 37.0348 17.6832C37.1281 17.7752 37.1934 17.8919 37.223 18.0196C37.3087 18.3879 37.3592 18.7713 37.4298 19.1876Z" fill="white"/>
<path d="M35.8809 28.4797H37.3794C37.4021 28.921 37.3378 29.3624 37.1902 29.7789C37.1457 29.8945 37.0709 29.996 36.9737 30.0728C36.8765 30.1495 36.7605 30.1988 36.6377 30.2154C36.2002 30.3005 35.7579 30.3595 35.3133 30.392C34.3875 30.4602 33.4571 30.4281 32.5383 30.2961C32.4046 30.2734 32.286 30.2305 32.1422 30.1952C32.0142 30.1683 31.8968 30.105 31.8041 30.0127C31.7114 29.9205 31.6475 29.8033 31.62 29.6755C31.5248 29.2678 31.4582 28.8539 31.4207 28.4368C31.3606 27.7527 31.4005 27.0635 31.5393 26.3909C31.5644 26.1933 31.6542 26.0097 31.7948 25.8686C31.9354 25.7276 32.1188 25.6371 32.3163 25.6114C32.7098 25.5379 33.1075 25.4882 33.507 25.4625C34.437 25.3977 35.3711 25.4289 36.2946 25.5559H36.3274C37.006 25.6719 37.2129 25.8687 37.3365 26.5448C37.3794 26.797 37.3845 27.0493 37.4097 27.3293H35.896C35.8103 26.8702 35.7598 26.7996 35.3309 26.7415C34.6832 26.6507 34.026 26.6507 33.3783 26.7415C33.2774 26.7485 33.1823 26.7916 33.1105 26.863C33.0387 26.9343 32.995 27.0291 32.9873 27.13C32.8952 27.6601 32.8952 28.202 32.9873 28.732C32.9955 28.8228 33.0358 28.9078 33.101 28.9716C33.1662 29.0354 33.252 29.0739 33.343 29.0801C34.0125 29.1736 34.6917 29.1736 35.3612 29.0801C35.7497 29.0599 35.8229 28.9489 35.8809 28.4797Z" fill="white"/>
<path d="M50.5332 17.2857C51.0882 17.2857 51.623 17.2857 52.1579 17.2857C52.2083 17.2857 52.2739 17.374 52.3042 17.4371C52.8642 18.542 53.4192 19.652 53.9793 20.757C54.0182 20.819 54.0639 20.8766 54.1155 20.9286C54.1733 20.8764 54.2242 20.8171 54.2669 20.752C54.8185 19.6638 55.3685 18.5706 55.9167 17.4724C55.9404 17.4045 55.9866 17.3466 56.0476 17.3086C56.1086 17.2705 56.1808 17.2544 56.2523 17.263C56.7316 17.2781 57.2084 17.263 57.7129 17.263C57.6827 17.3336 57.665 17.3841 57.6398 17.4346C56.8729 18.9633 56.1059 20.493 55.339 22.0234C55.3232 22.0681 55.2926 22.1061 55.2522 22.1309C55.2117 22.1557 55.164 22.1658 55.117 22.1596C54.451 22.1596 53.785 22.1596 53.119 22.1596C53.0814 22.1569 53.0448 22.1457 53.0121 22.1269C52.9793 22.1081 52.9512 22.0823 52.9298 22.0512C52.1427 20.5022 51.3607 18.9507 50.5837 17.3967C50.566 17.3765 50.5559 17.3387 50.5332 17.2857Z" fill="white"/>
<path d="M39.9302 20.9387H43.3132V22.1648H38.4443V17.2959H39.9302V20.9387Z" fill="white"/>
</svg>
