<svg width="66" height="67" viewBox="0 0 66 67" fill="none" xmlns="http://www.w3.org/2000/svg">
<path d="M33 32.4414C31.1766 32.4414 29.428 31.7171 28.1386 30.4278C26.8493 29.1385 26.125 27.3898 26.125 25.5664C26.125 23.743 26.8493 21.9944 28.1386 20.705C29.428 19.4157 31.1766 18.6914 33 18.6914C34.8234 18.6914 36.572 19.4157 37.8614 20.705C39.1507 21.9944 39.875 23.743 39.875 25.5664C39.875 26.4692 39.6972 27.3632 39.3517 28.1974C39.0062 29.0315 38.4998 29.7894 37.8614 30.4278C37.223 31.0662 36.4651 31.5726 35.6309 31.9181C34.7968 32.2636 33.9028 32.4414 33 32.4414ZM33 6.31641C27.8946 6.31641 22.9983 8.34453 19.3882 11.9546C15.7781 15.5647 13.75 20.461 13.75 25.5664C13.75 40.0039 33 61.3164 33 61.3164C33 61.3164 52.25 40.0039 52.25 25.5664C52.25 20.461 50.2219 15.5647 46.6118 11.9546C43.0017 8.34453 38.1054 6.31641 33 6.31641Z" fill="#04635D"/>
</svg>
