<svg width="34" height="35" viewBox="0 0 34 35" fill="none" xmlns="http://www.w3.org/2000/svg">
<g clip-path="url(#clip0_2157_1007)">
<path d="M14.3346 9.4698L9.17828 13.4273C8.23152 14.154 7.6122 15.227 7.45655 16.4103C7.30091 17.5935 7.6217 18.7902 8.34835 19.737C9.075 20.6837 10.148 21.303 11.3313 21.4587C12.5145 21.6143 13.7112 21.2935 14.658 20.5669L20.2109 16.3049C20.7369 15.9012 21.4017 15.723 22.0591 15.8095C22.7165 15.896 23.3126 16.24 23.7163 16.766C24.12 17.292 24.2982 17.9568 24.2117 18.6142C24.1253 19.2715 23.7812 19.8676 23.2552 20.2713L17.964 24.3324C17.3705 23.9465 16.6596 23.7829 15.9571 23.8705C15.2546 23.958 14.6056 24.2911 14.125 24.8109C13.6443 25.3307 13.3629 26.0036 13.3304 26.7109C13.298 27.4181 13.5166 28.114 13.9476 28.6756C14.3787 29.2372 14.9944 29.6283 15.6859 29.7799C16.3775 29.9314 17.1003 29.8336 17.7267 29.5037C18.3531 29.1738 18.8427 28.633 19.109 27.9771C19.3752 27.3211 19.401 26.5921 19.1817 25.919L24.4729 21.8579C25.4197 21.1313 26.039 20.0583 26.1946 18.875C26.3503 17.6917 26.0295 16.4951 25.3028 15.5483C24.5762 14.6015 23.5032 13.9822 22.3199 13.8266C21.1366 13.6709 19.94 13.9917 18.9932 14.7184L13.4403 18.9803C12.9143 19.384 12.2495 19.5622 11.5921 19.4758C10.9347 19.3893 10.3386 19.0452 9.93491 18.5193C9.53122 17.9933 9.353 17.3285 9.43947 16.6711C9.52594 16.0137 9.87001 15.4176 10.396 15.0139L15.5523 11.0564L17.3789 13.4362L18.9099 7.21882L12.5081 7.08995L14.3346 9.4698Z" fill="white"/>
</g>
<defs>
<clipPath id="clip0_2157_1007">
<rect width="24" height="24" fill="white" transform="matrix(0.608853 0.793283 0.793283 -0.608853 0 15.4297)"/>
</clipPath>
</defs>
</svg>
