<svg width="17" height="17" viewBox="0 0 17 17" fill="none" xmlns="http://www.w3.org/2000/svg">
<path fill-rule="evenodd" clip-rule="evenodd" d="M16.3085 0.981282C16.2648 0.875974 16.2009 0.780253 16.1204 0.699532L16.1169 0.696032C15.9531 0.532752 15.7312 0.441168 15.5 0.441407H10.25C10.0179 0.441407 9.79538 0.533594 9.63128 0.697688C9.46719 0.861783 9.375 1.08434 9.375 1.31641C9.375 1.54847 9.46719 1.77103 9.63128 1.93512C9.79538 2.09922 10.0179 2.19141 10.25 2.19141H13.3878L7.00638 8.57278C6.9228 8.6535 6.85614 8.75005 6.81029 8.8568C6.76443 8.96356 6.74029 9.07837 6.73928 9.19456C6.73827 9.31074 6.76041 9.42596 6.80441 9.53349C6.8484 9.64103 6.91337 9.73872 6.99553 9.82088C7.07769 9.90303 7.17538 9.96801 7.28292 10.012C7.39045 10.056 7.50567 10.0781 7.62185 10.0771C7.73803 10.0761 7.85285 10.052 7.9596 10.0061C8.06636 9.96026 8.16291 9.8936 8.24362 9.81003L14.625 3.42866V6.56641C14.625 6.79847 14.7172 7.02103 14.8813 7.18512C15.0454 7.34922 15.2679 7.44141 15.5 7.44141C15.7321 7.44141 15.9546 7.34922 16.1187 7.18512C16.2828 7.02103 16.375 6.79847 16.375 6.56641V1.31378C16.3747 1.19967 16.3522 1.08671 16.3085 0.981282ZM0.625 4.81641C0.625 3.65608 1.08594 2.54329 1.90641 1.72281C2.72688 0.902343 3.83968 0.441407 5 0.441407H5.875C6.10706 0.441407 6.32962 0.533594 6.49372 0.697688C6.65781 0.861783 6.75 1.08434 6.75 1.31641C6.75 1.54847 6.65781 1.77103 6.49372 1.93512C6.32962 2.09922 6.10706 2.19141 5.875 2.19141H5C4.30381 2.19141 3.63613 2.46797 3.14384 2.96025C2.65156 3.45253 2.375 4.12021 2.375 4.81641V11.8164C2.375 12.5126 2.65156 13.1803 3.14384 13.6726C3.63613 14.1648 4.30381 14.4414 5 14.4414H12C12.6962 14.4414 13.3639 14.1648 13.8562 13.6726C14.3484 13.1803 14.625 12.5126 14.625 11.8164V10.9414C14.625 10.7093 14.7172 10.4868 14.8813 10.3227C15.0454 10.1586 15.2679 10.0664 15.5 10.0664C15.7321 10.0664 15.9546 10.1586 16.1187 10.3227C16.2828 10.4868 16.375 10.7093 16.375 10.9414V11.8164C16.375 12.9767 15.9141 14.0895 15.0936 14.91C14.2731 15.7305 13.1603 16.1914 12 16.1914H5C3.83968 16.1914 2.72688 15.7305 1.90641 14.91C1.08594 14.0895 0.625 12.9767 0.625 11.8164V4.81641Z" fill="#04635D"/>
</svg>
